<svg xmlns="http://www.w3.org/2000/svg" width="381.46" height="256.824" viewBox="0 0 381.46 256.824">
  <g id="are-you-a-true-local-logo" transform="translate(-518.967 -258.614)">
    <path id="Path_643" data-name="Path 643" d="M663.106,448.025c4.176.293,9.449-.617,15.951-3.354,14.862-8.791,22.34-18.04,29.332-28.335.892-3.019,1.754-5.914,2.522-8.483-9.15,13.8-16.128,25.678-34.959,36.818a40.237,40.237,0,0,1-12.845,3.354m7.283-13.075c-1.382-1.63-3.207-5.29,3.473-9.127h-3.1c-7.7,4.422-4.1,8.61-2.906,9.724A10.511,10.511,0,0,0,670.389,434.95Zm69.472-49.49-3.133.061c-7.7,16.7-15.721,42.741-18.432,60.326h3.1C724.116,428.241,732.149,402.153,739.861,385.46Z" transform="translate(-45.508 -40.048)" fill="#6bc4e8" fill-rule="evenodd"/>
    <path id="Path_644" data-name="Path 644" d="M781.836,451.142c.071.019.143.038.218.055l-.218.034Zm3.137-14.4a12.817,12.817,0,0,0-6.251,9.626,5.219,5.219,0,0,0,1.442,3.876,13.178,13.178,0,0,1-2.469.468c-2.3-1.345-2.077-4.344-2.077-4.344.894-6.8,5.782-9.81,9.356-11.111Zm3.874-1.746c-.38.121-.784.261-1.2.425V434.5c.742-.152,1.2-.2,1.2-.2Zm7.855-8.067v-4.457a20.008,20.008,0,0,0-3.092-.128v2.23H793.6v2.355l-.038.621h2.051c16.547,0,10.08,29.619-13.8,31.046.229.017.456.034.692.048,25.841.507,33.3-31.094,16.209-31.094h-2.051Z" transform="translate(-81.028 -51.69)" fill="#6bc4e8" fill-rule="evenodd"/>
    <path id="Path_645" data-name="Path 645" d="M779.22,436.967V434.3s-11.792,1.11-13.23,12.064c0,0-.575,7.845,9.851,3.848,0,0,7.692-3.7,7.836-9.472,0,0-.432-4.219-2.732-3.775Zm4.75-10.04v-4.457s-18.827-2.8-27.083,16.893c0,0-7.754,18.138,12.886,19.278,25.841.508,33.3-31.092,16.209-31.092h-2.051Z" transform="translate(-74.666 -51.69)" fill="#002677" fill-rule="evenodd"/>
    <path id="Path_646" data-name="Path 646" d="M927.383,457.661h3.105l15.162-35.025h-3.105Zm-12.27-.379q.628-.274,1.265-.614l-.12-2.058a16,16,0,0,1-2.971,2.05h1.826Zm-8.246,1.455c.3.068.6.131.922.18a18.718,18.718,0,0,0,4.77-.727l-.066-1.129A19.985,19.985,0,0,1,906.868,458.737Zm11.917-27.378c-7.383,2.7-13.713,14.217-9.659,17.218.376-.053.772-.127,1.2-.226a6.886,6.886,0,0,0,1.26-.441c-2.505-3.694,3.118-13.556,9.847-16.367a1.817,1.817,0,0,0,.5-.524A21.6,21.6,0,0,0,918.785,431.359Zm5.871-9.048a28.276,28.276,0,0,0-2.929.417c1.681,3.963,2.962,5.822,3.156,6.75.558-1.306,1.041-2.5,1.436-3.516C925.835,424.985,925.27,423.786,924.656,422.311Z" transform="translate(-122.468 -51.682)" fill="#6bc4e8" fill-rule="evenodd"/>
    <path id="Path_647" data-name="Path 647" d="M911.784,422.311c-24.316,2.14-33.973,33.942-16.866,36.606a18.969,18.969,0,0,0,11.573-4.307l.179,3.051h10.946l15.162-35.025H921.653s-8.163,24.169-17.225,26.322c-13.362,3.156-2.845-17.392,7.177-18.3,5.6-.51,3.687.094.179-8.344" transform="translate(-115.966 -51.682)" fill="#002677" fill-rule="evenodd"/>
    <path id="Path_648" data-name="Path 648" d="M724.612,385.46l-21.624.421s-32.026,55.328-46.947,49.954c0,0-6.421-4.847,2.571-10.012H643.227c-13.879,0-12.263,32.676,20.58,18.849,22.607-13.372,28.13-27.805,40.839-45.363h.564c-2.344,7.8-13,42.909-12.969,46.539h13.91c2.715-17.607,10.749-43.694,18.461-60.387" transform="translate(-36.628 -40.048)" fill="#002677" fill-rule="evenodd"/>
    <path id="Path_649" data-name="Path 649" d="M870.594,485.1l.506-.664-3.6.665Z" transform="translate(-110.039 -71.298)" fill="#82a6ad" fill-rule="evenodd"/>
    <path id="Path_650" data-name="Path 650" d="M847.358,414.5l3.112-.028-1.956,7.665-4.029,3.621Zm1.463,22.084-4.862,3.384s-1.817,6.538-1.559,6.878h-3.1c-.26-.34,1.557-6.878,1.557-6.878l7.036-4.9A13.577,13.577,0,0,1,848.821,436.584ZM872.779,452.7l-11.1,2.043-.089-.556,8.081-1.487c-3.092-9.223-5.012-17.089-10.741-25.747l33.748-34.629-3.533-2.656-.01-.007-.117-.088v0l-1.666-1.291,1.413.018h1.665v.006l5.351,4.021L862.04,426.956C867.767,435.614,869.687,443.48,872.779,452.7Z" transform="translate(-101.127 -40.939)" fill="#6bc4e8" fill-rule="evenodd"/>
    <path id="Path_651" data-name="Path 651" d="M859.342,452.951l-11.1,2.043-.353-2.179c-5.6-21.111-8.466-18.8-8.466-18.8l-8.906,6.2s-1.816,6.538-1.557,6.878H816.886l9.349-32.279,10.8-.1L832.98,430.6l43.711-41.531,5.351,4.022L848.6,427.2c5.729,8.658,7.651,16.525,10.74,25.747" transform="translate(-94.059 -41.187)" fill="#002677" fill-rule="evenodd"/>
    <path id="Path_652" data-name="Path 652" d="M972.755,414.772s-4.485-2.251-5.294-2.22a5.113,5.113,0,0,0-3.319,2.729c-.987,1.742-20.507,34.481-20.507,34.481l10.587,3.811,17.815-29.98s1.794-1.863,1.885,1.631l.089,3.5v19.325h11.305V397.6c.454-9.374-14.566-4.109-20.726-3.153v5.563s10.857-5.89,10.677,2.821-.9,11.877-.9,11.877Z" transform="translate(-134.076 -42.149)" fill="#002677" fill-rule="evenodd"/>
    <path id="Path_653" data-name="Path 653" d="M977.393,400a20.359,20.359,0,0,1,2.477-1.082,3.406,3.406,0,0,0-.854-.443A18.465,18.465,0,0,0,974.4,400Zm17.589,48.049h3.1V397.6c.235-4.832-3.644-5.775-8.3-5.422,3.144.3,5.377,1.722,5.2,5.422Zm-31.07,5.511,3.081.017,12.81-21.559V428.72l-.048-1.848Zm16.569-40.967a1.329,1.329,0,0,0-.212-.037h-2.654c.744.321,1.785.8,2.708,1.23C980.371,413.471,980.425,413.076,980.482,412.59Z" transform="translate(-140.479 -42.149)" fill="#6bc4e8" fill-rule="evenodd"/>
    <path id="Path_654" data-name="Path 654" d="M804.115,410.353h3.1l7.638-10.961h-3.105Z" transform="translate(-90.027 -44.446)" fill="#6bc4e8" fill-rule="evenodd"/>
    <path id="Path_655" data-name="Path 655" d="M797.2,410.352l7.638-10.961h-8.847l-3.447,10.962Z" transform="translate(-86.372 -44.446)" fill="#002677" fill-rule="evenodd"/>
    <path id="Path_656" data-name="Path 656" d="M571.429,389.955V404.85h-1.715V389.955Zm7.247-4.422h1.714v3.777h-1.714Z" transform="translate(-16.022 -40.071)" fill="#6bc4e8" fill-rule="evenodd"/>
    <path id="Path_657" data-name="Path 657" d="M544.509,385.533h25.065v3.777h-8.962V404.85h-7.14V389.31h-8.963Z" transform="translate(-8.064 -40.071)" fill="#002677" fill-rule="evenodd"/>
    <path id="Path_658" data-name="Path 658" d="M685.758,385.533h1.715l4.4,6.224-.83,1.252Zm9.293,11.434v7.882h-1.715v-7.882h.062l7.608-11.434h1.714l-7.606,11.434h-.064Z" transform="translate(-52.659 -40.071)" fill="#6bc4e8" fill-rule="evenodd"/>
    <path id="Path_659" data-name="Path 659" d="M688.431,396.968v7.882h-6.918v-7.882h-.062l-7.607-11.434h7.008l6.24,8.829,5.864-8.829H696.1l-7.607,11.434h-.063Z" transform="translate(-48.898 -40.071)" fill="#002677" fill-rule="evenodd"/>
    <path id="Path_660" data-name="Path 660" d="M600.97,397.143v-7.129c-.614.014-1.2.047-1.715.071v6.988c.515.025,1.1.056,1.715.071M601,402.1V405h-1.715V402.1Zm10.554-16.386c4.448.3,7.953,3.7,7.953,7.859s-3.513,7.563-7.964,7.861a9.84,9.84,0,0,0,2.078-1.1,7.56,7.56,0,0,0,0-13.513A9.887,9.887,0,0,0,611.551,385.718Z" transform="translate(-25.349 -40.129)" fill="#6bc4e8" fill-rule="evenodd"/>
    <path id="Path_661" data-name="Path 661" d="M604.772,393.567c0,5.234-7.366,4.1-10.268,4.1v-8.2c2.9,0,10.268-1.135,10.268,4.1m-16.944-7.882h16.82v0c4.652.1,8.391,3.589,8.391,7.879,0,4.353-3.85,7.881-8.6,7.881-.137,0-.272,0-.409-.008v.008h-9.5v3.537h-6.7Z" transform="translate(-21.741 -40.119)" fill="#002677" fill-rule="evenodd"/>
    <path id="Path_662" data-name="Path 662" d="M648.974,400.721a5.864,5.864,0,0,1,0-10.84,6.652,6.652,0,0,0-3.064.831,5.763,5.763,0,0,0,0,9.178,6.651,6.651,0,0,0,3.061.83m5.5-15.383c6.674.85,11.739,4.986,11.739,9.962s-5.065,9.115-11.739,9.965a17.95,17.95,0,0,0,4.914-2.2l.005,0c3.121-1.857,5.1-4.643,5.1-7.758s-1.984-5.9-5.1-7.756l-.005,0A17.937,17.937,0,0,0,654.473,385.338Z" transform="translate(-39.36 -40.009)" fill="#6bc4e8" fill-rule="evenodd"/>
    <path id="Path_663" data-name="Path 663" d="M644.993,389.163a6.085,6.085,0,1,1-6.581,6.064,6.339,6.339,0,0,1,6.581-6.064m0-4.058c7.888,0,14.282,4.532,14.282,10.122s-6.394,10.124-14.282,10.124-14.28-4.532-14.28-10.124S637.106,385.105,644.993,385.105Z" transform="translate(-35.281 -39.936)" fill="#002677" fill-rule="evenodd"/>
    <path id="Path_664" data-name="Path 664" d="M752.245,355.547a1.4,1.4,0,0,0,.19.881,1.91,1.91,0,0,0,.837.866,4.859,4.859,0,0,0,2.615.033c.192-.025.423.185.272.379a6.1,6.1,0,0,0-.515.593c-.209.415-.272.882.177,1.158a2.1,2.1,0,0,0,.79.213,15.681,15.681,0,0,0,1.6.056.251.251,0,0,1,.047.493,5.041,5.041,0,0,1-1.738.055,19.658,19.658,0,0,1-1.784,2.268c-.522.63-.786,1.042-1.25,1.711.58.015,1.056.025,1.308.027,2.174.015,8.364.109,9.146.088a17.218,17.218,0,0,0,8.432-2.811c2.914-2.075,5.736-6.9,5.726-12.388a57.941,57.941,0,0,0-.365-7.429.736.736,0,0,1,.557-.627c.887-.028,1.236.912,1.714,1.39.383.389.375.646.641.735.131.044.437.057.278-1.169-.081-.636-.783-4.163-2.221-5.764a5.587,5.587,0,0,0-4.325-1.813c-1.9.135-3.479,1.453-3.949,4.123-.412,2.364-.866,4.821-2.517,6.348a80.283,80.283,0,0,1-6.878,5.437,4.6,4.6,0,0,0,.265,1.2,4.43,4.43,0,0,0,2.026,2.008.241.241,0,0,1-.076.429,1.243,1.243,0,0,0-.484,2.066,3.913,3.913,0,0,0,.918.677.254.254,0,0,1-.074.459c-.879.172-1.1.729-.739,1.637a3.249,3.249,0,0,0,.839,1.147c.237.221-.125.547-.362.337a3.4,3.4,0,0,1-1.223-2.422,1.259,1.259,0,0,1,.871-1.014,2.131,2.131,0,0,1-1.054-1.6,1.718,1.718,0,0,1,.794-1.532,4.315,4.315,0,0,1-1.693-1.733,3.9,3.9,0,0,1-.323-1.433c-.6.412-1.169.8-1.717,1.136-.007.145-.023.289-.032.437-.077,1.232.567,1.827,1.494,2.533.157.118.159.432-.077.468-1.786.262-.343,1.983.434,2.265a.27.27,0,0,1-.092.525.363.363,0,0,0-.387.235c-.075.187.131.6.131.6.085.16.175.318.266.478a11.334,11.334,0,0,0,.675,1c.2.272-.186.635-.385.362-.549-.739-1.817-2.364-.951-2.988-1.093-.749-1.553-2.223-.275-2.819a3.033,3.033,0,0,1-1.193-1.609,3.553,3.553,0,0,1-.023-1.225c-.112.067-.227.133-.335.2-2.474,1.436-4.524,2.495-6.006,3.332" transform="translate(-73.645 -23.954)" fill="#002677" fill-rule="evenodd"/>
    <path id="Path_665" data-name="Path 665" d="M749.647,375.189c-.165.183-.328.38-.489.569.8,0,1.553,0,2.208.005a22.291,22.291,0,0,1,1.5-2.035c.655-.779,1.587-1.419,2.173-2.251a1.95,1.95,0,0,1-.781-.405,1.069,1.069,0,0,1-.41-.778,35.138,35.138,0,0,1-2.42,2.907c-.587.669-1.191,1.324-1.783,1.987" transform="translate(-72.676 -35.26)" fill="#002677" fill-rule="evenodd"/>
    <path id="Path_666" data-name="Path 666" d="M751.119,368.882c-2.035,2.038-3.822,4.358-5.826,6.438.569-.008,1.147-.015,1.716-.018.271-.313.58-.6.857-.9.564-.6,1.121-1.211,1.685-1.817a46.585,46.585,0,0,0,3.217-3.387l0,0c.057-.121.117-.246.184-.367a3.438,3.438,0,0,1-1.835.048" transform="translate(-71.456 -34.799)" fill="#002677" fill-rule="evenodd"/>
    <path id="Path_667" data-name="Path 667" d="M743.122,371.853c-1.019.966-1.97,2.041-3,3.017.678-.018,1.519-.031,2.433-.048a59.4,59.4,0,0,1,6.705-6.533,2.217,2.217,0,0,1-.469-.252,2.341,2.341,0,0,1-.722-.831c0,.008-.008.014-.012.017-1.616,1.575-3.294,3.079-4.93,4.63" transform="translate(-69.822 -34.284)" fill="#002677" fill-rule="evenodd"/>
    <path id="Path_668" data-name="Path 668" d="M735.091,373.967c.116.279,1.3.485,1.831.453l.454-.013c2.892-2.715,5.761-5.423,8.9-7.872a.153.153,0,0,1,.092-.028,6.986,6.986,0,0,1-.31-.857c-.211.128-.406.246-.589.359-1.469.932-9.258,6.49-9.72,6.8s-.774.879-.657,1.159" transform="translate(-68.227 -33.793)" fill="#002677" fill-rule="evenodd"/>
    <path id="Path_669" data-name="Path 669" d="M573.286,495.931l.062.149c.008.01.049.079.059.089,2.34,2.183.868-1.938,1.832-3.239,12.6,2.137,11.915-9.216,8.224-10.475-4.073,2.405-2.979,8.495-7.219,9.064,2.077-5.8,4.282-8.775,4.286-15.368,0-1.945-.626-2.98-.512-5.117,2.082,2.495,6.345,9.659,9.937,7.689,3.483-1.911,5.911-7.23.8-7.46-5.24,1.767-7.58-.679-12.864-6.1-2.231-2.288-7.077-8.586-9.227-10.042,7.423,4.336,13.85-6.985.979-6.1-4.462.305-4.738.494-9.833-1.522-3.374-1.334-7.385-2.662-10.135-2.036a.372.372,0,0,1,.088-.191.79.79,0,0,0,.091-.186c.378-.81.371-1.039-.278-1.763-3.865,2.84-10.439,4.3-15.081,6.713-4.312,2.245-19.734,11.16-14.423,15.132,2.112,1.427,4.783.632,5.97-2.151,1.008-2.368.237-5.172,2.261-6.694,4.869-3.661,8.717,3.93,13.617,2.836,2.642-2.483,1.033-5.7-2.239-6.174-2.516-.368-5.337.723-7.579.463,2.984-2.2,6.644-3.625,10.329-2.563,4.362,1.258,6.625,8.571,9.627,7.483,1.539-.244,1.971-2.352,2-3.492.1-4.518-6.664-6.876-9.9-6.929,2.216-.619,4.345-1.42,6.872-.6,10.849,3.532,1.788,16.5,9.7,18.908,3.029-2.364,3.955-7.019,3.276-9.717-.867-3.448-3.868-6.264-7.117-8.7,5.342.478,10.542,7.237,10.006,12.3-.508,4.807-6.036,14.081-3.1,15.858,2.045,1.241,3.946-2.039,4.511-3.571,1.713-4.652,1.148-10.528-.18-15.184l-.295-1.52a33.564,33.564,0,0,1,11.112,16.915,15.158,15.158,0,0,1-.025,8.981,65.612,65.612,0,0,1-3.928,9.571c-4.971-4.346,2.732-7.184.505-11.031-3.22-5.569-7.807,2.49-3.918,8.96.729,1.209,2.1,2.207,2.7,3.443-1.5,2.249-3.106.734-3.03,2.134.548,1.174-.083-.019.487.411.023.016.1.069.124.085l.322.257c-1.3,1.5-4.765,5.829-6.4,6.276-3.4.927-3.734-3.579-6.236-4.427-4.807-1.628-5.31,6.593.452,6.245l3.458-.371c-1.77,1.761-5.772,2.992-6.49,4.372,1.934,1.085,5.2-2.075,7.254-3.05-.745,2.808-3.017,3.5-3.172,7.9-.14,4.008,4.692,1.959,4.921-1.224.193-2.66-1.815-4.464.178-7.686,1.076-1.742,5.284-5.2,7.159-7.552" transform="translate(0 -58.316)" fill="#002677" fill-rule="evenodd"/>
    <g id="Group_11861" data-name="Group 11861" transform="translate(814.582 450.909)">
      <path id="Path_670" data-name="Path 670" d="M979.377,548.057s-2.219,1.079-6.75-1l-12.356-5.851a6.631,6.631,0,0,1,2.565-1.577c.99-.1,14.145,6.082,14.145,6.082s2.1,1.1,2.4,2.342" transform="translate(-953.91 -539.633)" fill="#002677" fill-rule="evenodd"/>
      <path id="Path_671" data-name="Path 671" d="M973.79,570.269a6.338,6.338,0,0,0-2.342-4.77c-2.37-1.779-11.838-9.3-17.913-10.693s18.624,15.012,18.624,15.012a2.25,2.25,0,0,0,1.632.45" transform="translate(-951.479 -544.397)" fill="#002677" fill-rule="evenodd"/>
      <path id="Path_672" data-name="Path 672" d="M963.817,584.376s.94-2.693-7.484-12.29c0,0-5.745-7.959-5.337-4.172s9.125,16.49,12.821,16.462" transform="translate(-950.976 -548.239)" fill="#002677" fill-rule="evenodd"/>
    </g>
    <g id="Group_11862" data-name="Group 11862" transform="translate(697.121 258.614)">
      <path id="Path_673" data-name="Path 673" d="M779.319,298.541s2.245-1.024,6.723,1.159l12.21,6.15a6.625,6.625,0,0,1-2.6,1.514c-.992.072-13.992-6.424-13.992-6.424s-2.071-1.147-2.339-2.4" transform="translate(-779.319 -271.144)" fill="#002677" fill-rule="evenodd"/>
      <path id="Path_674" data-name="Path 674" d="M784.549,273.256a6.335,6.335,0,0,0,2.226,4.825c2.326,1.837,11.607,9.587,17.648,11.125s-18.254-15.461-18.254-15.461a2.25,2.25,0,0,0-1.62-.49" transform="translate(-780.97 -263.224)" fill="#002677" fill-rule="evenodd"/>
      <path id="Path_675" data-name="Path 675" d="M798.729,258.614s-1.005,2.669,7.184,12.468c0,0,5.55,8.1,5.233,4.3s-8.721-16.706-12.417-16.768" transform="translate(-785.435 -258.614)" fill="#002677" fill-rule="evenodd"/>
    </g>
    <g id="Group_11863" data-name="Group 11863" transform="translate(858.238 396.087)">
      <path id="Path_676" data-name="Path 676" d="M1027.244,483.487c-1.613,4.043-6.208,9.406-11.07,7.467-.963-.385-1.722-.855-1.262-2.01.634-1.588,3.6-2.581,4.529-4.219-1.811-1.614-2.918-2.614-1.362-6.514,1.44-3.609,3.211-4.13,6.676-2.747C1029.038,477.174,1028.876,479.4,1027.244,483.487Zm6.444-16.566c-1.363,3.418-3.1,3.843-6.369,2.535-3.706-1.478-4.477-2.9-2.959-6.7,1.325-3.322,3.182-3.92,6.6-2.556C1034.424,461.58,1035.071,463.456,1033.688,466.921Z" transform="translate(-1014.774 -459.515)" fill="#002677"/>
    </g>
    <g id="Group_11864" data-name="Group 11864" transform="translate(795.505 425.214)">
      <path id="Path_677" data-name="Path 677" d="M935.041,539.11c-.116,4.262-1.55,6.23-6.126,6.106-3.761-.1-5.927-1.165-5.813-5.365.118-4.325,1.362-6.235,5.938-6.11C932.612,533.84,935.15,535.1,935.041,539.11Zm1.063-29.827a60.452,60.452,0,0,1-1.744,11.055c-.569,2.494-1.362,8.555-4.934,8.458-5.829-.159-5.9-15.9-5.789-20.041a10.355,10.355,0,0,1,1.084-5.24,7.777,7.777,0,0,1,5.12-1.429,12.059,12.059,0,0,1,4.859,1.2A10.5,10.5,0,0,1,936.1,509.283Z" transform="translate(-923.098 -502.082)" fill="#002677"/>
    </g>
    <g id="Group_11867" data-name="Group 11867" transform="translate(588.548 414.311)">
      <path id="Path_678" data-name="Path 678" d="M637.762,532.376q.921-1.426,2.123-1.195t2.322.5a1.083,1.083,0,0,1,.474.415,1.833,1.833,0,0,1,.306.651,3.137,3.137,0,0,1,.195,1.856,97.059,97.059,0,0,0-1.242,11.161,10.268,10.268,0,0,0,.3,2.543,4.434,4.434,0,0,0,.955,2.077,8.01,8.01,0,0,0,2.5-3.561q.6-1.514,1.122-3.032t1.124-3.111a6.254,6.254,0,0,1,.467-.995c.2-.344.378-.647.545-.913q1.248-1.579,2.652.227-.6,1.6-1.128,3.273t-1.211,3.352q-.345.878-.9,2.272a17.249,17.249,0,0,1-1.313,2.624,7.23,7.23,0,0,1-1.781,2.009,2.343,2.343,0,0,1-2.3.346q-.642-.175-1.32-.354a10.8,10.8,0,0,1-1.317-.435,7.235,7.235,0,0,1-4.152-4.692,1.938,1.938,0,0,1-.185-.608,1.274,1.274,0,0,0-.189-.528,1.293,1.293,0,0,0-.316-.249,2,2,0,0,0-.214.558,2.1,2.1,0,0,1-.215.558q-.677,1.273-1.271,2.505a23.876,23.876,0,0,1-1.347,2.422q-1.509,2.378-3.126,2.661a9.058,9.058,0,0,1-4.015-.422,5.259,5.259,0,0,1-2.808-2.043,9.786,9.786,0,0,1-1.408-3.3,16.031,16.031,0,0,1,1.319-11,18.136,18.136,0,0,1,2.264-3.647,12.422,12.422,0,0,1,3.21-2.819,6.557,6.557,0,0,1,2.276-.87,9.534,9.534,0,0,1,2.62-.137,10.45,10.45,0,0,1,2.642.589A8.068,8.068,0,0,1,637.762,532.376Zm-9.655,19.245a.468.468,0,0,1,.318.168,5.349,5.349,0,0,0,.493-.35,2.069,2.069,0,0,0,.413-.432q.752-1.109,1.5-2.177a20.6,20.6,0,0,0,1.343-2.181q.933-1.988,1.749-3.982t1.751-4.063a.314.314,0,0,0-.2.035.167.167,0,0,1-.122.037l-.67-2.19c-.1-.378-.21-.742-.335-1.1a8.136,8.136,0,0,0-.5-1.1.952.952,0,0,0-.591-.5.68.68,0,0,0-.692.3q-.916,1.106-1.746,2.211a5.565,5.565,0,0,0-1.033,2.712,15.131,15.131,0,0,1-.326,1.8q-.226.921-.407,1.8a20.469,20.469,0,0,0-.734,3.605q-.208,1.848-.333,3.7c-.007.268,0,.55.019.845A7.648,7.648,0,0,0,628.107,551.621Z" transform="translate(-620.653 -500.134)" fill="#002677"/>
      <path id="Path_679" data-name="Path 679" d="M705.4,546.662a2.372,2.372,0,0,0,2.218-.634,24.491,24.491,0,0,0,2.891-3.6,18.979,18.979,0,0,0,2.02-4.555,1.2,1.2,0,0,1,.831-.792,2.441,2.441,0,0,1,1.228,0,.322.322,0,0,0,.079.238c.053.053.053.132,0,.237q-.317.952-.831,2.3a26.631,26.631,0,0,1-1.188,2.654q-.674,1.307-1.347,2.535a8.548,8.548,0,0,1-1.386,1.941,5.166,5.166,0,0,1-4.04,1.743h-.951a1.138,1.138,0,0,0-.594.277,3.179,3.179,0,0,0-.436.594q-.159.237-.515.713a12.642,12.642,0,0,1-.832.99q-.474.516-.95,1.03a4.182,4.182,0,0,1-.872.753,4.356,4.356,0,0,1-2.219.871,6.964,6.964,0,0,1-2.3-.238l-.951-.316c-.317-.105-.634-.21-.951-.317a6.706,6.706,0,0,1-3.406-2.535,12.116,12.116,0,0,1-1.743-4.2,11.766,11.766,0,0,1-.2-2.535c.027-.844.091-1.715.2-2.614a15.846,15.846,0,0,1,1.624-5.347,15.65,15.65,0,0,1,3.288-4.238,2.871,2.871,0,0,1,3.486-.713,4.679,4.679,0,0,1,1.029.515,3.5,3.5,0,0,1,.792.832,1.764,1.764,0,0,1,.04,2.1q-.674.991-1.307,1.941-.872,1.347-1.584,2.732a8.208,8.208,0,0,0-.872,2.971,25.679,25.679,0,0,0-.158,2.852q0,1.426.079,2.773a3.5,3.5,0,0,0,.4,1.583q.871,2.376,3.169,1.584a5.371,5.371,0,0,0,1.584-1.108,21.172,21.172,0,0,0,1.425-1.584q-.4-.4-.594-.634a1.6,1.6,0,0,0-.515-.4,6.574,6.574,0,0,1-3.01-6.1,8.538,8.538,0,0,1,.792-3.327,5.249,5.249,0,0,1,2.3-2.376,4.731,4.731,0,0,1,1.941-.554,7.007,7.007,0,0,1,2.1.158,2.962,2.962,0,0,1,1.5,1.5,3.924,3.924,0,0,1,.554,2.139,23.33,23.33,0,0,1-1.426,6.655Zm-1.267-9.347q-.238-.158-.674.317a4.946,4.946,0,0,0-.792,1.228,11.434,11.434,0,0,0-.633,1.7,4.573,4.573,0,0,0-.2,1.743q.158,2.3,1.506,3.01a14.966,14.966,0,0,1,.633-1.941,15.108,15.108,0,0,0,.634-1.941,7.009,7.009,0,0,0,.2-1.98A4.71,4.71,0,0,0,704.134,537.315Z" transform="translate(-642.218 -500.179)" fill="#002677"/>
      <path id="Path_680" data-name="Path 680" d="M663.6,529.833a1.178,1.178,0,0,1,.768-.724,2.337,2.337,0,0,1,1.122-.225c.157,0,.561-.008,1.21-.025s1.436-.033,2.362-.05l2.923-.05c2.273-.037,5.222-.855,6.556,1.242a6.247,6.247,0,0,1,.63,3.738q-.394,8.818-1.561,17.6a1.678,1.678,0,0,1-.245.788c-.518.72-1.787.556-2.737.3a1.636,1.636,0,0,1-.748-.343c-.314-.32-.2-.794-.073-1.2a38.094,38.094,0,0,0,1.171-10.54l.153-8.926a.4.4,0,0,0-.109-.346.594.594,0,0,0-.348-.082c-2.9-.077-7.1-.072-7.432,2.669a87.326,87.326,0,0,0-.1,9.313c-.027,2.413-.805,5.78.478,8.032a.493.493,0,0,1,.058.247q.235,1.15-.089,1.523a2.457,2.457,0,0,1-1.565.474,4.079,4.079,0,0,1-2.184-.574,1.989,1.989,0,0,1-1.181-1.623,1.532,1.532,0,0,0-.058-.5,6.784,6.784,0,0,1-.236-2.247q0-1.7.088-3.944t.266-4.743q.178-2.5.354-4.618t.324-3.57A13.6,13.6,0,0,1,663.6,529.833Z" transform="translate(-633.82 -499.542)" fill="#002677"/>
      <path id="Path_681" data-name="Path 681" d="M704.713,514.156q-.569,1.374-1.024,2.583t-.944,2.388c-.06.22-.12.405-.174.558a3.035,3.035,0,0,1-.238.488q-.477,1.042-.961,1.209a2.425,2.425,0,0,1-1.528-.246,4.112,4.112,0,0,1-1.8-1.674,2.9,2.9,0,0,1-.386-2.582q.347-1.119.754-2.1a8.62,8.62,0,0,1,1.076-1.874c.25-.385.467-.593.649-.625a1.42,1.42,0,0,1,.851.328,4.161,4.161,0,0,0,.908.47q.459.167.984.338.457.169.915.369C704.1,513.923,704.408,514.046,704.713,514.156Z" transform="translate(-644.919 -494.398)" fill="#002677"/>
      <path id="Path_682" data-name="Path 682" d="M830.015,514.156q-.568,1.374-1.025,2.583t-.943,2.388c-.06.22-.12.405-.174.558a2.987,2.987,0,0,1-.237.488q-.478,1.042-.961,1.209a2.427,2.427,0,0,1-1.529-.246,4.11,4.11,0,0,1-1.8-1.674,2.9,2.9,0,0,1-.387-2.582q.348-1.119.755-2.1a8.649,8.649,0,0,1,1.076-1.874c.251-.385.467-.593.65-.625a1.418,1.418,0,0,1,.85.328,4.165,4.165,0,0,0,.908.47c.307.112.634.224.985.338.3.113.61.235.915.369S829.709,514.046,830.015,514.156Z" transform="translate(-684.479 -494.398)" fill="#002677"/>
      <path id="Path_683" data-name="Path 683" d="M778.24,548.905a1.842,1.842,0,0,0,1.956-1.092,19.939,19.939,0,0,0,.946-2.583,2.482,2.482,0,0,1,1.956-1.723c1.616-.07.1,2.413-.164,3.071q-.4,1.014-.9,2.026-.363.8-.8,1.592a10.369,10.369,0,0,1-1.013,1.521,3.27,3.27,0,0,1-1.593,1.157,4.6,4.6,0,0,1-3.437.109,5.27,5.27,0,0,1-2.569-2.279,11.485,11.485,0,0,1-1.412-3.365c-.85-3.629-.458-7.645.1-11.31a46.8,46.8,0,0,1,1.039-4.98c.511-1.926.478-1.885,2.3-1.475a3.932,3.932,0,0,1,1.228.506c2.154,1.343,1.311,3.93,1.22,6.134l-.331,7.952a8.585,8.585,0,0,0,.4,3.685A1.683,1.683,0,0,0,778.24,548.905Z" transform="translate(-668.031 -499.786)" fill="#002677"/>
      <path id="Path_684" data-name="Path 684" d="M753.629,527.846c-.192.094-.481.268-.481.268s-2.2,4.291-1.616,6.063c.621,1.873,3.419,4.157,5.43,3-2.756-.912-6.2,2.142-7.314,4.4-1.377,2.788.263,8.99.263,8.99l3.473,1.448c4.288-.484,8.322-1.239,11.24-4.595a2.238,2.238,0,0,0,.412-2.754c-2.481.883-5.749,2.737-8.456,2.436-1.534-.171-3.037-1.783-2.354-3.168a3.459,3.459,0,0,1,.946-1.047l3.367-2.827a3.4,3.4,0,0,0,1.469-2.092c.185-2.1-3.237-2.881-3.51-4.966a3.151,3.151,0,0,1,1.7-2.782c1.02-.671,4.771-2.565,2.3-3.761C759.253,525.86,755.318,527.015,753.629,527.846Z" transform="translate(-661.206 -498.823)" fill="#002677"/>
      <path id="Path_685" data-name="Path 685" d="M817.348,530.117c-.192.092-.484.259-.484.259s-2.234,4.122-1.653,5.817c.613,1.791,3.408,3.964,5.432,2.845-2.76-.859-6.23,2.085-7.361,4.255-1.4,2.678.217,8.611.217,8.611l3.477,1.369c4.3-.487,8.356-1.23,11.3-4.462.669-.733,1.067-1.895.428-2.639-2.494.858-5.783,2.652-8.5,2.378-1.538-.155-3.037-1.693-2.344-3.023a3.411,3.411,0,0,1,.955-1.008l3.392-2.727a3.316,3.316,0,0,0,1.485-2.012c.2-2.008-3.233-2.742-3.5-4.739a3.043,3.043,0,0,1,1.718-2.673c1.027-.648,4.8-2.483,2.325-3.616C823,528.184,819.046,529.312,817.348,530.117Z" transform="translate(-681.29 -499.551)" fill="#002677"/>
      <g id="Group_11865" data-name="Group 11865" transform="translate(109.686 25.757)">
        <path id="Path_686" data-name="Path 686" d="M802.551,550.163a6.348,6.348,0,0,1,.542,2.124q.088,1.129.181,2.214a.64.64,0,0,1-.045.271.615.615,0,0,0-.045.271v1.04a6.491,6.491,0,0,1-.09,1.039,1.025,1.025,0,0,1-.045.317.978.978,0,0,0-.045.316,31.022,31.022,0,0,1-1.718,7.186,34.417,34.417,0,0,1-3.525,6.825,3.545,3.545,0,0,1-.361.316,3.264,3.264,0,0,0-.362.316,13.637,13.637,0,0,1-1.085.9,8.6,8.6,0,0,1-2.3,1.176,14.576,14.576,0,0,1-3.751.723,19.092,19.092,0,0,1-5.514-.543l-.271-.136c-.061-.031-.122-.135-.181-.316,0-.061-.152-.181-.452-.361a2.92,2.92,0,0,1-.994-.9c-.24-.362-.482-.755-.723-1.175a4.35,4.35,0,0,1-.5-1.356c-.091-.483-.2-.965-.317-1.447q0-.182.136-1.175t.271-2.124q.135-1.132.316-2.214t.271-1.538a9.948,9.948,0,0,1,.814-2.214,17.5,17.5,0,0,1,2.035-3.3,16.151,16.151,0,0,1,3.254-3.163,9.658,9.658,0,0,1,4.474-1.808q1.628-.18,1.808.316a1.482,1.482,0,0,1-.317,1.266,7.445,7.445,0,0,1-1.31,1.491,9.7,9.7,0,0,1-1.265.994c-.3.24-.588.482-.859.723s-.558.481-.859.723A11.241,11.241,0,0,0,788.4,558.3a13.4,13.4,0,0,0-1.943,3.028,12.717,12.717,0,0,0-1.175,4.067,6.88,6.88,0,0,0,.994,4.385c.12.119.181.165.181.135s.09-.016.271.044q1.536.452,2.17-.09t1.084-.994a9.325,9.325,0,0,0,.859-.994c.271-.361.527-.694.768-.994.12-.181.24-.348.361-.5a3.406,3.406,0,0,0,.361-.587,10.2,10.2,0,0,1,1.085-1.853,16.379,16.379,0,0,0,1.175-1.853q.723-1.267,1.4-2.621a17.54,17.54,0,0,0,1.131-2.893q.359-1.084.677-2.214t.588-2.305a4.5,4.5,0,0,0-.317-2.667q-.588-1.491-1.129-2.576a7.5,7.5,0,0,0-.633-1.085,1.527,1.527,0,0,0-.994-.633q-.634-.089-1.265-.226t-1.266-.226a3.019,3.019,0,0,0-.723-.091,1.6,1.6,0,0,0-.723.181,2.634,2.634,0,0,1-1.808.09,3.04,3.04,0,0,1-1.085-.543,8.289,8.289,0,0,0-.9-.632,3.024,3.024,0,0,1-1.175-1.989,2.926,2.926,0,0,1,0-1.763,5.62,5.62,0,0,1,.814-1.491l2.983-4.068a3.747,3.747,0,0,0,.678-1.22,2.82,2.82,0,0,1,.678-1.13,11.28,11.28,0,0,0,2.079-4.068,7.662,7.662,0,0,0,.181-1.265.394.394,0,0,0-.09-.542c-.121-.12-.271-.09-.452.09a8.149,8.149,0,0,0-2.35,2.169,6.122,6.122,0,0,1-.361.632q-.454.634-.859,1.311a4.994,4.994,0,0,1-1.04,1.221,6.594,6.594,0,0,0-.5.768,7.323,7.323,0,0,0-.407.859c-.06.241-.121.452-.181.632a4.918,4.918,0,0,1-.271.633,2.085,2.085,0,0,1-.452.272,1.991,1.991,0,0,1-.633.09,2.985,2.985,0,0,1-.723.09.607.607,0,0,1-.542-.271.732.732,0,0,1-.181-.543,2.012,2.012,0,0,1,.09-.633c.06-.181.12-.391.181-.632a1.14,1.14,0,0,1,.271-.543.368.368,0,0,0,.09-.271,2.023,2.023,0,0,0,.361-.723.262.262,0,0,0,.091-.181,8.988,8.988,0,0,1,.994-1.807q.451-.723.768-1.356a9.406,9.406,0,0,1,.768-1.265,8.509,8.509,0,0,1,1.265-1.491,9.431,9.431,0,0,1,1.447-1.13,1.687,1.687,0,0,1,1.627-.091q.451.091.814.181c.24.06.482.121.723.18a3.767,3.767,0,0,1,.452.181,1.457,1.457,0,0,1,.361.271q.631.454,1.266.9a4.122,4.122,0,0,1,1.085,1.175,5.437,5.437,0,0,1,.723,2.351.15.15,0,0,1,.045.181.313.313,0,0,0,.045.271,2.338,2.338,0,0,1,.181,1.266,9.65,9.65,0,0,1-.271,1.265c-.061.3-.122.6-.181.9a5.112,5.112,0,0,1-.271.9v.272q-.362.9-.677,1.763a17.537,17.537,0,0,1-.769,1.762q-.271.454-.587.95a11.414,11.414,0,0,0-.588,1.039,6.256,6.256,0,0,1-.632,1.266,13.149,13.149,0,0,1-.814,1.085c-.242.361-.181.573.181.633q.723.182,1.446.315t1.447.317a3.587,3.587,0,0,1,1.446.678,14.64,14.64,0,0,1,1.265,1.13,6.125,6.125,0,0,0,.587.678,6.582,6.582,0,0,1,.588.677,6.033,6.033,0,0,1,1.176,1.673Q802.188,549.168,802.551,550.163Z" transform="translate(-780.947 -523.789)" fill="#002677"/>
      </g>
      <path id="Path_687" data-name="Path 687" d="M874.7,540.979a19.783,19.783,0,0,1,.911,2.84c-.136,1.025-1.245,2.179-1.828,3.033a20.692,20.692,0,0,1-1.428,1.914,9.618,9.618,0,0,1-.778.941,9.489,9.489,0,0,0-.779.941,1,1,0,0,1-.389.324,3.457,3.457,0,0,1-.455.194,5.378,5.378,0,0,1-3.958-.941,6.254,6.254,0,0,1-1.946-3.276,8.193,8.193,0,0,1-.13-1.85q0-1.394.032-3.309t.13-4.088q.1-2.173.2-4.088t.161-3.407c.047-1.086.305-1.849-.822-2.041-.993-.169-3.3,1.181-4.276,1.531l-.6-2.19c-.057-.212-.1-.47.049-.627a.639.639,0,0,1,.321-.143c1.261-.3,17.785-6.728,18.041-4.639.042.347.1.736.162,1.168a7.994,7.994,0,0,1,.1,1.164c0,1.507-.953.718-1.79.791a22.52,22.52,0,0,0-4.776,1.488,1.486,1.486,0,0,0-1.312,1.606l-1.029,12.3c-.144,1.724-.517,4.134.269,5.76,1.137,2.349,3.181-.827,3.766-1.978A11.067,11.067,0,0,1,874.7,540.979Z" transform="translate(-695.806 -497.367)" fill="#002677"/>
      <path id="Path_688" data-name="Path 688" d="M898.13,547.064a2.369,2.369,0,0,0,2.218-.633,24.413,24.413,0,0,0,2.892-3.6,18.99,18.99,0,0,0,2.02-4.555,1.192,1.192,0,0,1,.831-.792,2.424,2.424,0,0,1,1.228,0,.323.323,0,0,0,.079.238c.052.053.052.132,0,.237q-.318.952-.831,2.3a26.748,26.748,0,0,1-1.189,2.653q-.674,1.308-1.347,2.535a8.52,8.52,0,0,1-1.386,1.941,5.163,5.163,0,0,1-4.04,1.743h-.951a1.148,1.148,0,0,0-.594.277,3.18,3.18,0,0,0-.435.595q-.159.237-.515.713a12.916,12.916,0,0,1-.832.99l-.95,1.03a4.172,4.172,0,0,1-.871.752,4.355,4.355,0,0,1-2.219.872,7,7,0,0,1-2.3-.238q-.476-.157-.951-.317t-.951-.317a6.707,6.707,0,0,1-3.406-2.534,12.094,12.094,0,0,1-1.742-4.2,11.688,11.688,0,0,1-.2-2.535q.04-1.265.2-2.615a15.825,15.825,0,0,1,1.624-5.346,15.633,15.633,0,0,1,3.287-4.238,2.87,2.87,0,0,1,3.486-.713,4.7,4.7,0,0,1,1.03.515,3.484,3.484,0,0,1,.792.831,1.766,1.766,0,0,1,.04,2.1q-.675.992-1.307,1.941-.873,1.348-1.585,2.732a8.2,8.2,0,0,0-.871,2.971,25.517,25.517,0,0,0-.159,2.851q0,1.427.079,2.773a3.489,3.489,0,0,0,.4,1.583q.869,2.377,3.168,1.585a5.4,5.4,0,0,0,1.585-1.108c.475-.476.95-1,1.425-1.585-.264-.263-.463-.475-.594-.634a1.6,1.6,0,0,0-.515-.4,6.574,6.574,0,0,1-3.011-6.1,8.532,8.532,0,0,1,.793-3.328,5.248,5.248,0,0,1,2.3-2.376,4.735,4.735,0,0,1,1.941-.555,6.98,6.98,0,0,1,2.1.159,2.96,2.96,0,0,1,1.5,1.5,3.919,3.919,0,0,1,.555,2.139,23.368,23.368,0,0,1-1.426,6.654Zm-1.268-9.346c-.158-.105-.384,0-.673.316a4.923,4.923,0,0,0-.792,1.228,11.438,11.438,0,0,0-.634,1.7,4.564,4.564,0,0,0-.2,1.742q.157,2.3,1.505,3.011a15.029,15.029,0,0,1,.634-1.941,15.181,15.181,0,0,0,.634-1.941,7.064,7.064,0,0,0,.2-1.981A4.711,4.711,0,0,0,896.862,537.718Z" transform="translate(-703.066 -500.306)" fill="#002677"/>
      <g id="Group_11866" data-name="Group 11866" transform="translate(68.203)">
        <path id="Path_689" data-name="Path 689" d="M751.127,486.148a6.871,6.871,0,0,1-.864,3.935,10.764,10.764,0,0,1-2.539,2.844,55.423,55.423,0,0,1-9.568,5.885c-2.508,1.356-4.357,3.026-4.426,6.117-.055,2.509.954,4.9,1.755,7.276a46.428,46.428,0,0,1,1.217,25.172c-.591,2.542-2.3,2.823-3.585.541l-.475.238a3.46,3.46,0,0,1-2.02,1.346,6.9,6.9,0,0,1-2.337.079q-.635-.079-1.188-.158a16.157,16.157,0,0,1-2.456-.792,4.754,4.754,0,0,1-2.5-2.614c-2.972-6.187-3.088-18.106,5.642-19.553a3.713,3.713,0,0,0,2.173-.757c.873-.906.359-2.387-.133-3.545-1.339-3.148-1.532-6.551-2.687-9.682s-.4-4.606,2.786-6.085l21.329-9.911M727.335,522.47q-1.03-.317-1.307,1.426a15.592,15.592,0,0,0-.04,4.039,23.947,23.947,0,0,0,.911,4.516,5.553,5.553,0,0,0,1.544,2.852,2.579,2.579,0,0,0,.793.4,2.557,2.557,0,0,1,.871.476,2.638,2.638,0,0,0,.713-1.466,6.081,6.081,0,0,0-.04-1.545,14.654,14.654,0,0,0-.316-1.544,4.307,4.307,0,0,1-.119-1.545l2.376-1.347a21.635,21.635,0,0,0-.831-2.217,18.629,18.629,0,0,0-1.11-2.179,16.343,16.343,0,0,0-1.188-1.743,4.2,4.2,0,0,0-.99-.99Z" transform="translate(-720.323 -486.148)" fill="#002677"/>
      </g>
    </g>
    <path id="Path_690" data-name="Path 690" d="M623.841,583.086a1384.684,1384.684,0,0,1,202.7-2.393" transform="translate(-33.111 -100.861)" fill="none" stroke="#002677" stroke-miterlimit="10" stroke-width="3.621" fill-rule="evenodd"/>
    <g id="Group_11868" data-name="Group 11868" transform="translate(730.863 471.597)">
      <path id="Path_691" data-name="Path 691" d="M842.668,590.1h0l.257-.114a1.01,1.01,0,0,1,.191-1.164,1.565,1.565,0,0,0,.272-.761,3.638,3.638,0,0,0-1.421-3.358c-.178-.161-.346-.246-.524.006-.129.183-.257.347-.006.536,1.169.875,1.05,2.045.608,3.192-.19.491-.168.747.215,1.061a2.509,2.509,0,0,1,.407.6m-5.679,21.646h0a3.391,3.391,0,0,0-1.228-.74,10.089,10.089,0,0,1-3.52-2.209c-1.157-1.312-2.109-2.674-1.943-4.544.023-.258.108-.606-.38-.82a6.936,6.936,0,0,0,1.018,5.142A6.553,6.553,0,0,0,836.989,611.745ZM834.38,573.3h0c-.037-.24-.177-.248-.273-.313-.173-.116-.416-.233-.323-.481a.587.587,0,0,1,.654-.391,1.984,1.984,0,0,1,.516.165,3.208,3.208,0,0,1,1.929,1.815,2.738,2.738,0,0,0,.406.709,5.525,5.525,0,0,1,.95,2.056c.264,1.06.478,2.138.814,3.175a6.419,6.419,0,0,1-.647,5.663c-.174.279-.047.407.2.444a1.134,1.134,0,0,0,1.2-.872,1.766,1.766,0,0,1,.426-1.078,2.6,2.6,0,0,0,.737-2.251,16.379,16.379,0,0,0-3.38-9.154c-.212-.293-.5-.531-.73-.814a2.612,2.612,0,0,0-3-.884,1.145,1.145,0,0,0-.892,1.119c.016.513.074,1.024.114,1.54A2.138,2.138,0,0,0,834.38,573.3Zm4.791,24.334h0a19.763,19.763,0,0,0-2.554.064.593.593,0,0,0-.492.192,11.667,11.667,0,0,1-1.653,1.285c-.522.44-1.158.83-1.388,1.505a7.155,7.155,0,0,0,.292,6.169,5.713,5.713,0,0,0,2.883,2.649,10.128,10.128,0,0,0,3.111.677,5.423,5.423,0,0,0,3.35-.647c.606-.383,1.385-.508,1.746-1.243.038-.079.209-.115.324-.132a.809.809,0,0,0,.562-.424c.972-1.475,1.639-3.093,1.046-4.825a7.638,7.638,0,0,0-3.491-4.516c-.079-.043-.173-.058-.257-.1A11.087,11.087,0,0,0,839.171,597.635Zm-2.806-5.065h0c-.228-.006-.489-.076-.56.25-.016.073.01.212.055.231.216.088.391-.048.563-.156a.612.612,0,0,0,.115-.128c.264-.053.54-.257.792-.117,1,.554,2.145.277,3.193.579.489.142.547-.011.521-.535-.034-.7-.485-1.348-.225-2.081.041-.115-.091-.25-.209-.252-.92-.021-1.573-.766-2.461-.887a.7.7,0,0,1-.672-.518c-.153-.617-.33-1.23-.541-1.831a1.311,1.311,0,0,1,.151-1.211,5.736,5.736,0,0,1,1.2-1.479c.21-.168.18-.365.01-.549a.328.328,0,0,0-.544.035,1.735,1.735,0,0,1-.631.6,2.671,2.671,0,0,0-1.52,2.505,4.336,4.336,0,0,0,.89,2.635,1.219,1.219,0,0,0,.517.5c.965.342,1.717,1.168,2.8,1.234.027,0,.051.085.079.138a1.034,1.034,0,0,1-1.061.361,6.356,6.356,0,0,1-1.341-.244c-.5-.188-.736,0-.909.421C836.511,592.237,836.437,592.4,836.365,592.57Zm2.774-4.87h0l2.032.346c.042-.7.338-1.392-.517-1.88a4.467,4.467,0,0,1-1.517,1.378c-.526-.008-1.09.07-1.307-.76a3.34,3.34,0,0,0-.153,1.386.277.277,0,0,0,.142.3c.184.089.278-.049.365-.163A1.359,1.359,0,0,1,839.139,587.7Zm3.443-6.024a.8.8,0,0,0-.273.742.178.178,0,0,1-.01.09c-.284.654-.106,1.067.51,1.49a4.479,4.479,0,0,1,1.332,5.262,3.32,3.32,0,0,1-.812,1.2c-.192.179-.371.413-.134.62,1.12.973.433,1.981.094,3.01a16.471,16.471,0,0,1,3.09,2.171,8.827,8.827,0,0,1,1.614,2.084,10.1,10.1,0,0,1,1.222,2.227,9.168,9.168,0,0,1-1.434,8.224c-.221.292-.455.573-.671.868a9.487,9.487,0,0,1-6.717,3.95,8.367,8.367,0,0,1-3.347-.17,15.689,15.689,0,0,1-3.9-1.231,7.615,7.615,0,0,1-2.655-2.826,28.2,28.2,0,0,1-1.318-2.9,5.911,5.911,0,0,1-.539-2.658,17.416,17.416,0,0,1,.819-4.566,3.054,3.054,0,0,1,.318-.654,14.14,14.14,0,0,1,3.254-3.794c.261-.207.467-.482.732-.684a.87.87,0,0,0,.344-.792,4.281,4.281,0,0,1,1.2-3.246.5.5,0,0,0,.108-.651,4.975,4.975,0,0,0-.623-1.3,1.513,1.513,0,0,1-.232-1.467c.139-.533.152-.74-.1-.814l.37-1,1.349-1.283,1.719-.81.743-.645-.062-.417c0-.049,0-.1,0-.155a6.293,6.293,0,0,0-.253-1.564v0a7.258,7.258,0,0,0-.615-1.462c-.054-.1-.107-.2-.159-.3l-.426-1.088a9.511,9.511,0,0,0-.431-1.1l-.017-.037-.023-.049-.988-2.132-.4.185a.449.449,0,0,0-.179.06c-.079.043-.156.09-.231.141l-1.562.764-1.709-.5a.421.421,0,0,0,.323-.565c-.2-.817.2-1.621.053-2.442a.754.754,0,0,1,.2-.493,2.539,2.539,0,0,1,2.094-1.1A4.723,4.723,0,0,1,837,570.957a1.421,1.421,0,0,0,.816.325h0l1.186,1.707,1.233,1.755,1.417,3.567.507,2.053Z" transform="translate(-828.63 -569.866)" fill="#002677"/>
      <path id="Path_692" data-name="Path 692" d="M839.672,603.041l.172.2a.611.611,0,0,1-.115.128c-.172.108-.347.244-.562.155-.044-.018-.07-.158-.055-.23.07-.326.333-.257.56-.251" transform="translate(-831.938 -580.336)" fill="#8c9091"/>
      <path id="Path_693" data-name="Path 693" d="M841.988,615.472h0c-.74.06-1.444.064-2.129.183a2.548,2.548,0,0,0-1.994,2.4,3.392,3.392,0,0,0,3.534,2.963,13.168,13.168,0,0,0,2.125-.485,2.55,2.55,0,0,0,1.687-1.666,1.8,1.8,0,0,0-.274-1.8,5.094,5.094,0,0,0-2.949-1.592m-1.078,7a3.858,3.858,0,0,1-2.813-1.579,8.692,8.692,0,0,0-.556-.719,3.158,3.158,0,0,1-.409-3.427,3.818,3.818,0,0,1,3.8-2.453,5.778,5.778,0,0,1,2.708.57,4.654,4.654,0,0,1,2.255,2.841,3.453,3.453,0,0,1-1.25,3.572A7.1,7.1,0,0,1,840.909,622.472Z" transform="translate(-831.211 -583.893)" fill="#002677"/>
      <path id="Path_694" data-name="Path 694" d="M842.693,618.637c.079.01.229.027.378.053.834.14,1.045.381.965,1.1-.086.8-.461,1.133-1.247,1.086a2.285,2.285,0,0,1-.7-.14,1.275,1.275,0,0,1-.835-1.352c.127-.515.649-.8,1.442-.751" transform="translate(-832.608 -585.262)" fill="#002677"/>
      <path id="Path_695" data-name="Path 695" d="M840.97,610.431a19.753,19.753,0,0,0-2.554.064.594.594,0,0,0-.492.192c-.626.752-2.66,1.669-3.04,2.79a7.155,7.155,0,0,0,.292,6.169c1.34,2.334,3.4,3.18,5.994,3.326a5.422,5.422,0,0,0,3.35-.647c.605-.383,1.385-.508,1.746-1.243.1-.21.489.048.886-.556.972-1.475,1.639-3.093,1.046-4.825a7.318,7.318,0,0,0-3.747-4.611,11.09,11.09,0,0,0-3.48-.66m1.886,3.2a4.653,4.653,0,0,1,2.255,2.841,3.452,3.452,0,0,1-1.25,3.572,7.1,7.1,0,0,1-3.732,1.2,3.858,3.858,0,0,1-2.813-1.579,8.7,8.7,0,0,0-.556-.719,3.158,3.158,0,0,1-.409-3.427,3.817,3.817,0,0,1,3.8-2.453A5.777,5.777,0,0,1,842.856,613.633Z" transform="translate(-830.429 -582.661)" fill="#6bc4e8" fill-rule="evenodd"/>
      <path id="Path_696" data-name="Path 696" d="M841.056,580.525c1.414,4.374-1.6,5.937-.445,6.107a1.133,1.133,0,0,0,1.2-.872c.3-1.839,1.241-.858,1.163-3.329a16.38,16.38,0,0,0-3.38-9.154c-.211-.293-.5-.531-.73-.814-1.408-1.736-3.938-1.083-3.891.235.016.513.074,1.024.114,1.54a2.137,2.137,0,0,0,1.293-.447c-.062-.4-.757-.366-.6-.794.4-1.052,2.633.294,3.1,1.589.278.77.925,1.031,1.357,2.764.264,1.06.478,2.138.814,3.175" transform="translate(-830.633 -570.354)" fill="#8c9091" fill-rule="evenodd"/>
      <path id="Path_697" data-name="Path 697" d="M840.336,590.933c-2.8,1.282-1.033,5.315-.113,5.64.965.342,1.717,1.168,2.8,1.234.027,0,.051.085.079.138a1.034,1.034,0,0,1-1.061.361,6.351,6.351,0,0,1-1.341-.244c-.736-.275-.844.269-1.123.921l.172.2c.264-.053.541-.257.792-.117,1,.553,2.145.277,3.193.579,1.219.352-.056-1.622.3-2.616.041-.115-.09-.25-.209-.253-.92-.021-1.573-.766-2.461-.887-.839-.114-.654-.758-1.213-2.349-.343-.977.767-2.222,1.35-2.691.408-.328-.168-.965-.534-.515a1.735,1.735,0,0,1-.632.6" transform="translate(-831.848 -576.278)" fill="#8c9091" fill-rule="evenodd"/>
      <path id="Path_698" data-name="Path 698" d="M847.291,592.031c1.169.875,1.05,2.045.608,3.192-.19.491-.168.747.216,1.061a2.516,2.516,0,0,1,.407.6l.257-.114c-.4-.83.312-.9.463-1.925a3.638,3.638,0,0,0-1.421-3.358c-.466-.422-.86.294-.529.543" transform="translate(-834.483 -576.651)" fill="#8c9091" fill-rule="evenodd"/>
    </g>
    <g id="Group_11869" data-name="Group 11869" transform="translate(724.098 275.316)">
      <path id="Path_699" data-name="Path 699" d="M863.641,329.228q.767-.169,1.956-2.168t2.339-4.337q1.149-2.339,1.956-4.423t.894-2.424c.283-.567.538-.851.766-.851a.549.549,0,0,1,.51.383,3.763,3.763,0,0,1,.255.85,1.165,1.165,0,0,1,0,.638q-.51,1.192-1.063,2.467t-1.063,2.466q-.427,1.192-.893,2.381t-1.063,2.381q-.426.937-.935,1.871a12.135,12.135,0,0,1-1.191,1.787,3.836,3.836,0,0,1-1.872,1.36,5.409,5.409,0,0,1-4.04.128,6.194,6.194,0,0,1-3.019-2.679,13.507,13.507,0,0,1-1.659-3.954,27.7,27.7,0,0,1-.638-4.21q-.171-2.042-.212-4.082a18.016,18.016,0,0,1,.382-4.082q.256-1.7.511-3.444t.595-3.445a4.423,4.423,0,0,1,.468-.978,7.447,7.447,0,0,0,.553-1.063,3.062,3.062,0,0,0,.51-.042.692.692,0,0,1,.425.042,10.663,10.663,0,0,0,1.446.425,4.631,4.631,0,0,1,1.446.6,5.184,5.184,0,0,1,1.191,1.02,2.273,2.273,0,0,1,.51,1.531v2.382q0,1.192.085,2.381a4.719,4.719,0,0,0,.17,1.106,9.238,9.238,0,0,1,.17,2.466,26.777,26.777,0,0,0-.128,3.4q.042,1.7.043,3.4a16.264,16.264,0,0,1,.042,2c-.03.653-.042,1.318-.042,2,.055.455.1.907.126,1.361s.043.907.043,1.36Zm2.256-38.28q-.6,1.786-1.063,3.359t-.978,3.1c-.057.285-.114.525-.17.723a3.753,3.753,0,0,1-.255.638q-.51,1.361-1.106,1.616a3.09,3.09,0,0,1-1.956-.17,4.836,4.836,0,0,1-1.319-.766,5.475,5.475,0,0,1-1.106-1.191,4.655,4.655,0,0,1-.68-1.53,3.82,3.82,0,0,1-.043-1.7q.34-1.445.766-2.722a11.035,11.035,0,0,1,1.191-2.467q.51-.765.807-.85a2.054,2.054,0,0,1,1.148.34,5.326,5.326,0,0,0,1.191.51c.4.115.794.227,1.191.341a11.038,11.038,0,0,1,1.233.383C865.117,290.708,865.5,290.835,865.9,290.948Z" transform="translate(-830.085 -284.903)" fill="#002677"/>
      <path id="Path_700" data-name="Path 700" d="M975.294,335.517q.767-.169,1.957-2.169t2.339-4.337q1.148-2.339,1.956-4.423t.893-2.424q.424-.85.766-.851a.548.548,0,0,1,.51.383,3.79,3.79,0,0,1,.256.85,1.179,1.179,0,0,1,0,.638q-.51,1.192-1.063,2.467t-1.063,2.467q-.427,1.192-.892,2.381t-1.063,2.381q-.427.937-.935,1.872a12.177,12.177,0,0,1-1.191,1.787,3.835,3.835,0,0,1-1.871,1.36,5.406,5.406,0,0,1-4.04.128,6.2,6.2,0,0,1-3.019-2.679,13.481,13.481,0,0,1-1.659-3.954,27.8,27.8,0,0,1-.638-4.21q-.171-2.041-.212-4.082a18,18,0,0,1,.383-4.082q.254-1.7.51-3.445t.6-3.445a4.414,4.414,0,0,1,.468-.978,7.412,7.412,0,0,0,.553-1.063,2.984,2.984,0,0,0,.51-.042.7.7,0,0,1,.426.042,10.734,10.734,0,0,0,1.445.426,4.631,4.631,0,0,1,1.446.6,5.22,5.22,0,0,1,1.191,1.02,2.273,2.273,0,0,1,.51,1.531v2.382q0,1.193.086,2.381a4.715,4.715,0,0,0,.17,1.106,9.237,9.237,0,0,1,.17,2.467,27.028,27.028,0,0,0-.128,3.4q.042,1.7.043,3.4a16.251,16.251,0,0,1,.043,2q-.043.978-.043,2,.083.682.127,1.361t.043,1.36Z" transform="translate(-865.336 -291.549)" fill="#002677"/>
      <path id="Path_701" data-name="Path 701" d="M937.2,312.594q1.02-1.669,2.412-1.437t2.689.51a1.246,1.246,0,0,1,.557.464,2.112,2.112,0,0,1,.371.742,3.616,3.616,0,0,1,.278,2.133A111.977,111.977,0,0,0,942.4,327.9a11.9,11.9,0,0,0,.417,2.922,5.106,5.106,0,0,0,1.16,2.365,9.226,9.226,0,0,0,2.782-4.173q.649-1.761,1.206-3.525t1.206-3.617a7.185,7.185,0,0,1,.51-1.16q.323-.6.6-1.066,1.393-1.855,3.061.185-.651,1.856-1.206,3.8t-1.3,3.9q-.372,1.021-.973,2.643a19.782,19.782,0,0,1-1.438,3.061,8.324,8.324,0,0,1-1.993,2.365,2.7,2.7,0,0,1-2.644.464q-.743-.184-1.53-.37a12.346,12.346,0,0,1-1.531-.465,8.334,8.334,0,0,1-4.916-5.287,2.219,2.219,0,0,1-.232-.7,1.444,1.444,0,0,0-.233-.6,1.493,1.493,0,0,0-.37-.278,2.321,2.321,0,0,0-.232.649,2.411,2.411,0,0,1-.231.649q-.744,1.485-1.392,2.923a27.658,27.658,0,0,1-1.483,2.828q-1.671,2.784-3.525,3.155a10.442,10.442,0,0,1-4.637-.371,6.062,6.062,0,0,1-3.293-2.273,11.281,11.281,0,0,1-1.715-3.757,18.471,18.471,0,0,1,1.206-12.706,20.9,20.9,0,0,1,2.5-4.267,14.345,14.345,0,0,1,3.617-3.339,7.556,7.556,0,0,1,2.6-1.066,10.98,10.98,0,0,1,3.014-.233,11.979,11.979,0,0,1,3.061.6A9.29,9.29,0,0,1,937.2,312.594Zm-10.574,22.446a.54.54,0,0,1,.371.185,6.164,6.164,0,0,0,.557-.417,2.381,2.381,0,0,0,.463-.51q.836-1.3,1.67-2.55a23.554,23.554,0,0,0,1.484-2.551q1.02-2.318,1.9-4.637t1.9-4.73a.365.365,0,0,0-.232.046.189.189,0,0,1-.139.046l-.836-2.5q-.187-.649-.417-1.253a9.342,9.342,0,0,0-.6-1.252,1.1,1.1,0,0,0-.7-.556.784.784,0,0,0-.788.371q-1.023,1.3-1.949,2.6a6.421,6.421,0,0,0-1.113,3.155,17.491,17.491,0,0,1-.324,2.086q-.234,1.068-.418,2.087a23.6,23.6,0,0,0-.742,4.174q-.187,2.134-.279,4.267c0,.31.014.634.046.974A8.987,8.987,0,0,0,926.629,335.041Z" transform="translate(-850.035 -291.708)" fill="#002677"/>
      <path id="Path_702" data-name="Path 702" d="M827.716,309.552q2.372-.637,4.518-1.141a6.382,6.382,0,0,1,4.063.32q.912.366.411.959a2.327,2.327,0,0,1-1.141.776q-2.008.548-4.017,1.141t-4.29,1.324q0,.184.045,1.415t.092,2.876q.044,1.642.183,3.286a13.109,13.109,0,0,0,.411,2.556,4.194,4.194,0,0,0,1,2.053,17.329,17.329,0,0,0,1.644,1.689c.183.123.532.107,1.05-.045a3.578,3.578,0,0,0,1.233-.594,22.537,22.537,0,0,0,2.966-2.693q1.6-1.689,3.059-3.332t2.464-2.875a7.773,7.773,0,0,1,1.1-1.232.923.923,0,0,1,.958.136,1.354,1.354,0,0,1,.366.868,4.463,4.463,0,0,1-.092,1.232,3.547,3.547,0,0,1-.411,1.141,30.726,30.726,0,0,1-2.784,3.88,42.884,42.884,0,0,1-3.241,3.423,7.907,7.907,0,0,1-3.195,2.1,11.16,11.16,0,0,1-3.7.639,10.1,10.1,0,0,1-3.652-.684,9.636,9.636,0,0,1-3.15-1.963,12.037,12.037,0,0,1-3.469-5.431,31.156,31.156,0,0,1-1.187-6.345,41.538,41.538,0,0,1,.092-9.13q.548-4.47,1.187-9.037.181-1.277.5-3.286t.685-4.017q.363-2.007.684-3.469a3.482,3.482,0,0,1,.594-1.643,6.609,6.609,0,0,1,3.423-1.369,13.017,13.017,0,0,1,3.88.228,22.559,22.559,0,0,1,4.017,1.233q2.007.821,3.834,1.734a4.435,4.435,0,0,1-.183,3.195,3.633,3.633,0,0,1-2.738,1.278q-1.463.185-2.922.457t-3.013.547q-.365,4.381-.639,8.764T827.716,309.552Z" transform="translate(-818.744 -283.022)" fill="#002677"/>
      <path id="Path_703" data-name="Path 703" d="M908,312.435a1.179,1.179,0,0,0-.829-.831,22.231,22.231,0,0,1-3.456,1.347,14.866,14.866,0,0,1-3.564.593c-.794.036,1.837.057,1.019.082-1.964-.014-3.928-.028-5.909-.086q-3.951-.11-7.745-.349t-7.235-.547a1.862,1.862,0,0,0-1.811.6,3.136,3.136,0,0,0-.718,2.06,11.235,11.235,0,0,0,.194,3,3.957,3.957,0,0,0,1.6,2.363l-.211.7a5.634,5.634,0,0,0-1.24,3.011,14.664,14.664,0,0,0,.051,3.417q.116.924.226,1.728a31.616,31.616,0,0,0,.933,3.551,6.208,6.208,0,0,0,2.765,3.527,14.583,14.583,0,0,0,4.737,1.932,19.694,19.694,0,0,0,5.159.465,8.172,8.172,0,0,0,3.948-.986,3.2,3.2,0,0,0,1.021-1.437,21.461,21.461,0,0,0,1.015-2.653,24.783,24.783,0,0,0,.726-2.871,10.318,10.318,0,0,0,.24-2.1c-.21-1.963-2.134-6.29-.823-6.6a39.155,39.155,0,0,0,3.784-1.09,15.86,15.86,0,0,0,2.979-1.325,4.057,4.057,0,0,0,2.134-2.535q.418-1.589.972-3.783A3.128,3.128,0,0,0,908,312.435ZM894,328.6a5.465,5.465,0,0,1-.856,1.913,3.105,3.105,0,0,1-1.932.944,8.367,8.367,0,0,1-5.709-.643c-1.282-.713-5.521-6.035-2.284-6.734a3.227,3.227,0,0,1,1.3-.01,8.278,8.278,0,0,1,1.313.363,2.308,2.308,0,0,0,1.3.1l1.021-3.266a15.561,15.561,0,0,1,3.785,2.439,15.456,15.456,0,0,1,1.52,1.532,3.324,3.324,0,0,1,.8,1.33A3.874,3.874,0,0,1,894,328.6Z" transform="translate(-837.365 -292.046)" fill="#002677"/>
    </g>
    <g id="Group_11870" data-name="Group 11870" transform="translate(853.107 276.271)">
      <path id="Path_704" data-name="Path 704" d="M1007.276,284.418s3.848,18.435,12.246,24.9c0,0,11.917,12.754,12.73,16.356,0,0,.206,1.319-1.494-.149,0,0-10.12-8.775-15.231-9.135,0,0,2.6,10.485,18.335,13.219,0,0,1.637.153,2.461,3.861s5.867,18.677,6.609,21.9c0,0,.178,1.261-1.137-.569a65.252,65.252,0,0,0-20.479-18.337s11.145,22.3,20.766,22.073a.825.825,0,0,1,1.115.709,113.353,113.353,0,0,1,3.361,26.269s-.1,1.228-.619-.063c-.851-2.11-8.916-16.216-15.628-18.476,0,0,3.147,16.051,15,20.961a2.7,2.7,0,0,1,1.677,2.329c-.044,1.234-.926,12.748-1.131,14.009a4,4,0,0,1,2.82.383s2-18.306.452-31.325a4.263,4.263,0,0,1-.051-1.708,35.452,35.452,0,0,0,3.824-8.421,43.686,43.686,0,0,0,1.139-18.77,52.577,52.577,0,0,0-5.276,20.994s-.2,2.334-.723.1c0,0-2.209-13.9-3.1-15.847,0,0,7.587-12.03,1.8-31.5,0,0-6.161,8.1-2.793,28.01,0,0,.017,1.805-.646-.175s-4.513-12.043-5.25-15.857a10.32,10.32,0,0,1,.194-3.3c.4-1.78.3-14.147-11.827-28,0,0-.771,5.539,6.908,20.363a26.246,26.246,0,0,1,1.717,5.437s.183,1.689-1.1-.4a64.492,64.492,0,0,0-4.75-6.837s-6.115-6.323-7.387-8.224l-.784-1.241s-.268-12.332-13.746-23.536" transform="translate(-1007.276 -284.418)" fill="#002675" fill-rule="evenodd"/>
      <path id="Path_705" data-name="Path 705" d="M1020.657,308.921l-10.482-19.8s2.735,14.211,10.482,19.8" transform="translate(-1008.191 -285.903)" fill="#6bc4e8" fill-rule="evenodd"/>
      <path id="Path_706" data-name="Path 706" d="M1021.123,332.449l14.255,10.4s-9.676-1.473-14.255-10.4" transform="translate(-1011.648 -299.582)" fill="#6bc4e8" fill-rule="evenodd"/>
      <path id="Path_707" data-name="Path 707" d="M1031.894,364.955l17.016,17.015s-5.863,1.8-17.016-17.015" transform="translate(-1015.048 -309.845)" fill="#6bc4e8" fill-rule="evenodd"/>
      <path id="Path_708" data-name="Path 708" d="M1043.165,407.556l13.359,17.712s-8.738-2.056-13.359-17.712" transform="translate(-1018.607 -323.295)" fill="#6bc4e8" fill-rule="evenodd"/>
    </g>
  </g>
</svg>
