<svg xmlns="http://www.w3.org/2000/svg" xmlns:xlink="http://www.w3.org/1999/xlink" width="1019.709" height="950.18" viewBox="0 0 1019.709 950.18">
  <defs>
    <filter id="Path_554" x="27.163" y="0" width="950.167" height="950.18" filterUnits="userSpaceOnUse">
      <feOffset input="SourceAlpha"/>
      <feGaussianBlur stdDeviation="5" result="blur"/>
      <feFlood flood-opacity="0.525"/>
      <feComposite operator="in" in2="blur"/>
      <feComposite in="SourceGraphic"/>
    </filter>
  </defs>
  <g id="Group_12188" data-name="Group 12188" transform="translate(-3.102 15)">
    <g id="rhombus" transform="translate(-64.956 -79.47)">
      <g transform="matrix(1, 0, 0, 1, 68.06, 64.47)" filter="url(#Path_554)">
        <path id="Path_554-2" data-name="Path 554" d="M570.3,999.65c-44.012,0-86.906-14.2-117.8-38.934-120.44-97.805-205.446-182.764-303.011-302.924-24.95-31.126-39.261-74.241-39.261-118.233s14.171-86.92,38.893-117.771c97.812-120.46,182.771-205.466,302.964-303.058C483.171,93.822,526.333,79.47,570.3,79.47s86.886,14.171,117.771,38.893c120.514,97.846,205.493,182.845,303.038,302.991,24.917,31.092,39.281,74.214,39.281,118.206s-14.171,86.913-38.92,117.784C893.709,777.758,808.776,862.764,688.53,960.375,657.4,985.285,614.263,999.65,570.3,999.65Z" transform="translate(-68.06 -64.47)" fill="#b1b1b1"/>
      </g>
      <path id="Path_555" data-name="Path 555" d="M551.239,958.165c-39.134,0-77.1-12.472-104.175-34.163-118.9-96.521-202.783-180.4-299.057-299.017-21.852-27.225-34.437-65.362-34.437-104.49,0-39.148,12.465-77.091,34.143-104.162,96.494-118.875,180.349-202.763,299.01-299.084C473.988,95.4,512.125,82.82,551.239,82.82c39.161,0,77.085,12.458,104.209,34.163C774.3,213.511,858.164,297.359,954.485,415.993c21.852,27.265,34.41,65.375,34.41,104.5s-12.458,77.084-34.136,104.175c-96.447,118.808-180.309,202.69-298.99,299.064-27.251,21.825-65.369,34.43-104.53,34.43Z" transform="translate(19.058 19.064)" fill="#fff"/>
    </g>
    <g id="_" data-name="&quot;" transform="translate(-321.283 354.385) rotate(-19)">
      <path id="Path_791" data-name="Path 791" d="M1229.759,543.474s-3.6,1.748-10.94-1.614l-20.029-9.485s2.554-2.406,4.157-2.556,22.928,9.859,22.928,9.859,3.4,1.777,3.884,3.8" fill="#002677" fill-rule="evenodd"/>
      <path id="Path_792" data-name="Path 792" d="M1224.644,571.756a10.271,10.271,0,0,0-3.8-7.732c-3.842-2.884-19.188-15.078-29.037-17.333-9.864-2.259,30.19,24.335,30.19,24.335s1.492,1.1,2.644.73" fill="#002677" fill-rule="evenodd"/>
      <path id="Path_793" data-name="Path 793" d="M1209.3,588.4s1.524-4.365-12.132-19.922c0,0-9.313-12.9-8.65-6.762S1203.3,588.44,1209.3,588.4" fill="#002677" fill-rule="evenodd"/>
    </g>
    <g id="_2" data-name="&quot;" transform="translate(1267.808 851.78) rotate(176)">
      <path id="Path_791-2" data-name="Path 791" d="M1229.759,543.474s-3.6,1.748-10.94-1.614l-20.029-9.485s2.554-2.406,4.157-2.556,22.928,9.859,22.928,9.859,3.4,1.777,3.884,3.8" fill="#002677" fill-rule="evenodd"/>
      <path id="Path_792-2" data-name="Path 792" d="M1224.644,571.756a10.271,10.271,0,0,0-3.8-7.732c-3.842-2.884-19.188-15.078-29.037-17.333-9.864-2.259,30.19,24.335,30.19,24.335s1.492,1.1,2.644.73" fill="#002677" fill-rule="evenodd"/>
      <path id="Path_793-2" data-name="Path 793" d="M1209.3,588.4s1.524-4.365-12.132-19.922c0,0-9.313-12.9-8.65-6.762S1203.3,588.44,1209.3,588.4" fill="#002677" fill-rule="evenodd"/>
    </g>
  </g>
</svg>
