<svg xmlns="http://www.w3.org/2000/svg" width="172.886" height="132.031" viewBox="0 0 172.886 132.031">
  <g id="lkl-icon" transform="translate(-279.81 -1045.706)">
    <path id="Path_3258" data-name="Path 3258" d="M330.76,1090.969l-.266-2.193,1.433-1.982,2.321-1.9,9.847-4.583,3.157-1.189,5.729-2.463,6.555-3.244,1.7-1.557.9,1.572,7.137,6.98,9.956,8.883,3.012,4.223-.138,3.837-2.521,1.881-5.191,3.746-5.725,2.957-4.409,2.477-5.482,3.714-3.645,3.958-.756-1.2-2.586-3.129-2.561-2.466-5.416-5.8-5.416-4.507-5.1-4.681Zm30.548,23.946-4.1,1.608,1.939,3.536,3.434-2.365-.56-1.339Zm-4.86-46.618,2.575-.771.615.829-.047,2.281-3.285.549-.447-2.077Zm6.107,3.118.593-1.215,1.459-.684,1.029-.058,1.193,2.27-1.63,1.731-2.033-.975Zm-78.37,5.867,3.165-1.037,4.9-1.052,5.067-.669,3.718-.866,4.663-1.291,2.03-.633,3,.88,3.729,1.419,3.8,2.026,3.394.989,3.307.258,5.78-1.633,5.936-1.615,4.667-1.681,4.3-.72,5.413-1.622,3.765-1.593,2.39-1.069,2.477-.495,2.353.968,1.615-.022,2.812,1.321,2.484,2.011,4.9,4.02,4.063,2.841,5.085,3.343,4.631,2.859,5.711,1.167,4.729-.706,4.929-1.193,1.782.368,3.608,2.033,4.834,3.216,3.9,2.386,4.565,2.059,3.623.953.8-1.506,2.328-1.535,1.528.175,1.851.982,1.3,1.6,6.38-2.444,2.2.469.593,2.044,6.115.979-2.55,2.4,3,4.056-1.571,1.644,3.95,2.4-3.987.713,5.46,2.015-5.784,2.03,4.936,2.266-4.572,1.76,2.019,3.266-3.932-.5-1.215,1.75-1.837.233-1.182-1.022.407-2.354-1.619.087-.72,3.15-1.822,1.943-.906.473-2.073-.426-1-.666-1.179-1.623-.895-2.226-.131-2.084-2.041-.36-1.44-.222-21.163,5.285-2.4,1.03-2.557.047-5.253-2.444-7.464-1.757-2.4-4.147-2.364-.007-2.517-3.39-7.831,3-4.94,2.186-5.213,3.427-5.471,3.754L355.9,1120l-3.1,1.306-.931-.288-2.5-2.968.116-1.262.949-1.324,1.1.018,1.761,1.3.331,1.521-1.139,1.957-.615.76-.342-.105-8.257-6.98L336.3,1107.6l-8.6-5.987-.818.822L323,1104.209l-3.408,1.779-2.026,2.27-1.731.633-2.237-.131-5.369.746-3.336.593-5.063-.848-9.232-3.525-8.981-4.056,11.9.909-7.639-4.412,13.091,1.539-19.159-7.286,11.4.844-8.024-4.736,12.069.611-12.869-4.474,9.752-1.036-7.315-3.034-3.125-1.5Z" transform="translate(0 55.841)" fill="#52b9e4" fill-rule="evenodd"/>
    <path id="Path_3259" data-name="Path 3259" d="M362.462,1069.375h0l.691-.422c-.356-.112-.666-.32-.691.422m-7.22,1.709h0c.844-.1,1.6-.167,2.357-.284a.748.748,0,0,0,.516-.335,2.19,2.19,0,0,0-.109-2.03.708.708,0,0,0-.647-.229c-.811.331-1.59.735-2.444,1.146C355.023,1069.927,355.121,1070.459,355.241,1071.084Zm8.857-1.062h0a2.1,2.1,0,0,0-2.259,1.4.837.837,0,0,0,.346,1.146c.513.273,1.058.491,1.641.757.477-.509.924-.986,1.357-1.451C364.794,1071.208,364.444,1070.611,364.1,1070.022Zm-3.972,45.8h0c-1.557-.138-2.5.855-3.794,1.215.706.979,1.04,2.022,1.972,2.634.669-.56,1.255-1.059,1.851-1.546a1.152,1.152,0,0,0,.393-1.473C360.421,1116.353,360.254,1116.069,360.127,1115.818Zm-9.465,4.827h0c1.757-1.171,1.764-3.179.124-4.2-1.222-.757-1.433-.687-2,.666-.058.138-.087.287-.156.414a.938.938,0,0,0,.167,1.131C349.411,1119.339,350.051,1119.994,350.662,1120.645Zm9.086-47.746h0a.217.217,0,0,0-.124.062c-1.975,2.27-4.711,3.263-7.391,4.285a36.2,36.2,0,0,0-5.456,2.335,8.979,8.979,0,0,1-3.372,1.353,3.71,3.71,0,0,0-1.1.48c-1.186.6-2.35,1.241-3.55,1.8-2,.935-4.03,1.819-6.042,2.736a4.571,4.571,0,0,0-2.255,2.346,3.832,3.832,0,0,0,.444,3.986,44.32,44.32,0,0,0,3.827,4.281c.789.811,1.735,1.466,2.6,2.212,1,.865,1.935,1.819,2.99,2.612a40.367,40.367,0,0,1,5.282,5.06c1,1.08,1.986,2.175,3.026,3.219,1.742,1.746,3.656,3.328,4.962,5.467a2.739,2.739,0,0,0,.342.382c.12-.032.211-.029.255-.073a4.317,4.317,0,0,0,.437-.5,15.777,15.777,0,0,1,4.8-4.376c.608-.349,1.164-.785,1.764-1.15.942-.574,1.906-1.113,2.852-1.684,1-.607,2.052-1.161,2.99-1.863a22.645,22.645,0,0,1,5.22-2.863,17.536,17.536,0,0,0,3.383-1.844,30.534,30.534,0,0,0,3.263-2.67,10.975,10.975,0,0,0,1.641-1.931,1.792,1.792,0,0,0,.3-1.255,10.581,10.581,0,0,0-2.284-4.442,33.42,33.42,0,0,0-5.958-5.34,17.624,17.624,0,0,1-1.6-1.342c-.9-.811-1.76-1.663-2.666-2.459a37.808,37.808,0,0,1-3.925-3.386c-.895-1.026-1.819-2.019-2.7-3.048C361.029,1074.521,360.4,1073.711,359.748,1072.9Zm65.144,20.526c.695.655,1.5.389,2.408.167-.116.444-.2.764-.353,1.331a3.873,3.873,0,0,0,.6-.545c.487-.771.684-.808,1.426-.229.113.087.222.178.4.313a1.683,1.683,0,0,1-1.608.968c-1.106-.025-2.208.022-3.314.036a1.623,1.623,0,0,1-.44-.04c-2.728-.768-5.591-1.168-7.973-2.888a1.957,1.957,0,0,0-.4-.189,28.8,28.8,0,0,1-6.06-3.855,40.868,40.868,0,0,0-4.361-2.619,5.007,5.007,0,0,1-1.331-.768,2.358,2.358,0,0,0-2.67-.574,37.857,37.857,0,0,1-7.2,1.535c-.084.007-.16.116-.415.309,2.2.237,4.219.455,6.395.687a5.78,5.78,0,0,1-2.273.484c-.957-.029-1.921.022-2.866-.083a35.365,35.365,0,0,1-3.59-.619c-2.972-.651-5.62-2.121-8.323-3.43a25.03,25.03,0,0,1-2.393-1.539c-.793-.5-1.6-.986-2.332-1.437a20.638,20.638,0,0,1-1.582,1.771c-.495.448-.935.255-1.164-.4-.244.022-.495.048-.742.066-.025,0-.051-.04-.142-.113.826-.757,1.648-1.506,2.59-2.368-.516-.411-.993-.848-1.517-1.2-1.189-.807-2.463-1.506-3.6-2.382-1.448-1.128-2.79-2.394-4.194-3.583a17.449,17.449,0,0,0-2.757-1.99c.4.59.8,1.179,1.178,1.724-.531.608-1.036,1.139-1.484,1.713-.422.538-.728.684-1.244.418a12.235,12.235,0,0,1-1.917-1.084,4.03,4.03,0,0,1-.728-1.2c-.415.1-.6.346-.305.768a12.874,12.874,0,0,0,1.018,1.321,56.822,56.822,0,0,0,7.722,7.293c.935.716,1.742,1.6,2.641,2.364.76.651,1.589,1.215,2.342,1.87,1.59,1.386,3.176,2.776,4.711,4.22a11.151,11.151,0,0,1,2.6,4.223,5.586,5.586,0,0,1-.135,4.016c-.324.891-1.2,1.258-1.9,1.768-1.666,1.215-3.368,2.383-5.082,3.532a5.289,5.289,0,0,1-1.477.662,11.734,11.734,0,0,0-5.245,2.965,3.664,3.664,0,0,1-.957.735c-1,.491-2.03.9-3.023,1.4a12.545,12.545,0,0,0-1.684,1.048c-.931.662-1.8,1.415-2.757,2.033a14.948,14.948,0,0,0-4.267,4.117,2.539,2.539,0,0,0-.218.557,3.26,3.26,0,0,1,.8,3.434c.542.506,1.08.305,1.771.2-.68-1.229-1.324-2.39-2.041-3.685,1.357-.571,2.583-1.142,3.852-1.6.844-.3,1.12-.1,1.557.731.236.455.466.909.767,1.5a22.447,22.447,0,0,0,1.859-1.433,1.035,1.035,0,0,0,.065-.891,10.167,10.167,0,0,0-.786-1.393c.979.258,1.04,1.375,2,1.775l-.513-1.6c.742.135.848.767,1.095,1.342,1.7-1.073,3.339-2.113,4.991-3.16a13.481,13.481,0,0,1-.946-2.128c-.2-.76.251-1.473.524-2.386a1.423,1.423,0,0,1,.08,1.386,2.479,2.479,0,0,0,.844,2.488c.233.254.753.247,1.175.367-.2-1.316-1.477-2.157-1.011-3.608.393.676.789,1.353,1.175,2.033.113.193.167.415.276.607.142.247.291.611.647.378a.707.707,0,0,0,.164-.647c-.313-.866-.673-1.717-1.048-2.561-.149-.342-.331-.651.055-1.04a5.556,5.556,0,0,1,1.637,3.852,3.73,3.73,0,0,0,1.255-.477,6.242,6.242,0,0,1,2.663-1.2,17.587,17.587,0,0,0,3.445-1.506,15.209,15.209,0,0,1,3.016-1.069c2.2-.757,4.216-.138,6.337.876-.375.022-.615.022-.851.048a7.161,7.161,0,0,1-.768.109c-.295,0-.593-.116-.88-.094q-1.266.082-2.521.244a16.89,16.89,0,0,0-2.182.368c-.7.185-1.36.491-2.124.775.28.553.462.993.709,1.389a2.446,2.446,0,0,0,2.248,1.342,30.02,30.02,0,0,0,3.088-.069c1.6-.222,3.063.349,4.576.611a1.479,1.479,0,0,1,.782.611,21.6,21.6,0,0,0-5.958.105c.506,1.095.975,2.106,1.448,3.132,1.833.422,3.685.771,5.493,1.281,1.742.495,3.434,1.15,5.143,1.746.731.255,1.444.571,2.182.808a3.9,3.9,0,0,0,2.957-.259,36.654,36.654,0,0,1,5.1-1.466q3.852-1.075,7.693-2.161c1.1-.313,2.2-.644,3.3-.957.887-.251,1.779-.487,2.666-.727.847-.229,1.695-.455,2.615-.7-.517-.513-1.164-.935-.68-1.9.786.5,1.557.978,2.31,1.477a7.529,7.529,0,0,1,1.153.865,2.081,2.081,0,0,0,2.153.488c1.251-.324,2.5-.666,3.859-1.029.007-.433.015-.931.025-1.477l2.11-.567.5,1.4a2.58,2.58,0,0,1-2.281,1.135c.506.713,1.109.244,1.564.335.757.917.138,1.684-.2,2.608l-1.288-.255c-.091-.676-.164-1.248-.258-1.968-.647.477-1.4.265-1.862.9a2.392,2.392,0,0,1-2.448.978c-.029-.291-.058-.608-.087-.917a3.627,3.627,0,0,1-.829-.069c-.68-.225-1.328-.575-2.026-.731a3.715,3.715,0,0,0-1.521.08c-2.052.458-4.114.9-6.14,1.458-2.6.717-5.172,1.553-7.762,2.3-.92.269-1.87.429-2.8.644a3.805,3.805,0,0,0-1.862.629,1.57,1.57,0,0,1-1.051.236,2.574,2.574,0,0,0-1.837.662,2.2,2.2,0,0,1-1.979.378,19.5,19.5,0,0,1-3.375-1.069,38.552,38.552,0,0,0-7.37-2.332c-.789-.164-1.6-.222-2.408-.32a3.131,3.131,0,0,1-2.539-1.742,22.465,22.465,0,0,1-.975-2.1,1.01,1.01,0,0,0-.851-.738,5.11,5.11,0,0,1-3.081-1.557c-.531-.586-.971-1.244-1.506-1.943-.473.229-1.058.542-1.662.8-.542.226-1.109.382-1.662.582a2.022,2.022,0,0,0-.589.269,3.716,3.716,0,0,1-1.913.826,3.066,3.066,0,0,0-.687.305c-.64.254-1.288.491-1.928.75a10.521,10.521,0,0,0-.993.444c-.844.44-1.68.895-2.521,1.339-.127.065-.3.08-.4.175-1.142,1.087-2.735,1.386-3.983,2.3-.527.382-1.135.662-1.684,1.022-.767.506-1.524,1.033-2.273,1.571-.56.4-1.106.833-1.648,1.262a2.16,2.16,0,0,1-2.837.3,6.029,6.029,0,0,1-.746-.531,26.1,26.1,0,0,1-2.685,1.375,1.511,1.511,0,0,1-1.659-.28c-.495-.491-1.026-.942-1.539-1.415a3.068,3.068,0,0,0-.567-.523c-2.022-1.08-3.379-2.936-5.082-4.384a45.438,45.438,0,0,0-4.9-4.081,12.282,12.282,0,0,1-2.459-2.07,20.059,20.059,0,0,0-3.31-2.776c-1.12-.793-2.2-1.637-3.314-2.444-.738-.535-1.495-1.044-2.284-1.59l-.953.764c-.142.113-.295.338-.422.327-1.244-.116-2.037.917-3.143,1.2a11.978,11.978,0,0,0-3.088,1.473,5.157,5.157,0,0,0-1.219,1.357,4.7,4.7,0,0,1-4.681,2.113,12.466,12.466,0,0,0-2.106-.16,15.252,15.252,0,0,0-2.182.251c-1.349.233-2.692.509-4.034.767-.073.011-.16-.018-.222.011-1.972.968-3.758,0-5.562-.567-1.87-.593-3.677-1.389-5.565-1.906a39.182,39.182,0,0,1-7.639-3.27,39.431,39.431,0,0,0-4.871-2.154c-.233-.083-.455-.2-.662-.294-.044-.444.16-.615.509-.6a2.677,2.677,0,0,1,.869.146c1.051.437,2.1.891,3.128,1.375,1.368.644,2.732,1.288,4.067,1.986a38.231,38.231,0,0,0,7.77,2.725c.669.186,1.3.513,1.964.742a23.91,23.91,0,0,0,3.47,1.088,6.856,6.856,0,0,0,2.594-.211c2.8-.63,5.573-1.546,8.49-1.022,1.83.331,3.012-.6,4.158-1.757a.355.355,0,0,0,.124-.182c.193-1.237,1.262-1.546,2.172-1.95,1.211-.538,2.484-.938,3.728-1.415a4.716,4.716,0,0,0,2.088-1.284,2,2,0,0,0-.338-.422c-.931-.662-1.873-1.3-2.808-1.957a2.062,2.062,0,0,0-1.553-.4,8.95,8.95,0,0,1-.979.029,2.658,2.658,0,0,1,2.95-.488,7.793,7.793,0,0,1,1.666.848c.982.593,1.942,1.225,2.921,1.826a6.754,6.754,0,0,1,1.826,1.415,8.679,8.679,0,0,0,1.691,1.247c1.047.764,2.081,1.546,3.135,2.3a12.859,12.859,0,0,0,1.208.666c-.036-1.332-.273-2.554.491-3.718.24.2.375.309.444.367-.1.506-.182.942-.269,1.379l.153.032c.131-.167.262-.334.516-.666.484,1.306-.138,2.554.506,3.867-1.157-.469-.666-1.429-1.226-2.168.033.713-.127,1.35.12,1.713a2.757,2.757,0,0,0,1.91,1.393c.458.055.909.167,1.553.287l-.786.531c3.088,2.7,6.126,5.355,9.207,8.043a2.913,2.913,0,0,0,.167-.7c0-1.022.764-1.564,1.371-2.187a.837.837,0,0,1,.786-.04,13.5,13.5,0,0,1,2.019,1.36,2.875,2.875,0,0,1,.757,1.175,1.6,1.6,0,0,1-.342,1.855,18.48,18.48,0,0,0-1.346,1.64c1.921-.261,2.623-1.106,2.619-2.815a7.089,7.089,0,0,0-2.164-4.627c-1.331-1.531-2.852-2.9-4.289-4.344-.418-.418-.844-.833-1.237-1.273a55.4,55.4,0,0,0-6.817-6.66c-2.521-2-4.874-4.216-7.428-6.169a42.877,42.877,0,0,1-4.285-4.161,21.956,21.956,0,0,1-1.8-2.244c-.553-.72-.258-1.528-.105-2.368.113.156.24.305.335.469.466.84.88,1.713,1.4,2.517a12.83,12.83,0,0,0,1.313,1.488,1.768,1.768,0,0,0,.029-1.229,2.6,2.6,0,0,1,.789-2.67,19.106,19.106,0,0,1,5.14-3.375c2.114-1.033,4.383-1.76,6.435-2.9,1.506-.837,3.179-1.15,4.678-1.92.807-.415,1.561-.946,2.393-1.292,1.877-.774,3.787-1.466,5.682-2.193a10.906,10.906,0,0,0,5.154-3.485,6.17,6.17,0,0,0,1-2.187c.291-1.255-.331-1.96-1.717-2.128a3.749,3.749,0,0,1,.658,2.2,1.6,1.6,0,0,1-1.339,1.732c-.389.116-.782.226-1.171.342a1.46,1.46,0,0,1-2.1-1.2,13.747,13.747,0,0,1-.109-1.92c-3.8,1.622-7.646,3.252-11.916,3.855a16.991,16.991,0,0,1,1.069,2.172,2.327,2.327,0,0,1-.411,2.164c-.1-.244-.225-.389-.2-.495.255-.938-.295-1.713-.491-2.557-.142-.618-.7-.666-1.36-.866.385.713,1.088,1.095,1.066,1.972-.844-.4-1.146-1.131-1.641-1.9-.869.328-1.779.721-2.721,1.008-1.586.491-3.194.909-4.794,1.36-1.488.419-2.979.833-4.467,1.266a20.212,20.212,0,0,1-5.605,1.171,14.16,14.16,0,0,1-6.2-1.473c-1.662-.792-3.354-1.527-5.034-2.288a6.511,6.511,0,0,1-.884-.44c-1.175-.786-2.6-.811-3.885-1.247-.2-.069-.495.094-.742.16-1.5.407-3,.811-4.5,1.233-.713.2-1.4.506-2.121.655-1.957.4-3.914.858-5.893,1.091a54.118,54.118,0,0,0-9.348,1.885c-.382.113-.771.208-1.186.316-.04-.276-.058-.418-.095-.669a19.613,19.613,0,0,1,3.543-1.269c1.277-.233,2.535-.549,3.808-.76,1.71-.284,3.434-.495,5.147-.76,1.015-.156,2.041-.291,3.037-.546,2.106-.538,4.2-1.146,6.293-1.731a10.086,10.086,0,0,1,1.491-.422,3.9,3.9,0,0,1,1.731.051c2.361.873,4.685,1.833,7.024,2.768a2.1,2.1,0,0,1,.582.317c1.9,1.655,4.212,1.979,6.6,2.175a14.787,14.787,0,0,0,5.805-1.1,25.181,25.181,0,0,1,4.46-1.266,41.217,41.217,0,0,0,4.5-1.175,5.452,5.452,0,0,0,1.437-.579,11.262,11.262,0,0,1,4.154-1.142,26.638,26.638,0,0,0,4.609-1.084c1.961-.644,3.907-1.354,5.805-2.164a31.125,31.125,0,0,1,3.477-1.437c1.517-.448,2.975-.64,4.31.476a.479.479,0,0,0,.4.109c.844-.338,1.611.123,2.368.3a5.241,5.241,0,0,1,1.786,1.055c1.677,1.27,3.354,2.542,4.983,3.878,2.408,1.971,4.983,3.7,7.508,5.514a61.611,61.611,0,0,0,5.845,3.815c1.771.99,3.674,1.75,5.525,2.594a2.359,2.359,0,0,0,.757.131,25.719,25.719,0,0,0,9.745-1.149,11.762,11.762,0,0,1,2.27-.506,3.934,3.934,0,0,1,1.713.305,27.54,27.54,0,0,1,3.183,1.51c.859.483,1.582,1.215,2.459,1.648,1.993.986,3.648,2.481,5.583,3.539a22.1,22.1,0,0,1,3.4,2.241,1.516,1.516,0,0,0,.491.244c1.7.523,3.4,1.04,5.165,1.579.167-.364.284-.669.44-.949.186-.331.4-.229.611,0Z" transform="translate(1.243 55.545)" fill="#001d63"/>
    <path id="Path_3260" data-name="Path 3260" d="M309.767,1078.721c0-.7.375-.72.749-.775s.764-.149,1.146-.222a.843.843,0,0,1,.415-.04,4.222,4.222,0,0,0,3.6-.505c1.488-.746,2.972-1.284,4.656-.673a5.293,5.293,0,0,0,1.164.149l.054.254a2.5,2.5,0,0,1-.8.262,12.314,12.314,0,0,0-4.962,1.317,5.056,5.056,0,0,1-2.8.375,14.132,14.132,0,0,0-1.757-.059c-.473-.018-.946-.054-1.469-.083" transform="translate(79.011 80.534)" fill="#001d63"/>
    <path id="Path_3261" data-name="Path 3261" d="M313.047,1081.08c2.368-.534,4.714-1.178,7.108-1.583s4.82-.567,7.231-.84c.116.48-.156.647-.52.7-1.419.219-2.834.462-4.26.611a36.611,36.611,0,0,0-7.38,1.281,8.714,8.714,0,0,1-1.735.309c-.16.018-.342-.171-.517-.265l.073-.215" transform="translate(87.47 86.908)" fill="#001d63"/>
    <path id="Path_3262" data-name="Path 3262" d="M327.78,1078.741c-.182.131-.345.349-.542.382a10.31,10.31,0,0,1-3.474.156,29.947,29.947,0,0,0-5.824-.2,16.9,16.9,0,0,1-2.1-.087,3.44,3.44,0,0,1-.917-.4l.058-.254c.811-.018,1.622-.033,2.437-.058a39.018,39.018,0,0,1,7.166.254,17.81,17.81,0,0,0,3.077-.04l.116.244" transform="translate(92.615 85.794)" fill="#001d63"/>
    <path id="Path_3263" data-name="Path 3263" d="M309.339,1072.934c.873-.113,1.753-.178,2.612-.349a2.55,2.55,0,0,1,1.983.491c.647.429,1.277.888,1.942,1.288.433.262.913.444,1.371.662-.626.935-.706.989-1.637.488a21.392,21.392,0,0,1-2.546-1.553,2.132,2.132,0,0,0-1.542-.378,6,6,0,0,1-1.328-.007,4.355,4.355,0,0,1-.935-.353l.08-.288" transform="translate(77.671 70.774)" fill="#001d63"/>
    <path id="Path_3264" data-name="Path 3264" d="M296.026,1077.229a4.962,4.962,0,0,0-2.39,1.848,6.741,6.741,0,0,1-3.325,1.917,26.363,26.363,0,0,1-2.943.6c.215-.368.28-.637.44-.72a7.36,7.36,0,0,1,1.524-.622,8.155,8.155,0,0,0,4.271-2.361c.713-.785,1.226-.873,2.422-.662" transform="translate(19.937 82.883)" fill="#001d63"/>
    <path id="Path_3265" data-name="Path 3265" d="M317.237,1078.132a3.124,3.124,0,0,1,.178.927,1.459,1.459,0,0,1-.407.913,20.733,20.733,0,0,1-2.321,1.4,1.273,1.273,0,0,1-1.262-.138c-.738-.415-1.495-.789-2.241-1.175l.073-.9a2.566,2.566,0,0,1,.335.1c.589.305,1.178.611,1.76.927a1.244,1.244,0,0,0,1.535-.12c.713-.607,1.448-1.193,2.35-1.935" transform="translate(82.748 85.523)" fill="#001d63"/>
    <path id="Path_3266" data-name="Path 3266" d="M289.557,1072.136c1.939-2.066,6.067-2.539,8.25-1.044-.211.109-.382.284-.546.277a9.052,9.052,0,0,1-1.968-.186,6.207,6.207,0,0,0-3.659.389c-.68.226-1.382.378-2.077.564" transform="translate(25.708 64.653)" fill="#001d63"/>
    <path id="Path_3267" data-name="Path 3267" d="M309.4,1074.317c.695.931.211,1.735.418,2.51.56-.516.626-1.378,1.524-1.775.025.367.156.706.04.869-.666.935-.593,2.342-1.877,3.052,0-.386,0-.626-.007-.844-.415.426-.818.84-1.222,1.251l-.182-.138c.273-.771.6-1.524.811-2.31s.3-1.572.495-2.615" transform="translate(74.601 75.462)" fill="#001d63"/>
    <path id="Path_3268" data-name="Path 3268" d="M316.488,1079.952c.786,1.488.727,1.655-.466,2.623a1.117,1.117,0,0,1-1.113.277c-.917-.28-1.833-.553-2.732-.884-.451-.167-.429-.222-.295-.942.717.251,1.422.542,2.157.75a1.341,1.341,0,0,0,1.855-.9c.142-.309.054-.764.593-.924" transform="translate(84.367 90.324)" fill="#001d63"/>
    <path id="Path_3269" data-name="Path 3269" d="M297.619,1076.348a1.989,1.989,0,0,1-2.433.27c-.575-.316-1.229-.84-1.786-.768-.968.127-1.691-.615-2.6-.462-.047.007-.113-.076-.269-.189a4.1,4.1,0,0,1,.549-.255,3.819,3.819,0,0,1,3.492.426,8.082,8.082,0,0,0,2.193.706c.226.069.451.142.855.272" transform="translate(28.274 76.507)" fill="#001d63"/>
    <path id="Path_3270" data-name="Path 3270" d="M296.546,1076.905c.316.371.582.538.589.717a7.551,7.551,0,0,1-.778,3.87c-.2-.214-.469-.375-.455-.5.171-1.266.389-2.525.644-4.089" transform="translate(42.442 82.287)" fill="#001d63"/>
    <path id="Path_3271" data-name="Path 3271" d="M308.275,1069.93a7.914,7.914,0,0,0-1.8,1.357,8.891,8.891,0,0,0-.793,2.222c-.135-.393-.291-.607-.262-.8a6.4,6.4,0,0,1,.4-1.8c.425-.9,1.189-1.2,2.452-.986" transform="translate(67.535 63.712)" fill="#001d63"/>
    <path id="Path_3272" data-name="Path 3272" d="M289.78,1079.19a1.693,1.693,0,0,1,.8-1.251,2.606,2.606,0,0,0,1.237-2.193c0-.08.106-.164.171-.258.818,1.284-.273,3.121-2.2,3.7" transform="translate(26.296 78.548)" fill="#001d63"/>
    <path id="Path_3273" data-name="Path 3273" d="M305.15,1070.227c-.16.018-.491.051-.826.087l-.124-.265c.444-.378.888-.76,1.353-1.157a1.713,1.713,0,0,1,.295.153c.266.2.793.291.6.753a2.927,2.927,0,0,1-.789.858,5.313,5.313,0,0,1-.506-.429" transform="translate(64.331 61.153)" fill="#001d63"/>
    <path id="Path_3274" data-name="Path 3274" d="M305.673,1072.2a2.912,2.912,0,0,1,1.932-1.924c-.091.24-.109.564-.28.706-.477.4-.757,1.07-1.651,1.219" transform="translate(68.213 64.793)" fill="#001d63"/>
    <path id="Path_3275" data-name="Path 3275" d="M296.086,1079.992l1.491-2.237c.124.189.385.469.338.534-.411.589-.869,1.146-1.335,1.691-.058.066-.251.011-.495.011" transform="translate(42.928 84.529)" fill="#001d63"/>
    <path id="Path_3276" data-name="Path 3276" d="M298.278,1081.731a2.735,2.735,0,0,1,1.015-2.426c.506.618-.182.844-.306,1.233-.138.437-.3.865-.447,1.295l-.262-.1" transform="translate(48.709 88.617)" fill="#001d63"/>
    <path id="Path_3277" data-name="Path 3277" d="M309.19,1076.876c-.291-.775,0-1.27,1.109-2.037-.047.877-.051.881-1.109,2.037" transform="translate(77.209 76.838)" fill="#001d63"/>
    <path id="Path_3278" data-name="Path 3278" d="M299.027,1079.273c.047.1.156.219.127.28-.32.753-.662,1.5-1.037,2.328a2.234,2.234,0,0,1,.909-2.608" transform="translate(47.989 88.533)" fill="#001d63"/>
    <path id="Path_3279" data-name="Path 3279" d="M296.9,1068.805c.167.385.295.716.455,1.033.149.291.331.561.506.851-.415.393-.622.08-.811-.178-.375-.5-.738-1.022-.149-1.706" transform="translate(44.266 60.924)" fill="#001d63"/>
    <path id="Path_3280" data-name="Path 3280" d="M295.015,1072.079c-.6.717-1.208,1.433-1.775,2.11-.153-.88.451-1.634,1.775-2.11" transform="translate(35.36 69.559)" fill="#001d63"/>
    <path id="Path_3281" data-name="Path 3281" d="M299.511,1068.094c.742.7.753.724.873,1.539-.7-.025-.9-.357-.873-1.539" transform="translate(51.954 59.048)" fill="#001d63"/>
    <path id="Path_3282" data-name="Path 3282" d="M298.09,1070.709c-.949.083-1.415-.324-1.771-1.56.622.549,1.16,1.022,1.771,1.56" transform="translate(43.54 61.831)" fill="#001d63"/>
    <path id="Path_3283" data-name="Path 3283" d="M299.6,1067.811a2.4,2.4,0,0,1,1.451,1.822,2.722,2.722,0,0,1-1.451-1.822" transform="translate(52.199 58.302)" fill="#001d63"/>
    <path id="Path_3284" data-name="Path 3284" d="M296.818,1076.462c.2.727-.215,1.153-.611,1.6-.149-.775-.073-.989.611-1.6" transform="translate(43.077 81.119)" fill="#001d63"/>
    <path id="Path_3285" data-name="Path 3285" d="M296.53,1076.556c-.244.182-.484.364-.913.684.087-.753.371-.906.767-.928l.146.244" transform="translate(41.691 80.723)" fill="#001d63"/>
    <path id="Path_3286" data-name="Path 3286" d="M319.934,1069.555s-5.227-2.619-6.166-2.583-2.717,1.149-3.867,3.175-23.749,39.816-23.749,39.816l6.584,1.357,6.726,1.386,19.635-32.875s2.092-2.172,2.193,1.9l.105,4.071v26.015l13.168-3.5v-51.6c.531-10.916-16.965-4.787-24.142-3.67v6.479s12.644-6.861,12.437,3.284-1.044,6.675-1.044,6.675Z" transform="translate(16.73 12.177)" fill="#001d63" fill-rule="evenodd"/>
    <path id="Path_3287" data-name="Path 3287" d="M355.855,1113.418l-12.218,2.382-5.336-9.548c-13.822-24.593-16.358-21.894-16.358-21.894l-8.232,7.217s.142,7.617.564,8.013H300.2l-.036-37.6,12.317-.109.767,18.5,21.825-26.74,7.624,4.685-12.426,18.1c9.669,10.087,18.8,26.259,25.583,37" transform="translate(53.686 20.915)" fill="#001d63" fill-rule="evenodd"/>
    <path id="Path_3288" data-name="Path 3288" d="M329.015,1081.732c-4.223-2.121-6.8-4.27-10.032.593-1.291,1.943-9.516,14.557-9.516,14.557l9.265,11.182,9.447-16.056s2.092-2.172,2.2,1.9.1,4.071.1,4.071v29.271l13.171,16.427V1052.1c.527-10.916-16.969-4.787-24.142-3.67v6.479s12.644-6.86,12.437,3.284-1.047,23.469-1.047,23.469Z" transform="translate(78.22 0)" fill="#001d63" fill-rule="evenodd"/>
  </g>
</svg>
