<svg xmlns="http://www.w3.org/2000/svg" width="34.935" height="40.012" viewBox="0 0 34.935 40.012">
  <g id="gift" transform="translate(-32.482 0)">
    <path id="Path_3965" data-name="Path 3965" d="M65.139,242.453l-3.8-1.383a1.1,1.1,0,0,0-.4-.07H36.607a1.161,1.161,0,0,0-1.172,1.172v16.489a3.512,3.512,0,0,0,3.517,3.517H62.4a3.512,3.512,0,0,0,3.517-3.517V243.554A1.163,1.163,0,0,0,65.139,242.453Z" transform="translate(-2.722 -222.165)" fill="#00195a"/>
    <path id="Path_3966" data-name="Path 3966" d="M245.674,243.554v15.106a3.512,3.512,0,0,1-3.517,3.517H230.435V241H240.7a1.1,1.1,0,0,1,.4.07l3.8,1.383A1.163,1.163,0,0,1,245.674,243.554Z" transform="translate(-182.483 -222.165)" fill="#00195a"/>
    <path id="Path_3967" data-name="Path 3967" d="M178.367,7.642a4.746,4.746,0,0,0-3.212-3.4,4.671,4.671,0,0,0-4.548.985l-2.72,2.391-.539-3.587A4.749,4.749,0,0,0,164.465.351a4.451,4.451,0,0,0-.914-.258,4.662,4.662,0,0,0-3.7.821,4.733,4.733,0,0,0,1.172,8.3l2.532.914,3.118,1.149h.023l5.416,1.993a5.03,5.03,0,0,0,1.641.281,4.777,4.777,0,0,0,4.619-5.908Z" transform="translate(-115.598 0)" fill="#52b9e4"/>
    <path id="Path_3968" data-name="Path 3968" d="M67.2,64.772l-1.594,4.408a1.187,1.187,0,0,1-1.1.75,1.1,1.1,0,0,1-.4-.07L51.984,65.452l-1.1-3.634-2.931.656-2.579.586L33.252,58.653a1.193,1.193,0,0,1-.7-1.5l1.618-4.407a3.495,3.495,0,0,1,4.5-2.11l9.284,3.376.633.234s2.532,4.6,2.6,4.6c.047,0,1.055-.563,2.04-1.1s1.969-1.1,1.969-1.1l9.894,3.61a3.554,3.554,0,0,1,1.993,1.829A3.47,3.47,0,0,1,67.2,64.772Z" transform="translate(0 -46.477)" fill="#00195a"/>
    <path id="Path_3969" data-name="Path 3969" d="M249.683,107.16l-1.594,4.408a1.187,1.187,0,0,1-1.1.75,1.1,1.1,0,0,1-.4-.07l-12.121-4.408-1.1-3.634-2.931.656V96.4l.633.234s2.532,4.6,2.6,4.6c.047,0,1.055-.563,2.04-1.1s1.969-1.1,1.969-1.1l9.894,3.61a3.554,3.554,0,0,1,1.993,1.829A3.47,3.47,0,0,1,249.683,107.16Z" transform="translate(-182.483 -88.865)" fill="#00195a"/>
    <g id="Group_12107" data-name="Group 12107" transform="translate(44.435 7.768)">
      <path id="Path_3970" data-name="Path 3970" d="M185.435,241v21.178h7.033V241Z" transform="translate(-185.435 -229.933)" fill="#52b9e4"/>
      <path id="Path_3971" data-name="Path 3971" d="M200.647,99.4l-.633,1.735-2.579,7.08,2.579.938,2.931,1.055,1.1.4,3.212-8.815Z" transform="translate(-196.497 -99.398)" fill="#52b9e4"/>
    </g>
  </g>
</svg>
