<svg xmlns="http://www.w3.org/2000/svg" width="107.671" height="107.669" viewBox="0 0 107.671 107.669">
  <g id="rhombus" transform="translate(107.671) rotate(90)">
    <path id="Path_557" data-name="Path 557" d="M53.834,107.671a22.347,22.347,0,0,1-13.784-4.556A224.585,224.585,0,0,1,4.594,67.67a23.134,23.134,0,0,1-.043-27.615A224.549,224.549,0,0,1,40,4.594a23.131,23.131,0,0,1,27.613-.043A224.456,224.456,0,0,1,103.073,40a23.12,23.12,0,0,1,.042,27.613,224.312,224.312,0,0,1-35.447,35.458,22.459,22.459,0,0,1-13.834,4.6Z" transform="translate(0 0)" fill="#fff"/>
    <path id="Path_558" data-name="Path 558" d="M51.212,102.425a19.752,19.752,0,0,1-12.19-4A221.284,221.284,0,0,1,4.03,63.439,19.805,19.805,0,0,1,0,51.213,19.753,19.753,0,0,1,4,39.025a221.3,221.3,0,0,1,34.987-35A19.827,19.827,0,0,1,51.212,0,19.761,19.761,0,0,1,63.406,4,221.662,221.662,0,0,1,98.4,38.985a19.818,19.818,0,0,1,4.026,12.228A19.767,19.767,0,0,1,98.428,63.4,221.533,221.533,0,0,1,63.443,98.4a19.837,19.837,0,0,1-12.231,4.029Z" transform="translate(2.622 2.623)" fill="#b1b1b1"/>
    <path id="Path_559" data-name="Path 559" d="M45.956,91.907a14.337,14.337,0,0,1-8.682-2.75A218.23,218.23,0,0,1,2.813,54.717v0a15.06,15.06,0,0,1-.042-17.469h0A218.572,218.572,0,0,1,37.2,2.811a15.084,15.084,0,0,1,17.431-.077A218.4,218.4,0,0,1,89.1,37.193a15.065,15.065,0,0,1,.066,17.441l.009-.009-.009.009a.082.082,0,0,1-.023.027A218.011,218.011,0,0,1,54.721,89.094a14.392,14.392,0,0,1-8.765,2.814Z" transform="translate(7.878 7.881)" fill="#fff"/>
    <path id="Path_560" data-name="Path 560" d="M43.2,43.2A11.93,11.93,0,0,1,36.089,41,214.706,214.706,0,0,1,2.246,7.175V7.167h0A12.015,12.015,0,0,1,0,0H86.4A12.033,12.033,0,0,1,84.2,7.106,214.525,214.525,0,0,1,50.376,40.943,11.977,11.977,0,0,1,43.2,43.2Z" transform="translate(10.637 53.835)" fill="#002677"/>
  </g>
</svg>
