<svg id="Group_12158" data-name="Group 12158" xmlns="http://www.w3.org/2000/svg" width="566.64" height="566.638" viewBox="0 0 566.64 566.638">
  <g id="Group_12157" data-name="Group 12157">
    <g id="Group_12156" data-name="Group 12156">
      <path id="Path_4442" data-name="Path 4442" d="M455.53,615.758c-27.1,0-53.519-8.747-72.536-23.972-74.166-60.231-126.521-112.548-186.6-186.541-15.355-19.169-24.178-45.717-24.178-72.806s8.733-53.526,23.96-72.521C256.4,185.738,308.717,133.391,382.731,73.3c19.146-15.339,45.725-24.176,72.8-24.176s53.51,8.724,72.528,23.951C602.269,133.323,654.6,185.663,714.665,259.648c15.347,19.146,24.192,45.7,24.192,72.792s-8.732,53.518-23.973,72.528c-60.193,74.151-112.5,126.5-186.547,186.608-19.161,15.339-45.725,24.183-72.806,24.183Z" transform="translate(-172.217 -49.12)" fill="#fff"/>
    </g>
  </g>
  <path id="Path_4443" data-name="Path 4443" d="M453.827,600.249c-24.1,0-47.474-7.681-64.151-21.037-73.218-59.435-124.868-111.09-184.151-184.13-13.463-16.765-21.2-40.251-21.2-64.345,0-24.109,7.666-47.474,21.014-64.141,59.428-73.2,111.068-124.861,184.138-184.175,16.788-13.455,40.265-21.2,64.352-21.2,24.116,0,47.473,7.674,64.171,21.038,73.2,59.442,124.838,111.075,184.145,184.129,13.463,16.788,21.189,40.259,21.189,64.353s-7.675,47.466-21.023,64.149C642.919,468.045,591.286,519.7,518.2,579.046c-16.788,13.44-40.258,21.2-64.374,21.2Z" transform="translate(-170.514 -47.418)" fill="#f2f2f2"/>
  <path id="Path_4444" data-name="Path 4444" d="M451.833,582.066c-18.011,0-35.919-5.655-47.866-15.154-75.534-61.323-128.826-114.583-189.959-189.866v-.016c-9.705-12.1-15.517-30.162-15.517-48.289s5.725-36.076,15.281-48.016h-.016c61.3-75.447,114.536-128.7,189.787-189.818,12.1-9.713,30.17-15.5,48.29-15.5,18.019,0,35.863,5.616,47.8,15.077,75.6,61.384,128.89,114.662,190.022,189.959,9.722,12.112,15.51,30.17,15.51,48.3,0,18.064-5.663,35.934-15.148,47.85l.047-.048-.047.048a.532.532,0,0,1-.119.148c-61.243,75.432-114.456,128.678-189.739,189.818-12.127,9.721-30.185,15.509-48.329,15.509Z" transform="translate(-168.52 -45.421)" fill="#fff"/>
</svg>
