<svg xmlns="http://www.w3.org/2000/svg" width="286.65" height="286.654" viewBox="0 0 286.65 286.654">
  <path id="rhombus" d="M253.544,366.124c-13.711,0-27.073-4.425-36.7-12.129-37.52-30.468-64-56.935-94.394-94.367-7.772-9.7-12.231-23.127-12.231-36.832s4.415-27.077,12.116-36.688c30.47-37.526,56.937-64.007,94.379-94.409,9.686-7.76,23.132-12.231,36.828-12.231s27.067,4.415,36.688,12.116c37.542,30.481,64.015,56.96,94.4,94.388,7.762,9.686,12.237,23.119,12.237,36.823s-4.415,27.075-12.124,36.692c-30.454,37.511-56.912,63.992-94.371,94.4-9.7,7.76-23.136,12.235-36.832,12.235Z" transform="translate(-110.221 -79.47)" fill="#fff"/>
</svg>
