<svg xmlns="http://www.w3.org/2000/svg" width="93.527" height="60.842" viewBox="0 0 93.527 60.842">
  <g id="stay-true" transform="translate(-1380.43 -196.073)">
    <path id="Path_711" data-name="Path 711" d="M1456.917,199.892h-66.15a6.773,6.773,0,0,1-6.27,6.27v34.375a6.771,6.771,0,0,1,6.27,6.266h66.15a6.767,6.767,0,0,1,6.27-6.266V206.162a6.769,6.769,0,0,1-6.27-6.27" transform="translate(3.35 3.146)" fill="#002675" fill-rule="evenodd"/>
    <path id="Path_712" data-name="Path 712" d="M1380.43,196.073h0v0Zm0,60.842h93.527V196.073H1380.43ZM1468.348,245h-.489a5.943,5.943,0,0,0-5.934,5.934v.487h-69.468v-.487a5.943,5.943,0,0,0-5.934-5.934h-.487V207.983h.487a5.939,5.939,0,0,0,5.934-5.934v-.487h69.468v.487a5.94,5.94,0,0,0,5.934,5.934h.489Z" fill="#002675" fill-rule="evenodd"/>
    <path id="Path_713" data-name="Path 713" d="M1399.2,206.128c.159.108.325.21.485.321q.315.222.629.458c.392.29.764.609,1.171.886a2.7,2.7,0,0,1,.594.472,2.283,2.283,0,0,0,.31.248.273.273,0,0,1,.1.316c-.031.117-.069.241-.217.27a.1.1,0,0,0-.051.035,1.934,1.934,0,0,1-.436.379,3.839,3.839,0,0,0-.292.252c-.277.235-.551.483-.841.706-.23.181-.476.326-.717.492-.177.126-.35.252-.52.379-.1.071-.19.137-.285.208a1.268,1.268,0,0,0-.22.213c.058,0,.113,0,.171,0,.2-.007.4-.011.605-.018.049,0,.1-.015.155-.015.288,0,.576,0,.864,0,.044,0,.086.038.126.044a1.028,1.028,0,0,0,.184-.013,1.47,1.47,0,0,1,.407-.04,3.175,3.175,0,0,0,.616-.015,4.085,4.085,0,0,1,.538-.02,2.387,2.387,0,0,0,.573-.02c.188-.018.379,0,.567,0s.367-.026.551-.022.343.029.512.042a.119.119,0,0,0,.071,0,3.192,3.192,0,0,1,.746-.046c.058,0,.121-.005.181-.007a.282.282,0,0,1,.324.277,1.08,1.08,0,0,1,0,.483.217.217,0,0,0,.022.133.288.288,0,0,1-.151.423.181.181,0,0,1-.058.018c-.162.013-.328.027-.491.027a4.468,4.468,0,0,1-.7-.038.526.526,0,0,0-.17.007,6.072,6.072,0,0,1-.923.086c-.173,0-.343.022-.514.027h-.106a1.716,1.716,0,0,0-.469-.027c-.137.033-.285-.053-.41.051a.6.6,0,0,0-.266,0,1.866,1.866,0,0,1-.2.018c-.146,0-.293,0-.447,0-.1,0-.2,0-.3.011-.139.007-.283.022-.423.026-.184,0-.368,0-.554,0s-.4.013-.6.013c-.122,0-.239-.009-.365-.009-.071,0-.144.015-.21.013-.469-.024-.936-.046-1.4-.071a1.628,1.628,0,0,1-.283-.046.262.262,0,0,1-.226-.294.526.526,0,0,1,.057-.266.335.335,0,0,0,.018-.162.248.248,0,0,1,.095-.255.183.183,0,0,0,.051-.12.386.386,0,0,1,.147-.277c.255-.2.507-.414.759-.627.171-.148.343-.3.52-.452s.346-.279.52-.419c.086-.066.163-.14.245-.21.162-.155.321-.316.487-.465.2-.181.394-.356.591-.533.073-.066.144-.128.22-.2-.22-.155-.427-.3-.635-.447a12.815,12.815,0,0,1-1.023-.819,3.31,3.31,0,0,0-.375-.266c-.048-.035-.095-.069-.148-.111-.239-.2-.494-.39-.75-.571-.2-.14-.394-.27-.6-.4a.532.532,0,0,1-.149-.188.127.127,0,0,1,.005-.144,2.228,2.228,0,0,0,.126-.27.453.453,0,0,0-.036-.04c-.173-.089-.173-.226-.119-.427a.246.246,0,0,1,.252-.139c.31.024.627.046.945.06.166.007.332-.005.5-.011a.989.989,0,0,1,.3-.015c.18.058.348-.027.521-.02a2.7,2.7,0,0,0,.272,0c.093-.007.19-.035.285-.047s.21-.007.314-.015a1.529,1.529,0,0,1,.332-.036c.221.033.432-.029.651-.015h.029c.339,0,.682,0,1.021-.011.226-.009.454-.044.68-.064.113-.007.228,0,.339,0,.018,0,.04.016.058.009a1.433,1.433,0,0,1,.591-.02c.248.007.5.011.746.015.292.005.587.005.879.007a.2.2,0,0,1,.239.2.712.712,0,0,0,.091.243.407.407,0,0,1,.042.443c-.029.062,0,.148,0,.221a.224.224,0,0,1-.21.233,1.516,1.516,0,0,1-.529-.007,1.247,1.247,0,0,0-.273-.018c-.1-.011-.2-.024-.3-.033a2.13,2.13,0,0,0-.263-.015c-.22,0-.447.015-.673.015-.343.007-.689.007-1.036.007-.1,0-.2-.007-.3-.007-.317,0-.631.007-.95.015-.084,0-.168.022-.257.022-.226,0-.458,0-.682,0h-.137c-.332-.005-.673-.011-1.009-.015h-.133Z" transform="translate(13.518 7.148)" fill="#fff" fill-rule="evenodd"/>
    <path id="Path_714" data-name="Path 714" d="M1415.655,205.453h.09c0,.093,0,.181-.007.274a.3.3,0,0,1-.035.086.107.107,0,0,1-.133.073,2.392,2.392,0,0,0-.6.011,1.922,1.922,0,0,1-.562.029c-.051-.013-.111.02-.166.02h-.857c-.274,0-.549,0-.823,0-.184,0-.365-.02-.549-.024-.1,0-.2.018-.3.018-.421.011-.839.015-1.251.018-.175,0-.348-.013-.521-.013-.148,0-.292.013-.438.024-.082.007-.164.024-.259.033-.011.2-.024.4-.031.6,0,.115-.007.226-.014.336,0,.053-.011.1-.007.151a1.822,1.822,0,0,1-.04.605,1.82,1.82,0,0,0-.018.255c.317,0,.624,0,.926.007.144,0,.288.015.427.007.117,0,.23-.033.348-.029a.957.957,0,0,1,.436.029c.011.007.037-.007.055-.011.147,0,.3,0,.443-.007.04,0,.08,0,.122,0,.243-.013.483-.033.731-.036.11,0,.217,0,.332,0a2.083,2.083,0,0,1,.509.022,3.733,3.733,0,0,0,.589.005c.1,0,.208.013.3.02.055.106.106.188.144.281a.216.216,0,0,1,0,.14c-.115.1-.064.224-.046.328.046.284-.051.379-.346.341a1.044,1.044,0,0,0-.237.016c-.162,0-.325,0-.485-.007-.316,0-.624-.007-.936-.007a3.448,3.448,0,0,0-.531.02,4.122,4.122,0,0,1-.425,0c-.2,0-.394.011-.593.015-.109.005-.215,0-.323,0-.412.009-.826.018-1.24.031l-.029,0c-.2.016-.2.022-.2.228,0,.181-.018.357-.025.54a2.727,2.727,0,0,1,.007.419,2.266,2.266,0,0,1-.071.492c.029.243-.069.481-.026.737.06-.029.13.06.188-.016.067.071.151.031.23.044s.151.011.224.018.155,0,.231.007l.23,0c.086,0,.162,0,.248,0a1.843,1.843,0,0,1,.224-.011c.208.005.407.024.609.029.129,0,.262-.016.4-.018.062,0,.129.007.191.007l.72.018c.264,0,.527-.005.793-.007.21,0,.421-.011.627-.011.527-.007,1.052-.007,1.576-.007a.7.7,0,0,1,.2.018.389.389,0,0,1,.251.4.532.532,0,0,1-.014.133.147.147,0,0,0,.036.151.731.731,0,0,1,.11.23.2.2,0,0,1-.12.275.616.616,0,0,1-.206.046l-.717.026c-.133,0-.266.007-.4.009-.272.013-.549.02-.826.031-.235.007-.476.022-.715.029-.2.007-.4,0-.591.015a6.144,6.144,0,0,1-.934-.011,7.043,7.043,0,0,0-.735,0c-.313.011-.627.018-.945,0-.24-.011-.478,0-.72,0-.31,0-.62.007-.927-.015a.885.885,0,0,1-.292-.122.292.292,0,0,0-.1-.286.24.24,0,0,1-.09-.255,7.36,7.36,0,0,0,.018-.915c0-.219,0-.438.007-.66.011-.259.04-.516.06-.775,0-.051,0-.1,0-.155,0-.306.007-.613.007-.921a2.028,2.028,0,0,0-.011-.257c-.064-.4,0-.806-.022-1.205-.024-.381-.035-.759-.049-1.138-.011-.191-.022-.385-.036-.574a3.043,3.043,0,0,0-.055-.348.269.269,0,0,1,.121-.3c.042-.029.133-.022.115-.115a.409.409,0,0,0,.082-.013,1.738,1.738,0,0,1,.649-.171c.257-.033.523-.051.79-.062.188-.007.383.007.58.007a5.942,5.942,0,0,0,.624-.007,6.115,6.115,0,0,1,.837.007c.284.011.573.018.855.024.126,0,.251,0,.377.005a1.336,1.336,0,0,1,.27.022.721.721,0,0,0,.3-.018,2.061,2.061,0,0,1,.319-.015l.76-.022c.1,0,.2,0,.3.007.162,0,.321.007.483.007a.641.641,0,0,1,.472.248.347.347,0,0,1,.077.346,1.377,1.377,0,0,0-.022.191" transform="translate(22.427 7.053)" fill="#fff" fill-rule="evenodd"/>
    <path id="Path_715" data-name="Path 715" d="M1406.114,206.046a1.184,1.184,0,0,0-.133-.02c-.184.005-.365.02-.549.029s-.361-.005-.547,0a7.481,7.481,0,0,0-.757.029,3.45,3.45,0,0,1-.866-.058c-.166-.024-.335-.042-.5-.057-.051,0-.1.011-.155.015-.082.007-.161.015-.241.015-.151,0-.2-.051-.2-.2,0-.075.011-.148.011-.226a.138.138,0,0,0-.011-.069.5.5,0,0,1,.075-.534c.095-.016.173-.035.261-.046a3.3,3.3,0,0,1,.376-.029c.241,0,.489,0,.731.013a3.224,3.224,0,0,0,.375,0c.3-.009.6-.009.9-.013.079,0,.153,0,.23-.007.31-.011.616-.029.923-.033.1,0,.195.055.282.04a1.382,1.382,0,0,1,.275-.022c.084,0,.17-.035.253-.036.347-.016.695-.031,1.038-.038a2.763,2.763,0,0,1,.343.046.346.346,0,0,0,.044,0,4.516,4.516,0,0,1,.916-.033c.122,0,.243-.013.367-.016l.578-.011c.19-.007.374-.026.562-.016a.967.967,0,0,1,.254.078c.046.02.086.046.138.071a.155.155,0,0,0,.026.093.292.292,0,0,1,.073.279,1.5,1.5,0,0,0,.007.255v.02c.007.254-.126.372-.365.3a.449.449,0,0,0-.219-.007,3.206,3.206,0,0,0-.48.067,2.115,2.115,0,0,1-.469,0c-.191,0-.387.022-.574.026a2.1,2.1,0,0,1-.3-.04.181.181,0,0,0-.062-.005,4.831,4.831,0,0,1-1.052.036,2.139,2.139,0,0,0-.239.027c-.011.155-.018.31-.037.461a1.439,1.439,0,0,0-.024.354,2.6,2.6,0,0,1-.015.432.468.468,0,0,0,.018.212.43.43,0,0,1,.017.188c0,.213,0,.427.011.636.015.294.037.587.044.879,0,.175-.015.354-.022.529a.684.684,0,0,0,.007.122,1.13,1.13,0,0,1,0,.35,2.253,2.253,0,0,0,0,.587,2.345,2.345,0,0,1-.007.39c.014.173-.029.348,0,.525.007.08-.042.17.047.228-.062.077,0,.17-.025.255a.94.94,0,0,0-.018.27c0,.044-.026.109.051.12-.007.086.015.188-.026.255a.564.564,0,0,1-.512.228,2.714,2.714,0,0,1-.558-.036c-.159-.033-.2-.073-.21-.232a6.013,6.013,0,0,1,.014-1.131c.029-.374.007-.753.026-1.125s-.022-.722.007-1.085a6.466,6.466,0,0,0-.011-.75c0-.263.011-.52,0-.782-.011-.29-.026-.58-.047-.872-.015-.206-.046-.412-.06-.622a3.077,3.077,0,0,1,.011-.312" transform="translate(17.867 7.157)" fill="#fff" fill-rule="evenodd"/>
    <path id="Path_716" data-name="Path 716" d="M1413.22,204.756c.115-.06.259,0,.368-.1a.088.088,0,0,1,.069-.015.927.927,0,0,0,.33-.044.154.154,0,0,1,.115.029,2.034,2.034,0,0,1,.2.159.2.2,0,0,1,.04.113,2.056,2.056,0,0,1,.029.255c.018.332.033.662.049.99.02.412.058.826.051,1.236s.078.8.078,1.2c-.005.317.015.629-.02.945s-.018.642-.044.961c-.018.2,0,.407,0,.611s-.007.434-.011.653c0,.162.007.328-.011.489a1.729,1.729,0,0,1-.093.379c-.029.082-.148.106-.24.077a1.3,1.3,0,0,0-.492-.084.317.317,0,0,0-.071.009.357.357,0,0,1-.479-.261,3.966,3.966,0,0,1-.029-.551c-.007-.235-.007-.469-.005-.7s.02-.46.027-.688c.011-.328.022-.653.036-.976.007-.175.022-.348.029-.525,0-.157,0-.315,0-.472.007-.215.013-.425.015-.64a1.383,1.383,0,0,1,.02-.3c.016-.064-.111-.1-.02-.157-.029-.062.036-.12.007-.191s.005-.133,0-.2c-.013-.12-.031-.239-.038-.359,0-.091.011-.184.015-.275,0-.173.009-.347-.007-.516-.011-.108-.025-.215-.033-.325a2.247,2.247,0,0,1,.118-.728" transform="translate(26.867 7.019)" fill="#fff" fill-rule="evenodd"/>
    <path id="Path_717" data-name="Path 717" d="M1413.9,204.5l.022-.018c-.007-.073.04-.137.048-.206a.94.94,0,0,0-.026-.219c0-.011-.011-.024-.007-.026.062-.108.029-.233.055-.343a.351.351,0,0,1,.284-.213,5.285,5.285,0,0,1,.54-.089.416.416,0,0,1,.432.188.22.22,0,0,1-.034.326.3.3,0,0,0-.055.272.8.8,0,0,1-.051.336.384.384,0,0,1-.306.228,3.019,3.019,0,0,1-.348.075.224.224,0,0,0-.084.026c-.058.051-.1.049-.151-.018a.068.068,0,0,0-.036-.022.322.322,0,0,1-.226-.226.292.292,0,0,0-.055-.069" transform="translate(27.571 6.021)" fill="#fff" fill-rule="evenodd"/>
    <path id="Path_718" data-name="Path 718" d="M1412.411,204.811a.471.471,0,0,1-.184-.436,2.824,2.824,0,0,0-.024-.527.223.223,0,0,1,.288-.285.62.62,0,0,0,.4-.018.959.959,0,0,1,.22-.051.34.34,0,0,1,.339.346c0,.115-.026.23-.033.348a1.614,1.614,0,0,0,0,.228.274.274,0,0,1-.087.241c-.017.011-.026.033-.042.033a2.845,2.845,0,0,1-.35.051.457.457,0,0,0-.3.082.164.164,0,0,1-.228-.013" transform="translate(26.165 6.112)" fill="#fff" fill-rule="evenodd"/>
    <path id="Path_719" data-name="Path 719" d="M1419.593,224.332h0a2.32,2.32,0,0,1-.543.376,1.066,1.066,0,0,0-.383.283,1.921,1.921,0,0,1-.5.394l-.022.007a2.289,2.289,0,0,1-1.1.569.106.106,0,0,0-.073.055,1.276,1.276,0,0,1-.821.381c-.286.051-.567.148-.855.2-.388.071-.779.133-1.167.171a6.681,6.681,0,0,1-.9.026c-.312-.007-.62-.033-.927-.066-.37-.042-.735-.082-1.1-.15a10.094,10.094,0,0,1-1.171-.294,6.42,6.42,0,0,1-.779-.339c-.292-.146-.58-.3-.863-.458-.1-.062-.2-.14-.3-.215-.127-.095-.253-.2-.383-.292-.026-.016-.066-.029-.075-.051-.062-.173-.25-.212-.354-.343a1.6,1.6,0,0,0-.343-.363c-.108-.069-.093-.181-.162-.254-.122-.126-.174-.321-.356-.4a1.246,1.246,0,0,0-.228-.418,2.334,2.334,0,0,1-.228-.481,1.128,1.128,0,0,0-.281-.376,1.047,1.047,0,0,1-.237-.547,1.37,1.37,0,0,1-.029-.8c-.141-.239.022-.476,0-.717a.107.107,0,0,1-.007-.046,4.32,4.32,0,0,0,.211-1c.133-.1.1-.263.146-.4.013-.036-.026-.095-.013-.133s.08-.042.1-.077a.253.253,0,0,0,.036-.177c-.029-.071,0-.095.038-.133a.277.277,0,0,0,.058-.1,1.586,1.586,0,0,1,.376-.746c.015-.027.049-.057.044-.078-.024-.16.139-.217.186-.339a1.869,1.869,0,0,1,.228-.372c.031-.049.13-.082.13-.12-.007-.109.058-.084.122-.109s.051-.17.166-.181a1.887,1.887,0,0,1,.624-.556c.277-.175.52-.407.8-.565a8.777,8.777,0,0,1,1.067-.5c.325-.133.667-.235,1.009-.337a2.28,2.28,0,0,1,.427-.078c.4-.035.788-.06,1.182-.082.354-.022.708-.04,1.067-.044.317,0,.635,0,.948.022s.627.089.937.129c.126.018.248.026.368.047a.672.672,0,0,1,.321.108,1.433,1.433,0,0,0,.68.279,4.831,4.831,0,0,1,.908.345,7.449,7.449,0,0,1,1.158.576,2.464,2.464,0,0,1,.388.292,5.468,5.468,0,0,1,.646.755,4.05,4.05,0,0,1,.556.974c.068.212.208.392.292.595a3.672,3.672,0,0,1,.366,1.315c.008.376.048.748.066,1.125a.6.6,0,0,1-.015.181,5.566,5.566,0,0,1-.542,1.833c-.111.191-.148.419-.244.622a4.464,4.464,0,0,1-.656,1.078m-10.846-7.138c-.2.263-.39.469-.538.7a4.909,4.909,0,0,0-.343.733,7.63,7.63,0,0,0-.339,1.032,5.588,5.588,0,0,0-.078,1.665,2.12,2.12,0,0,0,.886,1.616,8.2,8.2,0,0,0,1.251.746,4.132,4.132,0,0,0,.664.325,4.4,4.4,0,0,0,1.481.332c.534-.015,1.074.044,1.612.036a15.14,15.14,0,0,0,1.924-.117,5.933,5.933,0,0,0,1.86-.684,2.513,2.513,0,0,0,1.018-1.114,4.6,4.6,0,0,0,.525-1.331c.047-.284.11-.562.177-.843a1.5,1.5,0,0,0-.047-.886c-.06-.15-.133-.3-.181-.449a4.843,4.843,0,0,0-.377-.846,2.072,2.072,0,0,0-.764-.853,4.786,4.786,0,0,1-.436-.266,8.718,8.718,0,0,0-1.032-.463c-.017-.005-.035,0-.049-.005-.166-.027-.335-.062-.5-.091a1.5,1.5,0,0,0-.708-.035.655.655,0,0,1-.3,0c-.133-.018-.25-.051-.281-.221a.312.312,0,0,0-.153-.212,1.249,1.249,0,0,0-.5-.069,1.875,1.875,0,0,1-.888,0,.348.348,0,0,0-.137.007c-.09.007-.17.022-.259.022a6.1,6.1,0,0,0-1.3.122,2.3,2.3,0,0,0-.691.221c-.177.1-.4.126-.574.235C1409.334,216.726,1409.024,216.981,1408.747,217.195Z" transform="translate(20.532 14.812)" fill="#fff" fill-rule="evenodd"/>
    <path id="Path_720" data-name="Path 720" d="M1398.168,222.761h0c-.018.224-.046.438-.056.653-.014.253-.014.509-.033.76-.011.137-.062.264-.066.4-.007.263.011.525.011.786,0,.16-.011.315-.011.472,0,.122,0,.248.014.368a.4.4,0,0,1-.118.383.422.422,0,0,1-.336.148c-.148-.016-.306.007-.458-.02a.407.407,0,0,0-.284.033c-.232.122-.613-.181-.6-.461.018-.458.033-.912.057-1.366.036-.7.084-1.4.113-2.1.013-.264-.007-.538-.007-.8,0-.108.029-.213.029-.321,0-.3-.014-.591-.014-.883,0-.241.014-.48.029-.717.007-.177.028-.357.035-.533.018-.316.036-.629.044-.947.008-.248,0-.5-.007-.739,0-.221-.011-.44-.014-.66-.007-.533-.026-1.063-.018-1.6,0-.385.033-.771.058-1.156.022-.223.137-.3.4-.336.184-.022.365-.057.554-.067a2.622,2.622,0,0,1,.622.007,4.1,4.1,0,0,0,1.222.027,5.97,5.97,0,0,1,1.156.011c.267.026.531.015.8.026s.569.033.852.04c.2.007.4,0,.6,0a3.134,3.134,0,0,1,.347.02c.273.029.547.055.821.088.324.046.653.033.974.1a5.826,5.826,0,0,0,.779.06c.558.047,1.111.17,1.661.259.111.016.213.04.321.055a.885.885,0,0,1,.379.162c.148.1.332.148.491.233a2.108,2.108,0,0,1,.8.74,8.81,8.81,0,0,1,.551.883,3.235,3.235,0,0,1,.443,1.085,3.374,3.374,0,0,1-.253,2.015c-.117.2-.219.409-.316.618a3.015,3.015,0,0,1-.862,1.029,2.687,2.687,0,0,1-.635.35,6.492,6.492,0,0,1-1.572.465c-.321.047-.658.047-.979.109a10.6,10.6,0,0,1-1.488.184c-.228.015-.452.013-.678.015-.017.005-.033,0-.048,0a5.5,5.5,0,0,1-1.384.064c-.1,0-.2.027-.3.035-.372.015-.753.016-1.129.035-.233.011-.458.049-.691.057-.275.007-.552,0-.833-.013s-.58-.016-.87-.027a.371.371,0,0,1-.1-.026m3.2-1.9c.086-.02.067.082.166.062.168-.042.352.011.518-.031a2.962,2.962,0,0,1,.49-.036.623.623,0,0,0,.119-.015.9.9,0,0,1,.306-.073c.4.047.8-.04,1.209-.033a7.786,7.786,0,0,0,1.946-.261,3.349,3.349,0,0,0,1.215-.543,2.246,2.246,0,0,0,.963-1.344,1.047,1.047,0,0,0-.026-.609c-.075-.2-.166-.4-.252-.6a.969.969,0,0,0-.483-.512c-.206-.1-.42-.182-.638-.266a1.272,1.272,0,0,0-.343-.126c-.469-.058-.937-.1-1.4-.148-.2-.015-.4-.015-.6-.035a7.054,7.054,0,0,0-1.052-.109,6.938,6.938,0,0,1-.956-.055c-.21-.02-.425-.057-.638-.071s-.41,0-.616-.011c-.616-.027-1.233-.075-1.849-.091-.328-.011-.66.026-.989.04a.822.822,0,0,0-.027.155c.005.52.027,1.045.011,1.565-.02.793-.07,1.587-.1,2.376-.011.264-.015.536-.022.8a.867.867,0,0,0,.091.029c.363-.011.728-.024,1.091-.042.055,0,.11-.058.166-.051.264.022.534.064.8.089s.563.036.848.055c.015,0,.026-.011.04-.018C1401.357,220.921,1401.363,220.892,1401.367,220.864Z" transform="translate(13.013 14.797)" fill="#fff" fill-rule="evenodd"/>
    <path id="Path_721" data-name="Path 721" d="M1430.443,214.28a1.556,1.556,0,0,1,.222-.108.292.292,0,0,1,.423.184.53.53,0,0,1-.2.646,8.3,8.3,0,0,0-.678.66c-.307.319-.587.658-.886.979-.388.418-.793.819-1.174,1.244-.328.368-.728.649-1.082.985-.423.407-.859.806-1.269,1.233-.314.332-.574.708-.879,1.05a5.666,5.666,0,0,1-.675.666.7.7,0,0,0-.222.6c0,.381,0,.757.031,1.134.051.611-.014,1.222.007,1.835a2.812,2.812,0,0,1-.233,1.107.366.366,0,0,0-.044.151.472.472,0,0,1-.436.494c-.3.047-.6.069-.9.111a1.337,1.337,0,0,0-.243.055.483.483,0,0,1-.591-.4c-.007-.082-.029-.162-.044-.243a.325.325,0,0,1-.022-.115c.04-.478.073-.948.126-1.424.018-.188.07-.374.095-.562.011-.077-.04-.162.047-.228.027-.024.027-.089.022-.133-.015-.23-.038-.454-.059-.682,0-.02,0-.053,0-.06-.263-.179-.379-.48-.616-.675a3.122,3.122,0,0,1-.505-.631,5.682,5.682,0,0,0-.728-.875,8.813,8.813,0,0,1-.822-.934c-.2-.246-.407-.491-.609-.735-.018-.026-.044-.044-.059-.069a10.813,10.813,0,0,0-.93-1.133c-.469-.536-.912-1.094-1.377-1.632-.274-.317-.569-.615-.85-.923-.084-.091-.151-.2-.239-.288a1.676,1.676,0,0,0-.255-.228.5.5,0,0,1-.248-.646c.038-.119.075-.237.108-.341a1.042,1.042,0,0,1,.753-.111c.217.026.45-.005.667.035s.421-.062.624.015a.773.773,0,0,1,.348.224c.3.354.611.7.917,1.052s.615.717.915,1.078c.255.3.492.616.746.915.122.135.281.235.4.374.35.388.689.788,1.032,1.184.215.243.425.487.644.728.164.184.339.357.512.534.082.086.147.051.2-.033.129-.191.263-.379.4-.565.088-.12.2-.235.3-.354.142-.17.284-.346.427-.518s.288-.325.436-.48c.392-.407.781-.8,1.164-1.205.239-.248.461-.5.7-.742.164-.162.348-.31.514-.469.118-.109.221-.241.339-.348.354-.308.688-.64,1.018-.976a8.684,8.684,0,0,1,.742-.626c.064-.047.173-.1.224-.077a2.266,2.266,0,0,0,.669.069,3.2,3.2,0,0,0,.7.026c.169-.011.264.1.394.2" transform="translate(28.068 14.748)" fill="#fff" fill-rule="evenodd"/>
    <path id="Path_722" data-name="Path 722" d="M1401.2,214.205c.23.095.283.328.359.536a1.393,1.393,0,0,1,.022.412,3.9,3.9,0,0,1-.022.505.329.329,0,0,1-.137.2.907.907,0,0,1-.605.115,3.41,3.41,0,0,0-.9-.047,9,9,0,0,0-1.335.066,13.439,13.439,0,0,1-1.455.024c-.257.013-.509.044-.768.069-.166.015-.335.036-.509.051.022.17.055.388.082.609.055.46.113.921.154,1.384.027.292.014.587.031.879a18.316,18.316,0,0,1-.071,1.948c-.015.317,0,.635-.025.954a11.348,11.348,0,0,1-.079,1.63c0,.022.006.049.006.069a6.286,6.286,0,0,1-.119,1.264,6.326,6.326,0,0,0-.058.874c-.02.277-.024.554-.057.828a.374.374,0,0,1-.173.232,2.1,2.1,0,0,1-.45.177.291.291,0,0,1-.181-.016.693.693,0,0,0-.494-.1c-.2.042-.3-.082-.4-.188a.451.451,0,0,1-.133-.367,2.344,2.344,0,0,0-.018-.392c.026,0,.058-.005.086-.011a4.863,4.863,0,0,1,.015-.786,1.431,1.431,0,0,0,0-.7c0-.011-.013-.033,0-.044.191-.244.047-.536.117-.8.015-.069-.038-.151-.062-.223.018-.015.069-.042.069-.068a2.79,2.79,0,0,0-.009-.43c-.022-.171.08-.356-.045-.514.169-.221.053-.472.078-.708.007-.069-.086-.148.018-.21-.022-.027-.044-.058-.058-.078a.964.964,0,0,0,.084-.257c0-.2-.029-.392-.047-.587a2.265,2.265,0,0,1,.044-.3,1.214,1.214,0,0,0,.011-.346c-.037-.379-.089-.762-.12-1.143a.448.448,0,0,1,.009-.263.629.629,0,0,0,.015-.275c-.018-.37-.047-.735-.073-1.105a1.687,1.687,0,0,1,.011-.356,3.606,3.606,0,0,0,0-.525c-.084-.011-.14-.018-.2-.022-.454-.015-.908-.031-1.366-.038-.516-.015-1.03-.018-1.55-.029-.425-.015-.846-.035-1.273-.047a3.39,3.39,0,0,0-1.175.084.39.39,0,0,1-.436-.188,1.1,1.1,0,0,1-.091-.711,2.988,2.988,0,0,0,.029-.64.55.55,0,0,1,.091-.365.218.218,0,0,1,.226-.122c.535.051,1.071-.011,1.6.024.724.051,1.435-.078,2.156-.078.35,0,.709.024,1.063.024a14.531,14.531,0,0,0,1.594-.02,2.56,2.56,0,0,1,.374.007,13.382,13.382,0,0,0,1.771-.044,9.719,9.719,0,0,1,1.081,0c.219,0,.439.011.653.018a14.02,14.02,0,0,1,1.559.14,1.548,1.548,0,0,0,.708-.058.226.226,0,0,1,.1,0c.091.02.188.044.283.066" transform="translate(6.147 14.782)" fill="#fff" fill-rule="evenodd"/>
  </g>
</svg>
