<?xml version="1.0" standalone="no"?>
<!DOCTYPE svg PUBLIC "-//W3C//DTD SVG 1.1//EN" "http://www.w3.org/Graphics/SVG/1.1/DTD/svg11.dtd" >
<svg xmlns="http://www.w3.org/2000/svg" xmlns:xlink="http://www.w3.org/1999/xlink" version="1.1">
<metadata>
Created by FontForge 20170731 at Thu Apr 29 07:50:42 2021
 By Aleksey,,,
Copyright (c) 2009 by Stereotypes.de. All rights reserved.
</metadata>
<defs>
<font id="StTransmission-400Regular" horiz-adv-x="1122" >
  <font-face 
    font-family="St Transmission"
    font-weight="400"
    font-stretch="normal"
    units-per-em="2048"
    panose-1="2 0 5 6 2 0 0 2 0 3"
    ascent="1536"
    descent="-512"
    x-height="963"
    cap-height="1434"
    bbox="-285 -479 2060 1872"
    underline-thickness="40"
    underline-position="-183"
    unicode-range="U+0020-FB03"
  />
<missing-glyph horiz-adv-x="382" 
 />
    <glyph glyph-name="ff" unicode="ff" horiz-adv-x="1288" 
d="M86 825v138h127v65q0 65 6.5 119t26 110t50.5 95.5t84 66t124 31.5l102 6v-133l-80 -12q-45 -5 -77.5 -23.5t-51 -44t-29.5 -64t-14.5 -75t-3.5 -84.5v-57h506v65q0 403 293 422l102 6v-133l-82 -12q-44 -5 -76.5 -23.5t-51.5 -44.5t-30 -64t-14.5 -74.5t-3.5 -84.5v-57
h230v-138h-230v-825h-137v825h-506v-825h-137v825h-127z" />
    <glyph glyph-name="fi" unicode="fi" horiz-adv-x="1153" 
d="M86 825v138h127v65q0 65 6.5 119t26 110t50.5 95.5t84 66t124 31.5l102 6v-133l-80 -12q-45 -5 -77.5 -23.5t-51 -44t-29.5 -64t-14.5 -75t-3.5 -84.5v-57h479l138 18v-981h-138v825h-479v-825h-137v825h-127zM813 1200q0 39 27.5 65.5t62.5 26.5q41 0 66.5 -26t25.5 -66
q0 -38 -26 -65t-66 -27q-34 0 -62 28t-28 64z" />
    <glyph glyph-name="ffi" unicode="ffi" horiz-adv-x="1796" 
d="M86 825v138h127v65q0 65 6.5 119t26 110t50.5 95.5t84 66t124 31.5l102 6v-133l-80 -12q-45 -5 -77.5 -23.5t-51 -44t-29.5 -64t-14.5 -75t-3.5 -84.5v-57h506v65q0 403 293 422l102 6v-133l-82 -12q-44 -5 -76.5 -23.5t-51.5 -44.5t-30 -64t-14.5 -74.5t-3.5 -84.5v-57
h482l137 18v-981h-137v825h-482v-825h-137v825h-506v-825h-137v825h-127zM1458 1200q0 39 26.5 65.5t61.5 26.5q42 0 68 -26t26 -66q0 -38 -26 -65t-68 -27q-34 0 -61 28t-27 64z" />
    <glyph glyph-name="f_f_j" unicode="ffj" horiz-adv-x="1810" 
d="M86 825v138h127v65q0 65 6.5 119t26 110t50.5 95.5t84 66t124 31.5l102 6v-133l-80 -12q-45 -5 -77.5 -23.5t-51 -44t-29.5 -64t-14.5 -75t-3.5 -84.5v-57h506v65q0 403 293 422l102 6v-133l-82 -12q-44 -5 -76.5 -23.5t-51.5 -44.5t-30 -64t-14.5 -74.5t-3.5 -84.5v-57
h496l137 18v-1012q0 -165 -74.5 -263.5t-197.5 -113.5l-27 136q63 10 112.5 75.5t49.5 165.5v856h-496v-825h-137v825h-506v-825h-137v825h-127zM1470 1200q0 39 27.5 65.5t63.5 26.5q40 0 65 -26t25 -66q0 -38 -25.5 -65t-64.5 -27q-35 0 -63 28t-28 64z" />
    <glyph glyph-name="f_j" unicode="fj" horiz-adv-x="1165" 
d="M86 825v138h127v65q0 65 6.5 119t26 110t50.5 95.5t84 66t124 31.5l102 6v-133l-80 -12q-45 -5 -77.5 -23.5t-51 -44t-29.5 -64t-14.5 -75t-3.5 -84.5v-57h494l137 18v-1012q0 -165 -74.5 -263.5t-197.5 -113.5l-25 136q63 10 111.5 75t48.5 166v856h-494v-825h-137v825
h-127zM825 1200q0 39 27 65.5t63 26.5q41 0 67 -26t26 -66q0 -38 -26.5 -65t-66.5 -27q-35 0 -62.5 27.5t-27.5 64.5z" />
    <glyph glyph-name=".notdef" horiz-adv-x="382" 
 />
    <glyph glyph-name=".null" horiz-adv-x="0" 
 />
    <glyph glyph-name="nonmarkingreturn" horiz-adv-x="682" 
 />
    <glyph glyph-name="space" unicode=" " horiz-adv-x="382" 
 />
    <glyph glyph-name="exclam" unicode="!" horiz-adv-x="444" 
d="M143 1432l138 12v-1127l-138 -14v1129zM121 92q0 40 27.5 67t62.5 27q41 0 67.5 -26.5t26.5 -67.5q0 -36 -27 -64t-67 -28q-34 0 -62 28.5t-28 63.5z" />
    <glyph glyph-name="quotedbl" unicode="&#x22;" horiz-adv-x="505" 
d="M61 1090l52 344h135l-72 -353zM270 1090l52 344h135l-72 -353z" />
    <glyph glyph-name="numbersign" unicode="#" horiz-adv-x="1161" 
d="M346 0h-143l65 412h-219l21 137h221l53 321h-242l23 136h242l69 428h142l-70 -428h252l69 428h144l-70 -428h205l-21 -136h-204l-54 -321h224l-21 -137h-223l-66 -412h-143l66 412h-254zM487 870l-53 -321h252l53 321h-252z" />
    <glyph glyph-name="dollar" unicode="$" horiz-adv-x="1153" 
d="M537 -123h-74v125q-229 20 -369 168l58 121q120 -114 317 -139v561q-164 53 -248 146t-84 241q0 155 88.5 237.5t237.5 96.5v114h74v-1671zM707 -123h-72v1671h72v-121q159 -29 268 -127l-62 -122q-85 75 -211 100v-490q74 -25 129.5 -55t106 -75t77.5 -109.5t27 -145.5
q0 -328 -335 -393v-133zM922 403q0 163 -220 246v-493q220 46 220 247zM268 1096q0 -157 201 -238v430q-201 -28 -201 -192z" />
    <glyph glyph-name="percent" unicode="%" horiz-adv-x="1499" 
d="M1198 1434l-721 -1434h-145l723 1434h143zM356 614q-268 0 -268 377q0 200 63.5 304t204.5 104t199.5 -102.5t58.5 -305.5q0 -377 -258 -377zM354 1296q-84 0 -121.5 -75t-37.5 -226q0 -138 37 -207t120 -69q78 0 117 72.5t39 205.5q0 152 -36 225.5t-118 73.5zM1167 0
q-268 0 -268 377q0 200 63.5 303.5t204.5 103.5t199.5 -102t58.5 -305q0 -377 -258 -377zM1165 682q-84 0 -121.5 -75t-37.5 -226q0 -138 37 -207.5t120 -69.5q78 0 117 73t39 206q0 152 -36 225.5t-118 73.5z" />
    <glyph glyph-name="ampersand" unicode="&#x26;" horiz-adv-x="1447" 
d="M106 365q0 67 24.5 128.5t73.5 119t94.5 98.5t115.5 96q-154 183 -154 344q0 116 75 193t218 77q145 0 215 -64.5t70 -195.5q0 -95 -62.5 -179t-177.5 -183l381 -410q100 165 100 363h125q0 -244 -139 -457l47 -49q62 -67 90 -88t64 -21h92v-137h-92q-53 0 -95.5 24.5
t-93.5 81.5l-88 91q-180 -197 -422 -197q-238 0 -349.5 86t-111.5 279zM557 129q196 0 346 160l-403 426q-62 -51 -99 -84.5t-78 -79t-60 -88.5t-19 -86q0 -129 74.5 -188.5t238.5 -59.5zM387 1143q0 -57 39.5 -127.5t89.5 -128.5q95 75 146 137.5t51 128.5q0 158 -168 158
q-68 0 -113 -51.5t-45 -116.5z" />
    <glyph glyph-name="quotesingle" unicode="'" horiz-adv-x="309" 
d="M61 1090l52 344h135l-72 -353z" />
    <glyph glyph-name="parenleft" unicode="(" horiz-adv-x="514" 
d="M434 -164l-82 -90q-130 167 -200 382t-70 525q0 324 75.5 551t200.5 348l80 -94q-100 -112 -158.5 -317t-58.5 -482t56 -474.5t157 -348.5z" />
    <glyph glyph-name="parenright" unicode=")" horiz-adv-x="522" 
d="M78 1464l82 88q131 -167 200.5 -381.5t69.5 -525.5q0 -324 -75.5 -550.5t-198.5 -348.5l-82 94q100 114 158.5 318t58.5 481q0 278 -56 475t-157 350z" />
    <glyph glyph-name="asterisk" unicode="*" horiz-adv-x="727" 
d="M596 944l-174 115l12 -219h-129l10 219l-172 -115l-61 109l186 98l-184 98l61 109l170 -115l-10 211h129l-12 -211l172 115l61 -109l-184 -98l186 -98z" />
    <glyph glyph-name="plus" unicode="+" horiz-adv-x="940" 
d="M137 436v139h271v285h137v-285h268v-139h-268v-276h-137v276h-271z" />
    <glyph glyph-name="comma" unicode="," horiz-adv-x="366" 
d="M78 -207l57 418l146 14l-97 -450z" />
    <glyph glyph-name="hyphen" unicode="-" horiz-adv-x="815" 
d="M90 446v123h631v-123h-631z" />
    <glyph glyph-name="period" unicode="." horiz-adv-x="356" 
d="M84 90q0 40 27 67t63 27q41 0 66.5 -26.5t25.5 -67.5q0 -36 -26 -63t-66 -27q-35 0 -62.5 27.5t-27.5 62.5z" />
    <glyph glyph-name="slash" unicode="/" horiz-adv-x="606" 
d="M180 -115l-129 39l375 1620l133 -31z" />
    <glyph glyph-name="zero" unicode="0" horiz-adv-x="1099" 
d="M547 0q-430 0 -430 670q0 360 101.5 545.5t328.5 185.5q119 0 202 -48.5t131 -146t68.5 -227t20.5 -307.5q0 -672 -422 -672zM547 1251q-148 0 -215.5 -144.5t-67.5 -430.5q0 -258 67 -391t214 -133q137 0 204.5 137.5t67.5 390.5q0 289 -63 430t-207 141z" />
    <glyph glyph-name="one" unicode="1" horiz-adv-x="765" 
d="M582 0h-152v1145l-285 -271l-79 109l389 426l127 -23v-1386z" />
    <glyph glyph-name="two" unicode="2" horiz-adv-x="1003" 
d="M88 0v141q131 111 223 194t178 172.5t137.5 161t82 144.5t30.5 139q0 131 -67.5 210t-198.5 79q-101 0 -181.5 -43t-131.5 -98l-66 119q32 34 61 58t78.5 54t117.5 46t149 16q189 0 289 -118.5t100 -313.5q0 -85 -32 -172t-70.5 -150.5t-127 -157t-142 -143.5
t-174.5 -157q-25 -23 -38 -34l643 3l-10 -148z" />
    <glyph glyph-name="three" unicode="3" horiz-adv-x="1028" 
d="M365 803q30 6 84 6q63 0 131 -10l90 215q0 138 -52 186.5t-188 48.5q-157 0 -268 -61l-39 133q60 38 136 58t208 20q189 0 268.5 -76.5t79.5 -245.5q0 -66 -24 -123l-91 -186q201 -83 201 -328q0 -217 -109 -328.5t-303 -111.5q-166 0 -258 32t-149 87l45 133
q121 -100 344 -100q130 0 205.5 73.5t75.5 220.5q0 46 -10.5 82t-28 61t-45.5 43t-58 29t-71.5 17t-79.5 8t-88 2z" />
    <glyph glyph-name="four" unicode="4" horiz-adv-x="983" 
d="M68 340l206 1055l144 12l-178 -932h366v281l142 12v-293h186v-135h-186l2 -340h-144v340h-538z" />
    <glyph glyph-name="five" unicode="5" horiz-adv-x="1003" 
d="M467 0q-137 0 -221 27.5t-150 78.5l39 123q56 -40 141.5 -70t182.5 -30q165 0 243 77.5t78 246.5q0 182 -85.5 260t-237.5 78q-104 0 -303 -29v637h729l-15 -144h-581v-352q117 19 209 19q197 0 310.5 -113t113.5 -326q0 -113 -22 -198t-60 -138.5t-96.5 -87t-124 -46.5
t-150.5 -13z" />
    <glyph glyph-name="six" unicode="6" horiz-adv-x="1056" 
d="M236 772l208 98q39 17 80 17q98 0 172.5 -20t135 -66t92.5 -130t32 -204q0 -232 -112 -349.5t-320 -117.5q-428 0 -428 707q0 338 118 529t341 191q115 0 186.5 -26t135.5 -72l-33 -115q-52 38 -117 58t-166 20q-154 0 -235 -138.5t-90 -381.5zM530 141q143 0 218 86.5
t75 245.5q0 85 -22.5 143.5t-67 90.5t-99.5 45.5t-130 13.5l-271 -125q7 -261 81.5 -380.5t215.5 -119.5z" />
    <glyph glyph-name="seven" unicode="7" horiz-adv-x="948" 
d="M76 1247l-17 152h809v-152l-444 -1253l-152 12l439 1241h-635z" />
    <glyph glyph-name="eight" unicode="8" horiz-adv-x="1021" 
d="M840 1096q0 -104 -55.5 -192t-149.5 -138q51 -24 87 -45.5t76.5 -56.5t65.5 -74t41.5 -96t16.5 -125q0 -91 -35 -163t-95 -116.5t-136 -67t-162 -22.5q-178 0 -290 99t-112 261q0 78 12.5 139t33 103t55.5 76t71.5 56t89.5 46q-90 56 -140 131.5t-50 194.5
q0 152 99 224.5t267 72.5q144 0 227 -79t83 -228zM782 371q0 58 -18.5 106.5t-39.5 78t-69.5 63.5t-75 47.5t-90.5 44.5l-12 6q-130 -59 -188 -131.5t-58 -200.5q0 -116 74 -187t195 -71q119 0 200.5 66.5t81.5 177.5zM303 1098q0 -54 16 -97.5t48.5 -76t66.5 -55.5t84 -48
q197 119 197 258q0 97 -51.5 147t-135.5 52q-94 0 -159.5 -44t-65.5 -136z" />
    <glyph glyph-name="nine" unicode="9" horiz-adv-x="1034" 
d="M479 131q75 0 130 29.5t86.5 75.5t51 116t26.5 135t9 150l-215 -98q-22 -11 -61 -11q-186 0 -288.5 113t-102.5 313q0 125 42 222.5t133.5 158t221.5 60.5q210 0 305.5 -153.5t95.5 -506.5q0 -82 -3.5 -149t-14 -145.5t-28.5 -139t-50 -119.5t-75 -97t-106 -61.5
t-142 -23.5q-121 0 -212 29.5t-137 66.5l48 113q42 -31 116.5 -54.5t169.5 -23.5zM252 944q0 -124 69.5 -207.5t200.5 -83.5l262 117q-4 253 -69.5 368t-196.5 115q-124 0 -195 -90.5t-71 -218.5z" />
    <glyph glyph-name="colon" unicode=":" horiz-adv-x="372" 
d="M98 90q0 40 27 67t63 27q41 0 67 -26.5t26 -67.5q0 -36 -26.5 -63t-66.5 -27q-35 0 -62.5 27.5t-27.5 62.5zM98 868q0 40 27 67.5t63 27.5q41 0 67 -27t26 -68q0 -36 -26.5 -63t-66.5 -27q-35 0 -62.5 27.5t-27.5 62.5z" />
    <glyph glyph-name="semicolon" unicode=";" horiz-adv-x="370" 
d="M74 -215l57 418l145 14l-96 -450zM102 868q0 40 27.5 67.5t63.5 27.5q41 0 66.5 -26.5t25.5 -68.5q0 -36 -26 -63t-66 -27q-35 0 -63 27.5t-28 62.5z" />
    <glyph glyph-name="less" unicode="&#x3c;" horiz-adv-x="733" 
d="M649 268l-57 -110l-541 346l541 344l57 -113l-395 -231z" />
    <glyph glyph-name="equal" unicode="=" horiz-adv-x="962" 
d="M104 565v123h744v-123h-744zM104 309v123h744v-123h-744z" />
    <glyph glyph-name="greater" unicode="&#x3e;" horiz-adv-x="796" 
d="M106 739l58 111l541 -346l-541 -344l-58 112l396 232z" />
    <glyph glyph-name="question" unicode="?" horiz-adv-x="940" 
d="M444 313l-116 -18q-35 112 -35 186q0 65 18 117.5t52 90.5t70.5 64t84.5 50q103 55 155 112.5t52 139.5q0 126 -63.5 184.5t-206.5 58.5q-79 0 -160 -36.5t-139 -98.5l-68 115q66 73 161.5 115.5t203.5 42.5q215 0 311 -91t96 -280q0 -66 -17.5 -119.5t-52.5 -94
t-73.5 -69.5t-93.5 -59q-48 -27 -79.5 -49.5t-62.5 -54.5t-46 -72.5t-15 -89.5q0 -66 24 -144zM330 92q0 40 27 67t65 27q40 0 66 -26.5t26 -67.5q0 -36 -26.5 -64t-65.5 -28q-36 0 -64 28t-28 64z" />
    <glyph glyph-name="at" unicode="@" horiz-adv-x="1679" 
d="M1073 6v80q-176 -80 -295 -80q-140 0 -206 68t-66 209q0 147 73 205.5t246 58.5q35 0 54 -8l194 -90v45q0 137 -56.5 198.5t-172.5 61.5q-86 0 -154 -31l-39 88q76 49 226 49q164 0 243.5 -93t79.5 -294v-389h150q110 168 110 342q0 165 -82 305.5t-223.5 222.5
t-308.5 82q-165 0 -305 -82t-221.5 -222.5t-81.5 -305.5q0 -133 48 -244.5t130 -186.5t193 -117t237 -42q269 0 393 62l39 -86q-68 -35 -181 -59.5t-251 -24.5q-149 0 -280.5 51t-228 141t-152.5 221.5t-56 284.5q0 196 95.5 361.5t260.5 261.5t361 96q198 0 364 -96
t261.5 -261t95.5 -362q0 -122 -42.5 -232t-107.5 -188h-344zM807 113q112 0 266 77v160l-231 99q-124 0 -169.5 -33.5t-45.5 -128.5q0 -101 48 -137.5t132 -36.5z" />
    <glyph glyph-name="A" unicode="A" horiz-adv-x="1187" 
d="M1163 0h-153l-115 307h-625l-102 -307h-145l491 1434h100zM567 1198l-254 -758h533z" />
    <glyph glyph-name="B" unicode="B" horiz-adv-x="1161" 
d="M188 0v1434h392q187 0 281.5 -98t94.5 -285q0 -40 -18 -76l-137 -193q116 -32 191 -121t75 -233q0 -230 -116 -329t-351 -99h-412zM629 676h-295v-541h268q152 0 235 68t83 223q0 58 -17.5 102.5t-45.5 72t-67 45t-78 24t-83 6.5zM551 1292h-217v-493h334l151 225
q0 268 -268 268z" />
    <glyph glyph-name="C" unicode="C" horiz-adv-x="1126" 
d="M684 -6q-286 0 -411.5 173t-125.5 550q0 197 35 338.5t103.5 225.5t161.5 122.5t217 38.5q109 0 180 -25t153 -82l-61 -131q-60 43 -122.5 63.5t-149.5 20.5q-120 0 -198.5 -55t-121.5 -183t-43 -333q0 -300 86 -433.5t297 -133.5q101 0 162 23t125 77l61 -131
q-65 -63 -144 -94t-204 -31z" />
    <glyph glyph-name="D" unicode="D" horiz-adv-x="1257" 
d="M188 0v1430l146 8v-178l162 145q29 29 79 29q262 0 399.5 -181t137.5 -536q0 -132 -19.5 -238.5t-51.5 -180t-81 -128.5t-101 -87t-119 -51t-127 -25.5t-132 -6.5h-293zM563 1286l-229 -192v-951h131q62 0 112 5.5t103.5 21.5t94 42.5t78 70.5t62 103t38.5 143t14 188
q0 563 -404 569z" />
    <glyph glyph-name="E" unicode="E" horiz-adv-x="1099" 
d="M188 0v1434h809v-144h-663v-485h549v-141h-549v-529h672v-135h-818z" />
    <glyph glyph-name="F" unicode="F" horiz-adv-x="1052" 
d="M188 0v1434h770v-146h-624v-524h487v-146h-487v-618h-146z" />
    <glyph glyph-name="G" unicode="G" horiz-adv-x="1243" 
d="M602 643v123h473v-766l-125 -4v180l-211 -168q-14 -12 -59 -12q-273 0 -405 175t-132 546q0 197 35 338.5t103 225.5t161 122.5t217 38.5q219 0 373 -107l-59 -133q-119 86 -307 86q-123 0 -203.5 -55t-124 -182t-43.5 -332q0 -297 99 -434.5t319 -137.5l237 189v307
h-348z" />
    <glyph glyph-name="H" unicode="H" horiz-adv-x="1261" 
d="M928 0v670h-594v-670h-146v1434h146v-621h594v621h145v-1434h-145z" />
    <glyph glyph-name="I" unicode="I" horiz-adv-x="522" 
d="M188 0v1434h146v-1434h-146z" />
    <glyph glyph-name="J" unicode="J" horiz-adv-x="546" 
d="M53 -408l-37 134q115 26 157 111t42 243v1354h143v-1354q0 -217 -70 -338.5t-235 -149.5z" />
    <glyph glyph-name="K" unicode="K" horiz-adv-x="1249" 
d="M1044 0l-509 696l-201 -250v-446h-146v1434h146v-764l614 776l170 -25l-483 -602l590 -819h-181z" />
    <glyph glyph-name="L" unicode="L" horiz-adv-x="985" 
d="M188 0v1434h146v-1291h627v-143h-773z" />
    <glyph glyph-name="M" unicode="M" horiz-adv-x="1615" 
d="M1247 1133l-395 -879h-98l-389 872l-72 -1126h-146l115 1434h115l426 -983l432 983h117l114 -1434h-143z" />
    <glyph glyph-name="N" unicode="N" horiz-adv-x="1335" 
d="M313 1157v-1157h-141v1434h141l707 -1153v1153h143v-1434h-143z" />
    <glyph glyph-name="O" unicode="O" horiz-adv-x="1286" 
d="M651 -8q-247 0 -375.5 180t-128.5 545q0 347 131.5 536t372.5 189q235 0 361.5 -187.5t126.5 -537.5q0 -355 -122 -540t-366 -185zM651 1296q-174 0 -265 -149.5t-91 -429.5q0 -580 356 -580q168 0 254 147t86 433q0 283 -87 431t-253 148z" />
    <glyph glyph-name="P" unicode="P" horiz-adv-x="1120" 
d="M188 0v1434h146v-179l170 166q13 13 47 13q103 0 185 -25t143.5 -76.5t95 -138t33.5 -203.5q0 -235 -129.5 -370.5t-350.5 -135.5h-194v-485h-146zM549 1288l-215 -194v-461h188q167 0 255.5 100.5t88.5 255.5q0 158 -77 224.5t-240 74.5z" />
    <glyph glyph-name="Q" unicode="Q" horiz-adv-x="1286" 
d="M645 -8q-242 0 -370 180t-128 545q0 347 130 536t368 189q232 0 356.5 -187.5t124.5 -537.5q0 -385 -141 -570l160 -260l-137 -18l-115 192q-100 -69 -248 -69zM645 1296q-172 0 -263 -149.5t-91 -429.5q0 -580 354 -580q167 0 252.5 146.5t85.5 433.5q0 283 -86 431
t-252 148z" />
    <glyph glyph-name="R" unicode="R" horiz-adv-x="1153" 
d="M188 0v1434h146v-174l170 161q13 13 43 13q233 0 352 -105t119 -340q0 -156 -62 -259t-176 -152l346 -578h-159l-320 543q-47 -8 -108 -8h-205v-535h-146zM545 1292l-211 -196v-416h194q171 0 260 80.5t89 228.5q0 164 -83 233.5t-249 69.5z" />
    <glyph glyph-name="S" unicode="S" horiz-adv-x="1163" 
d="M569 -4q-169 0 -277 43.5t-183 124.5l55 121q82 -68 176.5 -105t226.5 -37q69 0 126.5 13t107.5 41t78 79.5t28 122.5q0 58 -22 102.5t-71.5 79t-113 61t-161.5 56.5q-95 26 -162 58t-118.5 79t-77 112.5t-25.5 152.5q0 97 31.5 165t90 105t129.5 53.5t162 16.5
q88 0 160 -13t122.5 -37.5t82.5 -47t63 -52.5l-67 -119q-73 55 -154.5 84t-206.5 29q-42 0 -76 -3.5t-71 -15.5t-62.5 -32.5t-42 -56.5t-16.5 -84q0 -102 69.5 -162.5t204.5 -100.5q71 -20 120 -35.5t103.5 -37.5t90 -44.5t70 -53.5t53.5 -67t31 -83.5t12 -104.5
q0 -407 -486 -407z" />
    <glyph glyph-name="T" unicode="T" horiz-adv-x="1001" 
d="M23 1290v144h956v-144h-414v-1290h-143v1290h-399z" />
    <glyph glyph-name="U" unicode="U" horiz-adv-x="1275" 
d="M653 0q-236 0 -350.5 127.5t-114.5 394.5v912h146v-916q0 -375 319 -375q161 0 239.5 91t78.5 286v914h143v-910q0 -266 -115 -395t-346 -129z" />
    <glyph glyph-name="V" unicode="V" horiz-adv-x="1204" 
d="M649 0h-98l-528 1421l143 25l434 -1188l434 1188l146 -25z" />
    <glyph glyph-name="W" unicode="W" horiz-adv-x="1585" 
d="M1296 0h-145l-360 864l-355 -864h-147l-213 1421l143 25l178 -1204l326 813h139l324 -803l178 1194l145 -25z" />
    <glyph glyph-name="X" unicode="X" horiz-adv-x="1173" 
d="M231 1446l361 -569l356 569l158 -25l-424 -684l469 -737l-174 -4l-391 614l-393 -614l-170 4l473 754l-424 667z" />
    <glyph glyph-name="Y" unicode="Y" horiz-adv-x="1103" 
d="M922 1448l157 -27l-454 -841v-580h-144v584l-458 837l149 27l379 -696z" />
    <glyph glyph-name="Z" unicode="Z" horiz-adv-x="1136" 
d="M137 1280l-14 154h897v-154l-764 -1133h807v-147h-973l-18 147l766 1133h-701z" />
    <glyph glyph-name="bracketleft" unicode="[" horiz-adv-x="507" 
d="M90 -246v1782h348v-117h-219v-1552h219v-113h-348z" />
    <glyph glyph-name="backslash" unicode="\" horiz-adv-x="624" 
d="M563 -76l-129 -39l-379 1628l133 31z" />
    <glyph glyph-name="bracketright" unicode="]" horiz-adv-x="491" 
d="M399 1536v-1782h-346v117h219v1552h-219v113h346z" />
    <glyph glyph-name="asciicircum" unicode="^" horiz-adv-x="1007" 
d="M338 1182l264 204l246 -208l-84 -62l-170 144l-180 -142z" />
    <glyph glyph-name="underscore" unicode="_" horiz-adv-x="1105" 
d="M0 -272v106h1108v-106h-1108z" />
    <glyph glyph-name="grave" unicode="`" horiz-adv-x="935" 
d="M631 1139l-72 -62l-258 248l96 66z" />
    <glyph glyph-name="a" unicode="a" horiz-adv-x="985" 
d="M713 0v92q-77 -38 -165.5 -65t-154.5 -27q-151 0 -222 76.5t-71 234.5q0 164 78 227.5t264 63.5q34 0 64 -10l207 -76v29q0 160 -61 231.5t-191 71.5q-87 0 -182 -37l-39 94q36 22 103 40t142 18q188 0 276.5 -106t88.5 -331v-526h-137zM420 117q125 0 293 92v192
l-236 91q-142 0 -194 -36t-52 -141q0 -61 15 -102t43.5 -61t59 -27.5t71.5 -7.5z" />
    <glyph glyph-name="b" unicode="b" horiz-adv-x="1021" 
d="M158 0v1427l135 23v-629l139 127q35 15 53 15q153 0 243 -48t133.5 -160.5t43.5 -308.5q0 -216 -95 -331t-261 -115q-73 0 -141 28.5t-115 73.5v-102h-135zM465 819l-172 -145v-418q114 -121 225 -121q131 0 191.5 85.5t60.5 236.5q0 139 -30 217t-95 111t-180 34z" />
    <glyph glyph-name="c" unicode="c" horiz-adv-x="878" 
d="M475 -2q-75 0 -135.5 24.5t-101.5 67t-68.5 102t-40 127.5t-12.5 146q0 258 91.5 380t278.5 122q117 0 182.5 -19t112.5 -53l-37 -123q-100 51 -231 51q-127 0 -192.5 -82.5t-65.5 -273.5q0 -69 13 -125.5t41 -102t76.5 -71t113.5 -25.5q73 0 141.5 15.5t108.5 38.5
l28 -131q-105 -68 -303 -68z" />
    <glyph glyph-name="d" unicode="d" horiz-adv-x="1021" 
d="M584 946l147 -102v583l135 23v-1450l-135 -2v111q-49 -55 -117.5 -82t-171.5 -27q-70 0 -126 27t-92.5 72t-61 106t-35 125t-10.5 133q0 245 97 372.5t292 127.5q17 0 44.5 -6t33.5 -11zM473 141q43 0 78 8t57 16.5t48 30.5t37.5 34t37.5 42v416l-201 133
q-135 0 -202.5 -84.5t-67.5 -265.5q0 -82 20 -153.5t70 -124t123 -52.5z" />
    <glyph glyph-name="e" unicode="e" horiz-adv-x="964" 
d="M772 416h-524q19 -297 264 -297q168 0 311 88l43 -96q-44 -28 -68.5 -41t-71.5 -33t-103.5 -28.5t-126.5 -8.5q-66 0 -122 15.5t-104 51.5t-81.5 91t-52.5 137.5t-19 187.5q0 103 21.5 186t57 137t85 90t103.5 51.5t114 15.5q175 0 261.5 -110.5t86.5 -340.5
q0 -96 -74 -96zM500 838q-103 0 -172.5 -77.5t-79.5 -238.5l477 6q0 162 -55 236t-170 74z" />
    <glyph glyph-name="f" unicode="f" horiz-adv-x="645" 
d="M86 825v138h127v65q0 65 6.5 119t26 110t50.5 95.5t84 66t124 31.5l102 6v-133l-80 -12q-45 -5 -77.5 -23.5t-51 -44t-29.5 -64t-14.5 -75t-3.5 -84.5v-57h228v-138h-228v-825h-137v825h-127z" />
    <glyph glyph-name="g" unicode="g" horiz-adv-x="983" 
d="M862 975l-2 -916q0 -231 -91 -351t-263 -120q-105 0 -178.5 17t-108.5 39l19 112q31 -16 100.5 -28.5t142.5 -12.5q124 0 182 86t60 260v7l-193 -60q-28 -8 -55 -8q-176 0 -267 117t-91 342q0 77 12.5 148t41 136.5t71 113.5t108 77t146.5 29q55 0 117.5 -23.5
t109.5 -60.5v77zM252 471q0 -334 250 -334l221 62v538q-105 84 -197 84q-138 0 -206 -98t-68 -252z" />
    <glyph glyph-name="h" unicode="h" horiz-adv-x="1013" 
d="M158 0v1427l135 23v-627l139 117q9 7 38.5 15t45.5 8q105 0 171 -16t114.5 -60t69 -121.5t20.5 -200.5v-565h-137v557q0 84 -10 133t-40 81.5t-79.5 44t-132.5 11.5l-199 -159v-668h-135z" />
    <glyph glyph-name="i" unicode="i" horiz-adv-x="507" 
d="M324 0h-138v956l138 17v-973zM170 1200q0 39 26.5 65.5t61.5 26.5q42 0 68 -26t26 -66q0 -38 -26 -65t-68 -27q-34 0 -61 28t-27 64z" />
    <glyph glyph-name="j" unicode="j" horiz-adv-x="522" 
d="M66 -408l-27 136q63 10 111.5 75t48.5 166v987l139 17v-1004q0 -165 -74.5 -263.5t-197.5 -113.5zM182 1200q0 39 27 65.5t63 26.5q40 0 65 -26t25 -66q0 -38 -25.5 -65t-64.5 -27q-35 0 -62.5 27.5t-27.5 64.5z" />
    <glyph glyph-name="k" unicode="k" horiz-adv-x="972" 
d="M162 0v1427l137 23v-944l367 463l157 -15l-291 -346l418 -608h-155l-357 496l-139 -166v-330h-137z" />
    <glyph glyph-name="l" unicode="l" horiz-adv-x="466" 
d="M307 0h-137v1427l137 23v-1450z" />
    <glyph glyph-name="m" unicode="m" horiz-adv-x="1529" 
d="M481 827l-186 -147v-680h-137v956l137 17v-150l141 117q31 23 82 23q207 0 283 -142l164 123q24 19 57 19q99 0 164 -16t114 -58t71 -118t22 -193v-578h-140v573q0 100 -24 154t-73 75.5t-138 22.5l-178 -125q10 -62 10 -129v-571h-139v567q0 79 -18.5 133t-53 80
t-71.5 36t-87 11z" />
    <glyph glyph-name="n" unicode="n" horiz-adv-x="1015" 
d="M293 973v-168l141 119q47 39 121 39q180 0 252 -83.5t72 -277.5v-602h-144v565q0 148 -49.5 204t-181.5 56l-211 -170v-655h-137v954z" />
    <glyph glyph-name="o" unicode="o" horiz-adv-x="985" 
d="M508 -6q-212 0 -301.5 117t-89.5 364q0 244 94.5 369t296.5 125q187 0 273.5 -122.5t86.5 -373.5q0 -234 -89.5 -356.5t-270.5 -122.5zM504 838q-250 0 -250 -363q0 -178 55.5 -265t194.5 -87q227 0 227 350q0 179 -53 272t-174 93z" />
    <glyph glyph-name="p" unicode="p" horiz-adv-x="1064" 
d="M170 -432v1386l139 19v-191l156 150q35 31 86 31q136 0 219.5 -40t127.5 -138t44 -263q0 -522 -348 -522q-169 0 -285 113v-533zM528 827l-219 -209v-350q62 -64 131 -99.5t127 -35.5q68 0 116.5 30.5t74.5 86t37.5 119.5t11.5 143q0 97 -18.5 160.5t-57.5 96.5t-86 45.5
t-117 12.5z" />
    <glyph glyph-name="q" unicode="q" horiz-adv-x="1056" 
d="M758 -432v534q-127 -102 -309 -102q-84 0 -149.5 42t-102.5 111t-55.5 147t-18.5 161q0 502 377 502q60 0 84 -17l174 -125v133l139 19v-1391zM481 139q91 0 155 29.5t122 83.5v416l-234 155q-134 0 -197 -84t-63 -262q0 -63 12 -120.5t36 -107.5t68 -80t101 -30z" />
    <glyph glyph-name="r" unicode="r" horiz-adv-x="714" 
d="M293 973v-125l135 102q17 13 49 13q104 0 217 -58l-47 -127q-85 45 -190 45l-164 -129v-694h-137v954z" />
    <glyph glyph-name="s" unicode="s" horiz-adv-x="894" 
d="M446 -2q-214 0 -350 84l39 111q45 -29 129.5 -48.5t177.5 -19.5q234 0 234 139q0 29 -6 51t-23.5 40t-33 29.5t-52 25.5t-60 21.5t-77.5 23.5q-153 43 -224 102t-71 166q0 65 24 113.5t67.5 76.5t97.5 41t120 13q176 0 305 -84l-41 -109q-41 26 -112.5 44t-151.5 18
q-192 0 -192 -119q0 -61 53.5 -94t185.5 -68q88 -23 140.5 -44t95 -54t60.5 -80t18 -115q0 -136 -86.5 -200t-266.5 -64z" />
    <glyph glyph-name="t" unicode="t" horiz-adv-x="690" 
d="M117 825v138h92v258l137 22v-280h262v-138h-262v-438q0 -131 51 -190.5t125 -59.5h70v-137h-103q-134 0 -207 94.5t-73 270.5v460h-92z" />
    <glyph glyph-name="u" unicode="u" horiz-adv-x="1005" 
d="M727 0v119l-147 -94q-40 -25 -91 -25q-186 0 -268 89t-82 282v592h144v-555q0 -105 27 -163.5t75.5 -79t132.5 -20.5l209 123v695h139v-963h-139z" />
    <glyph glyph-name="v" unicode="v" horiz-adv-x="899" 
d="M502 0h-99l-380 952l137 17l291 -762l290 762l136 -17z" />
    <glyph glyph-name="w" unicode="w" horiz-adv-x="1343" 
d="M1028 0h-149l-211 649l-213 -649h-140l-258 952l144 17l198 -770l205 626h131l207 -630l199 774l145 -17z" />
    <glyph glyph-name="x" unicode="x" horiz-adv-x="944" 
d="M719 975l149 -25l-317 -458l354 -492h-160l-276 395l-274 -395h-158l350 512l-317 438l147 25l252 -367z" />
    <glyph glyph-name="y" unicode="y" horiz-adv-x="954" 
d="M37 952l141 17l293 -787l301 787l146 -17l-482 -1179q-54 -121 -125.5 -164.5t-204.5 -46.5v139q97 0 146 40t92 138l66 154z" />
    <glyph glyph-name="z" unicode="z" horiz-adv-x="913" 
d="M127 834l-12 129h702v-129l-573 -703h602v-131h-764l-14 131l573 703h-514z" />
    <glyph glyph-name="braceleft" unicode="{" horiz-adv-x="466" 
d="M412 -109v-137q-140 0 -192 70.5t-52 226.5v434q0 54 -28 80.5t-72 26.5v96q42 0 71 27.5t29 72.5v533q0 215 246 215v-137q-59 0 -89 -35t-30 -98v-488q0 -52 -23 -95t-57 -44q35 -3 57.5 -42.5t22.5 -92.5v-492q0 -54 29.5 -86t87.5 -35z" />
    <glyph glyph-name="bar" unicode="|" horiz-adv-x="438" 
d="M287 -221h-135v1777h135v-1777z" />
    <glyph glyph-name="braceright" unicode="}" horiz-adv-x="471" 
d="M66 1399v139q138 0 189.5 -71t51.5 -226v-436q0 -52 29 -78.5t72 -26.5v-96q-43 0 -72 -28t-29 -74v-533q0 -215 -244 -215v137q59 0 89 36t30 100v487q0 50 22 92t56 45q-34 1 -56 41t-22 96v490q0 118 -116 121z" />
    <glyph glyph-name="asciitilde" unicode="~" horiz-adv-x="1032" 
d="M639 1106q-41 0 -117 38t-121 38q-77 0 -145 -56l-45 74q92 74 184 74q42 0 121.5 -39t126.5 -39q46 0 75 11.5t58 35.5l49 -59q-78 -78 -186 -78z" />
    <glyph glyph-name="exclamdown" unicode="&#xa1;" horiz-adv-x="442" 
d="M291 -465l-137 -14v1126l137 15v-1127zM311 872q0 -39 -26.5 -65.5t-61.5 -26.5q-41 0 -67.5 26t-26.5 66q0 38 27 65.5t67 27.5q34 0 61 -28t27 -65z" />
    <glyph glyph-name="cent" unicode="&#xa2;" horiz-adv-x="917" 
d="M481 -123h-73v133q-157 27 -235.5 136.5t-78.5 322.5q0 230 76 345t238 140v144h73v-1221zM651 -123h-71v1221h71v-142q149 -21 207 -59l-41 -125q-49 25 -172 47v-672q118 10 178 41l33 -122q-58 -33 -205 -54v-135zM211 469q0 -136 47.5 -214t155.5 -105v669
q-107 -23 -155 -107t-48 -243z" />
    <glyph glyph-name="sterling" unicode="&#xa3;" horiz-adv-x="1085" 
d="M119 559v84h696v-84h-442v-424h643v-135h-977v135h192v424h-112zM119 760v84h112v590h689v-134h-547v-456h442v-84h-696z" />
    <glyph glyph-name="currency" unicode="&#xa4;" horiz-adv-x="927" 
d="M160 88l-101 100l140 142q-52 80 -52 178q0 87 48 168l-136 139l99 100l135 -139q76 51 170 51t170 -51l135 139l98 -98l-135 -141q47 -79 47 -168q0 -101 -51 -180l137 -142l-94 -98l-139 141q-74 -47 -168 -47q-92 0 -166 47zM252 506q0 -94 61 -157.5t150 -63.5
q87 0 150 64.5t63 156.5q0 90 -63 153.5t-150 63.5q-89 0 -150 -63t-61 -154z" />
    <glyph glyph-name="yen" unicode="&#xa5;" horiz-adv-x="1089" 
d="M18 1421l150 27l379 -662l368 662l158 -27l-399 -706h231v-84h-708v84h225zM199 430v84h706v-84h-287v-430h-143v430h-276z" />
    <glyph glyph-name="brokenbar" unicode="&#xa6;" horiz-adv-x="438" 
d="M287 -223h-135v801h135v-801zM287 760h-135v801h135v-801z" />
    <glyph glyph-name="section" unicode="&#xa7;" horiz-adv-x="1294" 
d="M158 784q0 148 161 297q-61 61 -61 168q0 129 93 200t259 71q114 0 229 -28.5t193 -82.5l-51 -104q-70 42 -175 68t-204 26q-103 0 -162 -40t-59 -118q0 -35 22.5 -62t91 -57t124 -48.5t191.5 -60.5q2 -1 3 -1q76 -20 132.5 -44.5t105 -60.5t73.5 -89t25 -120
q0 -170 -141 -317q61 -58 61 -143q0 -138 -106 -210.5t-277 -72.5q-110 0 -231 34.5t-211 94.5l51 104q83 -55 189 -84.5t204 -29.5q66 0 121 14.5t95 52.5t40 95q0 24 -11 44t-33.5 35.5t-45.5 27.5t-59.5 23t-63 18t-67.5 16.5t-62 15.5q-65 17 -112 32t-102.5 37.5
t-93 49.5t-70.5 62.5t-49.5 82.5t-16.5 104zM1022 678q0 88 -58.5 134t-189.5 81q-109 32 -157 47t-110 37.5t-101 42.5q-117 -109 -117 -223q0 -85 57 -136.5t162 -85.5q24 -7 95.5 -28t98 -29t75 -23.5t79.5 -28t59 -26.5q47 53 77 116t30 122z" />
    <glyph glyph-name="dieresis" unicode="&#xa8;" horiz-adv-x="1048" 
d="M223 1194q0 40 26.5 67t61.5 27q41 0 66.5 -26.5t25.5 -67.5q0 -36 -26 -63t-66 -27q-34 0 -61 27.5t-27 62.5zM616 1194q0 40 27 67t62 27q41 0 66.5 -26.5t25.5 -67.5q0 -36 -26 -63t-66 -27q-34 0 -61.5 27.5t-27.5 62.5z" />
    <glyph glyph-name="copyright" unicode="&#xa9;" horiz-adv-x="1136" 
d="M553 653q-121 0 -177.5 74t-56.5 234q0 87 19.5 149t54 94.5t73 47t85.5 14.5q122 0 201 -54l-21 -61q-58 35 -172 35q-67 0 -111.5 -55t-44.5 -170q0 -45 7.5 -82.5t24 -70.5t48.5 -52t76 -19q111 0 168 45l31 -65q-70 -64 -205 -64zM61 965q0 138 66 254.5t180.5 183.5
t251.5 67t251.5 -67t180.5 -183.5t66 -254.5q0 -212 -144.5 -359t-353.5 -147t-353.5 147t-144.5 359zM143 965q0 -175 122 -299.5t294 -124.5q173 0 295.5 124.5t122.5 299.5t-122.5 299.5t-295.5 124.5q-172 0 -294 -124.5t-122 -299.5z" />
    <glyph glyph-name="guillemotleft" unicode="&#xab;" horiz-adv-x="878" 
d="M463 254l-90 -94l-320 346l314 336l96 -88l-232 -250zM838 254l-90 -94l-320 346l313 336l97 -88l-232 -250z" />
    <glyph glyph-name="registered" unicode="&#xae;" horiz-adv-x="1144" 
d="M61 965q0 104 39 197.5t106 161t160.5 107t198.5 39.5q137 0 252.5 -67t182.5 -183.5t67 -254.5q0 -139 -67 -255.5t-182.5 -183.5t-252.5 -67q-213 0 -358.5 146.5t-145.5 359.5zM143 965q0 -175 124.5 -299.5t297.5 -124.5t297.5 124.5t124.5 299.5t-124.5 299.5
t-297.5 124.5t-297.5 -124.5t-124.5 -299.5zM455 1262v-76l61 63q18 11 47 11q113 0 159 -43.5t46 -141.5q0 -126 -102 -178l139 -229l-64 -19l-139 228q-22 -5 -57 -5h-90v-217h-70v607h70zM553 1188l-98 -90v-156h88q82 0 118.5 33t36.5 100q0 59 -35 85t-110 28z" />
    <glyph glyph-name="macron" unicode="&#xaf;" horiz-adv-x="1048" 
d="M840 1141h-631v102h631v-102z" />
    <glyph glyph-name="degree" unicode="&#xb0;" horiz-adv-x="477" 
d="M244 971q-82 0 -137.5 55.5t-55.5 140.5q0 84 54 140.5t139 56.5q83 0 137.5 -58.5t54.5 -138.5q0 -86 -54 -141t-138 -55zM352 1169q0 47 -31 80t-77 33t-77.5 -34t-31.5 -81q0 -49 31 -78.5t78 -29.5q46 0 77 30.5t31 79.5z" />
    <glyph glyph-name="plusminus" unicode="&#xb1;" horiz-adv-x="882" 
d="M102 551v102h287v275h111v-275h284v-102h-284v-272h-111v272h-287zM102 70v102h682v-102h-682z" />
    <glyph glyph-name="twosuperior" unicode="&#xb2;" horiz-adv-x="624" 
d="M70 778v90q188 132 278 220.5t90 160.5q0 58 -37 93.5t-108 35.5q-104 0 -180 -63l-41 78q96 82 239 82q109 0 168.5 -60.5t59.5 -159.5q0 -53 -22.5 -101.5t-71.5 -97.5t-92.5 -83.5t-119.5 -90.5q-9 -7 -14 -10h352l-6 -94h-495z" />
    <glyph glyph-name="threesuperior" unicode="&#xb3;" horiz-adv-x="636" 
d="M229 1182q18 6 52 6q27 0 77 -4l41 94q0 62 -28 83t-105 21q-91 0 -149 -28l-27 84q71 41 203 41q111 0 159 -40t48 -122q0 -41 -17 -72l-45 -82q109 -41 109 -162q0 -110 -64.5 -166.5t-177.5 -56.5q-172 0 -239 60l28 86q73 -52 197 -52q71 0 113 35t42 99
q0 66 -54.5 90t-155.5 24z" />
    <glyph glyph-name="acute" unicode="&#xb4;" horiz-adv-x="911" 
d="M354 1077l-65 64l260 241l86 -73z" />
    <glyph glyph-name="mu" unicode="&#xb5;" horiz-adv-x="1028" 
d="M764 0v152l-164 -134q-23 -16 -57 -16q-186 0 -264 72v-502l-140 -12v1403h140v-611q8 -71 24 -113.5t51 -65t77 -29.5t116 -7l217 160v666h135v-963h-135z" />
    <glyph glyph-name="paragraph" unicode="&#xb6;" horiz-adv-x="1165" 
d="M485 -4v647q-169 0 -283 114t-114 281t113.5 281.5t283.5 114.5h627v-140h-213v-1478l-117 -13v1491h-182v-1284z" />
    <glyph glyph-name="periodcentered" unicode="&#xb7;" horiz-adv-x="366" 
d="M88 504q0 40 27 67t63 27q41 0 66.5 -26.5t25.5 -67.5q0 -36 -26 -63t-66 -27q-35 0 -62.5 27.5t-27.5 62.5z" />
    <glyph glyph-name="cedilla" unicode="&#xb8;" horiz-adv-x="1103" 
d="M571 -350q-142 0 -211 53l31 80q95 -39 164 -39q42 0 77.5 13t35.5 40q0 25 -21 38t-63 24q-55 12 -71.5 50.5t-16.5 147.5h112q0 -70 10.5 -99t43.5 -38q53 -16 79.5 -45.5t26.5 -85.5q0 -64 -58.5 -101.5t-138.5 -37.5z" />
    <glyph glyph-name="onesuperior" unicode="&#xb9;" horiz-adv-x="491" 
d="M371 778h-105v545l-155 -127l-54 70l228 217l86 -13v-692z" />
    <glyph glyph-name="ordmasculine" unicode="&#xba;" horiz-adv-x="929" 
d="M121 1108q0 132 93 229t226 97q129 0 224.5 -97.5t95.5 -228.5q0 -137 -95 -232.5t-225 -95.5q-135 0 -227 95t-92 233zM244 1108q0 -86 58 -145.5t138 -59.5q79 0 136 60t57 143q0 86 -55.5 144.5t-137.5 58.5q-85 0 -140.5 -57.5t-55.5 -143.5z" />
    <glyph glyph-name="guillemotright" unicode="&#xbb;" horiz-adv-x="899" 
d="M45 754l90 94l320 -346l-314 -336l-96 88l231 250zM442 754l90 94l320 -346l-313 -336l-97 88l232 250z" />
    <glyph glyph-name="onequarter" unicode="&#xbc;" horiz-adv-x="1527" 
d="M1153 1434l-721 -1434h-145l723 1434h143zM920 184l120 596l103 11l-103 -515h207v154l99 8v-162h108v-92h-108l2 -184h-101v184h-327zM397 614h-106v615l-166 -144l-57 76l241 244l88 -14v-777z" />
    <glyph glyph-name="onehalf" unicode="&#xbd;" horiz-adv-x="1589" 
d="M1139 1434l-721 -1434h-146l723 1434h144zM381 614h-107v615l-165 -144l-58 76l242 244l88 -14v-777zM944 0v98q199 149 294 248.5t95 181.5q0 67 -39.5 107.5t-113.5 40.5q-105 0 -191 -72l-43 84q23 19 40 30.5t49 28t73.5 25t91.5 8.5q114 0 176 -67t62 -178
q0 -59 -21.5 -111.5t-74.5 -109t-92 -91t-124 -102.5q-17 -14 -26 -21l373 2l-7 -102h-522z" />
    <glyph glyph-name="threequarters" unicode="&#xbe;" horiz-adv-x="1673" 
d="M1307 1434l-721 -1434h-146l723 1434h144zM238 1067q12 4 51 4q45 0 82 -6l45 111q0 71 -30.5 95.5t-111.5 24.5q-89 0 -155 -34l-29 92q75 45 211 45q118 0 167.5 -44t49.5 -138q0 -41 -16 -78l-49 -95q114 -46 114 -182q0 -122 -66 -185t-184 -63q-179 0 -254 68l31 90
q71 -55 207 -55q75 0 119.5 38.5t44.5 112.5q0 76 -57 102.5t-164 26.5zM1073 184l121 596l102 11l-102 -515h207v154l98 8v-162h109v-92h-109l2 -184h-100v184h-328z" />
    <glyph glyph-name="questiondown" unicode="&#xbf;" horiz-adv-x="940" 
d="M514 647l115 19q35 -112 35 -187q0 -65 -18 -117.5t-52.5 -90t-70.5 -63.5t-85 -50q-103 -55 -155 -112.5t-52 -139.5q0 -126 64 -185t207 -59q80 0 160.5 36t138.5 99l67 -114q-66 -73 -160.5 -115.5t-201.5 -42.5q-217 0 -313.5 91t-96.5 280q0 54 12.5 99.5t33 79.5
t53 64.5t65 52.5t76.5 46q99 57 150 115t51 151q0 53 -23 143zM629 868q0 -40 -28 -67t-64 -27q-41 0 -68 26.5t-27 67.5q0 36 27.5 64.5t67.5 28.5q35 0 63.5 -29t28.5 -64z" />
    <glyph glyph-name="Agrave" unicode="&#xc0;" horiz-adv-x="1183" 
d="M1161 0h-153l-115 307h-625l-102 -307h-146l492 1434h100zM565 1198l-254 -758h533zM737 1610l-71 -62l-258 248l96 66z" />
    <glyph glyph-name="Aacute" unicode="&#xc1;" horiz-adv-x="1183" 
d="M1161 0h-153l-115 307h-625l-102 -307h-146l492 1434h100zM565 1198l-254 -758h533zM455 1548l-66 64l260 241l86 -73z" />
    <glyph glyph-name="Acircumflex" unicode="&#xc2;" horiz-adv-x="1183" 
d="M1161 0h-153l-115 307h-625l-102 -307h-146l492 1434h100zM565 1198l-254 -758h533zM309 1649l264 204l248 -208l-86 -62l-170 143l-178 -141z" />
    <glyph glyph-name="Atilde" unicode="&#xc3;" horiz-adv-x="1183" 
d="M1161 0h-153l-115 307h-625l-102 -307h-146l492 1434h100zM565 1198l-254 -758h533zM686 1575q-42 0 -117.5 38t-119.5 38q-38 0 -78 -16.5t-68 -39.5l-45 74q92 74 184 74q42 0 121.5 -39t126.5 -39q46 0 75 11.5t58 35.5l49 -59q-78 -78 -186 -78z" />
    <glyph glyph-name="Adieresis" unicode="&#xc4;" horiz-adv-x="1183" 
d="M1161 0h-153l-115 307h-625l-102 -307h-146l492 1434h100zM565 1198l-254 -758h533zM279 1665q0 40 26.5 67t61.5 27q41 0 66.5 -26.5t25.5 -67.5q0 -36 -26 -63t-66 -27q-34 0 -61 27.5t-27 62.5zM672 1665q0 40 26.5 67t61.5 27q41 0 66.5 -26.5t25.5 -67.5
q0 -36 -26 -63t-66 -27q-34 0 -61 27.5t-27 62.5z" />
    <glyph glyph-name="Aring" unicode="&#xc5;" horiz-adv-x="1183" 
d="M1161 0h-153l-115 307h-625l-102 -307h-146l492 1434h100zM565 1198l-254 -758h533zM565 1542q-69 0 -115.5 47.5t-46.5 118.5q0 68 47 116t115 48q63 0 111.5 -49t48.5 -115q0 -69 -48 -117.5t-112 -48.5zM473 1708q0 -40 27 -67t65 -27q39 0 65.5 26.5t26.5 67.5
q0 46 -26.5 69t-65.5 23q-36 0 -64 -26.5t-28 -65.5z" />
    <glyph glyph-name="AE" unicode="&#xc6;" horiz-adv-x="1753" 
d="M854 0v393h-522l-131 -393h-144l490 1434h1114v-144h-664v-479h549v-143h-549v-533h672v-135h-815zM631 1290l-254 -764h477v764h-223z" />
    <glyph glyph-name="Ccedilla" unicode="&#xc7;" horiz-adv-x="1112" 
d="M668 -367q-141 0 -211 54l30 80q95 -39 164 -39q42 0 77.5 13t35.5 40q0 25 -21 37.5t-63 23.5q-50 11 -68.5 43t-19.5 113q-242 23 -348.5 196t-106.5 523q0 197 35 338.5t103 225.5t161 122.5t217 38.5q109 0 181 -25.5t153 -81.5l-61 -131q-60 43 -123 63.5t-150 20.5
q-120 0 -198 -55t-121 -182.5t-43 -333.5q0 -300 86 -433.5t297 -133.5q101 0 162 23t125 77l61 -131q-61 -60 -133.5 -90.5t-183.5 -34.5q3 -42 14.5 -62.5t38.5 -27.5q53 -16 79.5 -45.5t26.5 -85.5q0 -64 -58 -102t-138 -38z" />
    <glyph glyph-name="Egrave" unicode="&#xc8;" horiz-adv-x="1073" 
d="M170 0v1434h809v-144h-664v-485h549v-141h-549v-529h672v-135h-817zM745 1610l-71 -62l-258 248l96 66z" />
    <glyph glyph-name="Eacute" unicode="&#xc9;" horiz-adv-x="1073" 
d="M170 0v1434h809v-144h-664v-485h549v-141h-549v-529h672v-135h-817zM465 1548l-66 64l260 241l86 -73z" />
    <glyph glyph-name="Ecircumflex" unicode="&#xca;" horiz-adv-x="1073" 
d="M170 0v1434h809v-144h-664v-485h549v-141h-549v-529h672v-135h-817zM328 1647l264 204l248 -209l-86 -61l-170 143l-178 -141z" />
    <glyph glyph-name="Edieresis" unicode="&#xcb;" horiz-adv-x="1073" 
d="M170 0v1434h809v-144h-664v-485h549v-141h-549v-529h672v-135h-817zM287 1665q0 40 26.5 67t61.5 27q41 0 66.5 -26.5t25.5 -67.5q0 -36 -26 -63t-66 -27q-34 0 -61 27.5t-27 62.5zM680 1665q0 40 26.5 67t61.5 27q41 0 66.5 -26.5t25.5 -67.5q0 -36 -26 -63t-66 -27
q-34 0 -61 27.5t-27 62.5z" />
    <glyph glyph-name="Igrave" unicode="&#xcc;" horiz-adv-x="514" 
d="M184 0v1434h146v-1434h-146zM422 1610l-72 -62l-258 248l96 66z" />
    <glyph glyph-name="Iacute" unicode="&#xcd;" horiz-adv-x="514" 
d="M184 0v1434h146v-1434h-146zM150 1548l-66 64l260 241l86 -73z" />
    <glyph glyph-name="Icircumflex" unicode="&#xce;" horiz-adv-x="514" 
d="M184 0v1434h146v-1434h-146zM2 1647l264 204l248 -209l-86 -61l-170 143l-178 -141z" />
    <glyph glyph-name="Idieresis" unicode="&#xcf;" horiz-adv-x="514" 
d="M184 0v1434h146v-1434h-146zM-31 1665q0 40 26.5 67t61.5 27q41 0 67 -26.5t26 -67.5q0 -36 -26.5 -63t-66.5 -27q-34 0 -61 27.5t-27 62.5zM362 1665q0 40 27 67t62 27q41 0 66.5 -26.5t25.5 -67.5q0 -36 -26 -63t-66 -27q-34 0 -61.5 27.5t-27.5 62.5z" />
    <glyph glyph-name="Eth" unicode="&#xd0;" horiz-adv-x="1226" 
d="M76 623v122h96v685l145 8v-176l150 135q13 13 41 25t51 12q262 0 399.5 -181t137.5 -536q0 -132 -19.5 -238.5t-51.5 -180t-81 -128.5t-101 -87t-118.5 -51t-126 -25.5t-131.5 -6.5h-295v623h-96zM645 623h-328v-480h134q61 0 111 5.5t103 21.5t93.5 42.5t78 70.5
t61.5 103t38 143t14 188q0 563 -401 569l-232 -192v-349h328v-122z" />
    <glyph glyph-name="Ntilde" unicode="&#xd1;" horiz-adv-x="1327" 
d="M309 1157v-1157h-141v1434h141l707 -1153v1153h143v-1434h-143zM784 1577q-42 0 -117 38t-120 38q-38 0 -78 -16.5t-68 -39.5l-45 74q36 29 86.5 51.5t98.5 22.5q42 0 121 -39t126 -39q46 0 75.5 11.5t58.5 35.5l49 -59q-78 -78 -187 -78z" />
    <glyph glyph-name="Ograve" unicode="&#xd2;" horiz-adv-x="1255" 
d="M637 -8q-247 0 -375.5 180t-128.5 545q0 347 131.5 536t372.5 189q235 0 361 -187.5t126 -537.5q0 -355 -121.5 -540t-365.5 -185zM637 1296q-174 0 -265 -149.5t-91 -429.5q0 -580 356 -580q168 0 254 147t86 433q0 283 -87 431t-253 148zM795 1610l-72 -62l-258 248
l96 66z" />
    <glyph glyph-name="Oacute" unicode="&#xd3;" horiz-adv-x="1255" 
d="M637 -8q-247 0 -375.5 180t-128.5 545q0 347 131.5 536t372.5 189q235 0 361 -187.5t126 -537.5q0 -355 -121.5 -540t-365.5 -185zM637 1296q-174 0 -265 -149.5t-91 -429.5q0 -580 356 -580q168 0 254 147t86 433q0 283 -87 431t-253 148zM520 1548l-65 64l260 241
l86 -73z" />
    <glyph glyph-name="Ocircumflex" unicode="&#xd4;" horiz-adv-x="1255" 
d="M637 -8q-247 0 -375.5 180t-128.5 545q0 347 131.5 536t372.5 189q235 0 361 -187.5t126 -537.5q0 -355 -121.5 -540t-365.5 -185zM637 1296q-174 0 -265 -149.5t-91 -429.5q0 -580 356 -580q168 0 254 147t86 433q0 283 -87 431t-253 148zM377 1647l264 204l248 -209
l-86 -61l-170 143l-178 -141z" />
    <glyph glyph-name="Otilde" unicode="&#xd5;" horiz-adv-x="1255" 
d="M637 -8q-247 0 -375.5 180t-128.5 545q0 347 131.5 536t372.5 189q235 0 361 -187.5t126 -537.5q0 -355 -121.5 -540t-365.5 -185zM637 1296q-174 0 -265 -149.5t-91 -429.5q0 -580 356 -580q168 0 254 147t86 433q0 283 -87 431t-253 148zM758 1577q-42 0 -118 38
t-120 38q-77 0 -145 -56l-45 74q92 74 184 74q42 0 121.5 -39t126.5 -39q46 0 75 11.5t58 35.5l49 -59q-78 -78 -186 -78z" />
    <glyph glyph-name="Odieresis" unicode="&#xd6;" horiz-adv-x="1255" 
d="M637 -8q-247 0 -375.5 180t-128.5 545q0 347 131.5 536t372.5 189q235 0 361 -187.5t126 -537.5q0 -355 -121.5 -540t-365.5 -185zM637 1296q-174 0 -265 -149.5t-91 -429.5q0 -580 356 -580q168 0 254 147t86 433q0 283 -87 431t-253 148zM342 1665q0 40 26.5 67
t61.5 27q41 0 66.5 -26.5t25.5 -67.5q0 -36 -26 -63t-66 -27q-34 0 -61 27.5t-27 62.5zM735 1665q0 40 26.5 67t61.5 27q41 0 66.5 -26.5t25.5 -67.5q0 -36 -26 -63t-66 -27q-34 0 -61 27.5t-27 62.5z" />
    <glyph glyph-name="multiply" unicode="&#xd7;" horiz-adv-x="954" 
d="M801 735l-232 -237l232 -238l-92 -92l-230 235l-227 -235l-92 92l229 238l-229 237l92 90l227 -235l230 235z" />
    <glyph glyph-name="Oslash" unicode="&#xd8;" horiz-adv-x="1232" 
d="M481 -184l-131 32l45 193q-278 139 -278 676q0 347 131.5 536t372.5 189q64 0 129 -19l43 172l133 -30l-52 -199q234 -168 234 -649q0 -355 -121.5 -540t-365.5 -185q-54 0 -95 8zM621 1296q-174 0 -265.5 -149.5t-91.5 -429.5q0 -287 89.5 -433.5t267.5 -146.5
q168 0 254 147t86 433q0 283 -87 431t-253 148z" />
    <glyph glyph-name="Ugrave" unicode="&#xd9;" horiz-adv-x="1247" 
d="M635 0q-236 0 -350.5 127.5t-114.5 394.5v912h145v-916q0 -375 320 -375q161 0 239 91t78 286v914h144v-910q0 -266 -115 -395t-346 -129zM793 1610l-72 -62l-258 248l96 66z" />
    <glyph glyph-name="Uacute" unicode="&#xda;" horiz-adv-x="1247" 
d="M635 0q-236 0 -350.5 127.5t-114.5 394.5v912h145v-916q0 -375 320 -375q161 0 239 91t78 286v914h144v-910q0 -266 -115 -395t-346 -129zM516 1548l-65 64l260 241l86 -73z" />
    <glyph glyph-name="Ucircumflex" unicode="&#xdb;" horiz-adv-x="1247" 
d="M635 0q-236 0 -350.5 127.5t-114.5 394.5v912h145v-916q0 -375 320 -375q161 0 239 91t78 286v914h144v-910q0 -266 -115 -395t-346 -129zM375 1647l264 204l248 -209l-86 -61l-170 143l-178 -141z" />
    <glyph glyph-name="Udieresis" unicode="&#xdc;" horiz-adv-x="1247" 
d="M635 0q-236 0 -350.5 127.5t-114.5 394.5v912h145v-916q0 -375 320 -375q161 0 239 91t78 286v914h144v-910q0 -266 -115 -395t-346 -129zM340 1665q0 40 26.5 67t61.5 27q41 0 66.5 -26.5t25.5 -67.5q0 -36 -26 -63t-66 -27q-34 0 -61 27.5t-27 62.5zM733 1665
q0 40 26.5 67t61.5 27q41 0 66.5 -26.5t25.5 -67.5q0 -36 -26 -63t-66 -27q-34 0 -61 27.5t-27 62.5z" />
    <glyph glyph-name="Yacute" unicode="&#xdd;" horiz-adv-x="1116" 
d="M928 1448l157 -27l-454 -841v-580h-144v584l-458 837l149 27l379 -696zM451 1548l-66 64l260 241l86 -73z" />
    <glyph glyph-name="Thorn" unicode="&#xde;" horiz-adv-x="1120" 
d="M184 0v1434h146v-371l157 158q10 10 56 10q209 0 335 -110t126 -333q0 -234 -130.5 -369.5t-355.5 -135.5h-188v-283h-146zM528 1087l-198 -192v-465h182q171 0 260.5 101t89.5 255q0 157 -84.5 225t-249.5 76z" />
    <glyph glyph-name="germandbls" unicode="&#xdf;" horiz-adv-x="1130" 
d="M729 0q-128 0 -196.5 17t-124.5 61l36 119q49 -43 112.5 -57.5t166.5 -14.5q76 0 130 51t54 125q0 69 -56.5 111.5t-168.5 81.5q-44 16 -74 30.5t-63 37.5t-53 50t-33 67t-13 89q0 51 21.5 92t54.5 66t70.5 50.5t70.5 46.5t54.5 53t21.5 71q0 63 -54 108t-175 45
q-102 0 -158.5 -54.5t-56.5 -153.5v-1092h-127v1143q0 143 94 219t244 76q187 0 274.5 -73.5t87.5 -199.5q0 -62 -21.5 -110t-53.5 -75t-70 -52.5t-70 -44.5t-53.5 -48t-21.5 -65q0 -27 4.5 -48t17.5 -37.5t23 -27t36 -22.5t40 -17.5t50 -18.5q16 -6 25 -9
q142 -54 202 -114.5t60 -178.5q0 -132 -84.5 -214.5t-222.5 -82.5z" />
    <glyph glyph-name="agrave" unicode="&#xe0;" horiz-adv-x="989" 
d="M717 0v92q-77 -38 -165.5 -65t-154.5 -27q-151 0 -222 76.5t-71 234.5q0 164 78 227.5t264 63.5q34 0 64 -10l207 -76v29q0 160 -61 231.5t-191 71.5q-87 0 -182 -37l-39 94q36 22 103 40t142 18q188 0 276.5 -106t88.5 -331v-526h-137zM424 117q125 0 293 92v192
l-236 91q-142 0 -193.5 -35.5t-51.5 -141.5q0 -61 15 -102t43 -61t58.5 -27.5t71.5 -7.5zM664 1139l-72 -62l-258 248l96 66z" />
    <glyph glyph-name="aacute" unicode="&#xe1;" horiz-adv-x="989" 
d="M717 0v92q-77 -38 -165.5 -65t-154.5 -27q-151 0 -222 76.5t-71 234.5q0 164 78 227.5t264 63.5q34 0 64 -10l207 -76v29q0 160 -61 231.5t-191 71.5q-87 0 -182 -37l-39 94q36 22 103 40t142 18q188 0 276.5 -106t88.5 -331v-526h-137zM424 117q125 0 293 92v192
l-236 91q-142 0 -193.5 -35.5t-51.5 -141.5q0 -61 15 -102t43 -61t58.5 -27.5t71.5 -7.5zM393 1077l-65 64l260 241l86 -73z" />
    <glyph glyph-name="acircumflex" unicode="&#xe2;" horiz-adv-x="989" 
d="M717 0v92q-77 -38 -165.5 -65t-154.5 -27q-151 0 -222 76.5t-71 234.5q0 164 78 227.5t264 63.5q34 0 64 -10l207 -76v29q0 160 -61 231.5t-191 71.5q-87 0 -182 -37l-39 94q36 22 103 40t142 18q188 0 276.5 -106t88.5 -331v-526h-137zM424 117q125 0 293 92v192
l-236 91q-142 0 -193.5 -35.5t-51.5 -141.5q0 -61 15 -102t43 -61t58.5 -27.5t71.5 -7.5zM242 1176l264 204l248 -209l-86 -61l-170 143l-179 -141z" />
    <glyph glyph-name="atilde" unicode="&#xe3;" horiz-adv-x="989" 
d="M717 0v92q-77 -38 -165.5 -65t-154.5 -27q-151 0 -222 76.5t-71 234.5q0 164 78 227.5t264 63.5q34 0 64 -10l207 -76v29q0 160 -61 231.5t-191 71.5q-87 0 -182 -37l-39 94q36 22 103 40t142 18q188 0 276.5 -106t88.5 -331v-526h-137zM424 117q125 0 293 92v192
l-236 91q-142 0 -193.5 -35.5t-51.5 -141.5q0 -61 15 -102t43 -61t58.5 -27.5t71.5 -7.5zM618 1106q-42 0 -117 38t-120 38q-77 0 -145 -56l-46 74q36 29 86.5 51.5t98.5 22.5q42 0 121.5 -39t126.5 -39q46 0 75 11.5t58 35.5l49 -59q-78 -78 -187 -78z" />
    <glyph glyph-name="adieresis" unicode="&#xe4;" horiz-adv-x="989" 
d="M717 0v92q-77 -38 -165.5 -65t-154.5 -27q-151 0 -222 76.5t-71 234.5q0 164 78 227.5t264 63.5q34 0 64 -10l207 -76v29q0 160 -61 231.5t-191 71.5q-87 0 -182 -37l-39 94q36 22 103 40t142 18q188 0 276.5 -106t88.5 -331v-526h-137zM424 117q125 0 293 92v192
l-236 91q-142 0 -193.5 -35.5t-51.5 -141.5q0 -61 15 -102t43 -61t58.5 -27.5t71.5 -7.5zM211 1194q0 40 26.5 67t61.5 27q41 0 66.5 -26.5t25.5 -67.5q0 -36 -26 -63t-66 -27q-34 0 -61 27.5t-27 62.5zM604 1194q0 40 26.5 67t61.5 27q41 0 66.5 -26.5t25.5 -67.5
q0 -36 -26 -63t-66 -27q-34 0 -61 27.5t-27 62.5z" />
    <glyph glyph-name="aring" unicode="&#xe5;" horiz-adv-x="989" 
d="M717 0v92q-77 -38 -165.5 -65t-154.5 -27q-151 0 -222 76.5t-71 234.5q0 164 78 227.5t264 63.5q34 0 64 -10l207 -76v29q0 160 -61 231.5t-191 71.5q-87 0 -182 -37l-39 94q36 22 103 40t142 18q188 0 276.5 -106t88.5 -331v-526h-137zM424 117q125 0 293 92v192
l-236 91q-142 0 -193.5 -35.5t-51.5 -141.5q0 -61 15 -102t43 -61t58.5 -27.5t71.5 -7.5zM500 1071q-69 0 -115.5 47.5t-46.5 118.5q0 68 47 116t115 48q63 0 111 -49t48 -115q0 -69 -47.5 -117.5t-111.5 -48.5zM408 1237q0 -40 27 -67t65 -27q39 0 65.5 26.5t26.5 67.5
q0 46 -26.5 69t-65.5 23q-36 0 -64 -26.5t-28 -65.5z" />
    <glyph glyph-name="ae" unicode="&#xe6;" horiz-adv-x="1566" 
d="M489 963q232 0 312 -162q52 82 132 122t173 40q173 0 259.5 -110.5t86.5 -340.5q0 -40 -20.5 -62t-53.5 -22h-524q16 -309 264 -309q169 0 312 88l43 -96q-58 -36 -92.5 -54.5t-110 -37.5t-166.5 -19q-214 0 -309 158q-259 -158 -398 -158q-152 0 -222.5 76.5
t-70.5 234.5q0 164 78 227.5t262 63.5q32 0 50 -6l229 -102q0 37 2 53q-1 157 -66.5 229t-195.5 72q-90 0 -180 -37l-41 94q38 22 105.5 40t141.5 18zM422 117q123 0 338 114q-27 71 -33 168l-248 101q-140 0 -193 -39t-53 -146q0 -61 15.5 -102t44 -61t59 -27.5t70.5 -7.5z
M1106 838q-102 0 -172 -79t-78 -243l475 6q0 163 -55 239.5t-170 76.5z" />
    <glyph glyph-name="ccedilla" unicode="&#xe7;" horiz-adv-x="878" 
d="M498 -352q-142 0 -211 53l30 80q95 -39 164 -39q42 0 77.5 13t35.5 40q0 25 -21 38t-63 24q-48 11 -66.5 40.5t-21.5 102.5q-105 13 -176 80t-101 164t-30 221q0 258 91.5 380t278.5 122q117 0 182.5 -19t112.5 -53l-37 -123q-100 51 -231 51q-127 0 -192.5 -82.5
t-65.5 -273.5q0 -69 13 -125.5t41 -102t76.5 -71t113.5 -25.5q73 0 141.5 15.5t108.5 38.5l28 -131q-92 -58 -239 -66q3 -38 14 -56.5t37 -25.5q53 -16 79.5 -45.5t26.5 -85.5q0 -64 -58 -101.5t-138 -37.5z" />
    <glyph glyph-name="egrave" unicode="&#xe8;" horiz-adv-x="952" 
d="M764 416h-524q19 -297 264 -297q168 0 311 88l43 -96q-58 -36 -92.5 -54.5t-110.5 -37.5t-168 -19q-84 0 -150.5 25.5t-118.5 81t-80.5 150.5t-28.5 226q0 128 31.5 224t86.5 150t120.5 80t141.5 26q175 0 262 -110.5t87 -340.5q0 -96 -74 -96zM492 838
q-103 0 -172.5 -77.5t-79.5 -238.5l477 6q0 162 -55 236t-170 74zM668 1139l-72 -62l-258 248l96 66z" />
    <glyph glyph-name="eacute" unicode="&#xe9;" horiz-adv-x="952" 
d="M764 416h-524q19 -297 264 -297q168 0 311 88l43 -96q-58 -36 -92.5 -54.5t-110.5 -37.5t-168 -19q-84 0 -150.5 25.5t-118.5 81t-80.5 150.5t-28.5 226q0 128 31.5 224t86.5 150t120.5 80t141.5 26q175 0 262 -110.5t87 -340.5q0 -96 -74 -96zM492 838
q-103 0 -172.5 -77.5t-79.5 -238.5l477 6q0 162 -55 236t-170 74zM379 1077l-66 64l260 241l86 -73z" />
    <glyph glyph-name="ecircumflex" unicode="&#xea;" horiz-adv-x="952" 
d="M764 416h-524q19 -297 264 -297q168 0 311 88l43 -96q-58 -36 -92.5 -54.5t-110.5 -37.5t-168 -19q-84 0 -150.5 25.5t-118.5 81t-80.5 150.5t-28.5 226q0 128 31.5 224t86.5 150t120.5 80t141.5 26q175 0 262 -110.5t87 -340.5q0 -96 -74 -96zM492 838
q-103 0 -172.5 -77.5t-79.5 -238.5l477 6q0 162 -55 236t-170 74zM244 1176l264 204l248 -209l-86 -61l-170 143l-178 -141z" />
    <glyph glyph-name="edieresis" unicode="&#xeb;" horiz-adv-x="952" 
d="M764 416h-524q19 -297 264 -297q168 0 311 88l43 -96q-58 -36 -92.5 -54.5t-110.5 -37.5t-168 -19q-84 0 -150.5 25.5t-118.5 81t-80.5 150.5t-28.5 226q0 128 31.5 224t86.5 150t120.5 80t141.5 26q175 0 262 -110.5t87 -340.5q0 -96 -74 -96zM492 838
q-103 0 -172.5 -77.5t-79.5 -238.5l477 6q0 162 -55 236t-170 74zM209 1194q0 40 26.5 67t61.5 27q41 0 66.5 -26.5t25.5 -67.5q0 -36 -26 -63t-66 -27q-34 0 -61 27.5t-27 62.5zM602 1194q0 40 26.5 67t61.5 27q41 0 66.5 -26.5t25.5 -67.5q0 -36 -26 -63t-66 -27
q-34 0 -61 27.5t-27 62.5z" />
    <glyph glyph-name="igrave" unicode="&#xec;" horiz-adv-x="466" 
d="M303 0h-139v963h139v-963zM399 1139l-71 -62l-258 248l96 66z" />
    <glyph glyph-name="iacute" unicode="&#xed;" horiz-adv-x="466" 
d="M303 0h-139v963h139v-963zM127 1077l-66 64l261 241l86 -73z" />
    <glyph glyph-name="icircumflex" unicode="&#xee;" horiz-adv-x="466" 
d="M303 0h-139v963h139v-963zM-23 1176l265 204l247 -209l-86 -61l-170 143l-178 -141z" />
    <glyph glyph-name="idieresis" unicode="&#xef;" horiz-adv-x="466" 
d="M303 0h-139v963h139v-963zM-53 1194q0 40 26.5 67t61.5 27q41 0 66.5 -26.5t25.5 -67.5q0 -36 -26 -63t-66 -27q-34 0 -61 27.5t-27 62.5zM340 1194q0 40 26.5 67t61.5 27q41 0 66.5 -26.5t25.5 -67.5q0 -36 -26 -63t-66 -27q-34 0 -61 27.5t-27 62.5z" />
    <glyph glyph-name="eth" unicode="&#xf0;" horiz-adv-x="1001" 
d="M319 1393l70 63l234 -123l129 76l55 -94l-109 -55q164 -309 170 -715q0 -287 -88 -419t-272 -132q-211 0 -301 117.5t-90 363.5q0 247 86.5 367.5t283.5 120.5q40 0 62 -11l158 -71q-36 183 -111 327l-164 -84l-39 76l129 76zM743 539q0 96 -12 198l-225 97
q-137 0 -193.5 -91.5t-56.5 -263.5q0 -180 55.5 -266t196.5 -86q121 0 178 99t57 313z" />
    <glyph glyph-name="ntilde" unicode="&#xf1;" horiz-adv-x="1015" 
d="M295 973v-168l141 119q47 39 121 39q180 0 252 -83.5t72 -277.5v-602h-144v565q0 148 -49.5 204t-181.5 56l-211 -170v-655h-137v954zM629 1106q-41 0 -117 38t-121 38q-77 0 -145 -56l-45 74q92 74 184 74q42 0 121.5 -39t126.5 -39q46 0 75 11.5t58 35.5l49 -59
q-78 -78 -186 -78z" />
    <glyph glyph-name="ograve" unicode="&#xf2;" horiz-adv-x="978" 
d="M506 -6q-212 0 -301.5 117t-89.5 364q0 244 94.5 369t296.5 125q187 0 273.5 -122.5t86.5 -373.5q0 -234 -89.5 -356.5t-270.5 -122.5zM502 838q-250 0 -250 -363q0 -178 55.5 -265t194.5 -87q227 0 227 350q0 179 -53 272t-174 93zM657 1139l-71 -62l-258 248l96 66z
" />
    <glyph glyph-name="oacute" unicode="&#xf3;" horiz-adv-x="978" 
d="M506 -6q-212 0 -301.5 117t-89.5 364q0 244 94.5 369t296.5 125q187 0 273.5 -122.5t86.5 -373.5q0 -234 -89.5 -356.5t-270.5 -122.5zM502 838q-250 0 -250 -363q0 -178 55.5 -265t194.5 -87q227 0 227 350q0 179 -53 272t-174 93zM383 1077l-66 64l261 241l86 -73z" />
    <glyph glyph-name="ocircumflex" unicode="&#xf4;" horiz-adv-x="978" 
d="M506 -6q-212 0 -301.5 117t-89.5 364q0 244 94.5 369t296.5 125q187 0 273.5 -122.5t86.5 -373.5q0 -234 -89.5 -356.5t-270.5 -122.5zM502 838q-250 0 -250 -363q0 -178 55.5 -265t194.5 -87q227 0 227 350q0 179 -53 272t-174 93zM238 1176l264 204l248 -209l-86 -61
l-170 143l-179 -141z" />
    <glyph glyph-name="otilde" unicode="&#xf5;" horiz-adv-x="978" 
d="M506 -6q-212 0 -301.5 117t-89.5 364q0 244 94.5 369t296.5 125q187 0 273.5 -122.5t86.5 -373.5q0 -234 -89.5 -356.5t-270.5 -122.5zM502 838q-250 0 -250 -363q0 -178 55.5 -265t194.5 -87q227 0 227 350q0 179 -53 272t-174 93zM614 1106q-42 0 -117 38t-120 38
q-38 0 -78 -16.5t-68 -39.5l-45 74q36 29 86.5 51.5t98.5 22.5q42 0 121 -39t126 -39q46 0 75.5 11.5t58.5 35.5l49 -59q-78 -78 -187 -78z" />
    <glyph glyph-name="odieresis" unicode="&#xf6;" horiz-adv-x="978" 
d="M506 -6q-212 0 -301.5 117t-89.5 364q0 244 94.5 369t296.5 125q187 0 273.5 -122.5t86.5 -373.5q0 -234 -89.5 -356.5t-270.5 -122.5zM502 838q-250 0 -250 -363q0 -178 55.5 -265t194.5 -87q227 0 227 350q0 179 -53 272t-174 93zM203 1194q0 40 26.5 67t61.5 27
q41 0 66.5 -26.5t25.5 -67.5q0 -36 -26 -63t-66 -27q-34 0 -61 27.5t-27 62.5zM596 1194q0 40 26.5 67t61.5 27q41 0 66.5 -26.5t25.5 -67.5q0 -36 -26 -63t-66 -27q-34 0 -61 27.5t-27 62.5z" />
    <glyph glyph-name="divide" unicode="&#xf7;" horiz-adv-x="954" 
d="M403 778q0 36 24.5 60t57.5 24q35 0 58.5 -23.5t23.5 -60.5q0 -33 -23.5 -57.5t-58.5 -24.5q-32 0 -57 25t-25 57zM403 207q0 36 24.5 60t57.5 24q35 0 58.5 -23.5t23.5 -60.5q0 -33 -23.5 -57.5t-58.5 -24.5q-32 0 -57 25t-25 57zM102 440v109h746v-109h-746z" />
    <glyph glyph-name="oslash" unicode="&#xf8;" horiz-adv-x="978" 
d="M422 -207l-131 33l45 192q-118 42 -169.5 153.5t-51.5 303.5q0 244 94.5 369t296.5 125q25 0 65 -4l43 176l136 -31l-50 -190q166 -101 166 -447q0 -234 -89.5 -356.5t-270.5 -122.5q-25 0 -35 2zM502 838q-250 0 -250 -363q0 -178 55.5 -265t194.5 -87q227 0 227 350
q0 179 -53 272t-174 93z" />
    <glyph glyph-name="ugrave" unicode="&#xf9;" horiz-adv-x="999" 
d="M723 0v119l-148 -94q-40 -25 -90 -25q-186 0 -268 89t-82 282v592h144v-555q0 -105 27 -163.5t75.5 -79t132.5 -20.5l209 123v695h139v-963h-139zM670 1139l-72 -62l-258 248l96 66z" />
    <glyph glyph-name="uacute" unicode="&#xfa;" horiz-adv-x="999" 
d="M723 0v119l-148 -94q-40 -25 -90 -25q-186 0 -268 89t-82 282v592h144v-555q0 -105 27 -163.5t75.5 -79t132.5 -20.5l209 123v695h139v-963h-139zM391 1077l-65 64l260 241l86 -73z" />
    <glyph glyph-name="ucircumflex" unicode="&#xfb;" horiz-adv-x="999" 
d="M723 0v119l-148 -94q-40 -25 -90 -25q-186 0 -268 89t-82 282v592h144v-555q0 -105 27 -163.5t75.5 -79t132.5 -20.5l209 123v695h139v-963h-139zM248 1176l264 204l248 -209l-86 -61l-170 143l-178 -141z" />
    <glyph glyph-name="udieresis" unicode="&#xfc;" horiz-adv-x="999" 
d="M723 0v119l-148 -94q-40 -25 -90 -25q-186 0 -268 89t-82 282v592h144v-555q0 -105 27 -163.5t75.5 -79t132.5 -20.5l209 123v695h139v-963h-139zM606 1194q0 40 26.5 67t61.5 27q41 0 66.5 -26.5t25.5 -67.5q0 -36 -26 -63t-66 -27q-34 0 -61 27.5t-27 62.5zM213 1194
q0 40 26.5 67t61.5 27q41 0 66.5 -26.5t25.5 -67.5q0 -36 -26 -63t-66 -27q-34 0 -61 27.5t-27 62.5z" />
    <glyph glyph-name="yacute" unicode="&#xfd;" horiz-adv-x="964" 
d="M41 952l141 17l293 -787l301 787l146 -17l-482 -1179q-54 -121 -125 -164.5t-204 -46.5v139q97 0 145.5 40t91.5 138l66 154zM377 1077l-66 64l260 241l86 -73z" />
    <glyph glyph-name="thorn" unicode="&#xfe;" horiz-adv-x="1058" 
d="M174 -432v1874l137 18v-676l154 148q35 31 86 31q136 0 219.5 -40t127.5 -138t44 -263q0 -522 -348 -522q-166 0 -283 111v-531zM528 827l-217 -206v-355q63 -63 131 -98t125 -35q68 0 116.5 30.5t74.5 86t37.5 119.5t11.5 143q0 97 -18.5 160.5t-57.5 96.5t-86 45.5
t-117 12.5z" />
    <glyph glyph-name="ydieresis" unicode="&#xff;" horiz-adv-x="964" 
d="M41 952l141 17l293 -787l301 787l146 -17l-482 -1179q-54 -121 -125 -164.5t-204 -46.5v139q97 0 145.5 40t91.5 138l66 154zM590 1194q0 40 26.5 67t61.5 27q41 0 66.5 -26.5t25.5 -67.5q0 -36 -26 -63t-66 -27q-34 0 -61 27.5t-27 62.5zM197 1194q0 40 26.5 67t61.5 27
q41 0 66.5 -26.5t25.5 -67.5q0 -36 -26 -63t-66 -27q-34 0 -61 27.5t-27 62.5z" />
    <glyph glyph-name="Amacron" unicode="&#x100;" horiz-adv-x="1183" 
d="M1161 0h-153l-115 307h-625l-102 -307h-146l492 1434h100zM565 1198l-254 -758h533zM881 1612h-631v102h631v-102z" />
    <glyph glyph-name="amacron" unicode="&#x101;" horiz-adv-x="989" 
d="M717 0v92q-77 -38 -165.5 -65t-154.5 -27q-151 0 -222 76.5t-71 234.5q0 164 78 227.5t264 63.5q34 0 64 -10l207 -76v29q0 160 -61 231.5t-191 71.5q-87 0 -182 -37l-39 94q36 22 103 40t142 18q188 0 276.5 -106t88.5 -331v-526h-137zM424 117q125 0 293 92v192
l-236 91q-142 0 -193.5 -35.5t-51.5 -141.5q0 -61 15 -102t43 -61t58.5 -27.5t71.5 -7.5zM811 1141h-631v102h631v-102z" />
    <glyph glyph-name="Abreve" unicode="&#x102;" horiz-adv-x="1183" 
d="M1161 0h-153l-115 307h-625l-102 -307h-146l492 1434h100zM565 1198l-254 -758h533zM373 1765h88q0 -49 30 -80.5t76 -31.5q42 0 73.5 32t31.5 80h86q0 -99 -56 -154t-135 -55q-85 0 -139.5 57t-54.5 152z" />
    <glyph glyph-name="abreve" unicode="&#x103;" horiz-adv-x="989" 
d="M717 0v92q-77 -38 -165.5 -65t-154.5 -27q-151 0 -222 76.5t-71 234.5q0 164 78 227.5t264 63.5q34 0 64 -10l207 -76v29q0 160 -61 231.5t-191 71.5q-87 0 -182 -37l-39 94q36 22 103 40t142 18q188 0 276.5 -106t88.5 -331v-526h-137zM424 117q125 0 293 92v192
l-236 91q-142 0 -193.5 -35.5t-51.5 -141.5q0 -61 15 -102t43 -61t58.5 -27.5t71.5 -7.5zM309 1294h88q0 -49 30.5 -80.5t76.5 -31.5q42 0 73 32t31 80h86q0 -99 -55.5 -154t-134.5 -55q-85 0 -140 57t-55 152z" />
    <glyph glyph-name="Aogonek" unicode="&#x104;" horiz-adv-x="1183" 
d="M1171 -225v-103q-125 0 -179 45.5t-54 116.5q0 91 68 172l-113 301h-625l-102 -307h-146l492 1434h100l549 -1434q-37 -29 -64.5 -69t-27.5 -81q0 -75 102 -75zM565 1198l-254 -758h533z" />
    <glyph glyph-name="aogonek" unicode="&#x105;" horiz-adv-x="989" 
d="M860 -225v-103q-125 0 -179 45.5t-54 116.5q0 109 90 199v59q-77 -38 -165.5 -65t-154.5 -27q-151 0 -222 76.5t-71 234.5q0 164 78 227.5t264 63.5q34 0 64 -10l207 -76v29q0 160 -61 231.5t-191 71.5q-87 0 -182 -37l-39 94q36 22 103 40t142 18q188 0 276.5 -106
t88.5 -331v-526h-4q-37 -29 -64.5 -69t-27.5 -81q0 -75 102 -75zM424 117q125 0 293 92v192l-236 91q-142 0 -193.5 -35.5t-51.5 -141.5q0 -61 15 -102t43 -61t58.5 -27.5t71.5 -7.5z" />
    <glyph glyph-name="Cacute" unicode="&#x106;" horiz-adv-x="1112" 
d="M674 -6q-286 0 -411.5 173t-125.5 550q0 197 35 338.5t103 225.5t161 122.5t217 38.5q109 0 181 -25.5t153 -81.5l-61 -131q-60 43 -123 63.5t-150 20.5q-120 0 -198 -55t-121 -182.5t-43 -333.5q0 -300 86 -433.5t297 -133.5q101 0 162 23t125 77l61 -131
q-65 -63 -144 -94t-204 -31zM510 1548l-66 64l261 241l86 -73z" />
    <glyph glyph-name="cacute" unicode="&#x107;" horiz-adv-x="878" 
d="M473 -2q-75 0 -135.5 24.5t-101.5 67t-68.5 102t-40 127.5t-12.5 146q0 258 91.5 380t278.5 122q117 0 182.5 -19t112.5 -53l-37 -123q-100 51 -231 51q-127 0 -192.5 -82.5t-65.5 -273.5q0 -69 13 -125.5t41 -102t76.5 -71t113.5 -25.5q73 0 141.5 15.5t108.5 38.5
l28 -131q-105 -68 -303 -68zM367 1077l-66 64l260 241l86 -73z" />
    <glyph glyph-name="Ccircumflex" unicode="&#x108;" horiz-adv-x="1112" 
d="M674 -6q-286 0 -411.5 173t-125.5 550q0 197 35 338.5t103 225.5t161 122.5t217 38.5q109 0 181 -25.5t153 -81.5l-61 -131q-60 43 -123 63.5t-150 20.5q-120 0 -198 -55t-121 -182.5t-43 -333.5q0 -300 86 -433.5t297 -133.5q101 0 162 23t125 77l61 -131
q-65 -63 -144 -94t-204 -31zM379 1647l264 204l248 -209l-86 -61l-170 143l-178 -141z" />
    <glyph glyph-name="ccircumflex" unicode="&#x109;" horiz-adv-x="878" 
d="M473 -2q-75 0 -135.5 24.5t-101.5 67t-68.5 102t-40 127.5t-12.5 146q0 258 91.5 380t278.5 122q117 0 182.5 -19t112.5 -53l-37 -123q-100 51 -231 51q-127 0 -192.5 -82.5t-65.5 -273.5q0 -69 13 -125.5t41 -102t76.5 -71t113.5 -25.5q73 0 141.5 15.5t108.5 38.5
l28 -131q-105 -68 -303 -68zM217 1176l264 204l248 -209l-86 -61l-170 143l-178 -141z" />
    <glyph glyph-name="Cdotaccent" unicode="&#x10a;" horiz-adv-x="1112" 
d="M674 -6q-286 0 -411.5 173t-125.5 550q0 197 35 338.5t103 225.5t161 122.5t217 38.5q109 0 181 -25.5t153 -81.5l-61 -131q-60 43 -123 63.5t-150 20.5q-120 0 -198 -55t-121 -182.5t-43 -333.5q0 -300 86 -433.5t297 -133.5q101 0 162 23t125 77l61 -131
q-65 -63 -144 -94t-204 -31zM537 1686q0 40 28 67t68 27q39 0 66.5 -26.5t27.5 -67.5q0 -40 -27.5 -67.5t-66.5 -27.5q-40 0 -68 27t-28 68z" />
    <glyph glyph-name="cdotaccent" unicode="&#x10b;" horiz-adv-x="878" 
d="M473 -2q-75 0 -135.5 24.5t-101.5 67t-68.5 102t-40 127.5t-12.5 146q0 258 91.5 380t278.5 122q117 0 182.5 -19t112.5 -53l-37 -123q-100 51 -231 51q-127 0 -192.5 -82.5t-65.5 -273.5q0 -69 13 -125.5t41 -102t76.5 -71t113.5 -25.5q73 0 141.5 15.5t108.5 38.5
l28 -131q-105 -68 -303 -68zM385 1214q0 40 28 67.5t68 27.5q39 0 66.5 -27t27.5 -68q0 -39 -27.5 -66.5t-66.5 -27.5q-40 0 -68 26.5t-28 67.5z" />
    <glyph glyph-name="Ccaron" unicode="&#x10c;" horiz-adv-x="1112" 
d="M674 -6q-286 0 -411.5 173t-125.5 550q0 197 35 338.5t103 225.5t161 122.5t217 38.5q109 0 181 -25.5t153 -81.5l-61 -131q-60 43 -123 63.5t-150 20.5q-120 0 -198 -55t-121 -182.5t-43 -333.5q0 -300 86 -433.5t297 -133.5q101 0 162 23t125 77l61 -131
q-65 -63 -144 -94t-204 -31zM887 1765l-264 -204l-246 208l84 62l170 -143l180 141z" />
    <glyph glyph-name="ccaron" unicode="&#x10d;" horiz-adv-x="878" 
d="M473 -2q-75 0 -135.5 24.5t-101.5 67t-68.5 102t-40 127.5t-12.5 146q0 258 91.5 380t278.5 122q117 0 182.5 -19t112.5 -53l-37 -123q-100 51 -231 51q-127 0 -192.5 -82.5t-65.5 -273.5q0 -69 13 -125.5t41 -102t76.5 -71t113.5 -25.5q73 0 141.5 15.5t108.5 38.5
l28 -131q-105 -68 -303 -68zM733 1294l-264 -204l-246 208l84 62l170 -143l180 141z" />
    <glyph glyph-name="Dcaron" unicode="&#x10e;" horiz-adv-x="1224" 
d="M170 0v1430l145 8v-178l162 145q29 29 80 29q262 0 399.5 -181t137.5 -536q0 -132 -19.5 -238.5t-51.5 -180t-81 -128.5t-101 -87t-119 -51t-127 -25.5t-132 -6.5h-293zM545 1286l-230 -192v-951h131q62 0 112 5.5t103.5 21.5t94 42.5t78 70.5t62 103t38.5 143t14 188
q0 563 -403 569zM846 1765l-264 -204l-246 208l84 62l170 -143l180 141z" />
    <glyph glyph-name="dcaron" unicode="&#x10f;" horiz-adv-x="1253" 
d="M582 946l147 -102v583l135 23v-1450l-135 -2v111q-49 -55 -117.5 -82t-171.5 -27q-70 0 -126 27t-92.5 72t-61 106t-35 125t-10.5 133q0 245 97 372.5t292 127.5q17 0 44.5 -6t33.5 -11zM471 141q43 0 78 8t57 16.5t48 30.5t37.5 34t37.5 42v416l-201 133
q-135 0 -202.5 -84.5t-67.5 -265.5q0 -82 20 -153.5t70 -124t123 -52.5zM979 1339q0 45 30.5 75t71.5 30q46 0 75.5 -33.5t29.5 -77.5q0 -140 -111 -291l-76 41q50 92 54 166q-31 4 -52.5 32.5t-21.5 57.5z" />
    <glyph glyph-name="Dcroat" unicode="&#x110;" horiz-adv-x="1226" 
d="M76 623v122h96v685l145 8v-178l162 145q29 29 80 29q262 0 399.5 -181t137.5 -536q0 -132 -19.5 -238.5t-51.5 -180t-81 -128.5t-101 -87t-119 -51t-127 -25.5t-132 -6.5h-293v623h-96zM645 623h-328v-480h132q88 0 155 11.5t135 48t112 98t71.5 167t27.5 249.5
q0 563 -403 569l-230 -192v-349h328v-122z" />
    <glyph glyph-name="dcroat" unicode="&#x111;" horiz-adv-x="1021" 
d="M350 1139v114h379v174l135 23v-197h117v-114h-117v-1139l-135 -2v111q-49 -55 -117.5 -82t-171.5 -27q-70 0 -126 27t-92.5 72t-61 106t-35 125t-10.5 133q0 245 97 372.5t292 127.5q17 0 44.5 -6t33.5 -11l147 -102v295h-379zM471 141q43 0 78 8t57 16.5t48 30.5
t37.5 34t37.5 42v416l-201 133q-135 0 -202.5 -84.5t-67.5 -265.5q0 -82 20 -153.5t70 -124t123 -52.5z" />
    <glyph glyph-name="Emacron" unicode="&#x112;" horiz-adv-x="1073" 
d="M170 0v1434h809v-144h-664v-485h549v-141h-549v-529h672v-135h-817zM891 1612h-631v102h631v-102z" />
    <glyph glyph-name="emacron" unicode="&#x113;" horiz-adv-x="952" 
d="M764 416h-524q19 -297 264 -297q168 0 311 88l43 -96q-58 -36 -92.5 -54.5t-110.5 -37.5t-168 -19q-84 0 -150.5 25.5t-118.5 81t-80.5 150.5t-28.5 226q0 128 31.5 224t86.5 150t120.5 80t141.5 26q175 0 262 -110.5t87 -340.5q0 -96 -74 -96zM492 838
q-103 0 -172.5 -77.5t-79.5 -238.5l477 6q0 162 -55 236t-170 74zM807 1141h-631v102h631v-102z" />
    <glyph glyph-name="Ebreve" unicode="&#x114;" horiz-adv-x="1073" 
d="M170 0v1434h809v-144h-664v-485h549v-141h-549v-529h672v-135h-817zM387 1765h88q0 -49 30.5 -80.5t76.5 -31.5q42 0 73 32t31 80h86q0 -99 -55.5 -154t-134.5 -55q-85 0 -140 57t-55 152z" />
    <glyph glyph-name="ebreve" unicode="&#x115;" horiz-adv-x="952" 
d="M764 416h-524q19 -297 264 -297q168 0 311 88l43 -96q-58 -36 -92.5 -54.5t-110.5 -37.5t-168 -19q-84 0 -150.5 25.5t-118.5 81t-80.5 150.5t-28.5 226q0 128 31.5 224t86.5 150t120.5 80t141.5 26q175 0 262 -110.5t87 -340.5q0 -96 -74 -96zM492 838
q-103 0 -172.5 -77.5t-79.5 -238.5l477 6q0 162 -55 236t-170 74zM299 1294h88q0 -49 30.5 -80.5t76.5 -31.5q42 0 73 32t31 80h86q0 -99 -55.5 -154t-134.5 -55q-85 0 -140 57t-55 152z" />
    <glyph glyph-name="Edotaccent" unicode="&#x116;" horiz-adv-x="1073" 
d="M170 0v1434h809v-144h-664v-485h549v-141h-549v-529h672v-135h-817zM487 1686q0 39 28.5 66.5t68.5 27.5q39 0 66.5 -26.5t27.5 -67.5q0 -40 -28 -67.5t-66 -27.5q-40 0 -68.5 27t-28.5 68z" />
    <glyph glyph-name="edotaccent" unicode="&#x117;" horiz-adv-x="952" 
d="M764 416h-524q19 -297 264 -297q168 0 311 88l43 -96q-58 -36 -92.5 -54.5t-110.5 -37.5t-168 -19q-84 0 -150.5 25.5t-118.5 81t-80.5 150.5t-28.5 226q0 128 31.5 224t86.5 150t120.5 80t141.5 26q175 0 262 -110.5t87 -340.5q0 -96 -74 -96zM492 838
q-103 0 -172.5 -77.5t-79.5 -238.5l477 6q0 162 -55 236t-170 74zM406 1214q0 40 28 67.5t68 27.5q39 0 66.5 -27t27.5 -68q0 -39 -27.5 -66.5t-66.5 -27.5q-40 0 -68 26.5t-28 67.5z" />
    <glyph glyph-name="Eogonek" unicode="&#x118;" horiz-adv-x="1073" 
d="M170 0v1434h809v-144h-664v-485h549v-141h-549v-529h672v-135h-2q-37 -29 -64.5 -69t-27.5 -81q0 -75 102 -75v-103q-125 0 -179 45.5t-54 116.5q0 86 61 166h-653z" />
    <glyph glyph-name="eogonek" unicode="&#x119;" horiz-adv-x="952" 
d="M809 -152v-102q-125 0 -179.5 45.5t-54.5 116.5q0 47 23 98q-50 -6 -111 -6q-84 0 -150.5 25.5t-118.5 81t-80.5 150.5t-28.5 226q0 128 31.5 224t86.5 150t120.5 80t141.5 26q175 0 262 -110.5t87 -340.5q0 -96 -74 -96h-524q19 -297 264 -297q168 0 311 88l43 -96
l-59 -37q-37 -29 -64.5 -69t-27.5 -81q0 -76 102 -76zM492 838q-103 0 -172.5 -77.5t-79.5 -238.5l477 6q0 162 -55 236t-170 74z" />
    <glyph glyph-name="Ecaron" unicode="&#x11a;" horiz-adv-x="1073" 
d="M170 0v1434h809v-144h-664v-485h549v-141h-549v-529h672v-135h-817zM840 1765l-265 -204l-245 208l84 62l170 -143l180 141z" />
    <glyph glyph-name="ecaron" unicode="&#x11b;" horiz-adv-x="952" 
d="M764 416h-524q19 -297 264 -297q168 0 311 88l43 -96q-58 -36 -92.5 -54.5t-110.5 -37.5t-168 -19q-84 0 -150.5 25.5t-118.5 81t-80.5 150.5t-28.5 226q0 128 31.5 224t86.5 150t120.5 80t141.5 26q175 0 262 -110.5t87 -340.5q0 -96 -74 -96zM492 838
q-103 0 -172.5 -77.5t-79.5 -238.5l477 6q0 162 -55 236t-170 74zM754 1294l-265 -204l-245 208l84 62l170 -143l180 141z" />
    <glyph glyph-name="Gcircumflex" unicode="&#x11c;" horiz-adv-x="1216" 
d="M592 643v123h473v-766l-125 -4v180l-211 -168q-14 -12 -59 -12q-273 0 -405 175t-132 546q0 197 35 338.5t103 225.5t161 122.5t217 38.5q219 0 373 -107l-59 -133q-119 86 -308 86q-186 0 -278 -133t-92 -436q0 -297 98.5 -434.5t318.5 -137.5l238 189v307h-348z
M395 1647l264 204l248 -209l-86 -61l-170 143l-178 -141z" />
    <glyph glyph-name="gcircumflex" unicode="&#x11d;" horiz-adv-x="991" 
d="M862 975l-2 -916q0 -231 -91 -351t-263 -120q-105 0 -178.5 17t-108.5 39l19 112q31 -16 100.5 -28.5t142.5 -12.5q124 0 182 86t60 260v7l-193 -60q-28 -8 -55 -8q-176 0 -267 117t-91 342q0 77 12.5 148t41 136.5t71 113.5t108 77t146.5 29q55 0 117.5 -23.5
t109.5 -60.5v77zM252 471q0 -334 250 -334l221 62v538q-105 84 -197 84q-138 0 -206 -98t-68 -252zM262 1176l264 204l248 -209l-86 -61l-170 143l-178 -141z" />
    <glyph glyph-name="Gbreve" unicode="&#x11e;" horiz-adv-x="1216" 
d="M592 643v123h473v-766l-125 -4v180l-211 -168q-14 -12 -59 -12q-273 0 -405 175t-132 546q0 197 35 338.5t103 225.5t161 122.5t217 38.5q219 0 373 -107l-59 -133q-119 86 -308 86q-186 0 -278 -133t-92 -436q0 -297 98.5 -434.5t318.5 -137.5l238 189v307h-348z
M453 1765h88q0 -49 30 -80.5t76 -31.5q42 0 73.5 32t31.5 80h86q0 -99 -56 -154t-135 -55q-85 0 -139.5 57t-54.5 152z" />
    <glyph glyph-name="gbreve" unicode="&#x11f;" horiz-adv-x="991" 
d="M862 975l-2 -916q0 -231 -91 -351t-263 -120q-105 0 -178.5 17t-108.5 39l19 112q31 -16 100.5 -28.5t142.5 -12.5q124 0 182 86t60 260v7l-193 -60q-28 -8 -55 -8q-176 0 -267 117t-91 342q0 77 12.5 148t41 136.5t71 113.5t108 77t146.5 29q55 0 117.5 -23.5
t109.5 -60.5v77zM252 471q0 -334 250 -334l221 62v538q-105 84 -197 84q-138 0 -206 -98t-68 -252zM322 1294h88q0 -49 30 -80.5t76 -31.5q42 0 73.5 32t31.5 80h86q0 -99 -56 -154t-135 -55q-85 0 -139.5 57t-54.5 152z" />
    <glyph glyph-name="Gdotaccent" unicode="&#x120;" horiz-adv-x="1216" 
d="M592 643v123h473v-766l-125 -4v180l-211 -168q-14 -12 -59 -12q-273 0 -405 175t-132 546q0 197 35 338.5t103 225.5t161 122.5t217 38.5q219 0 373 -107l-59 -133q-119 86 -308 86q-186 0 -278 -133t-92 -436q0 -297 98.5 -434.5t318.5 -137.5l238 189v307h-348z
M553 1686q0 40 28 67t68 27q39 0 66.5 -26.5t27.5 -67.5q0 -40 -27.5 -67.5t-66.5 -27.5q-40 0 -68 27t-28 68z" />
    <glyph glyph-name="gdotaccent" unicode="&#x121;" horiz-adv-x="991" 
d="M862 975l-2 -916q0 -231 -91 -351t-263 -120q-105 0 -178.5 17t-108.5 39l19 112q31 -16 100.5 -28.5t142.5 -12.5q124 0 182 86t60 260v7l-193 -60q-28 -8 -55 -8q-176 0 -267 117t-91 342q0 77 12.5 148t41 136.5t71 113.5t108 77t146.5 29q55 0 117.5 -23.5
t109.5 -60.5v77zM252 471q0 -334 250 -334l221 62v538q-105 84 -197 84q-138 0 -206 -98t-68 -252zM438 1217q0 39 28.5 66.5t68.5 27.5q39 0 66.5 -26.5t27.5 -67.5q0 -39 -27.5 -67t-66.5 -28q-40 0 -68.5 27t-28.5 68z" />
    <glyph glyph-name="Gcommaaccent" unicode="&#x122;" horiz-adv-x="1216" 
d="M592 643v123h473v-766l-125 -4v180l-211 -168q-14 -12 -59 -12q-273 0 -405 175t-132 546q0 197 35 338.5t103 225.5t161 122.5t217 38.5q219 0 373 -107l-59 -133q-119 86 -308 86q-186 0 -278 -133t-92 -436q0 -297 98.5 -434.5t318.5 -137.5l238 189v307h-348z
M567 -424l39 301l119 10l-72 -327z" />
    <glyph glyph-name="gcommaaccent" unicode="&#x123;" horiz-adv-x="991" 
d="M862 975l-2 -916q0 -231 -91 -351t-263 -120q-105 0 -178.5 17t-108.5 39l19 112q31 -16 100.5 -28.5t142.5 -12.5q124 0 182 86t60 260v7l-193 -60q-28 -8 -55 -8q-176 0 -267 117t-91 342q0 77 12.5 148t41 136.5t71 113.5t108 77t146.5 29q55 0 117.5 -23.5
t109.5 -60.5v77zM252 471q0 -334 250 -334l221 62v538q-105 84 -197 84q-138 0 -206 -98t-68 -252zM631 1438l-39 -301l-119 -11l72 328z" />
    <glyph glyph-name="Hcircumflex" unicode="&#x124;" horiz-adv-x="1253" 
d="M924 0v670h-594v-670h-146v1434h146v-621h594v621h145v-1434h-145zM371 1647l264 204l248 -209l-86 -61l-170 143l-178 -141z" />
    <glyph glyph-name="hcircumflex" unicode="&#x125;" horiz-adv-x="1030" 
d="M160 0v1427l135 23v-627l139 117q9 7 38.5 15t45.5 8q105 0 171 -16t114.5 -60t69 -121.5t20.5 -200.5v-565h-137v557q0 84 -10 133t-40 81.5t-79.5 44t-132.5 11.5l-199 -159v-668h-135zM274 1614l265 205l247 -209l-86 -62l-170 144l-178 -142z" />
    <glyph glyph-name="Hbar" unicode="&#x126;" horiz-adv-x="1253" 
d="M184 0v1090h-166v90h166v254h146v-254h594v254h145v-254h154v-90h-154v-1090h-145v670h-594v-670h-146zM330 1090v-277h594v277h-594z" />
    <glyph glyph-name="hbar" unicode="&#x127;" horiz-adv-x="1030" 
d="M700 1124h-405v-301l139 117q9 7 38.5 15t45.5 8q105 0 171 -16t114.5 -60t69 -121.5t20.5 -200.5v-565h-137v557q0 84 -10 133t-40 81.5t-79.5 44t-132.5 11.5l-199 -159v-668h-135v1124h-90v97h90v206l135 23v-229h405v-97z" />
    <glyph glyph-name="Itilde" unicode="&#x128;" horiz-adv-x="514" 
d="M184 0v1434h146v-1434h-146zM379 1577q-41 0 -117 38t-121 38q-77 0 -145 -56l-45 74q92 74 184 74q42 0 121.5 -39t126.5 -39q46 0 75 11.5t58 35.5l49 -59q-78 -78 -186 -78z" />
    <glyph glyph-name="itilde" unicode="&#x129;" horiz-adv-x="466" 
d="M303 0h-139v963h139v-963zM354 1106q-41 0 -116.5 38t-120.5 38q-38 0 -78 -16.5t-68 -39.5l-45 74q36 29 86.5 51.5t98.5 22.5q42 0 121 -39t126 -39q46 0 75.5 11.5t58.5 35.5l49 -59q-78 -78 -187 -78z" />
    <glyph glyph-name="imacron" unicode="&#x12b;" horiz-adv-x="466" 
d="M303 0h-139v963h139v-963zM551 1141h-631v102h631v-102z" />
    <glyph glyph-name="Ibreve" unicode="&#x12c;" horiz-adv-x="514" 
d="M184 0v1434h146v-1434h-146zM63 1765h89q0 -49 30 -80.5t76 -31.5q42 0 73 32t31 80h87q0 -99 -56 -154t-135 -55q-85 0 -140 57t-55 152z" />
    <glyph glyph-name="Iogonek" unicode="&#x12e;" horiz-adv-x="514" 
d="M338 -225v-103q-125 0 -179.5 45.5t-54.5 116.5q0 100 80 186v1414h146v-1434h-2q-37 -29 -64.5 -69t-27.5 -81q0 -75 102 -75z" />
    <glyph glyph-name="iogonek" unicode="&#x12f;" horiz-adv-x="509" 
d="M334 -225v-103q-125 0 -179.5 45.5t-54.5 116.5q0 103 86 195v927l138 17v-973q-38 -29 -65.5 -69t-27.5 -81q0 -75 103 -75zM170 1200q0 39 26.5 65.5t61.5 26.5q42 0 68 -26t26 -66q0 -38 -26 -65t-68 -27q-34 0 -61 28t-27 64z" />
    <glyph glyph-name="Idotaccent" unicode="&#x130;" horiz-adv-x="514" 
d="M184 0v1434h146v-1434h-146zM162 1686q0 40 28 67t68 27q39 0 66.5 -26.5t27.5 -67.5q0 -40 -28 -67.5t-66 -27.5q-40 0 -68 27t-28 68z" />
    <glyph glyph-name="dotlessi" unicode="&#x131;" horiz-adv-x="466" 
d="M303 0h-139v963h139v-963z" />
    <glyph glyph-name="IJ" unicode="&#x132;" horiz-adv-x="1071" 
d="M184 0v1434h146v-1434h-146zM582 -408l-37 134q115 26 156.5 111t41.5 243v1354h144v-1354q0 -217 -70 -338.5t-235 -149.5z" />
    <glyph glyph-name="ij" unicode="&#x133;" horiz-adv-x="1034" 
d="M324 0h-138v956l138 17v-973zM170 1200q0 39 26.5 65.5t61.5 26.5q42 0 68 -26t26 -66q0 -38 -26 -65t-68 -27q-34 0 -61 28t-27 64zM584 -408l-27 136q63 10 111.5 75t48.5 166v987l139 17v-1004q0 -165 -74.5 -263.5t-197.5 -113.5zM700 1200q0 39 27.5 65.5t63.5 26.5
q40 0 65 -26t25 -66q0 -38 -25.5 -65t-64.5 -27q-35 0 -63 28t-28 64z" />
    <glyph glyph-name="Jcircumflex" unicode="&#x134;" horiz-adv-x="559" 
d="M68 -408l-37 134q115 26 156.5 111t41.5 243v1354h144v-1354q0 -217 -70 -338.5t-235 -149.5zM47 1647l264 204l248 -209l-86 -61l-170 143l-178 -141z" />
    <glyph glyph-name="jcircumflex" unicode="&#x135;" horiz-adv-x="524" 
d="M72 -408l-25 136q63 10 111.5 75t48.5 166v987l137 17v-1004q0 -165 -74.5 -263.5t-197.5 -113.5zM14 1176l265 204l247 -209l-86 -61l-170 143l-178 -141z" />
    <glyph glyph-name="Kcommaaccent" unicode="&#x136;" horiz-adv-x="1239" 
d="M1040 0l-510 696l-200 -250v-446h-146v1434h146v-764l614 776l170 -25l-483 -602l590 -819h-181zM553 -424l39 301l119 10l-72 -327z" />
    <glyph glyph-name="kcommaaccent" unicode="&#x137;" horiz-adv-x="970" 
d="M162 0v1427l137 23v-944l367 463l157 -15l-291 -346l418 -608h-155l-357 496l-139 -166v-330h-137zM406 -424l38 301l119 10l-71 -327z" />
    <glyph glyph-name="Lacute" unicode="&#x139;" horiz-adv-x="972" 
d="M184 0v1434h146v-1291h626v-143h-772zM303 1548l-65 64l260 241l86 -73z" />
    <glyph glyph-name="lacute" unicode="&#x13a;" horiz-adv-x="456" 
d="M311 0h-137v1427l137 23v-1450zM125 1554l-66 64l260 242l87 -74z" />
    <glyph glyph-name="Lcommaaccent" unicode="&#x13b;" horiz-adv-x="972" 
d="M184 0v1434h146v-1291h626v-143h-772zM455 -424l39 301l118 10l-71 -327z" />
    <glyph glyph-name="lcommaaccent" unicode="&#x13c;" horiz-adv-x="456" 
d="M311 0h-137v1427l137 23v-1450zM154 -424l39 301l118 10l-71 -327z" />
    <glyph glyph-name="Lcaron" unicode="&#x13d;" horiz-adv-x="972" 
d="M184 0v1434h146v-1291h626v-143h-772zM553 1329q0 45 30.5 75t71.5 30q46 0 75.5 -33.5t29.5 -77.5q0 -140 -111 -291l-76 41q50 92 54 166q-31 4 -52.5 32.5t-21.5 57.5z" />
    <glyph glyph-name="lcaron" unicode="&#x13e;" horiz-adv-x="714" 
d="M311 0h-137v1427l137 23v-1450zM436 1339q0 45 31 75t72 30q46 0 75 -33t29 -78q0 -140 -111 -291l-75 41q49 90 53 166q-31 4 -52.5 32.5t-21.5 57.5z" />
    <glyph glyph-name="Ldot" unicode="&#x13f;" horiz-adv-x="972" 
d="M184 0v1434h146v-1291h626v-143h-772zM557 733q0 39 27 65.5t63 26.5q41 0 66.5 -26t25.5 -66q0 -37 -26 -64.5t-66 -27.5q-35 0 -62.5 28.5t-27.5 63.5z" />
    <glyph glyph-name="ldot" unicode="&#x140;" horiz-adv-x="737" 
d="M311 0h-137v1427l137 23v-1450zM455 623q0 40 27 67t63 27q41 0 66.5 -26.5t25.5 -67.5q0 -37 -26 -64t-66 -27q-35 0 -62.5 28t-27.5 63z" />
    <glyph glyph-name="Lslash" unicode="&#x141;" horiz-adv-x="972" 
d="M53 598v123h131v713h146v-713h293v-123h-293v-455h626v-143h-772v598h-131z" />
    <glyph glyph-name="lslash" unicode="&#x142;" horiz-adv-x="471" 
d="M20 694v115h160v618l137 23v-641h166v-115h-166v-694h-137v694h-160z" />
    <glyph glyph-name="Nacute" unicode="&#x143;" horiz-adv-x="1327" 
d="M309 1157v-1157h-141v1434h141l707 -1153v1153h143v-1434h-143zM557 1548l-65 64l260 241l86 -73z" />
    <glyph glyph-name="nacute" unicode="&#x144;" horiz-adv-x="1015" 
d="M295 973v-168l141 119q47 39 121 39q180 0 252 -83.5t72 -277.5v-602h-144v565q0 148 -49.5 204t-181.5 56l-211 -170v-655h-137v954zM397 1077l-65 64l260 241l86 -73z" />
    <glyph glyph-name="Ncommaaccent" unicode="&#x145;" horiz-adv-x="1327" 
d="M309 1157v-1157h-141v1434h141l707 -1153v1153h143v-1434h-143zM588 -424l39 301l118 10l-71 -327z" />
    <glyph glyph-name="ncommaaccent" unicode="&#x146;" horiz-adv-x="1015" 
d="M295 973v-168l141 119q47 39 121 39q180 0 252 -83.5t72 -277.5v-602h-144v565q0 148 -49.5 204t-181.5 56l-211 -170v-655h-137v954zM426 -424l39 301l119 10l-72 -327z" />
    <glyph glyph-name="Ncaron" unicode="&#x147;" horiz-adv-x="1327" 
d="M309 1157v-1157h-141v1434h141l707 -1153v1153h143v-1434h-143zM918 1765l-265 -204l-245 208l84 62l170 -143l180 141z" />
    <glyph glyph-name="ncaron" unicode="&#x148;" horiz-adv-x="1015" 
d="M295 973v-168l141 119q47 39 121 39q180 0 252 -83.5t72 -277.5v-602h-144v565q0 148 -49.5 204t-181.5 56l-211 -170v-655h-137v954zM764 1294l-264 -204l-246 208l84 62l170 -143l180 141z" />
    <glyph glyph-name="napostrophe" unicode="&#x149;" horiz-adv-x="1202" 
d="M481 973v-168l142 119q47 39 120 39q180 0 252 -83.5t72 -277.5v-602h-143v565q0 148 -50 204t-182 56l-211 -170v-655h-137v954zM57 657l39 301l119 11l-72 -328z" />
    <glyph glyph-name="Eng" unicode="&#x14a;" horiz-adv-x="1327" 
d="M1020 2l-709 1153v-1155h-143v1434h143l703 -1151v1151h145v-1354q0 -217 -71 -338.5t-236 -149.5l-37 134q106 23 155.5 103.5t49.5 172.5z" />
    <glyph glyph-name="eng" unicode="&#x14b;" horiz-adv-x="1015" 
d="M877 602v-639q0 -165 -75 -265.5t-200 -115.5l-24 135q62 10 111.5 78t49.5 168v602q0 84 -12 136t-41.5 80.5t-67.5 38t-100 9.5l-223 -182v-647h-137v954l137 19v-174l172 141q26 23 94 23q178 0 247 -85t69 -276z" />
    <glyph glyph-name="Omacron" unicode="&#x14c;" horiz-adv-x="1255" 
d="M637 -8q-247 0 -375.5 180t-128.5 545q0 347 131.5 536t372.5 189q235 0 361 -187.5t126 -537.5q0 -355 -121.5 -540t-365.5 -185zM637 1296q-174 0 -265 -149.5t-91 -429.5q0 -580 356 -580q168 0 254 147t86 433q0 283 -87 431t-253 148zM950 1612h-631v102h631v-102z
" />
    <glyph glyph-name="omacron" unicode="&#x14d;" horiz-adv-x="978" 
d="M506 -6q-212 0 -301.5 117t-89.5 364q0 244 94.5 369t296.5 125q187 0 273.5 -122.5t86.5 -373.5q0 -234 -89.5 -356.5t-270.5 -122.5zM502 838q-250 0 -250 -363q0 -178 55.5 -265t194.5 -87q227 0 227 350q0 179 -53 272t-174 93zM807 1141h-631v102h631v-102z" />
    <glyph glyph-name="Obreve" unicode="&#x14e;" horiz-adv-x="1255" 
d="M637 -8q-247 0 -375.5 180t-128.5 545q0 347 131.5 536t372.5 189q235 0 361 -187.5t126 -537.5q0 -355 -121.5 -540t-365.5 -185zM637 1296q-174 0 -265 -149.5t-91 -429.5q0 -580 356 -580q168 0 254 147t86 433q0 283 -87 431t-253 148zM434 1765h88q0 -49 30.5 -80.5
t76.5 -31.5q42 0 73 32t31 80h86q0 -99 -55.5 -154t-134.5 -55q-85 0 -140 57t-55 152z" />
    <glyph glyph-name="obreve" unicode="&#x14f;" horiz-adv-x="978" 
d="M506 -6q-212 0 -301.5 117t-89.5 364q0 244 94.5 369t296.5 125q187 0 273.5 -122.5t86.5 -373.5q0 -234 -89.5 -356.5t-270.5 -122.5zM502 838q-250 0 -250 -363q0 -178 55.5 -265t194.5 -87q227 0 227 350q0 179 -53 272t-174 93zM295 1294h88q0 -49 30 -80.5t76 -31.5
q42 0 73.5 32t31.5 80h86q0 -99 -56 -154t-135 -55q-85 0 -139.5 57t-54.5 152z" />
    <glyph glyph-name="Ohungarumlaut" unicode="&#x150;" horiz-adv-x="1255" 
d="M637 -8q-247 0 -375.5 180t-128.5 545q0 347 131.5 536t372.5 189q235 0 361 -187.5t126 -537.5q0 -355 -121.5 -540t-365.5 -185zM637 1296q-174 0 -265 -149.5t-91 -429.5q0 -580 356 -580q168 0 254 147t86 433q0 283 -87 431t-253 148zM977 1763l-248 -207l-61 66
l235 215zM625 1763l-248 -207l-60 66l234 215z" />
    <glyph glyph-name="ohungarumlaut" unicode="&#x151;" horiz-adv-x="978" 
d="M506 -6q-212 0 -301.5 117t-89.5 364q0 244 94.5 369t296.5 125q187 0 273.5 -122.5t86.5 -373.5q0 -234 -89.5 -356.5t-270.5 -122.5zM502 838q-250 0 -250 -363q0 -178 55.5 -265t194.5 -87q227 0 227 350q0 179 -53 272t-174 93zM834 1292l-248 -207l-62 66l236 215z
M481 1292l-248 -207l-59 66l234 215z" />
    <glyph glyph-name="OE" unicode="&#x152;" horiz-adv-x="1806" 
d="M637 -8q-247 0 -375.5 180t-128.5 545q0 347 131.5 536t372.5 189q32 0 90 -8h959v-144h-715q134 -165 149 -479h451v-143h-447q-9 -364 -153 -533h723v-135h-961q-62 -8 -96 -8zM637 1296q-174 0 -265 -149.5t-91 -429.5q0 -580 356 -580q168 0 254 147t86 433
q0 283 -87 431t-253 148z" />
    <glyph glyph-name="oe" unicode="&#x153;" horiz-adv-x="1579" 
d="M506 -6q-212 0 -301.5 117t-89.5 364q0 244 94.5 369t296.5 125q218 0 303 -172q52 85 132 125.5t175 40.5q175 0 261.5 -110.5t86.5 -340.5q0 -96 -73 -96h-525q19 -297 264 -297q169 0 312 88l43 -96q-58 -36 -92.5 -54.5t-110.5 -37.5t-168 -19q-215 0 -309 162
q-88 -168 -299 -168zM502 838q-250 0 -250 -363q0 -178 55.5 -265t194.5 -87q227 0 227 350q0 179 -53 272t-174 93zM1118 838q-103 0 -172.5 -77.5t-79.5 -238.5l477 6q0 162 -55 236t-170 74z" />
    <glyph glyph-name="Racute" unicode="&#x154;" horiz-adv-x="1142" 
d="M184 0v1434h146v-174l170 161q13 13 43 13q233 0 352 -105t119 -340q0 -156 -62 -259t-176 -152l346 -578h-159l-320 543q-47 -8 -108 -8h-205v-535h-146zM541 1292l-211 -196v-416h194q171 0 259.5 80.5t88.5 228.5q0 164 -82.5 233.5t-248.5 69.5zM469 1548l-66 64
l261 241l86 -73z" />
    <glyph glyph-name="racute" unicode="&#x155;" horiz-adv-x="712" 
d="M295 973v-125l135 102q17 13 49 13q104 0 217 -58l-47 -127q-85 45 -190 45l-164 -129v-694h-137v954zM276 1077l-65 64l260 241l86 -73z" />
    <glyph glyph-name="Rcommaaccent" unicode="&#x156;" horiz-adv-x="1142" 
d="M184 0v1434h146v-174l170 161q13 13 43 13q233 0 352 -105t119 -340q0 -156 -62 -259t-176 -152l346 -578h-159l-320 543q-47 -8 -108 -8h-205v-535h-146zM541 1292l-211 -196v-416h194q171 0 259.5 80.5t88.5 228.5q0 164 -82.5 233.5t-248.5 69.5zM504 -424l39 301
l119 10l-72 -327z" />
    <glyph glyph-name="rcommaaccent" unicode="&#x157;" horiz-adv-x="712" 
d="M295 973v-125l135 102q17 13 49 13q104 0 217 -58l-47 -127q-85 45 -190 45l-164 -129v-694h-137v954zM276 -424l39 301l119 10l-72 -327z" />
    <glyph glyph-name="Rcaron" unicode="&#x158;" horiz-adv-x="1142" 
d="M184 0v1434h146v-174l170 161q13 13 43 13q233 0 352 -105t119 -340q0 -156 -62 -259t-176 -152l346 -578h-159l-320 543q-47 -8 -108 -8h-205v-535h-146zM541 1292l-211 -196v-416h194q171 0 259.5 80.5t88.5 228.5q0 164 -82.5 233.5t-248.5 69.5zM834 1765l-265 -204
l-245 208l84 62l170 -143l180 141z" />
    <glyph glyph-name="rcaron" unicode="&#x159;" horiz-adv-x="712" 
d="M295 973v-125l135 102q17 13 49 13q104 0 217 -58l-47 -127q-85 45 -190 45l-164 -129v-694h-137v954zM637 1296l-264 -204l-246 208l84 62l170 -143l180 141z" />
    <glyph glyph-name="Sacute" unicode="&#x15a;" horiz-adv-x="1150" 
d="M563 -4q-169 0 -277.5 43.5t-183.5 124.5l56 121q82 -68 176.5 -105t226.5 -37q69 0 126.5 13t107.5 41t78 79.5t28 122.5q0 112 -85.5 175.5t-283.5 123.5q-95 26 -162 58t-118.5 79t-76.5 112.5t-25 152.5q0 97 31.5 165t90 105t129.5 53.5t162 16.5q88 0 160 -13
t122.5 -37.5t82.5 -47t63 -52.5l-67 -119q-73 55 -154.5 84t-206.5 29q-42 0 -76 -3.5t-71 -15.5t-62.5 -32.5t-42 -56.5t-16.5 -84q0 -102 69.5 -162.5t204.5 -100.5q71 -20 120 -35.5t103.5 -37.5t90 -44.5t70 -53.5t53.5 -67t31 -83.5t12 -104.5q0 -407 -486 -407z
M477 1548l-65 64l260 241l86 -73z" />
    <glyph glyph-name="sacute" unicode="&#x15b;" horiz-adv-x="886" 
d="M444 -2q-214 0 -350 84l39 111q45 -29 129.5 -48.5t177.5 -19.5q234 0 234 139q0 29 -6 51t-23.5 40t-33 29.5t-52 25.5t-60 21.5t-77.5 23.5q-153 43 -224 102t-71 166q0 65 24 113.5t67.5 76.5t97.5 41t120 13q176 0 305 -84l-41 -109q-41 26 -112.5 44t-151.5 18
q-192 0 -192 -119q0 -61 53.5 -94t185.5 -68q88 -23 140.5 -44t95 -54t60.5 -80t18 -115q0 -136 -86.5 -200t-266.5 -64zM338 1077l-66 64l260 241l86 -73z" />
    <glyph glyph-name="Scircumflex" unicode="&#x15c;" horiz-adv-x="1150" 
d="M563 -4q-169 0 -277.5 43.5t-183.5 124.5l56 121q82 -68 176.5 -105t226.5 -37q69 0 126.5 13t107.5 41t78 79.5t28 122.5q0 112 -85.5 175.5t-283.5 123.5q-95 26 -162 58t-118.5 79t-76.5 112.5t-25 152.5q0 97 31.5 165t90 105t129.5 53.5t162 16.5q88 0 160 -13
t122.5 -37.5t82.5 -47t63 -52.5l-67 -119q-73 55 -154.5 84t-206.5 29q-42 0 -76 -3.5t-71 -15.5t-62.5 -32.5t-42 -56.5t-16.5 -84q0 -102 69.5 -162.5t204.5 -100.5q71 -20 120 -35.5t103.5 -37.5t90 -44.5t70 -53.5t53.5 -67t31 -83.5t12 -104.5q0 -407 -486 -407z
M324 1647l264 204l248 -209l-86 -61l-170 143l-179 -141z" />
    <glyph glyph-name="scircumflex" unicode="&#x15d;" horiz-adv-x="886" 
d="M444 -2q-214 0 -350 84l39 111q45 -29 129.5 -48.5t177.5 -19.5q234 0 234 139q0 29 -6 51t-23.5 40t-33 29.5t-52 25.5t-60 21.5t-77.5 23.5q-153 43 -224 102t-71 166q0 65 24 113.5t67.5 76.5t97.5 41t120 13q176 0 305 -84l-41 -109q-41 26 -112.5 44t-151.5 18
q-192 0 -192 -119q0 -61 53.5 -94t185.5 -68q88 -23 140.5 -44t95 -54t60.5 -80t18 -115q0 -136 -86.5 -200t-266.5 -64zM188 1176l265 204l247 -209l-86 -61l-170 143l-178 -141z" />
    <glyph glyph-name="Scedilla" unicode="&#x15e;" horiz-adv-x="1150" 
d="M580 -354q-142 0 -211 53l30 80q95 -39 164 -39q42 0 77.5 13t35.5 40q0 25 -21 38t-63 24q-48 11 -66.5 40.5t-21.5 102.5q-260 10 -402 166l56 121q82 -68 176.5 -105t226.5 -37q69 0 126.5 13t107.5 41t78 79.5t28 122.5q0 112 -85.5 175.5t-283.5 123.5
q-95 26 -162 58t-118.5 79t-76.5 112.5t-25 152.5q0 97 31.5 165t90 105t129.5 53.5t162 16.5q88 0 160 -13t122.5 -37.5t82.5 -47t63 -52.5l-67 -119q-73 55 -154.5 84t-206.5 29q-42 0 -76 -3.5t-71 -15.5t-62.5 -32.5t-42 -56.5t-16.5 -84q0 -102 69.5 -162.5
t204.5 -100.5q71 -20 120 -35.5t103.5 -37.5t90 -44.5t70 -53.5t53.5 -67t31 -83.5t12 -104.5q0 -384 -431 -405q3 -37 14.5 -56t37.5 -26q53 -16 79.5 -45.5t26.5 -85.5q0 -64 -58 -101.5t-138 -37.5z" />
    <glyph glyph-name="scedilla" unicode="&#x15f;" horiz-adv-x="886" 
d="M453 -354q-142 0 -211 53l30 80q95 -39 164 -39q42 0 77.5 13t35.5 40q0 25 -21 38t-63 24q-48 11 -66.5 41t-21.5 104q-169 9 -283 82l39 111q45 -29 129.5 -48.5t177.5 -19.5q234 0 234 139q0 29 -6 51t-23.5 40t-33 29.5t-52 25.5t-60 21.5t-77.5 23.5
q-153 43 -224 102t-71 166q0 65 24 113.5t67.5 76.5t97.5 41t120 13q176 0 305 -84l-41 -109q-41 26 -112.5 44t-151.5 18q-192 0 -192 -119q0 -61 53.5 -94t185.5 -68q88 -23 140.5 -44t95 -54t60.5 -80t18 -115q0 -127 -76 -191.5t-232 -70.5q3 -38 15.5 -57t38.5 -27
q53 -16 79.5 -45.5t26.5 -85.5q0 -64 -58 -101.5t-138 -37.5z" />
    <glyph glyph-name="Scaron" unicode="&#x160;" horiz-adv-x="1150" 
d="M563 -4q-169 0 -277.5 43.5t-183.5 124.5l56 121q82 -68 176.5 -105t226.5 -37q69 0 126.5 13t107.5 41t78 79.5t28 122.5q0 112 -85.5 175.5t-283.5 123.5q-95 26 -162 58t-118.5 79t-76.5 112.5t-25 152.5q0 97 31.5 165t90 105t129.5 53.5t162 16.5q88 0 160 -13
t122.5 -37.5t82.5 -47t63 -52.5l-67 -119q-73 55 -154.5 84t-206.5 29q-42 0 -76 -3.5t-71 -15.5t-62.5 -32.5t-42 -56.5t-16.5 -84q0 -102 69.5 -162.5t204.5 -100.5q71 -20 120 -35.5t103.5 -37.5t90 -44.5t70 -53.5t53.5 -67t31 -83.5t12 -104.5q0 -407 -486 -407z
M838 1765l-265 -204l-245 208l84 62l170 -143l180 141z" />
    <glyph glyph-name="scaron" unicode="&#x161;" horiz-adv-x="886" 
d="M444 -2q-214 0 -350 84l39 111q45 -29 129.5 -48.5t177.5 -19.5q234 0 234 139q0 29 -6 51t-23.5 40t-33 29.5t-52 25.5t-60 21.5t-77.5 23.5q-153 43 -224 102t-71 166q0 65 24 113.5t67.5 76.5t97.5 41t120 13q176 0 305 -84l-41 -109q-41 26 -112.5 44t-151.5 18
q-192 0 -192 -119q0 -61 53.5 -94t185.5 -68q88 -23 140.5 -44t95 -54t60.5 -80t18 -115q0 -136 -86.5 -200t-266.5 -64zM698 1294l-264 -204l-246 208l84 62l170 -143l181 141z" />
    <glyph glyph-name="Tcommaaccent" unicode="&#x162;" horiz-adv-x="1013" 
d="M29 1290v144h956v-144h-414v-1290h-143v1290h-399zM424 -424l39 301l119 10l-72 -327z" />
    <glyph glyph-name="tcommaaccent" unicode="&#x163;" horiz-adv-x="679" 
d="M117 825v138h92v258l137 22v-280h262v-138h-262v-438q0 -131 51 -190.5t125 -59.5h70v-137h-103q-134 0 -207 94.5t-73 270.5v460h-92zM270 -424l39 301l119 10l-72 -327z" />
    <glyph glyph-name="Tcaron" unicode="&#x164;" horiz-adv-x="1013" 
d="M29 1290v144h956v-144h-414v-1290h-143v1290h-399zM762 1765l-264 -204l-246 208l84 62l170 -143l180 141z" />
    <glyph glyph-name="tcaron" unicode="&#x165;" horiz-adv-x="784" 
d="M117 825v138h92v258l137 22v-280h262v-138h-262v-438q0 -131 51 -190.5t125 -59.5h70v-137h-103q-134 0 -207 94.5t-73 270.5v460h-92zM522 1364q0 42 28.5 69t67.5 27q43 0 70 -30.5t27 -71.5q0 -131 -103 -273l-71 39q47 86 51 154q-29 4 -49.5 31t-20.5 55z" />
    <glyph glyph-name="Tbar" unicode="&#x166;" horiz-adv-x="1013" 
d="M29 1290v144h956v-144h-414v-497h283v-103h-283v-690h-143v690h-278v103h278v497h-399z" />
    <glyph glyph-name="tbar" unicode="&#x167;" horiz-adv-x="692" 
d="M645 514h-293v-127q0 -131 51 -190.5t125 -59.5h70v-137h-102q-134 0 -207.5 94.5t-73.5 270.5v149h-172v96h172v215h-92v138h92v258l137 22v-280h262v-138h-262v-215h293v-96z" />
    <glyph glyph-name="Utilde" unicode="&#x168;" horiz-adv-x="1247" 
d="M635 0q-236 0 -350.5 127.5t-114.5 394.5v912h145v-916q0 -375 320 -375q161 0 239 91t78 286v914h144v-910q0 -266 -115 -395t-346 -129zM745 1577q-41 0 -117 38t-120 38q-38 0 -78 -16.5t-68 -39.5l-45 74q36 29 86.5 51.5t98.5 22.5q42 0 121.5 -39t126.5 -39
q46 0 75 11.5t58 35.5l49 -59q-78 -78 -187 -78z" />
    <glyph glyph-name="utilde" unicode="&#x169;" horiz-adv-x="999" 
d="M723 0v119l-148 -94q-40 -25 -90 -25q-186 0 -268 89t-82 282v592h144v-555q0 -105 27 -163.5t75.5 -79t132.5 -20.5l209 123v695h139v-963h-139zM621 1106q-41 0 -117 38t-121 38q-77 0 -145 -56l-45 74q92 74 184 74q42 0 121.5 -39t126.5 -39q46 0 75 11.5t58 35.5
l49 -59q-78 -78 -186 -78z" />
    <glyph glyph-name="Umacron" unicode="&#x16a;" horiz-adv-x="1247" 
d="M635 0q-236 0 -350.5 127.5t-114.5 394.5v912h145v-916q0 -375 320 -375q161 0 239 91t78 286v914h144v-910q0 -266 -115 -395t-346 -129zM944 1612h-631v102h631v-102z" />
    <glyph glyph-name="umacron" unicode="&#x16b;" horiz-adv-x="999" 
d="M723 0v119l-148 -94q-40 -25 -90 -25q-186 0 -268 89t-82 282v592h144v-555q0 -105 27 -163.5t75.5 -79t132.5 -20.5l209 123v695h139v-963h-139zM815 1141h-631v102h631v-102z" />
    <glyph glyph-name="Ubreve" unicode="&#x16c;" horiz-adv-x="1247" 
d="M635 0q-236 0 -350.5 127.5t-114.5 394.5v912h145v-916q0 -375 320 -375q161 0 239 91t78 286v914h144v-910q0 -266 -115 -395t-346 -129zM436 1765h88q0 -49 30.5 -80.5t76.5 -31.5q42 0 73 32t31 80h86q0 -99 -55.5 -154t-134.5 -55q-85 0 -140 57t-55 152z" />
    <glyph glyph-name="ubreve" unicode="&#x16d;" horiz-adv-x="999" 
d="M723 0v119l-148 -94q-40 -25 -90 -25q-186 0 -268 89t-82 282v592h144v-555q0 -105 27 -163.5t75.5 -79t132.5 -20.5l209 123v695h139v-963h-139zM305 1294h88q0 -49 30.5 -80.5t76.5 -31.5q42 0 73 32t31 80h86q0 -99 -55.5 -154t-134.5 -55q-85 0 -140 57t-55 152z" />
    <glyph glyph-name="Uring" unicode="&#x16e;" horiz-adv-x="1247" 
d="M635 0q-236 0 -350.5 127.5t-114.5 394.5v912h145v-916q0 -375 320 -375q161 0 239 91t78 286v914h144v-910q0 -266 -115 -395t-346 -129zM625 1542q-69 0 -115.5 47.5t-46.5 118.5q0 68 47 116t115 48q63 0 111 -49t48 -115q0 -69 -47.5 -117.5t-111.5 -48.5zM532 1708
q0 -40 27 -67t66 -27t65.5 26.5t26.5 67.5q0 46 -26.5 69t-65.5 23q-36 0 -64.5 -26.5t-28.5 -65.5z" />
    <glyph glyph-name="uring" unicode="&#x16f;" horiz-adv-x="999" 
d="M723 0v119l-148 -94q-40 -25 -90 -25q-186 0 -268 89t-82 282v592h144v-555q0 -105 27 -163.5t75.5 -79t132.5 -20.5l209 123v695h139v-963h-139zM504 1071q-69 0 -115.5 47.5t-46.5 118.5q0 68 47 116t115 48q63 0 111.5 -49t48.5 -115q0 -69 -48 -117.5t-112 -48.5z
M412 1237q0 -40 27 -67t65 -27q39 0 65.5 26.5t26.5 67.5q0 46 -26.5 69t-65.5 23q-36 0 -64 -26.5t-28 -65.5z" />
    <glyph glyph-name="Uhungarumlaut" unicode="&#x170;" horiz-adv-x="1247" 
d="M635 0q-236 0 -350.5 127.5t-114.5 394.5v912h145v-916q0 -375 320 -375q161 0 239 91t78 286v914h144v-910q0 -266 -115 -395t-346 -129zM973 1763l-248 -207l-61 66l235 215zM621 1763l-248 -207l-60 66l234 215z" />
    <glyph glyph-name="uhungarumlaut" unicode="&#x171;" horiz-adv-x="999" 
d="M723 0v119l-148 -94q-40 -25 -90 -25q-186 0 -268 89t-82 282v592h144v-555q0 -105 27 -163.5t75.5 -79t132.5 -20.5l209 123v695h139v-963h-139zM854 1292l-248 -207l-61 66l235 215zM502 1292l-248 -207l-59 66l233 215z" />
    <glyph glyph-name="Uogonek" unicode="&#x172;" horiz-adv-x="1247" 
d="M940 -143v-103q-125 0 -179 45.5t-54 116.5q0 45 16 88q-54 -4 -88 -4q-236 0 -350.5 127.5t-114.5 394.5v912h145v-916q0 -375 320 -375q161 0 239 91t78 286v914h144v-910q0 -321 -170 -444q-88 -71 -88 -148q0 -75 102 -75z" />
    <glyph glyph-name="uogonek" unicode="&#x173;" horiz-adv-x="999" 
d="M870 -225v-103q-125 0 -179 45.5t-54 116.5q0 103 86 195v90l-148 -94q-40 -25 -90 -25q-186 0 -268 89t-82 282v592h144v-555q0 -105 27 -163.5t75.5 -79t132.5 -20.5l209 123v695h139v-963h-2q-37 -29 -64.5 -69t-27.5 -81q0 -75 102 -75z" />
    <glyph glyph-name="Wcircumflex" unicode="&#x174;" horiz-adv-x="1572" 
d="M1292 0h-145l-361 864l-354 -864h-147l-213 1421l143 25l178 -1204l326 813h139l324 -803l178 1194l145 -25zM530 1647l265 204l247 -209l-86 -61l-170 143l-178 -141z" />
    <glyph glyph-name="wcircumflex" unicode="&#x175;" horiz-adv-x="1345" 
d="M879 0h149l258 952l-145 17l-199 -774l-207 630h-131l-205 -626l-198 770l-144 -17l258 -952h140l213 649zM416 1176l264 204l248 -209l-86 -61l-170 143l-178 -141z" />
    <glyph glyph-name="Ycircumflex" unicode="&#x176;" horiz-adv-x="1116" 
d="M928 1448l157 -27l-454 -841v-580h-144v584l-458 837l149 27l379 -696zM301 1647l264 204l248 -209l-86 -61l-170 143l-178 -141z" />
    <glyph glyph-name="ycircumflex" unicode="&#x177;" horiz-adv-x="964" 
d="M41 952l141 17l293 -787l301 787l146 -17l-482 -1179q-54 -121 -125 -164.5t-204 -46.5v139q97 0 145.5 40t91.5 138l66 154zM227 1176l265 204l247 -209l-86 -61l-170 143l-178 -141z" />
    <glyph glyph-name="Ydieresis" unicode="&#x178;" horiz-adv-x="1116" 
d="M928 1448l157 -27l-454 -841v-580h-144v584l-458 837l149 27l379 -696zM664 1665q0 40 26.5 67t61.5 27q41 0 66.5 -26.5t25.5 -67.5q0 -36 -26 -63t-66 -27q-34 0 -61 27.5t-27 62.5zM270 1665q0 40 26.5 67t61.5 27q41 0 67 -26.5t26 -67.5q0 -36 -26.5 -63t-66.5 -27
q-34 0 -61 27.5t-27 62.5z" />
    <glyph glyph-name="Zacute" unicode="&#x179;" horiz-adv-x="1163" 
d="M152 1280l-15 154h897v-154l-764 -1133h807v-147h-973l-18 147l766 1133h-700zM481 1548l-65 64l260 241l86 -73z" />
    <glyph glyph-name="zacute" unicode="&#x17a;" horiz-adv-x="935" 
d="M139 834l-12 129h702v-129l-573 -703h602v-131h-764l-14 131l573 703h-514zM371 1077l-66 64l260 241l86 -73z" />
    <glyph glyph-name="Zdotaccent" unicode="&#x17b;" horiz-adv-x="1163" 
d="M152 1280l-15 154h897v-154l-764 -1133h807v-147h-973l-18 147l766 1133h-700zM489 1686q0 39 28.5 66.5t68.5 27.5q39 0 66.5 -26.5t27.5 -67.5q0 -40 -28 -67.5t-66 -27.5q-40 0 -68.5 27t-28.5 68z" />
    <glyph glyph-name="zdotaccent" unicode="&#x17c;" horiz-adv-x="935" 
d="M139 834l-12 129h702v-129l-573 -703h602v-131h-764l-14 131l573 703h-514zM379 1214q0 40 28 67.5t68 27.5q39 0 66.5 -27t27.5 -68q0 -39 -27.5 -66.5t-66.5 -27.5q-40 0 -68 26.5t-28 67.5z" />
    <glyph glyph-name="Zcaron" unicode="&#x17d;" horiz-adv-x="1163" 
d="M152 1280l-15 154h897v-154l-764 -1133h807v-147h-973l-18 147l766 1133h-700zM842 1765l-264 -204l-246 208l84 62l170 -143l180 141z" />
    <glyph glyph-name="zcaron" unicode="&#x17e;" horiz-adv-x="935" 
d="M139 834l-12 129h702v-129l-573 -703h602v-131h-764l-14 131l573 703h-514zM731 1294l-264 -204l-246 208l84 62l170 -143l180 141z" />
    <glyph glyph-name="longs" unicode="&#x17f;" horiz-adv-x="645" 
d="M86 825v138h127v65q0 65 6.5 119t26 110t50.5 95.5t84 66t124 31.5l102 6v-133l-80 -12q-45 -5 -77.5 -23.5t-51 -44t-29.5 -64t-14.5 -75t-3.5 -84.5v-1020h-137v825h-127z" />
    <glyph glyph-name="florin" unicode="&#x192;" horiz-adv-x="706" 
d="M102 637l9 84h512l-11 -84h-239l-54 -522q-7 -65 -19 -119.5t-37 -110.5t-60.5 -95.5t-91.5 -66t-127 -30.5l-107 -6l14 131l91 14q54 6 92 31.5t59.5 67.5t32 86.5t16.5 105.5l54 514h-134zM127 838l8 84h129l12 106q37 405 334 422l107 6l-15 -133l-88 -14
q-44 -5 -78 -23t-55 -43.5t-35.5 -63.5t-21.5 -74.5t-12 -84.5l-11 -98h244l-8 -84h-510z" />
    <glyph glyph-name="AEacute" unicode="&#x1fc;" horiz-adv-x="1753" 
d="M854 0v393h-522l-131 -393h-144l490 1434h1114v-144h-664v-479h549v-143h-549v-533h672v-135h-815zM631 1290l-254 -764h477v764h-223zM897 1548l-66 64l261 241l86 -73z" />
    <glyph glyph-name="aeacute" unicode="&#x1fd;" horiz-adv-x="1566" 
d="M489 963q232 0 312 -162q52 82 132 122t173 40q173 0 259.5 -110.5t86.5 -340.5q0 -40 -20.5 -62t-53.5 -22h-524q16 -309 264 -309q169 0 312 88l43 -96q-58 -36 -92.5 -54.5t-110 -37.5t-166.5 -19q-214 0 -309 158q-259 -158 -398 -158q-152 0 -222.5 76.5
t-70.5 234.5q0 164 78 227.5t262 63.5q32 0 50 -6l229 -102q0 37 2 53q-1 157 -66.5 229t-195.5 72q-90 0 -180 -37l-41 94q38 22 105.5 40t141.5 18zM422 117q123 0 338 114q-27 71 -33 168l-248 101q-140 0 -193 -39t-53 -146q0 -61 15.5 -102t44 -61t59 -27.5t70.5 -7.5z
M1106 838q-102 0 -172 -79t-78 -243l475 6q0 163 -55 239.5t-170 76.5zM676 1077l-66 64l260 241l86 -73z" />
    <glyph glyph-name="Oslashacute" unicode="&#x1fe;" horiz-adv-x="1255" 
d="M481 -184l-131 32l47 199q-264 147 -264 670q0 347 131.5 536t372.5 189q47 0 113 -15l41 168l135 -30l-49 -191q247 -159 247 -657q0 -355 -121.5 -540t-365.5 -185q-53 0 -111 10zM637 1296q-174 0 -265 -149.5t-91 -429.5q0 -580 356 -580q168 0 254 147t86 433
q0 283 -87 431t-253 148zM520 1548l-65 64l260 241l86 -73z" />
    <glyph glyph-name="oslashacute" unicode="&#x1ff;" horiz-adv-x="978" 
d="M422 -199l-127 33l43 184q-119 40 -171 152t-52 305q0 244 94.5 369t296.5 125q40 0 74 -6l41 161l127 -30l-43 -176q161 -104 161 -445q0 -234 -89.5 -356.5t-270.5 -122.5q-27 0 -39 2zM502 838q-250 0 -250 -363q0 -178 55.5 -265t194.5 -87q227 0 227 350
q0 179 -53 272t-174 93zM383 1077l-66 64l261 241l86 -73z" />
    <glyph glyph-name="Scommaaccent" unicode="&#x218;" horiz-adv-x="1150" 
d="M563 -4q-169 0 -277.5 43.5t-183.5 124.5l56 121q82 -68 176.5 -105t226.5 -37q69 0 126.5 13t107.5 41t78 79.5t28 122.5q0 112 -85.5 175.5t-283.5 123.5q-95 26 -162 58t-118.5 79t-76.5 112.5t-25 152.5q0 97 31.5 165t90 105t129.5 53.5t162 16.5q88 0 160 -13
t122.5 -37.5t82.5 -47t63 -52.5l-67 -119q-73 55 -154.5 84t-206.5 29q-42 0 -76 -3.5t-71 -15.5t-62.5 -32.5t-42 -56.5t-16.5 -84q0 -102 69.5 -162.5t204.5 -100.5q71 -20 120 -35.5t103.5 -37.5t90 -44.5t70 -53.5t53.5 -67t31 -83.5t12 -104.5q0 -407 -486 -407z
M498 -424l39 301l118 10l-71 -327z" />
    <glyph glyph-name="scommaaccent" unicode="&#x219;" horiz-adv-x="886" 
d="M444 -2q-214 0 -350 84l39 111q45 -29 129.5 -48.5t177.5 -19.5q234 0 234 139q0 29 -6 51t-23.5 40t-33 29.5t-52 25.5t-60 21.5t-77.5 23.5q-153 43 -224 102t-71 166q0 65 24 113.5t67.5 76.5t97.5 41t120 13q176 0 305 -84l-41 -109q-41 26 -112.5 44t-151.5 18
q-192 0 -192 -119q0 -61 53.5 -94t185.5 -68q88 -23 140.5 -44t95 -54t60.5 -80t18 -115q0 -136 -86.5 -200t-266.5 -64zM365 -424l38 301l119 10l-71 -327z" />
    <glyph glyph-name="uni021A" unicode="&#x21a;" horiz-adv-x="1001" 
d="M23 1290v144h956v-144h-414v-1290h-143v1290h-399z" />
    <glyph glyph-name="uni021B" unicode="&#x21b;" horiz-adv-x="690" 
d="M117 825v138h92v258l137 22v-280h262v-138h-262v-438q0 -131 51 -190.5t125 -59.5h70v-137h-103q-134 0 -207 94.5t-73 270.5v460h-92zM266 -424l39 301l119 10l-72 -327z" />
    <glyph glyph-name="dotlessj" unicode="&#x237;" horiz-adv-x="524" 
d="M72 -408l-25 136q63 10 111.5 75t48.5 166v987l137 17v-1004q0 -165 -74.5 -263.5t-197.5 -113.5z" />
    <glyph glyph-name="circumflex" unicode="&#x2c6;" horiz-adv-x="1007" 
d="M244 1176l264 204l248 -209l-86 -61l-170 143l-178 -141z" />
    <glyph glyph-name="caron" unicode="&#x2c7;" horiz-adv-x="1017" 
d="M764 1294l-264 -204l-246 208l84 62l170 -143l180 141z" />
    <glyph glyph-name="breve" unicode="&#x2d8;" horiz-adv-x="946" 
d="M281 1294h88q0 -49 30 -80.5t76 -31.5q42 0 73.5 32t31.5 80h86q0 -99 -56 -154t-135 -55q-85 0 -139.5 57t-54.5 152z" />
    <glyph glyph-name="dotaccent" unicode="&#x2d9;" horiz-adv-x="897" 
d="M352 1214q0 40 28.5 67.5t68.5 27.5q39 0 66.5 -27t27.5 -68q0 -39 -27.5 -66.5t-66.5 -27.5q-40 0 -68.5 26.5t-28.5 67.5z" />
    <glyph glyph-name="ring" unicode="&#x2da;" horiz-adv-x="921" 
d="M461 1071q-69 0 -115.5 47.5t-46.5 118.5q0 68 47 116t115 48q63 0 111.5 -49t48.5 -115q0 -69 -48 -117.5t-112 -48.5zM369 1237q0 -40 27 -67t65 -27q39 0 65.5 26.5t26.5 67.5q0 46 -26.5 69t-65.5 23q-36 0 -64 -26.5t-28 -65.5z" />
    <glyph glyph-name="ogonek" unicode="&#x2db;" horiz-adv-x="1263" 
d="M1139 -225v-103q-125 0 -179.5 45.5t-54.5 116.5q0 69 41.5 135t112.5 119l69 -88q-37 -29 -64.5 -69t-27.5 -81q0 -75 103 -75z" />
    <glyph glyph-name="tilde" unicode="&#x2dc;" horiz-adv-x="1034" 
d="M639 1106q-41 0 -117 38t-121 38q-77 0 -145 -56l-45 74q92 74 184 74q42 0 121.5 -39t126.5 -39q46 0 75 11.5t58 35.5l49 -59q-78 -78 -186 -78z" />
    <glyph glyph-name="hungarumlaut" unicode="&#x2dd;" horiz-adv-x="1120" 
d="M887 1292l-248 -207l-61 66l235 215zM535 1292l-248 -207l-60 66l234 215z" />
    <glyph glyph-name="uni037E" unicode="&#x37e;" horiz-adv-x="370" 
d="M74 -215l57 418l145 14l-96 -450zM102 868q0 40 27.5 67.5t63.5 27.5q41 0 66.5 -26.5t25.5 -68.5q0 -36 -26 -63t-66 -27q-35 0 -63 27.5t-28 62.5z" />
    <glyph glyph-name="tonos" unicode="&#x384;" horiz-adv-x="911" 
d="M436 1069l-88 27l127 311l109 -29z" />
    <glyph glyph-name="dieresistonos" unicode="&#x385;" horiz-adv-x="1005" 
d="M168 1153q0 33 22.5 55.5t51.5 22.5q34 0 55.5 -22t21.5 -56q0 -31 -22 -53.5t-55 -22.5q-28 0 -51 23t-23 53zM608 1153q0 33 23 55.5t53 22.5q34 0 55 -22t21 -56q0 -31 -21.5 -53.5t-54.5 -22.5q-30 0 -53 23t-23 53zM469 1069l-86 27l127 311l108 -29z" />
    <glyph glyph-name="Alphatonos" unicode="&#x386;" horiz-adv-x="1210" 
d="M1186 0h-154l-114 307h-625l-103 -307h-145l492 1434h100zM590 1198l-254 -758h532zM190 1112l-88 27l127 311l109 -29z" />
    <glyph glyph-name="anoteleia" unicode="&#x387;" horiz-adv-x="366" 
d="M88 504q0 40 27 67t63 27q41 0 66.5 -26.5t25.5 -67.5q0 -36 -26 -63t-66 -27q-35 0 -62.5 27.5t-27.5 62.5z" />
    <glyph glyph-name="Epsilontonos" unicode="&#x388;" horiz-adv-x="1249" 
d="M338 0v1434h809v-144h-664v-485h549v-141h-549v-529h672v-135h-817zM78 1112l-88 27l127 311l108 -29z" />
    <glyph glyph-name="Etatonos" unicode="&#x389;" horiz-adv-x="1402" 
d="M1069 0v670h-594v-670h-145v1434h145v-621h594v621h145v-1434h-145zM70 1112l-88 27l127 311l108 -29z" />
    <glyph glyph-name="Iotatonos" unicode="&#x38a;" horiz-adv-x="663" 
d="M330 0v1434h145v-1434h-145zM70 1112l-88 27l127 311l108 -29z" />
    <glyph glyph-name="Omicrontonos" unicode="&#x38c;" horiz-adv-x="1325" 
d="M690 -8q-247 0 -375.5 180t-128.5 545q0 347 131.5 536t372.5 189q235 0 361.5 -187.5t126.5 -537.5q0 -355 -122 -540t-366 -185zM690 1296q-174 0 -265 -149.5t-91 -429.5q0 -580 356 -580q168 0 254 147t86 433q0 283 -87 431t-253 148zM49 1112l-88 27l127 311
l109 -29z" />
    <glyph glyph-name="Upsilontonos" unicode="&#x38e;" horiz-adv-x="1335" 
d="M1153 1448l158 -27l-455 -841v-580h-143v584l-459 837l149 27l379 -692zM49 1112l-88 27l127 311l109 -29z" />
    <glyph glyph-name="Omegatonos" unicode="&#x38f;" horiz-adv-x="1337" 
d="M188 135h267q-118 64 -187 217t-69 404q0 321 132 503.5t371 182.5q233 0 360.5 -181.5t127.5 -506.5q0 -486 -270 -619h280v-135h-420v176q262 73 262 557q0 275 -87 419t-253 144q-174 0 -265 -145.5t-91 -417.5q0 -480 258 -557v-176h-416v135zM61 1112l-88 27
l127 311l109 -29z" />
    <glyph glyph-name="iotadieresistonos" unicode="&#x390;" horiz-adv-x="579" 
d="M186 213v743l138 17v-727q0 -74 31.5 -108t82.5 -34q59 0 137 19v-107q-110 -18 -184 -18q-96 0 -150.5 52.5t-54.5 162.5zM-27 1153q0 33 22.5 55.5t51.5 22.5q34 0 56 -22t22 -56q0 -31 -22.5 -53.5t-55.5 -22.5q-28 0 -51 23t-23 53zM414 1153q0 33 22.5 55.5
t52.5 22.5q34 0 55 -22t21 -56q0 -31 -21.5 -53.5t-54.5 -22.5q-29 0 -52 22.5t-23 53.5zM274 1069l-86 27l127 311l109 -29z" />
    <glyph glyph-name="Alpha" unicode="&#x391;" horiz-adv-x="1187" 
d="M1163 0h-153l-115 307h-625l-102 -307h-145l491 1434h100zM567 1198l-254 -758h533z" />
    <glyph glyph-name="Beta" unicode="&#x392;" horiz-adv-x="1161" 
d="M188 0v1434h392q187 0 281.5 -98t94.5 -285q0 -40 -18 -76l-135 -195q116 -32 190 -120t74 -232q0 -230 -116 -329t-351 -99h-412zM629 674h-295v-539h268q152 0 235 68t83 223q0 71 -25.5 122t-69.5 77t-92 37.5t-104 11.5zM551 1292h-217v-493h336l149 225
q0 268 -268 268z" />
    <glyph glyph-name="Gamma" unicode="&#x393;" horiz-adv-x="1052" 
d="M188 0v1434h770v-146h-624v-1288h-146z" />
    <glyph glyph-name="Delta" unicode="&#x394;" horiz-adv-x="1204" 
d="M553 1434h100l531 -1434h-1166zM602 1182l-379 -1047h760z" />
    <glyph glyph-name="Epsilon" unicode="&#x395;" horiz-adv-x="1099" 
d="M188 0v1434h809v-144h-663v-485h549v-141h-549v-529h672v-135h-818z" />
    <glyph glyph-name="Zeta" unicode="&#x396;" horiz-adv-x="1136" 
d="M137 1280l-14 154h897v-154l-764 -1133h807v-147h-973l-18 147l766 1133h-701z" />
    <glyph glyph-name="Eta" unicode="&#x397;" horiz-adv-x="1261" 
d="M928 0v670h-594v-670h-146v1434h146v-621h594v621h145v-1434h-145z" />
    <glyph glyph-name="Theta" unicode="&#x398;" horiz-adv-x="1286" 
d="M651 -8q-247 0 -375.5 180t-128.5 545q0 347 131.5 536t372.5 189q235 0 361.5 -187.5t126.5 -537.5q0 -355 -122 -540t-366 -185zM651 1296q-176 0 -268 -149.5t-92 -429.5q0 -580 360 -580q170 0 256 147t86 433q0 283 -87.5 431t-254.5 148zM369 684v104h546v-104
h-546z" />
    <glyph glyph-name="Iota" unicode="&#x399;" horiz-adv-x="522" 
d="M188 0v1434h146v-1434h-146z" />
    <glyph glyph-name="Kappa" unicode="&#x39a;" horiz-adv-x="1249" 
d="M1044 0l-509 696l-201 -250v-446h-146v1434h146v-764l614 776l170 -25l-483 -602l590 -819h-181z" />
    <glyph glyph-name="Lambda" unicode="&#x39b;" horiz-adv-x="1204" 
d="M553 1434h100l531 -1434h-152l-430 1182l-428 -1182h-156z" />
    <glyph glyph-name="Mu" unicode="&#x39c;" horiz-adv-x="1615" 
d="M1247 1133l-395 -879h-98l-389 872l-72 -1126h-146l115 1434h115l426 -983l432 983h117l114 -1434h-143z" />
    <glyph glyph-name="Nu" unicode="&#x39d;" horiz-adv-x="1335" 
d="M313 1157v-1157h-141v1434h141l707 -1153v1153h143v-1434h-143z" />
    <glyph glyph-name="Xi" unicode="&#x39e;" horiz-adv-x="1136" 
d="M137 1282l-14 152h897v-152h-883zM90 0l-18 150h991v-150h-973zM879 659h-607v127h607v-127z" />
    <glyph glyph-name="Omicron" unicode="&#x39f;" horiz-adv-x="1286" 
d="M651 -8q-247 0 -375.5 180t-128.5 545q0 347 131.5 536t372.5 189q235 0 361.5 -187.5t126.5 -537.5q0 -355 -122 -540t-366 -185zM651 1296q-174 0 -265 -149.5t-91 -429.5q0 -580 356 -580q168 0 254 147t86 433q0 283 -87 431t-253 148z" />
    <glyph glyph-name="Pi" unicode="&#x3a0;" horiz-adv-x="1261" 
d="M928 0v1290h-594v-1290h-146v1434h885v-1434h-145z" />
    <glyph glyph-name="Rho" unicode="&#x3a1;" horiz-adv-x="1120" 
d="M188 0v1434h146v-179l170 166q13 13 47 13q103 0 185 -25t143.5 -76.5t95 -138t33.5 -203.5q0 -235 -129.5 -370.5t-350.5 -135.5h-194v-485h-146zM549 1288l-215 -194v-461h188q167 0 255.5 100.5t88.5 255.5q0 158 -77 224.5t-240 74.5z" />
    <glyph glyph-name="Sigma" unicode="&#x3a3;" horiz-adv-x="1136" 
d="M72 147l383 566l-318 567l-14 154h897v-154h-701l318 -567l-381 -566h807v-147h-973z" />
    <glyph glyph-name="Tau" unicode="&#x3a4;" horiz-adv-x="1001" 
d="M23 1290v144h956v-144h-414v-1290h-143v1290h-399z" />
    <glyph glyph-name="Upsilon" unicode="&#x3a5;" horiz-adv-x="1103" 
d="M922 1448l157 -27l-454 -841v-580h-144v584l-458 837l149 27l379 -692z" />
    <glyph glyph-name="Phi" unicode="&#x3a6;" horiz-adv-x="1572" 
d="M866 -227h-133v245q-290 18 -442 189.5t-152 503.5q0 313 154.5 492.5t439.5 199.5v217h133v-219q274 -20 420 -197.5t146 -492.5q0 -321 -142.5 -497.5t-423.5 -195.5v-245zM281 711q0 -519 452 -553v1106q-220 -19 -336 -161.5t-116 -391.5zM1290 711q0 250 -108.5 391
t-315.5 160v-1104q211 19 317.5 158.5t106.5 394.5z" />
    <glyph glyph-name="Chi" unicode="&#x3a7;" horiz-adv-x="1173" 
d="M231 1446l361 -569l356 569l158 -25l-424 -684l469 -737l-174 -4l-391 614l-393 -614l-170 4l473 754l-424 667z" />
    <glyph glyph-name="Psi" unicode="&#x3a8;" horiz-adv-x="1572" 
d="M713 0v375q-98 4 -173.5 17t-142.5 40.5t-113 71.5t-79.5 108.5t-49.5 152.5t-16 202v467h144v-471q0 -129 25.5 -214.5t82 -135.5t132.5 -72t190 -27v920h145v-920q119 5 196.5 27t132 73t78 135t23.5 212v473h144v-473q1 -160 -31 -269t-103.5 -178t-177.5 -101.5
t-262 -37.5v-375h-145z" />
    <glyph glyph-name="Omega" unicode="&#x3a9;" horiz-adv-x="1286" 
d="M137 135h266q-118 64 -187 217t-69 404q0 321 132 503.5t372 182.5q233 0 360.5 -181.5t127.5 -506.5q0 -485 -271 -619h281v-135h-420v176q262 73 262 557q0 275 -87 419t-253 144q-174 0 -265 -145.5t-91 -417.5q0 -480 258 -557v-176h-416v135z" />
    <glyph glyph-name="Omega" unicode="&#x2126;" horiz-adv-x="1286" 
d="M137 135h266q-118 64 -187 217t-69 404q0 321 132 503.5t372 182.5q233 0 360.5 -181.5t127.5 -506.5q0 -485 -271 -619h281v-135h-420v176q262 73 262 557q0 275 -87 419t-253 144q-174 0 -265 -145.5t-91 -417.5q0 -480 258 -557v-176h-416v135z" />
    <glyph glyph-name="Iotadieresis" unicode="&#x3aa;" horiz-adv-x="522" 
d="M188 0v1434h146v-1434h-146zM-25 1659q0 40 26.5 67t61.5 27q41 0 67 -26.5t26 -67.5q0 -36 -26.5 -63t-66.5 -27q-34 0 -61 27.5t-27 62.5zM369 1659q0 40 26.5 67t61.5 27q41 0 66.5 -26.5t25.5 -67.5q0 -36 -26 -63t-66 -27q-34 0 -61 27.5t-27 62.5z" />
    <glyph glyph-name="Upsilondieresis" unicode="&#x3ab;" horiz-adv-x="1103" 
d="M922 1448l157 -27l-454 -841v-580h-144v584l-458 837l149 27l379 -692zM657 1659q0 40 26.5 67t61.5 27q41 0 67 -26.5t26 -67.5q0 -36 -26.5 -63t-66.5 -27q-34 0 -61 27.5t-27 62.5zM264 1659q0 40 26.5 67t61.5 27q41 0 66.5 -26.5t25.5 -67.5q0 -36 -26 -63t-66 -27
q-34 0 -61 27.5t-27 62.5z" />
    <glyph glyph-name="alphatonos" unicode="&#x3ac;" horiz-adv-x="983" 
d="M862 975l-2 -803q0 -36 7.5 -49.5t25.5 -13.5q32 0 68 10v-107q-42 -12 -115 -12q-45 0 -72.5 17t-38.5 61l-200 -68q-35 -10 -60 -10q-176 0 -267 117t-91 342q0 77 12.5 148t41 136.5t71 113.5t108 77t146.5 29q56 0 119 -28t112 -69v90zM252 471q0 -334 250 -334
l225 62v536q-112 86 -201 86q-138 0 -206 -98t-68 -252zM512 1069l-88 27l127 311l108 -29z" />
    <glyph glyph-name="epsilontonos" unicode="&#x3ad;" horiz-adv-x="831" 
d="M494 563l-7 -102q-45 0 -76.5 -1.5t-67 -6.5t-58.5 -15t-43 -26t-29.5 -41.5t-9.5 -59.5q0 -92 56.5 -140t150.5 -48q173 0 258 65l37 -108q-91 -80 -312 -80q-146 0 -229.5 77.5t-83.5 227.5q0 173 143 232l-59 112q-21 44 -21 94q0 115 62 169.5t205 54.5
q171 0 264 -56l-33 -110q-84 41 -199 41q-103 0 -140.5 -27.5t-37.5 -112.5l62 -139q49 6 102 6q42 0 66 -6zM391 1069l-88 27l127 311l109 -29z" />
    <glyph glyph-name="etatonos" unicode="&#x3ae;" horiz-adv-x="1015" 
d="M293 973v-176l166 139q35 27 96 27q180 0 252 -83.5t72 -277.5v-999l-144 -21v983q0 152 -42 206t-171 54l-229 -182v-643h-137v954zM483 1069l-88 27l127 311l109 -29z" />
    <glyph glyph-name="iotatonos" unicode="&#x3af;" horiz-adv-x="579" 
d="M186 213v743l138 17v-727q0 -74 31.5 -108t82.5 -34q59 0 137 19v-107q-110 -18 -184 -18q-96 0 -150.5 52.5t-54.5 162.5zM266 1069l-88 27l127 311l109 -29z" />
    <glyph glyph-name="upsilondieresistonos" unicode="&#x3b0;" horiz-adv-x="1005" 
d="M532 139l195 105v719h139v-785q0 -14 -12.5 -28.5t-28.5 -22.5l-229 -115q-27 -12 -70 -12q-212 0 -299.5 88t-87.5 283v592h144v-560q0 -79 15.5 -131.5t49 -81.5t77 -40t107.5 -11zM213 1153q0 33 22.5 55.5t51.5 22.5q34 0 56 -22t22 -56q0 -31 -22.5 -53.5
t-55.5 -22.5q-28 0 -51 23t-23 53zM653 1153q0 33 23 55.5t53 22.5q34 0 55 -22t21 -56q0 -31 -21.5 -53.5t-54.5 -22.5q-30 0 -53 23t-23 53zM514 1069l-86 27l127 311l109 -29z" />
    <glyph glyph-name="alpha" unicode="&#x3b1;" horiz-adv-x="1046" 
d="M862 975l-2 -803q0 -36 7.5 -49.5t25.5 -13.5q32 0 68 10v-107q-42 -12 -115 -12q-45 0 -72.5 17t-38.5 61l-200 -68q-35 -10 -60 -10q-176 0 -267 117t-91 342q0 77 12.5 148t41 136.5t71 113.5t108 77t146.5 29q56 0 119 -28t112 -69v90zM252 471q0 -334 250 -334
l225 62v536q-112 86 -201 86q-138 0 -206 -98t-68 -252z" />
    <glyph glyph-name="beta" unicode="&#x3b2;" horiz-adv-x="1073" 
d="M485 1438q152 0 241 -37.5t125 -108t36 -186.5q0 -69 -23 -123l-90 -207q193 -79 193 -340q0 -220 -97.5 -328t-275.5 -108q-202 0 -295 55v-403l-125 -25v1516q0 146 83 220.5t228 74.5zM475 807q30 6 80 6q53 0 100 -6l101 252q0 146 -55 193.5t-214 47.5
q-89 0 -138.5 -54t-49.5 -152v-891q102 -72 274 -72q117 0 185.5 78t68.5 233q0 66 -18 114.5t-47.5 76.5t-75.5 44.5t-92.5 22t-108.5 5.5z" />
    <glyph glyph-name="gamma" unicode="&#x3b3;" horiz-adv-x="899" 
d="M518 -397l-137 -17v469l-358 897l137 17l291 -762l290 762l136 -17l-359 -911v-438z" />
    <glyph glyph-name="delta" unicode="&#x3b4;" horiz-adv-x="985" 
d="M543 1032l-350 322v106h614v-104l-438 -2l241 -236q72 -72 115.5 -127t78.5 -125.5t49.5 -154.5t14.5 -197q0 -267 -88 -393.5t-272 -126.5q-211 0 -301 117.5t-90 363.5q0 244 84 359.5t276 115.5q42 0 74 -16l115 -53q-41 72 -123 151zM741 522q0 132 -22 223l-213 89
q-137 0 -193.5 -91.5t-56.5 -263.5q0 -180 55.5 -266t196.5 -86q120 0 176.5 95t56.5 300z" />
    <glyph glyph-name="epsilon" unicode="&#x3b5;" horiz-adv-x="835" 
d="M535 563l-7 -102q-45 0 -76.5 -1.5t-67 -6.5t-58.5 -15t-43 -26t-29.5 -41.5t-9.5 -59.5q0 -92 56.5 -140t150.5 -48q173 0 258 65l36 -108q-91 -80 -311 -80q-146 0 -229.5 77.5t-83.5 227.5q0 173 143 232l-59 112q-21 44 -21 94q0 115 62 169.5t205 54.5
q171 0 264 -56l-33 -110q-84 41 -199 41q-103 0 -140.5 -27.5t-37.5 -112.5l62 -139q50 6 102 6q42 0 66 -6z" />
    <glyph glyph-name="zeta" unicode="&#x3b6;" horiz-adv-x="960" 
d="M109 1346l-13 133h828v-133q-53 0 -125 -47.5t-143 -123t-141.5 -174t-124 -198t-87 -196.5t-33.5 -167q0 -77 34.5 -132.5t90 -87t122 -53.5t133.5 -38.5t122.5 -35.5t90 -51t34.5 -79q0 -78 -43 -178l-129 33q25 55 25 92q0 29 -34.5 49t-89.5 34.5t-121 31.5
t-132.5 47t-121.5 73t-89.5 118.5t-34.5 174.5q0 129 80 304t201 335.5t249 268.5h-548z" />
    <glyph glyph-name="eta" unicode="&#x3b7;" horiz-adv-x="1015" 
d="M293 973v-176l166 139q35 27 96 27q180 0 252 -83.5t72 -277.5v-999l-144 -21v983q0 152 -42 206t-171 54l-229 -182v-643h-137v954z" />
    <glyph glyph-name="theta" unicode="&#x3b8;" horiz-adv-x="1093" 
d="M549 0q-426 0 -426 670q0 178 23 310.5t73 229t132.5 145t197.5 48.5q94 0 165 -32.5t118.5 -92t77.5 -151t42.5 -201.5t12.5 -252q0 -674 -416 -674zM547 139q136 0 205.5 136t72.5 387h-567q2 -258 70 -390.5t219 -132.5zM547 1266q-142 0 -211 -128t-78 -380h565
q-8 256 -73 382t-203 126z" />
    <glyph glyph-name="iota" unicode="&#x3b9;" horiz-adv-x="614" 
d="M186 213v743l138 17v-727q0 -74 31.5 -108t82.5 -34q59 0 137 19v-107q-110 -18 -184 -18q-96 0 -150.5 52.5t-54.5 162.5z" />
    <glyph glyph-name="kappa" unicode="&#x3ba;" horiz-adv-x="950" 
d="M893 0h-148l-77 231q-32 102 -129 164l-117 76l-143 -168v-303h-132v961h132v-488l411 498l146 -21l-324 -377l119 -84q132 -91 174 -219z" />
    <glyph glyph-name="lambda" unicode="&#x3bb;" horiz-adv-x="978" 
d="M195 0h-148l379 922l-70 161q-43 105 -90.5 145.5t-144.5 41.5v131q136 -2 211.5 -56t134.5 -200l469 -1145h-148l-299 768z" />
    <glyph glyph-name="uni03BC" unicode="&#x3bc;" horiz-adv-x="1028" 
d="M764 0v152l-164 -134q-23 -16 -57 -16q-186 0 -264 72v-502l-140 -12v1403h140v-611q8 -71 24 -113.5t51 -65t77 -29.5t116 -7l217 160v666h135v-963h-135z" />
    <glyph glyph-name="nu" unicode="&#x3bd;" horiz-adv-x="899" 
d="M502 0h-99l-380 952l137 17l291 -762l290 762l136 -17z" />
    <glyph glyph-name="xi" unicode="&#x3be;" horiz-adv-x="960" 
d="M109 1300l-13 134h828v-134h-324q-130 0 -187 -69.5t-57 -212.5l84 -221q70 12 148 12q99 0 129 -6l-8 -103q-52 0 -92.5 -2t-88.5 -8t-83.5 -17t-70.5 -30.5t-57 -46t-35.5 -66t-13.5 -88.5q0 -75 34.5 -130.5t90 -87t122.5 -55t134.5 -41t123 -37t90 -51.5t34.5 -77
q0 -78 -43 -178l-129 33q25 55 25 92q0 25 -27 44t-70.5 31t-99.5 28.5t-114.5 34.5t-114.5 51.5t-99.5 77t-70.5 113t-27 156.5q0 236 203 318l-86 180q-25 65 -25 111q0 141 80 245h-190z" />
    <glyph glyph-name="omicron" unicode="&#x3bf;" horiz-adv-x="985" 
d="M508 -6q-212 0 -301.5 117t-89.5 364q0 244 94.5 369t296.5 125q187 0 273.5 -122.5t86.5 -373.5q0 -234 -89.5 -356.5t-270.5 -122.5zM504 838q-250 0 -250 -363q0 -178 55.5 -265t194.5 -87q227 0 227 350q0 179 -53 272t-174 93z" />
    <glyph glyph-name="pi" unicode="&#x3c0;" horiz-adv-x="1021" 
d="M715 150v688h-410v-838h-131v838h-115v125h895v-125h-108v-668q0 -33 7.5 -47t25.5 -14q31 0 67 10v-107q-42 -12 -115 -12q-60 0 -88 32.5t-28 117.5z" />
    <glyph glyph-name="rho" unicode="&#x3c1;" horiz-adv-x="1073" 
d="M231 868l246 84q52 13 68 13q203 0 300 -102t97 -341q0 -522 -348 -522q-167 0 -285 115v-531l-139 -16v1210q0 72 61 90zM309 748v-480q62 -64 131 -99.5t127 -35.5q68 0 116.5 30.5t74.5 86t37.5 119.5t11.5 143q0 78 -13 134.5t-36 91.5t-59.5 55.5t-77 28t-95.5 7.5z
" />
    <glyph glyph-name="uni03C2" unicode="&#x3c2;" horiz-adv-x="878" 
d="M117 436q0 278 91 404.5t279 126.5q117 0 182.5 -19t112.5 -53l-37 -123q-100 51 -231 51q-126 0 -192 -87t-66 -285q0 -64 23 -115t60 -82t84.5 -57.5t97.5 -43t97.5 -36.5t84.5 -39t60 -50t23 -71q0 -81 -41 -168l-120 33q24 52 24 92q0 21 -18 37.5t-49 29.5t-71 26
t-84 30t-88 38.5t-84 54t-71 73.5t-49 101t-18 132z" />
    <glyph glyph-name="sigma" unicode="&#x3c3;" horiz-adv-x="993" 
d="M920 846h-140q88 -125 88 -373q0 -234 -89.5 -356.5t-270.5 -122.5q-212 0 -301.5 117t-89.5 364q0 244 94.5 369t296.5 125q74 0 141 -23h271v-100zM504 838q-250 0 -250 -363q0 -178 55.5 -265t194.5 -87q227 0 227 350q0 179 -53 272t-174 93z" />
    <glyph glyph-name="tau" unicode="&#x3c4;" horiz-adv-x="778" 
d="M49 831v130h678v-130h-278v-583q0 -142 118 -142q68 0 133 19v-109q-98 -16 -180 -16q-203 0 -203 213v618h-268z" />
    <glyph glyph-name="upsilon" unicode="&#x3c5;" horiz-adv-x="1005" 
d="M532 139l195 105v719h139v-785q0 -14 -12.5 -28.5t-28.5 -22.5l-229 -115q-27 -12 -70 -12q-212 0 -299.5 88t-87.5 283v592h144v-560q0 -79 15.5 -131.5t49 -81.5t77 -40t107.5 -11z" />
    <glyph glyph-name="phi" unicode="&#x3c6;" horiz-adv-x="1171" 
d="M338 961l65 -80q-83 -52 -126.5 -148.5t-43.5 -226.5q0 -345 291 -379v563q0 124 62 198.5t182 74.5q91 0 160 -67t102 -169.5t33 -220.5q0 -234 -106.5 -363.5t-315.5 -142.5v-401l-117 -23v426q-418 36 -418 504q0 337 232 455zM641 690v-565q145 12 219 109.5
t74 271.5q0 88 -19 164.5t-58.5 128t-92.5 51.5q-123 0 -123 -160z" />
    <glyph glyph-name="chi" unicode="&#x3c7;" horiz-adv-x="1011" 
d="M211 977l301 -555l293 555l139 -23l-358 -667l389 -713l-146 -18l-325 600l-316 -598l-145 20l383 721l-354 655z" />
    <glyph glyph-name="psi" unicode="&#x3c8;" horiz-adv-x="1431" 
d="M647 -426v424q-105 4 -181 21t-140.5 56.5t-104 104t-61 163.5t-21.5 235v378l137 19v-402q0 -129 22 -214t70.5 -134t114 -70t164.5 -26v950l137 19v-969q102 5 168.5 26t114 71t68 133.5t20.5 211.5v385l135 19l2 -404q0 -210 -54 -334t-162.5 -178.5t-291.5 -60.5
v-406z" />
    <glyph glyph-name="omega" unicode="&#x3c9;" horiz-adv-x="1372" 
d="M690 143q-24 -53 -88.5 -98t-163.5 -45q-146 0 -237.5 126.5t-91.5 315.5q0 141 21.5 238.5t60.5 159.5t106 118h137q-109 -103 -150.5 -209.5t-41.5 -291.5q0 -138 57 -231t156 -93q70 0 120 45.5t50 108.5v544l127 19v-563q0 -64 46 -109t117 -45q100 0 159 93.5
t59 230.5q0 185 -42 291.5t-151 209.5h135q101 -83 145 -195.5t44 -318.5q0 -191 -93.5 -318.5t-240.5 -127.5q-98 0 -158 44.5t-82 100.5z" />
    <glyph glyph-name="iotadieresis" unicode="&#x3ca;" horiz-adv-x="579" 
d="M186 213v743l138 17v-727q0 -74 31.5 -108t82.5 -34q59 0 137 19v-107q-110 -18 -184 -18q-96 0 -150.5 52.5t-54.5 162.5zM4 1194q0 40 26.5 67t61.5 27q41 0 66.5 -26.5t25.5 -67.5q0 -36 -26 -63t-66 -27q-34 0 -61 27.5t-27 62.5zM397 1194q0 40 26.5 67t61.5 27
q41 0 67 -26.5t26 -67.5q0 -36 -26.5 -63t-66.5 -27q-34 0 -61 27.5t-27 62.5z" />
    <glyph glyph-name="upsilondieresis" unicode="&#x3cb;" horiz-adv-x="1005" 
d="M532 139l195 105v719h139v-785q0 -14 -12.5 -28.5t-28.5 -22.5l-229 -115q-27 -12 -70 -12q-212 0 -299.5 88t-87.5 283v592h144v-560q0 -79 15.5 -131.5t49 -81.5t77 -40t107.5 -11zM215 1194q0 40 26.5 67t61.5 27q41 0 66.5 -26.5t25.5 -67.5q0 -36 -26 -63t-66 -27
q-34 0 -61 27.5t-27 62.5zM608 1194q0 40 26.5 67t61.5 27q41 0 66.5 -26.5t25.5 -67.5q0 -36 -26 -63t-66 -27q-34 0 -61 27.5t-27 62.5z" />
    <glyph glyph-name="omicrontonos" unicode="&#x3cc;" horiz-adv-x="985" 
d="M508 -6q-212 0 -301.5 117t-89.5 364q0 244 94.5 369t296.5 125q187 0 273.5 -122.5t86.5 -373.5q0 -234 -89.5 -356.5t-270.5 -122.5zM504 838q-250 0 -250 -363q0 -178 55.5 -265t194.5 -87q227 0 227 350q0 179 -53 272t-174 93zM467 1069l-88 27l127 311l108 -29z
" />
    <glyph glyph-name="upsilontonos" unicode="&#x3cd;" horiz-adv-x="1005" 
d="M532 139l195 105v719h139v-785q0 -14 -12.5 -28.5t-28.5 -22.5l-229 -115q-27 -12 -70 -12q-212 0 -299.5 88t-87.5 283v592h144v-560q0 -79 15.5 -131.5t49 -81.5t77 -40t107.5 -11zM477 1069l-88 27l127 311l109 -29z" />
    <glyph glyph-name="omegatonos" unicode="&#x3ce;" horiz-adv-x="1372" 
d="M690 143q22 -56 82 -100.5t158 -44.5q147 0 240.5 127.5t93.5 318.5q0 206 -44 318.5t-145 195.5h-135q109 -103 151 -209.5t42 -291.5q0 -137 -59 -230.5t-159 -93.5q-71 0 -117 45t-46 109v563l-127 -19v-544q0 -63 -50 -108.5t-120 -45.5q-99 0 -156 93t-57 231
q0 185 41.5 291.5t150.5 209.5h-137q-67 -56 -106 -118t-60.5 -159.5t-21.5 -238.5q0 -189 91.5 -315.5t237.5 -126.5q99 0 163.5 45t88.5 98zM662 1069l-89 27l127 311l109 -29z" />
    <glyph glyph-name="afii10023" unicode="&#x401;" horiz-adv-x="1099" 
d="M188 0v1434h809v-144h-663v-485h549v-141h-549v-529h672v-135h-818zM264 1659q0 40 26.5 67t61.5 27q41 0 66.5 -26.5t25.5 -67.5q0 -36 -26 -63t-66 -27q-34 0 -61 27.5t-27 62.5zM657 1659q0 40 26.5 67t61.5 27q41 0 67 -26.5t26 -67.5q0 -36 -26.5 -63t-66.5 -27
q-34 0 -61 27.5t-27 62.5z" />
    <glyph glyph-name="afii10051" unicode="&#x402;" horiz-adv-x="1433" 
d="M23 1290v144h956v-144h-414v-481l248 137q33 17 74 17q216 0 303.5 -83.5t87.5 -277.5v-448q0 -117 -32.5 -213.5t-82 -157.5t-114 -104.5t-123 -63t-115.5 -25.5l-25 134q33 4 71.5 17t89.5 45.5t91.5 77.5t68.5 121t28 169v411q0 148 -66 204t-238 56l-266 -137v-688
h-143v1290h-399z" />
    <glyph glyph-name="afii10052" unicode="&#x403;" horiz-adv-x="985" 
d="M188 0v1434h773v-144h-627v-1290h-146zM385 1542l-66 64l261 241l86 -73z" />
    <glyph glyph-name="afii10053" unicode="&#x404;" horiz-adv-x="1140" 
d="M684 -6q-286 0 -411.5 173t-125.5 550q0 197 35 338.5t103.5 225.5t161.5 122.5t217 38.5q109 0 180 -25t153 -82l-61 -131q-60 43 -122.5 63.5t-149.5 20.5q-170 0 -261.5 -117.5t-101.5 -379.5h643v-140h-643q9 -264 96.5 -382.5t286.5 -118.5q101 0 162 23t125 77
l61 -131q-65 -63 -144 -94t-204 -31z" />
    <glyph glyph-name="afii10054" unicode="&#x405;" horiz-adv-x="1163" 
d="M569 -4q-169 0 -277 43.5t-183 124.5l55 121q82 -68 176.5 -105t226.5 -37q69 0 126.5 13t107.5 41t78 79.5t28 122.5q0 58 -22 102.5t-71.5 79t-113 61t-161.5 56.5q-95 26 -162 58t-118.5 79t-77 112.5t-25.5 152.5q0 97 31.5 165t90 105t129.5 53.5t162 16.5
q88 0 160 -13t122.5 -37.5t82.5 -47t63 -52.5l-67 -119q-73 55 -154.5 84t-206.5 29q-42 0 -76 -3.5t-71 -15.5t-62.5 -32.5t-42 -56.5t-16.5 -84q0 -102 69.5 -162.5t204.5 -100.5q71 -20 120 -35.5t103.5 -37.5t90 -44.5t70 -53.5t53.5 -67t31 -83.5t12 -104.5
q0 -407 -486 -407z" />
    <glyph glyph-name="afii10055" unicode="&#x406;" horiz-adv-x="522" 
d="M188 0v1434h146v-1434h-146z" />
    <glyph glyph-name="afii10056" unicode="&#x407;" horiz-adv-x="522" 
d="M188 0v1434h146v-1434h-146zM-25 1659q0 40 26.5 67t61.5 27q41 0 67 -26.5t26 -67.5q0 -36 -26.5 -63t-66.5 -27q-34 0 -61 27.5t-27 62.5zM369 1659q0 40 26.5 67t61.5 27q41 0 66.5 -26.5t25.5 -67.5q0 -36 -26 -63t-66 -27q-34 0 -61 27.5t-27 62.5z" />
    <glyph glyph-name="afii10057" unicode="&#x408;" horiz-adv-x="546" 
d="M53 -408l-37 134q115 26 157 111t42 243v1354h143v-1354q0 -217 -70 -338.5t-235 -149.5z" />
    <glyph glyph-name="afii10058" unicode="&#x409;" horiz-adv-x="1722" 
d="M752 0v1292h-336v-805q0 -227 -76 -350.5t-256 -136.5l-8 133q60 6 99.5 33.5t59.5 77t27.5 106t7.5 137.5v947h625v-584h342q76 0 144.5 -25t124.5 -72.5t89 -124.5t33 -173q0 -237 -117 -346t-350 -109h-409zM1192 725h-297v-590h270q150 0 234 78.5t84 237.5
q0 72 -25 126.5t-68 85.5t-93 46.5t-105 15.5z" />
    <glyph glyph-name="afii10059" unicode="&#x40a;" horiz-adv-x="1892" 
d="M928 0v686h-594v-686h-146v1434h146v-605h594v605h145v-605h342q77 0 144 -20.5t124 -63.5t90 -120.5t33 -182.5q0 -227 -118 -334.5t-349 -107.5h-411zM1366 686h-293v-551h268q149 0 233.5 76t84.5 227q0 60 -16 105t-42.5 72t-65.5 43.5t-79 22t-90 5.5z" />
    <glyph glyph-name="afii10060" unicode="&#x40b;" horiz-adv-x="1437" 
d="M23 1290v144h956v-144h-414v-463l211 117q44 19 88 19q219 0 316.5 -85t97.5 -276v-602h-143v565q0 148 -63 204t-234 56l-273 -137v-688h-143v1290h-399z" />
    <glyph glyph-name="afii10061" unicode="&#x40c;" horiz-adv-x="1249" 
d="M1225 0h-174l-125 360q-53 154 -205 248l-168 111l-219 -273v-446h-146v1434h146v-764l614 776l170 -25l-469 -583l180 -121q87 -59 153 -138.5t97 -168.5zM518 1542l-65 64l260 241l86 -73z" />
    <glyph glyph-name="afii10062" unicode="&#x40e;" horiz-adv-x="960" 
d="M-94 1423l141 17l377 -953l354 953l146 -17l-482 -1212q-53 -120 -124.5 -164t-204.5 -47v139q50 0 85.5 10.5t63 36.5t47 57.5t43.5 84.5l4 10zM287 1759h88q0 -49 30 -80.5t76 -31.5q42 0 73.5 32t31.5 80h86q0 -99 -56 -154t-135 -55q-85 0 -139.5 57t-54.5 152z" />
    <glyph glyph-name="afii10145" unicode="&#x40f;" horiz-adv-x="1261" 
d="M188 0v1434h146v-1291h594v1291h145v-1434h-356v-209h-133v209h-396z" />
    <glyph glyph-name="afii10017" unicode="&#x410;" horiz-adv-x="1187" 
d="M1163 0h-153l-115 307h-625l-102 -307h-145l491 1434h100zM567 1198l-254 -758h533z" />
    <glyph glyph-name="afii10018" unicode="&#x411;" horiz-adv-x="1169" 
d="M188 0v1434h828l-15 -142h-667v-442h342q75 0 143.5 -25t124 -72t88.5 -124.5t33 -173.5q0 -236 -117 -345.5t-348 -109.5h-412zM629 725h-295v-590h268q151 0 234.5 78t83.5 238q0 72 -25 126.5t-68 85.5t-93 46.5t-105 15.5z" />
    <glyph glyph-name="afii10019" unicode="&#x412;" horiz-adv-x="1161" 
d="M188 0v1434h392q187 0 281.5 -98t94.5 -285q0 -40 -18 -76l-137 -193q116 -32 191 -121t75 -233q0 -230 -116 -329t-351 -99h-412zM629 676h-295v-541h268q152 0 235 68t83 223q0 58 -17.5 102.5t-45.5 72t-67 45t-78 24t-83 6.5zM551 1292h-217v-493h334l151 225
q0 268 -268 268z" />
    <glyph glyph-name="afii10020" unicode="&#x413;" horiz-adv-x="985" 
d="M188 0v1434h773v-144h-627v-1290h-146z" />
    <glyph glyph-name="afii10021" unicode="&#x414;" horiz-adv-x="1382" 
d="M313 1290v144h830v-1291h155v-336l-133 -22v215h-966v-193l-133 -22v358h92q62 61 94.5 140.5t47.5 219t15 380.5zM457 893q0 -297 -34 -472t-108 -278h684v1147h-542v-397z" />
    <glyph glyph-name="afii10022" unicode="&#x415;" horiz-adv-x="1099" 
d="M188 0v1434h809v-144h-663v-485h549v-141h-549v-529h672v-135h-818z" />
    <glyph glyph-name="afii10024" unicode="&#x416;" horiz-adv-x="1636" 
d="M295 1446l450 -701v689h146v-686l450 698l170 -25l-432 -616l539 -805h-178l-449 680l-100 -143v-537h-146v535l-102 145l-448 -680h-179l539 807l-430 614z" />
    <glyph glyph-name="afii10025" unicode="&#x417;" horiz-adv-x="1040" 
d="M379 825q30 6 86 6q63 0 135 -10l92 221q0 142 -53.5 192t-192.5 50q-164 0 -276 -63l-39 137q61 40 138.5 60t213.5 20q195 0 277 -78.5t82 -251.5q0 -68 -25 -127l-92 -193q205 -84 205 -335q0 -223 -112 -338t-310 -115q-172 0 -266 33t-154 90l47 135q51 -42 140 -72
t212 -30q134 0 211.5 75.5t77.5 227.5q0 65 -21 111.5t-53.5 72.5t-86.5 41t-105 19t-125 4z" />
    <glyph glyph-name="afii10026" unicode="&#x418;" horiz-adv-x="1335" 
d="M1020 0v1157l-705 -1157h-143v1434h143v-1153l705 1153h143v-1434h-143z" />
    <glyph glyph-name="afii10027" unicode="&#x419;" horiz-adv-x="1335" 
d="M1020 1157v-1157h143v1434h-143l-705 -1153v1153h-143v-1434h143zM473 1759h88q0 -49 30.5 -80.5t76.5 -31.5q42 0 73 32t31 80h86q0 -99 -55.5 -154t-134.5 -55q-85 0 -140 57t-55 152z" />
    <glyph glyph-name="afii10028" unicode="&#x41a;" horiz-adv-x="1249" 
d="M1225 0h-174l-125 360q-53 154 -205 248l-168 111l-219 -273v-446h-146v1434h146v-764l614 776l170 -25l-469 -583l180 -121q87 -59 153 -138.5t97 -168.5z" />
    <glyph glyph-name="afii10029" unicode="&#x41b;" horiz-adv-x="1320" 
d="M248 487v947h885v-1434h-146v1290h-596v-803q0 -228 -75 -351t-255 -136l-8 133q59 6 98.5 33.5t60 76.5t28.5 106.5t8 137.5z" />
    <glyph glyph-name="afii10030" unicode="&#x41c;" horiz-adv-x="1615" 
d="M1247 1133l-395 -879h-98l-389 872l-72 -1126h-146l115 1434h115l426 -983l432 983h117l114 -1434h-143z" />
    <glyph glyph-name="afii10031" unicode="&#x41d;" horiz-adv-x="1261" 
d="M928 0v670h-594v-670h-146v1434h146v-621h594v621h145v-1434h-145z" />
    <glyph glyph-name="afii10032" unicode="&#x41e;" horiz-adv-x="1286" 
d="M651 -8q-247 0 -375.5 180t-128.5 545q0 347 131.5 536t372.5 189q235 0 361.5 -187.5t126.5 -537.5q0 -355 -122 -540t-366 -185zM651 1296q-174 0 -265 -149.5t-91 -429.5q0 -580 356 -580q168 0 254 147t86 433q0 283 -87 431t-253 148z" />
    <glyph glyph-name="afii10033" unicode="&#x41f;" horiz-adv-x="1261" 
d="M928 0v1290h-594v-1290h-146v1434h885v-1434h-145z" />
    <glyph glyph-name="afii10034" unicode="&#x420;" horiz-adv-x="1116" 
d="M188 0v1434h146v-179l170 166q13 13 47 13q103 0 185 -25t143.5 -76.5t95 -138t33.5 -203.5q0 -235 -129.5 -370.5t-350.5 -135.5h-194v-485h-146zM549 1288l-215 -194v-461h188q167 0 255.5 100.5t88.5 255.5q0 158 -77 224.5t-240 74.5z" />
    <glyph glyph-name="afii10035" unicode="&#x421;" horiz-adv-x="1126" 
d="M684 -6q-286 0 -411.5 173t-125.5 550q0 197 35 338.5t103.5 225.5t161.5 122.5t217 38.5q109 0 180 -25t153 -82l-61 -131q-60 43 -122.5 63.5t-149.5 20.5q-120 0 -198.5 -55t-121.5 -183t-43 -333q0 -300 86 -433.5t297 -133.5q101 0 162 23t125 77l61 -131
q-65 -63 -144 -94t-204 -31z" />
    <glyph glyph-name="afii10036" unicode="&#x422;" horiz-adv-x="1001" 
d="M23 1290v144h956v-144h-414v-1290h-143v1290h-399z" />
    <glyph glyph-name="afii10037" unicode="&#x423;" horiz-adv-x="1081" 
d="M29 1423l141 17l377 -953l354 953l146 -17l-482 -1212q-53 -120 -124.5 -164t-204.5 -47v139q50 0 85.5 10.5t63 36.5t47 57.5t43.5 84.5l4 10z" />
    <glyph glyph-name="afii10038" unicode="&#x424;" horiz-adv-x="1572" 
d="M864 -227l-129 -9v254q-291 15 -443.5 188t-152.5 505q0 315 155 494t441 198v209l129 10v-219q276 -20 422 -198t146 -494q0 -321 -143.5 -497.5t-424.5 -195.5v-245zM281 711q0 -519 454 -553v1106q-221 -19 -337.5 -162t-116.5 -391zM1290 711q0 250 -109.5 391
t-316.5 160v-1104q426 38 426 553z" />
    <glyph glyph-name="afii10039" unicode="&#x425;" horiz-adv-x="1173" 
d="M231 1446l361 -569l356 569l158 -25l-424 -684l469 -737l-174 -4l-391 614l-393 -614l-170 4l473 754l-424 667z" />
    <glyph glyph-name="afii10040" unicode="&#x426;" horiz-adv-x="1304" 
d="M188 0v1434h146v-1291h594v1291h145v-1291h160v-348l-133 -12v217h-912z" />
    <glyph glyph-name="afii10041" unicode="&#x427;" horiz-adv-x="1163" 
d="M991 1434v-1434h-135v586l-209 -64q-19 -8 -53 -8q-106 0 -177 11t-126 36.5t-85.5 72.5t-45.5 115.5t-15 168.5v516h138v-508q0 -163 70 -219t274 -56l229 62v721h135z" />
    <glyph glyph-name="afii10042" unicode="&#x428;" horiz-adv-x="1777" 
d="M188 0v1434h146v-1291h481v1291h143v-1291h486v1291h143v-1434h-1399z" />
    <glyph glyph-name="afii10043" unicode="&#x429;" horiz-adv-x="1820" 
d="M188 0v1434h146v-1291h481v1291h143v-1291h486v1291h143v-1291h162v-348l-133 -12v217h-1428z" />
    <glyph glyph-name="afii10044" unicode="&#x42a;" horiz-adv-x="1329" 
d="M362 0v1292h-331l-15 142h492v-584h342q75 0 143.5 -25t124.5 -72t89.5 -124.5t33.5 -173.5q0 -236 -118 -345.5t-349 -109.5h-412zM803 725h-295v-590h268q151 0 234.5 78t83.5 238q0 72 -25 126.5t-67.5 85.5t-92.5 46.5t-106 15.5z" />
    <glyph glyph-name="afii10045" unicode="&#x42b;" horiz-adv-x="1572" 
d="M188 0v1434h146v-584h342q74 0 142.5 -24.5t124 -71t89 -124.5t33.5 -175q0 -236 -117 -345.5t-348 -109.5h-412zM629 725h-295v-590h268q151 0 234.5 78t83.5 238q0 72 -25 126.5t-68 85.5t-93 46.5t-105 15.5zM1255 0v1434h144v-1434h-144z" />
    <glyph glyph-name="afii10046" unicode="&#x42c;" horiz-adv-x="1159" 
d="M188 0v1434h146v-584h342q74 0 142.5 -24.5t124 -71t89 -124.5t33.5 -175q0 -236 -117 -345.5t-348 -109.5h-412zM629 725h-295v-590h268q151 0 234.5 78t83.5 238q0 72 -25 126.5t-68 85.5t-93 46.5t-105 15.5z" />
    <glyph glyph-name="afii10047" unicode="&#x42d;" horiz-adv-x="1140" 
d="M205 651v144h635q-12 261 -102.5 377t-258.5 116q-87 0 -148.5 -20t-123.5 -64l-60 131q82 57 152.5 82t179.5 25q99 0 178.5 -24t144 -77.5t107 -137t65.5 -205.5t23 -281q0 -378 -125.5 -550.5t-412.5 -172.5q-125 0 -203 31t-145 94l63 131q64 -54 125 -77t160 -23
q200 0 286.5 118t94.5 383h-635z" />
    <glyph glyph-name="afii10048" unicode="&#x42e;" horiz-adv-x="1802" 
d="M1167 -8q-241 0 -370 173.5t-133 526.5h-330v-692h-146v1434h146v-598h334q22 292 151 449t348 157q235 0 361.5 -187.5t126.5 -537.5q0 -355 -122 -540t-366 -185zM1167 1296q-174 0 -265 -149.5t-91 -429.5q0 -580 356 -580q168 0 254 147t86 433q0 283 -87 431
t-253 148z" />
    <glyph glyph-name="afii10049" unicode="&#x42f;" horiz-adv-x="1153" 
d="M965 1434v-1434h-146v535h-205q-61 0 -108 8l-322 -543h-157l344 578q-238 100 -238 411q0 235 120 340t353 105q14 0 34 -5.5t26 -11.5l153 -151v168h146zM276 989q0 -148 89 -228.5t260 -80.5h194v416l-213 194q-164 0 -247 -69t-83 -232z" />
    <glyph glyph-name="afii10065" unicode="&#x430;" horiz-adv-x="985" 
d="M713 0v92q-77 -38 -165.5 -65t-154.5 -27q-151 0 -222 76.5t-71 234.5q0 164 78 227.5t264 63.5q34 0 64 -10l207 -76v29q0 160 -61 231.5t-191 71.5q-87 0 -182 -37l-39 94q36 22 103 40t142 18q188 0 276.5 -106t88.5 -331v-526h-137zM420 117q125 0 293 92v192
l-236 91q-142 0 -194 -36t-52 -141q0 -61 15 -102t43.5 -61t59 -27.5t71.5 -7.5z" />
    <glyph glyph-name="afii10066" unicode="&#x431;" horiz-adv-x="1005" 
d="M244 868l184 80q34 19 76 19q212 0 306.5 -117t94.5 -363q0 -247 -104 -367t-299 -120q-206 0 -303 166.5t-97 540.5q0 678 400 720q137 13 209.5 26t132.5 40l-17 -123q-78 -38 -311 -70q-126 -18 -190 -126.5t-82 -305.5zM238 745v-45q0 -297 65 -435t201 -138
q129 0 200.5 98.5t71.5 276.5q0 177 -69 260.5t-224 83.5z" />
    <glyph glyph-name="afii10067" unicode="&#x432;" horiz-adv-x="864" 
d="M147 0v961h297q128 0 195.5 -70t67.5 -193q0 -38 -15 -63l-88 -115q78 -22 126 -78.5t48 -150.5q0 -157 -82 -224t-250 -67h-299zM467 436h-195v-323h177q210 0 210 180q0 143 -192 143zM418 836h-146v-301h220l98 143q0 84 -42.5 121t-129.5 37z" />
    <glyph glyph-name="afii10068" unicode="&#x433;" horiz-adv-x="731" 
d="M147 0v961h555v-130h-423v-831h-132z" />
    <glyph glyph-name="afii10069" unicode="&#x434;" horiz-adv-x="1015" 
d="M231 590v371h474v2l120 -2v-834h111v-272h-119v145h-641v-145h-117v272h66q59 51 82.5 149t23.5 314zM352 598q0 -332 -84 -471h437v707h-353v-236z" />
    <glyph glyph-name="afii10070" unicode="&#x435;" horiz-adv-x="964" 
d="M772 416h-524q19 -297 264 -297q168 0 311 88l43 -96q-44 -28 -68.5 -41t-71.5 -33t-103.5 -28.5t-126.5 -8.5q-66 0 -122 15.5t-104 51.5t-81.5 91t-52.5 137.5t-19 187.5q0 103 21.5 186t57 137t85 90t103.5 51.5t114 15.5q175 0 261.5 -110.5t86.5 -340.5
q0 -96 -74 -96zM500 838q-103 0 -172.5 -77.5t-79.5 -238.5l477 6q0 162 -55 236t-170 74z" />
    <glyph glyph-name="afii10072" unicode="&#x436;" horiz-adv-x="1228" 
d="M256 969l293 -459v451h129v-451l295 459l153 -21l-295 -405l361 -543h-156l-284 430l-74 -104v-326h-129v326l-74 102l-282 -428h-156l358 541l-293 407z" />
    <glyph glyph-name="afii10073" unicode="&#x437;" horiz-adv-x="770" 
d="M285 557q21 6 65 6q50 0 94 -6l60 133q0 86 -36.5 117t-129.5 31q-106 0 -195 -41l-32 114q45 29 101 42.5t153 13.5q139 0 198.5 -54.5t59.5 -169.5q0 -53 -19 -96l-57 -117q135 -59 135 -225q0 -152 -80 -230.5t-221 -78.5q-215 0 -301 82l37 115q89 -64 245 -64
q87 0 137 45.5t50 136.5q0 93 -67 126.5t-191 33.5z" />
    <glyph glyph-name="afii10074" unicode="&#x438;" horiz-adv-x="997" 
d="M727 0v721l-455 -721h-129v961h129v-717l455 717h129v-961h-129z" />
    <glyph glyph-name="afii10075" unicode="&#x439;" horiz-adv-x="997" 
d="M727 721v-721h129v961h-129l-455 -717v717h-129v-961h129zM305 1286h88q0 -49 30.5 -80.5t76.5 -31.5q42 0 73 32t31 80h86q0 -99 -55.5 -154t-134.5 -55q-85 0 -140 57t-55 152z" />
    <glyph glyph-name="afii10076" unicode="&#x43a;" horiz-adv-x="937" 
d="M899 0h-156l-75 231q-34 101 -129 164l-111 72l-149 -178v-289h-132v961h132v-486l401 496l156 -21l-320 -379l121 -82q134 -94 172 -219z" />
    <glyph glyph-name="afii10077" unicode="&#x43b;" horiz-adv-x="983" 
d="M199 334v627h637v-961h-127v834h-383v-500q0 -156 -56 -240t-194 -94l-8 119q77 8 104 61.5t27 153.5z" />
    <glyph glyph-name="afii10078" unicode="&#x43c;" horiz-adv-x="1173" 
d="M881 702l-258 -542h-78l-254 538l-45 -698h-127l80 961h102l283 -629l286 629h105l80 -961h-127z" />
    <glyph glyph-name="afii10079" unicode="&#x43d;" horiz-adv-x="944" 
d="M666 0v438h-390v-438h-131v961h131v-408h390v408h131v-961h-131z" />
    <glyph glyph-name="afii10080" unicode="&#x43e;" horiz-adv-x="985" 
d="M508 -6q-212 0 -301.5 117t-89.5 364q0 244 94.5 369t296.5 125q187 0 273.5 -122.5t86.5 -373.5q0 -234 -89.5 -356.5t-270.5 -122.5zM504 838q-250 0 -250 -363q0 -178 55.5 -265t194.5 -87q227 0 227 350q0 179 -53 272t-174 93z" />
    <glyph glyph-name="afii10081" unicode="&#x43f;" horiz-adv-x="940" 
d="M664 0v836h-388v-836h-131v961h650v-961h-131z" />
    <glyph glyph-name="afii10082" unicode="&#x440;" horiz-adv-x="1064" 
d="M170 -432v1386l139 19v-191l156 150q35 31 86 31q136 0 219.5 -40t127.5 -138t44 -263q0 -522 -348 -522q-169 0 -285 113v-533zM528 827l-219 -209v-350q62 -64 131 -99.5t127 -35.5q68 0 116.5 30.5t74.5 86t37.5 119.5t11.5 143q0 97 -18.5 160.5t-57.5 96.5t-86 45.5
t-117 12.5z" />
    <glyph glyph-name="afii10083" unicode="&#x441;" horiz-adv-x="878" 
d="M475 -2q-75 0 -135.5 24.5t-101.5 67t-68.5 102t-40 127.5t-12.5 146q0 258 91.5 380t278.5 122q117 0 182.5 -19t112.5 -53l-37 -123q-100 51 -231 51q-127 0 -192.5 -82.5t-65.5 -273.5q0 -69 13 -125.5t41 -102t76.5 -71t113.5 -25.5q73 0 141.5 15.5t108.5 38.5
l28 -131q-105 -68 -303 -68z" />
    <glyph glyph-name="afii10084" unicode="&#x442;" horiz-adv-x="751" 
d="M37 831v130h678v-130h-279v-831h-131v831h-268z" />
    <glyph glyph-name="afii10085" unicode="&#x443;" horiz-adv-x="954" 
d="M37 952l141 17l293 -787l301 787l146 -17l-482 -1179q-54 -121 -125.5 -164.5t-204.5 -46.5v139q97 0 146 40t92 138l66 154z" />
    <glyph glyph-name="afii10086" unicode="&#x444;" horiz-adv-x="1171" 
d="M657 -414h-127v426q-424 28 -424 465q0 206 110 326t314 135v496h127v-496q195 -17 300.5 -136.5t105.5 -324.5q0 -212 -102 -330t-304 -135v-426zM233 477q0 -312 297 -342v678q-146 -15 -221.5 -101.5t-75.5 -234.5zM934 477q0 149 -71 235t-206 101v-678
q136 15 206.5 102t70.5 240z" />
    <glyph glyph-name="afii10087" unicode="&#x445;" horiz-adv-x="944" 
d="M719 975l149 -25l-317 -458l354 -492h-160l-276 395l-274 -395h-158l350 512l-317 438l147 25l252 -367z" />
    <glyph glyph-name="afii10088" unicode="&#x446;" horiz-adv-x="999" 
d="M147 0v961h132v-834h391v834h131v-834h117v-272h-119v145h-652z" />
    <glyph glyph-name="afii10089" unicode="&#x447;" horiz-adv-x="851" 
d="M696 961v-961h-121v371l-139 -33q-30 -6 -45 -6q-88 0 -143.5 11.5t-94 42.5t-54 83.5t-15.5 136.5v355h125v-347q0 -93 44.5 -127t172.5 -34l149 34v474h121z" />
    <glyph glyph-name="afii10090" unicode="&#x448;" horiz-adv-x="1337" 
d="M156 0v961h131v-834h315v834h131v-834h316v834h131v-961h-1024z" />
    <glyph glyph-name="afii10091" unicode="&#x449;" horiz-adv-x="1372" 
d="M147 0v961h132v-834h315v834h131v-834h315v834h131v-834h127v-272h-120v145h-1031z" />
    <glyph glyph-name="afii10092" unicode="&#x44a;" horiz-adv-x="997" 
d="M281 0v834h-226l-12 127h365v-383h225q115 0 195.5 -69.5t80.5 -199.5q0 -162 -81.5 -235.5t-245.5 -73.5h-301zM598 471h-190v-350h172q97 0 151.5 45t54.5 139q0 83 -55.5 124.5t-132.5 41.5z" />
    <glyph glyph-name="afii10093" unicode="&#x44b;" horiz-adv-x="1179" 
d="M156 0v961h127v-381h227q73 0 133.5 -28t101.5 -91.5t41 -153.5q0 -161 -82 -234t-247 -73h-301zM893 0v961h131v-961h-131zM475 471h-192v-354h172q98 0 152.5 45.5t54.5 140.5q0 83 -56 125.5t-131 42.5z" />
    <glyph glyph-name="afii10094" unicode="&#x44c;" horiz-adv-x="874" 
d="M156 0v961h127v-381h227q73 0 133.5 -28t101.5 -91.5t41 -153.5q0 -161 -82 -234t-247 -73h-301zM475 471h-192v-354h172q98 0 152.5 45.5t54.5 140.5q0 83 -56 125.5t-131 42.5z" />
    <glyph glyph-name="afii10095" unicode="&#x44d;" horiz-adv-x="856" 
d="M178 424v108h432q-10 160 -75.5 232t-182.5 72q-136 0 -233 -52l-37 111q47 34 112.5 53t182.5 19q187 0 279 -122t92 -380q0 -98 -20.5 -180.5t-62.5 -147.5t-112.5 -102t-163.5 -37q-198 0 -303 68l27 116q39 -22 108 -36.5t144 -14.5q119 0 178 80.5t67 212.5h-432z
" />
    <glyph glyph-name="afii10096" unicode="&#x44e;" horiz-adv-x="1327" 
d="M881 -6q-206 0 -296 111t-93 344h-213v-449h-132v961h132v-383h217q35 391 385 391q188 0 275 -122.5t87 -373.5q0 -234 -90 -356.5t-272 -122.5zM879 838q-250 0 -250 -363q0 -178 55.5 -265t194.5 -87q227 0 227 350q0 179 -53 272t-174 93z" />
    <glyph glyph-name="afii10097" unicode="&#x44f;" horiz-adv-x="858" 
d="M711 961v-961h-125v346h-142q-37 0 -55 2l-209 -348h-143l231 379q-157 70 -157 276q0 163 81.5 234.5t245.5 71.5q12 0 30 -5t24 -10l94 -72v87h125zM233 655q0 -91 55.5 -139.5t166.5 -48.5h131v264l-137 100q-107 -3 -161.5 -42t-54.5 -134z" />
    <glyph glyph-name="afii10071" unicode="&#x451;" horiz-adv-x="964" 
d="M772 416h-524q19 -297 264 -297q168 0 311 88l43 -96q-44 -28 -68.5 -41t-71.5 -33t-103.5 -28.5t-126.5 -8.5q-66 0 -122 15.5t-104 51.5t-81.5 91t-52.5 137.5t-19 187.5q0 103 21.5 186t57 137t85 90t103.5 51.5t114 15.5q175 0 261.5 -110.5t86.5 -340.5
q0 -96 -74 -96zM500 838q-103 0 -172.5 -77.5t-79.5 -238.5l477 6q0 162 -55 236t-170 74zM588 1194q0 40 26.5 67t61.5 27q41 0 66.5 -26.5t25.5 -67.5q0 -36 -26 -63t-66 -27q-34 0 -61 27.5t-27 62.5zM195 1194q0 40 26.5 67t61.5 27q41 0 66.5 -26.5t25.5 -67.5
q0 -36 -26 -63t-66 -27q-34 0 -61 27.5t-27 62.5z" />
    <glyph glyph-name="afii10099" unicode="&#x452;" horiz-adv-x="1019" 
d="M705 1126h-406v-280l168 100q33 17 70 17q181 0 263.5 -85.5t82.5 -275.5v-448q0 -118 -26 -214t-66.5 -157t-94 -104t-104.5 -63t-103 -26l-24 134q27 4 58 17t71 45.5t71 77.5t52.5 121t21.5 169v411q0 150 -44.5 205t-174.5 55l-221 -133v-692h-133v1126h-94v86h94
v215l133 23v-238h406v-86z" />
    <glyph glyph-name="afii10100" unicode="&#x453;" horiz-adv-x="743" 
d="M147 0v961h555v-130h-423v-831h-132zM264 1077l-65 64l260 241l86 -73z" />
    <glyph glyph-name="afii10101" unicode="&#x454;" horiz-adv-x="851" 
d="M465 -2q-92 0 -162 37t-111.5 102t-62 147.5t-20.5 180.5q0 258 91.5 380t278.5 122q116 0 181 -18.5t114 -53.5l-37 -111q-97 52 -233 52q-118 0 -182 -70.5t-76 -230.5h430v-109h-432q8 -133 67.5 -214t180.5 -81q75 0 143.5 14.5t107.5 36.5l27 -116
q-105 -68 -305 -68z" />
    <glyph glyph-name="afii10102" unicode="&#x455;" horiz-adv-x="894" 
d="M446 -2q-214 0 -350 84l39 111q45 -29 129.5 -48.5t177.5 -19.5q234 0 234 139q0 29 -6 51t-23.5 40t-33 29.5t-52 25.5t-60 21.5t-77.5 23.5q-153 43 -224 102t-71 166q0 65 24 113.5t67.5 76.5t97.5 41t120 13q176 0 305 -84l-41 -109q-41 26 -112.5 44t-151.5 18
q-192 0 -192 -119q0 -61 53.5 -94t185.5 -68q88 -23 140.5 -44t95 -54t60.5 -80t18 -115q0 -136 -86.5 -200t-266.5 -64z" />
    <glyph glyph-name="afii10103" unicode="&#x456;" horiz-adv-x="507" 
d="M324 0h-138v956l138 17v-973zM170 1200q0 39 26.5 65.5t61.5 26.5q42 0 68 -26t26 -66q0 -38 -26 -65t-68 -27q-34 0 -61 28t-27 64z" />
    <glyph glyph-name="afii10104" unicode="&#x457;" horiz-adv-x="507" 
d="M324 0h-138v956l138 17v-973zM-33 1194q0 40 26.5 67t61.5 27q41 0 66.5 -26.5t25.5 -67.5q0 -36 -26 -63t-66 -27q-34 0 -61 27.5t-27 62.5zM360 1194q0 40 27 67t62 27q41 0 66.5 -26.5t25.5 -67.5q0 -36 -26 -63t-66 -27q-34 0 -61.5 27.5t-27.5 62.5z" />
    <glyph glyph-name="afii10105" unicode="&#x458;" horiz-adv-x="522" 
d="M66 -408l-27 136q63 10 111.5 75t48.5 166v987l139 17v-1004q0 -165 -74.5 -263.5t-197.5 -113.5zM182 1200q0 39 27 65.5t63 26.5q40 0 65 -26t25 -66q0 -38 -25.5 -65t-64.5 -27q-35 0 -62.5 27.5t-27.5 64.5z" />
    <glyph glyph-name="afii10106" unicode="&#x459;" horiz-adv-x="1280" 
d="M561 834h-219v-500q0 -155 -58 -239.5t-196 -94.5l-8 119q77 8 104 61.5t27 153.5v627h477v-381h227q114 0 195.5 -70.5t81.5 -202.5q0 -161 -82.5 -234t-247.5 -73h-301v834zM881 471h-193v-354h172q98 0 152.5 45.5t54.5 140.5q0 83 -56 125.5t-130 42.5z" />
    <glyph glyph-name="afii10107" unicode="&#x45a;" horiz-adv-x="1378" 
d="M147 0v961h132v-386h389v386h127v-381h227q73 0 133.5 -28t101.5 -91.5t41 -153.5q0 -161 -82 -234t-247 -73h-301v465h-389v-465h-132zM987 471h-192v-354h172q98 0 152.5 45.5t54.5 140.5q0 83 -56 125.5t-131 42.5z" />
    <glyph glyph-name="afii10108" unicode="&#x45b;" horiz-adv-x="1036" 
d="M707 1124h-406v-301l139 117q9 7 38.5 15t45.5 8q105 0 171 -16t114.5 -60t69 -121.5t20.5 -200.5v-565h-137v557q0 84 -10 133t-40 81.5t-79.5 44t-132.5 11.5l-199 -159v-668h-135v1124h-90v97h90v206l135 23v-229h406v-97z" />
    <glyph glyph-name="afii10109" unicode="&#x45c;" horiz-adv-x="946" 
d="M901 0h-156l-75 231q-34 101 -129 164l-111 72l-149 -178v-289h-131v961h131v-486l401 496l156 -21l-320 -379l121 -82q134 -94 172 -219zM367 1077l-66 64l260 241l86 -73z" />
    <glyph glyph-name="afii10110" unicode="&#x45e;" horiz-adv-x="954" 
d="M37 952l141 17l293 -787l301 787l146 -17l-482 -1179q-54 -121 -125.5 -164.5t-204.5 -46.5v139q97 0 146 40t92 138l66 154zM285 1294h88q0 -49 30 -80.5t76 -31.5q42 0 73.5 32t31.5 80h86q0 -99 -56 -154t-135 -55q-85 0 -139.5 57t-54.5 152z" />
    <glyph glyph-name="afii10193" unicode="&#x45f;" horiz-adv-x="948" 
d="M147 0v961h132v-834h391v834h131v-961h-258v-145h-121v145h-275z" />
    <glyph glyph-name="Wgrave" unicode="&#x1e80;" horiz-adv-x="1572" 
d="M1292 0h-145l-361 864l-354 -864h-147l-213 1421l143 25l178 -1204l326 813h139l324 -803l178 1194l145 -25zM952 1610l-71 -62l-258 248l96 66z" />
    <glyph glyph-name="wgrave" unicode="&#x1e81;" horiz-adv-x="1345" 
d="M879 0h149l258 952l-145 17l-199 -774l-207 630h-131l-205 -626l-198 770l-144 -17l258 -952h140l213 649zM838 1139l-72 -62l-258 248l96 66z" />
    <glyph glyph-name="Wacute" unicode="&#x1e82;" horiz-adv-x="1572" 
d="M1292 0h-145l-361 864l-354 -864h-147l-213 1421l143 25l178 -1204l326 813h139l324 -803l178 1194l145 -25zM680 1548l-66 64l260 241l87 -73z" />
    <glyph glyph-name="wacute" unicode="&#x1e83;" horiz-adv-x="1345" 
d="M879 0h149l258 952l-145 17l-199 -774l-207 630h-131l-205 -626l-198 770l-144 -17l258 -952h140l213 649zM565 1077l-65 64l260 241l86 -73z" />
    <glyph glyph-name="Wdieresis" unicode="&#x1e84;" horiz-adv-x="1572" 
d="M1292 0h-145l-361 864l-354 -864h-147l-213 1421l143 25l178 -1204l326 813h139l324 -803l178 1194l145 -25zM500 1665q0 40 26.5 67t61.5 27q41 0 66.5 -26.5t25.5 -67.5q0 -36 -26 -63t-66 -27q-34 0 -61 27.5t-27 62.5zM893 1665q0 40 26.5 67t61.5 27
q41 0 66.5 -26.5t25.5 -67.5q0 -36 -26 -63t-66 -27q-34 0 -61 27.5t-27 62.5z" />
    <glyph glyph-name="wdieresis" unicode="&#x1e85;" horiz-adv-x="1345" 
d="M879 0h149l258 952l-145 17l-199 -774l-207 630h-131l-205 -626l-198 770l-144 -17l258 -952h140l213 649zM385 1194q0 40 26.5 67t61.5 27q41 0 66.5 -26.5t25.5 -67.5q0 -36 -26 -63t-66 -27q-34 0 -61 27.5t-27 62.5zM778 1194q0 40 26.5 67t61.5 27q41 0 66.5 -26.5
t25.5 -67.5q0 -36 -26 -63t-66 -27q-34 0 -61 27.5t-27 62.5z" />
    <glyph glyph-name="Ygrave" unicode="&#x1ef2;" horiz-adv-x="1116" 
d="M928 1448l157 -27l-454 -841v-580h-144v584l-458 837l149 27l379 -696zM723 1610l-72 -62l-258 248l96 66z" />
    <glyph glyph-name="ygrave" unicode="&#x1ef3;" horiz-adv-x="964" 
d="M41 952l141 17l293 -787l301 787l146 -17l-482 -1179q-54 -121 -125 -164.5t-204 -46.5v139q97 0 145.5 40t91.5 138l66 154zM647 1139l-72 -62l-258 248l97 66z" />
    <glyph glyph-name="endash" unicode="&#x2013;" horiz-adv-x="995" 
d="M88 446v123h821v-123h-821z" />
    <glyph glyph-name="emdash" unicode="&#x2014;" horiz-adv-x="1335" 
d="M88 446v123h1137v-123h-1137z" />
    <glyph glyph-name="quoteleft" unicode="&#x2018;" horiz-adv-x="319" 
d="M272 1163q0 -45 -30.5 -74.5t-71.5 -29.5q-46 0 -75 33t-29 77q0 142 110 291l76 -41q-49 -90 -53 -166q31 -4 52 -32t21 -58z" />
    <glyph glyph-name="quoteright" unicode="&#x2019;" horiz-adv-x="321" 
d="M59 1339q0 45 31 75t72 30q46 0 75 -33t29 -78q0 -142 -110 -291l-76 41q49 90 53 166q-31 4 -52.5 32.5t-21.5 57.5z" />
    <glyph glyph-name="quotesinglbase" unicode="&#x201a;" horiz-adv-x="321" 
d="M59 106q0 45 31 75t72 30q46 0 75 -33t29 -78q0 -141 -110 -290l-76 40q49 90 53 166q-31 4 -52.5 32.5t-21.5 57.5z" />
    <glyph glyph-name="quotedblleft" unicode="&#x201c;" horiz-adv-x="565" 
d="M270 1163q0 -45 -30.5 -74.5t-71.5 -29.5q-46 0 -75.5 33t-29.5 77q0 140 111 291l76 -41q-49 -90 -53 -166q31 -4 52 -32t21 -58zM516 1163q0 -45 -30.5 -74.5t-71.5 -29.5q-46 0 -75.5 33t-29.5 77q0 140 111 291l76 -41q-50 -92 -54 -166q31 -4 52.5 -32.5t21.5 -57.5
z" />
    <glyph glyph-name="quotedblright" unicode="&#x201d;" horiz-adv-x="559" 
d="M59 1339q0 45 31 75t72 30q46 0 75 -33t29 -78q0 -142 -110 -291l-76 41q49 90 53 166q-31 4 -52.5 32.5t-21.5 57.5zM307 1339q0 45 31 75t72 30q46 0 75 -33t29 -78q0 -140 -111 -291l-75 41q49 90 53 166q-31 4 -52.5 32.5t-21.5 57.5z" />
    <glyph glyph-name="quotedblbase" unicode="&#x201e;" horiz-adv-x="563" 
d="M53 106q0 45 31 75t72 30q46 0 75 -33t29 -78q0 -141 -110 -290l-76 40q49 90 53 166q-31 4 -52.5 32.5t-21.5 57.5zM311 106q0 45 31 75t72 30q46 0 75 -33t29 -78q0 -141 -110 -290l-76 40q49 90 53 166q-31 4 -52.5 32.5t-21.5 57.5z" />
    <glyph glyph-name="dagger" unicode="&#x2020;" horiz-adv-x="917" 
d="M80 1067v123h311v366h135v-366h310v-123h-310v-1288h-135v1288h-311z" />
    <glyph glyph-name="daggerdbl" unicode="&#x2021;" horiz-adv-x="925" 
d="M80 1067v123h311v366h135v-366h310v-123h-310v-766h310v-123h-310v-399h-135v399h-311v123h311v766h-311z" />
    <glyph glyph-name="bullet" unicode="&#x2022;" horiz-adv-x="587" 
d="M127 512q0 73 50 122.5t116 49.5q75 0 121.5 -48.5t46.5 -123.5q0 -67 -47.5 -116.5t-120.5 -49.5q-65 0 -115.5 51t-50.5 115z" />
    <glyph glyph-name="onedotenleader" unicode="&#x2024;" horiz-adv-x="356" 
d="M84 90q0 40 27 67t63 27q41 0 66.5 -26.5t25.5 -67.5q0 -36 -26 -63t-66 -27q-35 0 -62.5 27.5t-27.5 62.5z" />
    <glyph glyph-name="twodotenleader" unicode="&#x2025;" horiz-adv-x="712" 
d="M84 90q0 40 27 67t63 27q41 0 66.5 -26.5t25.5 -67.5q0 -36 -26 -63t-66 -27q-35 0 -62.5 27.5t-27.5 62.5zM442 90q0 40 26.5 67t61.5 27q41 0 67 -26.5t26 -67.5q0 -36 -26.5 -63t-66.5 -27q-34 0 -61 27.5t-27 62.5z" />
    <glyph glyph-name="ellipsis" unicode="&#x2026;" horiz-adv-x="1067" 
d="M84 90q0 40 27 67t63 27q40 0 65 -26.5t25 -67.5q0 -36 -25.5 -63t-64.5 -27q-35 0 -62.5 27.5t-27.5 62.5zM440 90q0 40 26.5 67t61.5 27q41 0 67 -26.5t26 -67.5q0 -36 -26.5 -63t-66.5 -27q-34 0 -61 27.5t-27 62.5zM795 90q0 40 27.5 67t62.5 27q40 0 66 -26.5
t26 -67.5q0 -36 -26.5 -63t-65.5 -27q-34 0 -62 27.5t-28 62.5z" />
    <glyph glyph-name="perthousand" unicode="&#x2030;" horiz-adv-x="2146" 
d="M1802 0q-268 0 -268 377q0 200 63.5 303.5t204.5 103.5t199.5 -102t58.5 -305q0 -377 -258 -377zM1800 682q-84 0 -122 -75.5t-38 -225.5q0 -137 37.5 -207t120.5 -70q78 0 117 73t39 206q0 152 -36 225.5t-118 73.5zM1198 1434l-721 -1434h-145l723 1434h143zM356 614
q-268 0 -268 377q0 200 63.5 304t204.5 104t199.5 -102.5t58.5 -305.5q0 -377 -258 -377zM354 1296q-84 0 -121.5 -75t-37.5 -226q0 -138 37 -207t120 -69q78 0 117 72.5t39 205.5q0 152 -36 225.5t-118 73.5zM1167 0q-268 0 -268 377q0 200 63.5 303.5t204.5 103.5
t199.5 -102t58.5 -305q0 -377 -258 -377zM1165 682q-84 0 -121.5 -75t-37.5 -226q0 -138 37 -207.5t120 -69.5q78 0 117 73t39 206q0 152 -36 225.5t-118 73.5z" />
    <glyph glyph-name="guilsinglleft" unicode="&#x2039;" horiz-adv-x="557" 
d="M467 254l-90 -94l-320 346l314 336l96 -88l-231 -250z" />
    <glyph glyph-name="guilsinglright" unicode="&#x203a;" horiz-adv-x="542" 
d="M72 754l90 94l319 -346l-313 -336l-96 88l231 250z" />
    <glyph glyph-name="fraction" unicode="&#x2044;" horiz-adv-x="313" 
d="M582 1434l-721 -1434h-146l723 1434h144z" />
    <glyph glyph-name="zerosuperior" unicode="&#x2070;" horiz-adv-x="677" 
d="M338 778q-252 0 -252 336q0 179 60 272t192 93q135 0 191.5 -92t56.5 -273q0 -336 -248 -336zM338 1384q-80 0 -116 -66.5t-36 -199.5q0 -121 36 -182.5t116 -61.5q72 0 108.5 64t36.5 180q0 136 -34 201t-111 65z" />
    <glyph glyph-name="foursuperior" unicode="&#x2074;" horiz-adv-x="618" 
d="M59 942l115 533l98 8l-96 -457h195v137l94 8v-145h104v-84h-104l2 -164h-96v164h-312z" />
    <glyph glyph-name="fivesuperior" unicode="&#x2075;" horiz-adv-x="624" 
d="M293 778q-137 0 -217 56l22 77q63 -39 189 -39q170 0 170 150q0 65 -47 100t-125 35q-46 0 -179 -14v336h429l-9 -90h-329v-162q67 12 116 12q109 0 176.5 -56.5t67.5 -162.5q0 -242 -264 -242z" />
    <glyph glyph-name="sixsuperior" unicode="&#x2076;" horiz-adv-x="655" 
d="M166 1169l110 45q32 9 52 9q118 0 184 -47t66 -164q0 -234 -254 -234q-252 0 -252 355q0 171 69 264.5t201 93.5q47 0 85 -8.5t56.5 -17t44.5 -23.5l-18 -70q-65 35 -166 35q-84 0 -128 -62.5t-50 -175.5zM330 868q76 0 116.5 39.5t40.5 108.5q0 74 -44.5 103.5
t-129.5 29.5l-147 -53q4 -121 44.5 -174.5t119.5 -53.5z" />
    <glyph glyph-name="sevensuperior" unicode="&#x2077;" horiz-adv-x="589" 
d="M63 1382l-10 97h471v-97l-252 -608l-102 8l248 600h-355z" />
    <glyph glyph-name="eightsuperior" unicode="&#x2078;" horiz-adv-x="636" 
d="M512 1323q0 -50 -30 -94.5t-81 -69.5q75 -32 116.5 -74.5t41.5 -119.5q0 -64 -36.5 -107t-91.5 -61.5t-124 -18.5q-104 0 -169.5 48.5t-65.5 131.5q0 91 35 133t112 72q-108 58 -108 164q0 154 219 154q85 0 133.5 -40.5t48.5 -117.5zM465 967q0 20 -5.5 37t-12 29.5
t-23 25.5t-25.5 20t-33 18.5t-32.5 15t-36.5 15.5q-72 -33 -101.5 -65t-29.5 -90q0 -52 40.5 -83.5t106.5 -31.5q64 0 108 29t44 80zM205 1319q0 -49 32 -77t95 -54q96 53 96 127q0 43 -28 65.5t-74 22.5q-50 0 -85.5 -21.5t-35.5 -62.5z" />
    <glyph glyph-name="ninesuperior" unicode="&#x2079;" horiz-adv-x="638" 
d="M297 860q50 0 84 18.5t51 53t24 71.5t9 87l-117 -48q-15 -6 -37 -6q-110 0 -169.5 57t-59.5 162q0 100 59.5 161t173.5 61q124 0 180 -77t56 -257q0 -61 -4.5 -108t-19.5 -97.5t-41 -83.5t-71.5 -54.5t-107.5 -21.5q-72 0 -126 15t-81 34l29 70q62 -37 168 -37zM176 1249
q0 -57 37.5 -95t108.5 -38l143 49q-3 117 -38.5 169t-107.5 52q-67 0 -105 -40t-38 -97z" />
    <glyph glyph-name="parenleftsuperior" unicode="&#x207d;" horiz-adv-x="350" 
d="M287 702l-56 -53q-163 173 -163 457q0 163 46.5 278t121.5 175l53 -60q-127 -124 -127 -389q0 -252 125 -408z" />
    <glyph glyph-name="parenrightsuperior" unicode="&#x207e;" horiz-adv-x="354" 
d="M61 1503l56 56q78 -85 121 -193t43 -266q0 -162 -46 -276.5t-120 -176.5l-54 60q127 131 127 391q0 250 -127 405z" />
    <glyph glyph-name="nsuperior" unicode="&#x207f;" horiz-adv-x="626" 
d="M199 1266v-92l106 77q18 9 41 9q102 0 143 -42.5t41 -138.5v-301h-96v275q0 68 -27 94.5t-98 26.5l-110 -74v-322h-93v477z" />
    <glyph glyph-name="zeroinferior" unicode="&#x2080;" horiz-adv-x="677" 
d="M338 -41q-252 0 -252 336q0 178 60 271t192 93q135 0 191.5 -91.5t56.5 -272.5q0 -336 -248 -336zM338 565q-80 0 -116 -66.5t-36 -199.5q0 -121 36 -182.5t116 -61.5q72 0 108.5 64t36.5 180q0 136 -34 201t-111 65z" />
    <glyph glyph-name="oneinferior" unicode="&#x2081;" horiz-adv-x="491" 
d="M371 -41h-105v545l-155 -127l-54 69l228 218l86 -13v-692z" />
    <glyph glyph-name="twoinferior" unicode="&#x2082;" horiz-adv-x="624" 
d="M70 -41v90q188 132 278 220.5t90 160.5q0 58 -37 93.5t-108 35.5q-104 0 -180 -63l-41 77q96 82 239 82q109 0 168.5 -60.5t59.5 -158.5q0 -53 -22.5 -101.5t-71.5 -97.5t-92.5 -83.5t-119.5 -90.5q-9 -7 -14 -10h352l-6 -94h-495z" />
    <glyph glyph-name="threeinferior" unicode="&#x2083;" horiz-adv-x="636" 
d="M229 362q21 7 52 7q27 0 77 -4l41 94q0 62 -28 83t-105 21q-91 0 -149 -28l-27 83q71 41 203 41q111 0 159 -39.5t48 -121.5q0 -41 -17 -72l-45 -82q109 -41 109 -162q0 -110 -64.5 -166.5t-177.5 -56.5q-173 0 -239 59l28 86q71 -51 197 -51q71 0 113 34.5t42 98.5
q0 66 -55 90.5t-155 24.5z" />
    <glyph glyph-name="fourinferior" unicode="&#x2084;" horiz-adv-x="618" 
d="M59 123l115 532l98 9l-96 -457h195v137l94 8v-145h104v-84h-104l2 -164h-96v164h-312z" />
    <glyph glyph-name="fiveinferior" unicode="&#x2085;" horiz-adv-x="624" 
d="M293 -41q-139 0 -217 55l22 78q63 -39 189 -39q170 0 170 150q0 65 -47 100t-125 35q-46 0 -179 -14v335h429l-9 -90h-329v-161q68 12 116 12q109 0 176.5 -56.5t67.5 -162.5q0 -242 -264 -242z" />
    <glyph glyph-name="sixinferior" unicode="&#x2086;" horiz-adv-x="655" 
d="M166 350l110 45q28 8 52 8q119 0 184.5 -47t65.5 -163q0 -234 -254 -234q-252 0 -252 354q0 171 69 265t201 94q47 0 85 -8.5t56.5 -17t44.5 -23.5l-18 -70q-65 35 -166 35q-84 0 -128 -62.5t-50 -175.5zM330 49q76 0 116.5 39.5t40.5 108.5q0 74 -44.5 103.5
t-129.5 29.5l-147 -54q4 -121 44.5 -174t119.5 -53z" />
    <glyph glyph-name="seveninferior" unicode="&#x2087;" horiz-adv-x="589" 
d="M63 563l-10 96h471v-96l-252 -608l-102 8l248 600h-355z" />
    <glyph glyph-name="eightinferior" unicode="&#x2088;" horiz-adv-x="636" 
d="M512 504q0 -50 -30 -94.5t-81 -69.5q75 -32 116.5 -75t41.5 -120q0 -64 -36.5 -107t-91.5 -61t-124 -18q-104 0 -169.5 48.5t-65.5 131.5q0 91 35 133t112 72q-108 58 -108 164q0 154 219 154q85 0 133.5 -40.5t48.5 -117.5zM465 147q0 27 -10.5 50t-23 37t-40.5 30
t-43 23t-51 22q-72 -33 -101.5 -65t-29.5 -90q0 -52 40.5 -83.5t106.5 -31.5q65 0 108.5 29t43.5 79zM205 500q0 -49 32 -77t95 -54q96 53 96 127q0 43 -28 65.5t-74 22.5q-50 0 -85.5 -21.5t-35.5 -62.5z" />
    <glyph glyph-name="nineinferior" unicode="&#x2089;" horiz-adv-x="638" 
d="M297 41q40 0 70 13t48 33t29 51.5t15.5 61.5t5.5 70l-117 -47q-15 -6 -37 -6q-110 0 -169.5 57t-59.5 162q0 100 59.5 160.5t173.5 60.5q124 0 180 -77t56 -256q0 -61 -4.5 -108t-19.5 -97.5t-41 -83.5t-71.5 -54.5t-107.5 -21.5q-72 0 -126 15t-81 34l29 70
q62 -37 168 -37zM176 430q0 -57 37.5 -95t108.5 -38l143 49q-3 117 -38.5 169t-107.5 52q-67 0 -105 -40t-38 -97z" />
    <glyph glyph-name="parenleftinferior" unicode="&#x208d;" horiz-adv-x="350" 
d="M287 -117l-56 -53q-163 173 -163 457q0 163 46.5 277.5t121.5 174.5l53 -59q-127 -124 -127 -389q0 -252 125 -408z" />
    <glyph glyph-name="parenrightinferior" unicode="&#x208e;" horiz-adv-x="354" 
d="M61 684l56 55q78 -85 121 -193t43 -265q0 -162 -46 -276.5t-120 -176.5l-54 59q127 131 127 392q0 250 -127 405z" />
    <glyph glyph-name="franc" unicode="&#x20a3;" horiz-adv-x="1026" 
d="M51 743v84h119v607h772v-146h-627v-461h433v-84h-697zM51 541v86h697v-86h-433v-541h-145v541h-119z" />
    <glyph glyph-name="lira" unicode="&#x20a4;" horiz-adv-x="1085" 
d="M119 559v84h696v-84h-446l-45 -424h706v-135h-987l16 135h125l43 424h-108zM119 760v84h137l27 227q37 363 348 363h295l-15 -134l-239 3q-229 0 -254 -269l-23 -190h420v-84h-696z" />
    <glyph glyph-name="Euro" unicode="&#x20ac;" horiz-adv-x="1103" 
d="M37 559v84h760v-84h-494q16 -192 107.5 -300.5t271.5 -108.5q102 0 163.5 22.5t121.5 77.5l63 -131q-67 -63 -145 -94t-203 -31q-263 0 -392.5 143.5t-144.5 421.5h-108zM37 760v84h108q28 598 514 598q111 0 182.5 -25.5t151.5 -81.5l-61 -131q-60 43 -122.5 63.5
t-150.5 20.5q-166 0 -255.5 -106t-102.5 -338h496v-84h-760z" />
    <glyph glyph-name="trademark" unicode="&#x2122;" horiz-adv-x="1462" 
d="M606 1386v-102h-219v-649h-96v649h-215v102h530zM1348 635l-101 -2l-63 565l-156 -399h-78l-159 401l-58 -567l-98 2l74 751h102l176 -456l182 456h95z" />
    <glyph glyph-name="estimated" unicode="&#x212e;" horiz-adv-x="1671" 
d="M1583 627h-1210q-11 0 -11 -11v-364q0 -23 17 -43q88 -93 207 -145t252 -52q142 0 266.5 58.5t214.5 162.5h108q-104 -121 -258.5 -191.5t-332.5 -70.5q-203 0 -375 89.5t-272.5 244.5t-100.5 338t100.5 338.5t272.5 245.5t375 90q152 0 290 -53.5t238.5 -143.5
t159.5 -215t59 -262v-16zM1309 674v368q0 24 -19 43q-88 90 -205.5 140.5t-246.5 50.5q-132 0 -250.5 -52t-206.5 -143q-19 -19 -19 -47v-360q0 -10 11 -10h927q9 0 9 10z" />
    <glyph glyph-name="onethird" unicode="&#x2153;" horiz-adv-x="1519" 
d="M1139 1434l-721 -1434h-146l723 1434h144zM1106 453q12 4 51 4q45 0 82 -6l45 110q0 71 -30 96t-111 25q-88 0 -156 -35l-29 92q75 45 211 45q118 0 167.5 -44t49.5 -138q0 -41 -16 -78l-49 -94q115 -46 115 -182q0 -122 -66 -185t-184 -63q-179 0 -254 68l31 90
q73 -56 206 -56q75 0 119.5 39t44.5 113q0 76 -57 102.5t-164 26.5zM385 614h-106v615l-166 -144l-58 76l242 244l88 -14v-777z" />
    <glyph glyph-name="twothirds" unicode="&#x2154;" horiz-adv-x="1687" 
d="M1331 1434l-721 -1434h-145l723 1434h143zM78 614v99q199 149 294 248.5t95 181.5q0 67 -40 107t-114 40q-105 0 -190 -71l-43 84q23 19 40 30.5t49 28t73.5 25t91.5 8.5q114 0 175.5 -67.5t61.5 -178.5q0 -47 -17 -93t-42.5 -82.5t-69.5 -80t-82.5 -76t-97.5 -79.5
q-19 -15 -29 -23l373 2l-6 -103h-522zM1280 453q12 4 51 4q45 0 82 -6l45 110q0 71 -30 96t-111 25q-88 0 -156 -35l-28 92q75 45 210 45q118 0 168 -44t50 -138q0 -39 -17 -78l-49 -94q115 -46 115 -182q0 -122 -66 -185t-184 -63q-179 0 -254 68l31 90q73 -56 206 -56
q75 0 119.5 39t44.5 113q0 76 -57 102.5t-164 26.5z" />
    <glyph glyph-name="oneeighth" unicode="&#x215b;" horiz-adv-x="1531" 
d="M1395 610q0 -56 -32 -105t-87 -77q79 -36 123.5 -84.5t44.5 -134.5q0 -70 -38.5 -118.5t-96.5 -69.5t-129 -21q-111 0 -179.5 54.5t-68.5 148.5q0 70 20 115.5t50 68.5t83 45q-54 31 -83 73t-29 109q0 172 227 172q90 0 142.5 -45t52.5 -131zM1151 1434l-721 -1434h-145
l723 1434h143zM391 614h-106v615l-166 -144l-58 76l242 244l88 -14v-777zM1346 211q0 29 -10.5 54t-22.5 40t-39.5 33t-42.5 25.5t-51 23.5q-9 4 -13 6q-74 -35 -106.5 -72t-32.5 -102q0 -61 43 -97t111 -36q69 0 116.5 33.5t47.5 91.5zM1069 608q0 -56 34 -87.5t101 -61.5
q103 59 103 141q0 50 -29.5 75t-79.5 25q-55 0 -92 -22.5t-37 -69.5z" />
    <glyph glyph-name="threeeighths" unicode="&#x215c;" horiz-adv-x="1701" 
d="M1556 610q0 -56 -31.5 -105.5t-86.5 -76.5q79 -36 123.5 -84.5t44.5 -134.5q0 -103 -77 -156t-188 -53q-110 0 -178.5 54.5t-68.5 148.5q0 70 20 115.5t50 68.5t83 45q-54 31 -83 73t-29 109q0 172 227 172q90 0 142 -45t52 -131zM1270 1434l-721 -1434h-146l723 1434
h144zM236 1067q12 4 51 4q45 0 82 -6l45 111q0 71 -30.5 95.5t-111.5 24.5q-89 0 -155 -34l-29 92q75 45 211 45q118 0 167.5 -44t49.5 -138q0 -41 -16 -78l-49 -95q114 -46 114 -182q0 -122 -66 -185t-184 -63q-179 0 -254 68l31 90q71 -55 207 -55q75 0 119.5 38.5
t44.5 112.5q0 76 -57 102.5t-164 26.5zM1507 211q0 36 -13 64t-38.5 48t-51.5 34t-63 31q-8 3 -12 5q-74 -35 -106.5 -72t-32.5 -102q0 -61 42.5 -97t110.5 -36q69 0 116.5 33.5t47.5 91.5zM1231 608q0 -56 34 -87.5t101 -61.5q102 59 102 141q0 50 -29 75t-79 25
q-55 0 -92 -22.5t-37 -69.5z" />
    <glyph glyph-name="fiveeighths" unicode="&#x215d;" horiz-adv-x="1695" 
d="M1554 610q0 -56 -31.5 -105.5t-86.5 -76.5q79 -36 123.5 -84.5t44.5 -134.5q0 -103 -77 -156t-188 -53q-110 0 -178.5 54.5t-68.5 148.5q0 70 20 115.5t50 68.5t83 45q-54 31 -83 73t-29 109q0 172 227 172q90 0 142 -45t52 -131zM1264 1434l-721 -1434h-146l723 1434
h144zM297 614q-83 0 -133.5 15.5t-93.5 46.5l26 84q73 -43 197 -43q178 0 178 172q0 72 -48.5 111.5t-133.5 39.5q-82 0 -185 -14v373h449l-10 -99h-346v-184q66 14 122 14q115 0 185.5 -62.5t70.5 -182.5q0 -146 -72.5 -208.5t-205.5 -62.5zM1505 211q0 36 -13 64t-38.5 48
t-51.5 34t-63 31q-8 3 -12 5q-74 -35 -106.5 -72t-32.5 -102q0 -61 42.5 -97t110.5 -36q69 0 116.5 33.5t47.5 91.5zM1229 608q0 -56 34 -87.5t101 -61.5q102 59 102 141q0 50 -29 75t-79 25q-55 0 -92 -22.5t-37 -69.5z" />
    <glyph glyph-name="seveneighths" unicode="&#x215e;" horiz-adv-x="1669" 
d="M1520 610q0 -56 -32 -105t-87 -77q79 -36 123.5 -84.5t44.5 -134.5q0 -70 -38.5 -118.5t-96.5 -69.5t-129 -21q-111 0 -179.5 54.5t-68.5 148.5q0 70 20 115.5t50 68.5t83 45q-54 31 -83 73t-29 109q0 172 227 172q90 0 142.5 -45t52.5 -131zM1171 1434l-720 -1434h-146
l723 1434h143zM47 1296l-10 103h495v-103l-266 -686l-106 8l262 678h-375zM1470 211q0 36 -13 64t-38.5 48t-51.5 34t-63 31q-8 3 -12 5q-74 -35 -106.5 -72t-32.5 -102q0 -61 43 -97t111 -36q69 0 116 33.5t47 91.5zM1194 608q0 -56 34 -87.5t101 -61.5q103 59 103 141
q0 50 -29.5 75t-79.5 25q-55 0 -92 -22.5t-37 -69.5z" />
    <glyph glyph-name="uni2206" unicode="&#x2206;" horiz-adv-x="1204" 
d="M553 1434h100l531 -1434h-1166zM602 1182l-379 -1047h760z" />
    <glyph glyph-name="product" unicode="&#x220f;" horiz-adv-x="1261" 
d="M928 0v1290h-594v-1290h-146v1434h885v-1434h-145z" />
    <glyph glyph-name="summation" unicode="&#x2211;" horiz-adv-x="1136" 
d="M72 147l383 566l-318 567l-14 154h897v-154h-701l318 -567l-381 -566h807v-147h-973z" />
    <glyph glyph-name="minus" unicode="&#x2212;" horiz-adv-x="972" 
d="M102 446v123h744v-123h-744z" />
    <glyph glyph-name="uni2215" unicode="&#x2215;" horiz-adv-x="313" 
d="M582 1434l-721 -1434h-146l723 1434h144z" />
    <glyph glyph-name="approxequal" unicode="&#x2248;" horiz-adv-x="966" 
d="M606 272q-42 0 -117 38t-120 38q-39 0 -79 -16.5t-67 -38.5l-45 74q36 29 86 51t98 22q42 0 121.5 -39t126.5 -39q46 0 74.5 11.5t58.5 36.5l50 -60q-78 -78 -187 -78zM604 539q-41 0 -116.5 37.5t-120.5 37.5q-39 0 -79 -16.5t-67 -38.5l-45 74q92 74 184 74
q42 0 121.5 -39t126.5 -39q46 0 75 11.5t58 35.5l50 -60q-77 -77 -187 -77z" />
    <glyph glyph-name="notequal" unicode="&#x2260;" horiz-adv-x="962" 
d="M104 565v123h367l61 291h82l-59 -291h293v-123h-318l-28 -133h346v-123h-371l-55 -268h-86l55 268h-287v123h314l26 133h-340z" />
    <glyph glyph-name="lessequal" unicode="&#x2264;" horiz-adv-x="835" 
d="M705 369l-54 -90l-567 313l567 313l54 -94l-406 -219zM90 82v111h633v-111h-633z" />
    <glyph glyph-name="greaterequal" unicode="&#x2265;" horiz-adv-x="821" 
d="M166 279l-51 90l403 223l-403 219l51 94l567 -313zM727 82v111h-633v-111h633z" />
    <glyph glyph-name="Wacute.small" horiz-adv-x="1345" 
d="M1096 0h-138l-286 664l-279 -664h-141l-172 1126l137 23l139 -922l252 617h131l252 -608l139 913l138 -23zM565 1249l-65 64l260 241l86 -73z" />
    <glyph glyph-name="Egravesmall" horiz-adv-x="923" 
d="M156 0v1137h669v-136h-534v-352h438v-135h-438v-387h538v-127h-673zM662 1311l-72 -62l-258 248l96 66z" />
    <glyph glyph-name="Wcircumflex.small" horiz-adv-x="1345" 
d="M1096 0h-138l-286 664l-279 -664h-141l-172 1126l137 23l139 -922l252 617h131l252 -608l139 913l138 -23zM416 1348l264 204l248 -209l-86 -61l-170 143l-178 -141z" />
    <glyph glyph-name="Kcommaaccent.small" horiz-adv-x="1073" 
d="M860 0l-395 537l-162 -199v-338h-135v1137h135v-588l483 600l164 -23l-391 -475l473 -651h-172zM467 -424l39 301l119 10l-72 -327z" />
    <glyph glyph-name="Wdieresis.small" horiz-adv-x="1345" 
d="M1096 0h-138l-286 664l-279 -664h-141l-172 1126l137 23l139 -922l252 617h131l252 -608l139 913l138 -23zM387 1366q0 40 26.5 67t61.5 27q41 0 66.5 -26.5t25.5 -67.5q0 -36 -26 -63t-66 -27q-34 0 -61 27.5t-27 62.5zM780 1366q0 40 26.5 67t61.5 27q41 0 67 -26.5
t26 -67.5q0 -36 -26.5 -63t-66.5 -27q-34 0 -61 27.5t-27 62.5z" />
    <glyph glyph-name="guillemotleft.cap" horiz-adv-x="878" 
d="M463 455l-90 -93l-320 347l314 333l96 -88l-232 -247zM838 455l-90 -93l-320 347l313 333l97 -88l-232 -247z" />
    <glyph glyph-name="guillemotright.cap" horiz-adv-x="899" 
d="M449 952l90 92l319 -346l-313 -333l-96 88l231 247zM96 952l90 92l320 -346l-313 -333l-97 88l232 247z" />
    <glyph glyph-name="Cacute.small" horiz-adv-x="950" 
d="M569 -4q-234 0 -338 137t-104 436q0 156 29 268t85.5 178.5t133 97t178.5 30.5q88 0 146 -19t126 -61l-55 -127q-94 63 -217 63q-139 0 -208 -100.5t-69 -329.5q0 -226 65 -327t228 -101q78 0 127 17t103 57l55 -125q-55 -48 -120 -71t-165 -23zM416 1249l-66 64l260 241
l86 -73z" />
    <glyph glyph-name="Ksmall" horiz-adv-x="1079" 
d="M864 0l-395 537l-162 -199v-338h-135v1137h135v-588l484 600l163 -23l-391 -475l473 -651h-172z" />
    <glyph glyph-name="Wgrave.small" horiz-adv-x="1345" 
d="M1096 0h-138l-286 664l-279 -664h-141l-172 1126l137 23l139 -922l252 617h131l252 -608l139 913l138 -23zM838 1311l-72 -62l-258 248l96 66z" />
    <glyph glyph-name="guilsinglleft.cap" horiz-adv-x="557" 
d="M467 455l-90 -93l-320 347l314 333l96 -88l-231 -247z" />
    <glyph glyph-name="Wsmall" horiz-adv-x="1353" 
d="M1098 0h-137l-285 664l-281 -664h-139l-172 1126l135 23l141 -922l252 617h131l250 -608l140 913l139 -23z" />
    <glyph glyph-name="guilsinglright.cap" horiz-adv-x="542" 
d="M70 967l90 92l319 -346l-313 -334l-96 88l231 248z" />
    <glyph glyph-name="Emacron.small" horiz-adv-x="923" 
d="M154 0v1137h669v-136h-532v-352h438v-135h-438v-387h538v-127h-675zM809 1313h-631v102h631v-102z" />
    <glyph glyph-name="hyphen.cap" horiz-adv-x="815" 
d="M90 653v123h631v-123h-631z" />
    <glyph glyph-name="Xsmall" horiz-adv-x="1019" 
d="M233 1149l281 -436l279 436l149 -23l-342 -546l377 -580l-164 -4l-303 469l-305 -469l-164 4l383 598l-342 528z" />
    <glyph glyph-name="hyphen.denominator" horiz-adv-x="536" 
d="M72 244v82h389v-82h-389z" />
    <glyph glyph-name="hyphen.numerator" horiz-adv-x="536" 
d="M72 858v82h389v-82h-389z" />
    <glyph glyph-name="hypheninferior" horiz-adv-x="512" 
d="M70 176v76h370v-76h-370z" />
    <glyph glyph-name="Lacute.small" horiz-adv-x="847" 
d="M168 0v1137h135v-1004h504v-133h-639zM254 1249l-66 64l261 241l86 -73z" />
    <glyph glyph-name="hyphensuperior" horiz-adv-x="512" 
d="M70 995v76h370v-76h-370z" />
    <glyph glyph-name="Yacutesmall" horiz-adv-x="968" 
d="M774 1149l152 -23l-369 -667v-459h-137v457l-373 669l143 23l295 -524zM377 1249l-66 64l260 241l86 -73z" />
    <glyph glyph-name="ibreve" horiz-adv-x="466" 
d="M303 0h-139v963h139v-963zM41 1294h88q0 -49 30.5 -80.5t76.5 -31.5q42 0 73 32t31 80h86q0 -99 -55.5 -154t-134.5 -55q-85 0 -140 57t-55 152z" />
    <glyph glyph-name="Ycircumflex.small" horiz-adv-x="968" 
d="M774 1149l152 -23l-371 -671v-455h-135v457l-373 669l143 23l295 -524zM227 1348l265 204l247 -209l-86 -61l-170 143l-178 -141z" />
    <glyph glyph-name="Eng.small" horiz-adv-x="1130" 
d="M846 2l-555 870v-872h-135v1137h135l547 -871l2 871h137v-1076q0 -174 -60 -270.5t-204 -120.5l-35 127q45 10 79 32.5t52.5 52t27 59.5t9.5 61z" />
    <glyph glyph-name="Lcaron.small" horiz-adv-x="847" 
d="M168 0v1137h135v-1004h504v-133h-639zM467 1030q0 45 30.5 75t71.5 30q46 0 75.5 -33.5t29.5 -77.5q0 -140 -111 -291l-76 41q50 92 54 166q-31 4 -52.5 32.5t-21.5 57.5z" />
    <glyph glyph-name="Ydieresissmall" horiz-adv-x="968" 
d="M774 1149l152 -23l-369 -667v-459h-137v457l-373 669l143 23l295 -524zM592 1366q0 40 26.5 67t61.5 27q41 0 66.5 -26.5t25.5 -67.5q0 -36 -26 -63t-66 -27q-34 0 -61 27.5t-27 62.5zM199 1366q0 40 26.5 67t61.5 27q41 0 66.5 -26.5t25.5 -67.5q0 -36 -26 -63t-66 -27
q-34 0 -61 27.5t-27 62.5z" />
    <glyph glyph-name="Ccaron.small" horiz-adv-x="950" 
d="M569 -4q-234 0 -338 137t-104 436q0 156 29 268t85.5 178.5t133 97t178.5 30.5q88 0 146 -19t126 -61l-55 -127q-94 63 -217 63q-139 0 -208 -100.5t-69 -329.5q0 -226 65 -327t228 -101q78 0 127 17t103 57l55 -125q-55 -48 -120 -71t-165 -23zM788 1466l-264 -204
l-245 208l83 62l170 -143l181 141z" />
    <glyph glyph-name="Ygrave.small" horiz-adv-x="968" 
d="M774 1149l152 -23l-371 -671v-455h-135v457l-373 669l143 23l295 -524zM649 1311l-71 -62l-259 248l97 66z" />
    <glyph glyph-name="isuperior" horiz-adv-x="335" 
d="M213 778h-92v473l92 11v-484zM113 1380q0 24 17 40t40 16q26 0 42.5 -15.5t16.5 -40.5q0 -22 -16.5 -37.5t-42.5 -15.5q-22 0 -39.5 16t-17.5 37z" />
    <glyph glyph-name="Ysmall" horiz-adv-x="960" 
d="M768 1149l152 -23l-369 -667v-459h-137v457l-373 669l143 23l295 -524z" />
    <glyph glyph-name="Lcommaaccent.small" horiz-adv-x="847" 
d="M168 0v1137h135v-1004h504v-133h-639zM377 -424l39 301l119 10l-72 -327z" />
    <glyph glyph-name="Zacute.small" horiz-adv-x="995" 
d="M152 993l-13 144h733v-144l-602 -854h637v-139h-794l-17 139l604 854h-548zM395 1249l-65 64l260 241l86 -73z" />
    <glyph glyph-name="Eogonek.small" horiz-adv-x="923" 
d="M154 0v1137h669v-136h-532v-352h438v-135h-438v-387h538v-125l2 -2q-71 -54 -71 -113t80 -59v-94q-111 0 -158 38.5t-47 98.5q0 70 47 129h-528z" />
    <glyph glyph-name="Ldot.small" horiz-adv-x="847" 
d="M168 0v1137h135v-1004h504v-133h-639zM479 592q0 36 24.5 59t57.5 23q37 0 59.5 -22.5t22.5 -59.5q0 -32 -23.5 -57t-58.5 -25q-32 0 -57 25.5t-25 56.5z" />
    <glyph glyph-name="Zcaronsmall" horiz-adv-x="995" 
d="M152 993l-13 144h735v-144l-602 -854h635v-139h-794l-17 139l604 854h-548zM756 1466l-264 -204l-246 208l84 62l170 -143l180 141z" />
    <glyph glyph-name="Zdotaccent.small" horiz-adv-x="995" 
d="M152 993l-13 144h733v-144l-602 -854h637v-139h-794l-17 139l604 854h-548zM406 1386q0 40 28 67.5t68 27.5q39 0 66.5 -27t27.5 -68q0 -39 -27.5 -66.5t-66.5 -27.5q-40 0 -68 26.5t-28 67.5z" />
    <glyph glyph-name="lsuperior" horiz-adv-x="313" 
d="M205 778h-92v707l92 12v-719z" />
    <glyph glyph-name="Lslashsmall" horiz-adv-x="847" 
d="M63 473v115h105v549h135v-549h240v-115h-240v-340h504v-133h-639v473h-105z" />
    <glyph glyph-name="Zsmall" horiz-adv-x="974" 
d="M137 993l-12 144h735v-144l-602 -854h635v-139h-795l-16 139l604 854h-549z" />
    <glyph glyph-name="msuperior" horiz-adv-x="919" 
d="M299 1174l-100 -72v-324h-90v477l90 11v-72l80 57q15 9 47 9q114 0 159 -72l95 63q12 9 32 9q112 0 161.5 -42t49.5 -159v-281h-92v283q0 65 -31 89t-102 24l-88 -54q4 -36 4 -57v-285h-90v277q0 69 -33.5 94t-91.5 25z" />
    <glyph glyph-name="Lsmall" horiz-adv-x="854" 
d="M172 0v1137h135v-1004h504v-133h-639z" />
    <glyph glyph-name="nine.denominator" horiz-adv-x="669" 
d="M311 88q53 0 88.5 21t53.5 60.5t25 81.5t9 99l-122 -53q-12 -6 -37 -6q-116 0 -179 64t-63 180q0 111 62.5 178t183.5 67q131 0 189.5 -85t58.5 -285q0 -56 -3.5 -101t-12.5 -94t-27.5 -85.5t-46 -67t-69.5 -46.5t-97 -16q-79 0 -136 16.5t-84 38.5l31 76q69 -43 176 -43
zM182 526q0 -63 40.5 -106t115.5 -43l151 55q-3 133 -41 192.5t-114 59.5q-72 0 -112 -45.5t-40 -112.5z" />
    <glyph glyph-name="nine.numerator" horiz-adv-x="669" 
d="M311 702q53 0 88.5 21t53.5 61t25 82t9 99l-122 -54q-12 -6 -37 -6q-116 0 -179 64t-63 180q0 111 62.5 178.5t183.5 67.5q131 0 189.5 -85.5t58.5 -285.5q0 -56 -3.5 -101t-12.5 -94t-27.5 -85.5t-46 -67t-69.5 -46.5t-97 -16q-79 0 -135.5 17t-84.5 39l31 75
q69 -43 176 -43zM182 1141q0 -63 40.5 -106.5t115.5 -43.5l151 56q-3 133 -41 192t-114 59q-72 0 -112 -45t-40 -112z" />
    <glyph glyph-name="Ccedillasmall" horiz-adv-x="950" 
d="M561 -367q-141 0 -211 54l31 80q95 -39 164 -39q42 0 77 13t35 40q0 25 -21 37.5t-63 23.5q-51 10 -68.5 43t-19.5 115q-190 23 -274 160t-84 409q0 156 29 268t85.5 178.5t133 97t178.5 30.5q88 0 146 -19t126 -61l-55 -127q-94 63 -217 63q-139 0 -208 -100.5
t-69 -329.5q0 -226 65 -327t228 -101q78 0 127 17t103 57l55 -125q-51 -45 -110 -68t-146 -26q3 -44 14.5 -64.5t38.5 -27.5q53 -16 80 -46t27 -85q0 -64 -58.5 -102t-138.5 -38z" />
    <glyph glyph-name="Esmall" horiz-adv-x="944" 
d="M172 0v1137h670v-136h-535v-352h438v-135h-438v-387h539v-127h-674z" />
    <glyph glyph-name="Msmall" horiz-adv-x="1363" 
d="M1024 852l-301 -659h-90l-295 653l-62 -846h-137l94 1137h107l338 -758l342 758h110l95 -1137h-138z" />
    <glyph glyph-name="Nacute.small" horiz-adv-x="1130" 
d="M289 879v-879h-135v1137h135l551 -875v875h137v-1137h-137zM459 1249l-66 64l260 241l86 -73z" />
    <glyph glyph-name="one.denominator" horiz-adv-x="514" 
d="M387 0h-106v614l-166 -143l-58 76l242 244l88 -15v-776z" />
    <glyph glyph-name="one.numerator" horiz-adv-x="514" 
d="M387 614h-106v615l-166 -144l-58 76l242 244l88 -14v-777z" />
    <glyph glyph-name="Ncaron.small" horiz-adv-x="1130" 
d="M289 879v-879h-135v1137h135l551 -875v875h137v-1137h-137zM819 1466l-264 -204l-246 208l84 62l170 -143l180 141z" />
    <glyph glyph-name="Ncommaaccent.small" horiz-adv-x="1130" 
d="M289 879v-879h-135v1137h135l551 -875v875h137v-1137h-137zM489 -424l39 301l119 10l-72 -327z" />
    <glyph glyph-name="osuperior" horiz-adv-x="608" 
d="M311 774q-123 0 -175 59t-52 183q0 246 227 246q109 0 160 -61t51 -185q0 -242 -211 -242zM309 1182q-133 0 -133 -166q0 -81 30 -121.5t103 -40.5q123 0 123 162q0 166 -123 166z" />
    <glyph glyph-name="Ethsmall" horiz-adv-x="1052" 
d="M86 487v113h80v535l137 6v-121l115 92q33 25 76 25q211 0 322.5 -143t111.5 -425q0 -105 -15.5 -189.5t-41.5 -143t-66 -102t-82 -69t-96.5 -40.5t-103 -20t-107.5 -5h-250v487h-80zM557 487h-254v-352h96q71 0 124 9t106 36.5t86.5 74.5t54.5 126t21 188q0 425 -308 428
l-180 -127v-270h254v-113z" />
    <glyph glyph-name="Nsmall" horiz-adv-x="1138" 
d="M293 879v-879h-135v1137h135l551 -875v875h137v-1137h-137z" />
    <glyph glyph-name="parenleft.cap" horiz-adv-x="514" 
d="M434 -102l-82 -91q-130 167 -200 382.5t-70 525.5q0 324 75.5 551t200.5 348l80 -94q-100 -112 -158.5 -317t-58.5 -482t56 -474.5t157 -348.5z" />
    <glyph glyph-name="parenleft.denominator" horiz-adv-x="364" 
d="M299 -51l-55 -60q-83 96 -128.5 216.5t-45.5 295.5q0 182 48.5 309.5t127.5 196.5l55 -63q-133 -140 -133 -438q0 -285 131 -457z" />
    <glyph glyph-name="parenleft.numerator" horiz-adv-x="364" 
d="M299 563l-55 -59q-83 96 -128.5 216.5t-45.5 295.5q0 182 48.5 309.5t127.5 196.5l55 -64q-133 -140 -133 -438q0 -285 131 -457z" />
    <glyph glyph-name="parenright.denominator" horiz-adv-x="370" 
d="M63 842l58 61q84 -98 129 -218t45 -296q0 -181 -49 -309.5t-129 -196.5l-54 64q134 145 134 440q0 279 -134 455z" />
    <glyph glyph-name="Ntildesmall" horiz-adv-x="1130" 
d="M289 879v-879h-135v1137h135l551 -875v875h137v-1137h-137zM684 1278q-42 0 -118 38t-120 38q-77 0 -145 -56l-45 74q92 74 184 74q42 0 121.5 -39t126.5 -39q46 0 75 11.5t58 35.5l49 -59q-78 -78 -186 -78z" />
    <glyph glyph-name="parenright.numerator" horiz-adv-x="370" 
d="M63 1456l58 62q84 -98 129 -218t45 -296q0 -181 -49 -309.5t-129 -196.5l-54 63q134 145 134 440q0 279 -134 455z" />
    <glyph glyph-name="period.denominator" horiz-adv-x="264" 
d="M70 57q0 27 17.5 44.5t41.5 17.5q28 0 44.5 -17t16.5 -45q0 -23 -17 -40t-44 -17q-23 0 -41 17.5t-18 39.5z" />
    <glyph glyph-name="AEacute.small" horiz-adv-x="1484" 
d="M719 0v301h-414l-102 -301h-137l399 1137h924v-136h-531v-348h436v-133h-436v-393h537v-127h-676zM545 1001l-197 -575h371v575h-174zM743 1249l-65 64l260 241l86 -73z" />
    <glyph glyph-name="Abreve.small" horiz-adv-x="1026" 
d="M985 0h-147l-88 229h-494l-78 -229h-139l399 1137h97zM492 913l-193 -559h403zM297 1466h88q0 -49 30.5 -80.5t76.5 -31.5q42 0 73 32t31 80h86q0 -99 -55.5 -154t-134.5 -55q-85 0 -140 57t-55 152z" />
    <glyph glyph-name="Amacron.small" horiz-adv-x="1026" 
d="M985 0h-147l-88 229h-494l-78 -229h-139l399 1137h97zM492 913l-193 -559h403zM807 1313h-631v102h631v-102z" />
    <glyph glyph-name="period.numerator" horiz-adv-x="264" 
d="M70 672q0 27 17.5 44t41.5 17q28 0 44.5 -16.5t16.5 -44.5q0 -23 -17 -40.5t-44 -17.5q-23 0 -41 18t-18 40z" />
    <glyph glyph-name="periodcentered.cap" horiz-adv-x="366" 
d="M88 729q0 40 27 67t63 27q41 0 66.5 -26.5t25.5 -67.5q0 -36 -26 -63t-66 -27q-35 0 -62.5 27.5t-27.5 62.5z" />
    <glyph glyph-name="periodinferior" horiz-adv-x="251" 
d="M68 12q0 23 17 39.5t40 16.5q26 0 41.5 -16t15.5 -40q0 -21 -16 -37t-41 -16q-23 0 -40 16t-17 37z" />
    <glyph glyph-name="Ccircumflex.small" horiz-adv-x="950" 
d="M569 -4q-234 0 -338 137t-104 436q0 156 29 268t85.5 178.5t133 97t178.5 30.5q88 0 146 -19t126 -61l-55 -127q-94 63 -217 63q-139 0 -208 -100.5t-69 -329.5q0 -226 65 -327t228 -101q78 0 127 17t103 57l55 -125q-55 -48 -120 -71t-165 -23zM279 1348l264 204
l248 -209l-86 -61l-170 143l-179 -141z" />
    <glyph glyph-name="parenright.cap" horiz-adv-x="522" 
d="M78 1516l82 90q130 -167 200 -382.5t70 -525.5q0 -324 -75.5 -550.5t-198.5 -348.5l-82 95q100 112 158.5 316.5t58.5 481.5t-56 475t-157 349z" />
    <glyph glyph-name="periodsuperior" horiz-adv-x="251" 
d="M68 831q0 23 17 39.5t40 16.5q26 0 41.5 -16t15.5 -40q0 -21 -16 -37t-41 -16q-23 0 -40 16t-17 37z" />
    <glyph glyph-name="Fsmall" horiz-adv-x="907" 
d="M172 0v1137h639v-136h-504v-387h391v-137h-391v-477h-135z" />
    <glyph glyph-name="OEsmall" horiz-adv-x="1515" 
d="M541 -6q-203 0 -310.5 143t-107.5 432q0 275 109 424.5t309 149.5q35 0 73 -6h785v-136h-568q94 -126 109 -348h365v-133h-365q-9 -264 -109 -393h574v-127h-789q-38 -6 -75 -6zM541 1008q-135 0 -206 -113.5t-71 -325.5q0 -440 277 -440q129 0 195.5 111.5t66.5 328.5
q0 214 -67 326.5t-195 112.5z" />
    <glyph glyph-name="questiondown.cap" horiz-adv-x="940" 
d="M512 1118l117 19q35 -112 35 -187q0 -65 -18 -117.5t-52.5 -90t-70.5 -63.5t-85 -50q-103 -55 -155 -112.5t-52 -139.5q0 -126 64 -185t207 -59q79 0 160 36.5t139 98.5l67 -114q-66 -74 -161 -116t-203 -42q-216 0 -312 91.5t-96 279.5q0 66 18 119.5t53 94t73.5 69.5
t93.5 59q48 27 79.5 49.5t62.5 54.5t46 72.5t15 89.5q0 62 -25 143zM627 1339q0 -40 -27 -67t-65 -27q-40 0 -66.5 26.5t-26.5 67.5q0 36 27 64.5t66 28.5q36 0 64 -28.5t28 -64.5z" />
    <glyph glyph-name="questiondownsmall" horiz-adv-x="811" 
d="M430 500l111 16q28 -86 28 -156q0 -165 -184 -247q-78 -38 -118 -81.5t-40 -105.5q0 -90 48.5 -132t156.5 -42q62 0 126.5 27t111.5 74l63 -107q-117 -123 -299 -123q-178 0 -257 72.5t-79 222.5q0 102 50.5 163.5t144.5 106.5q76 41 116 85.5t40 113.5q0 54 -19 113z
M541 680q0 -36 -25.5 -61t-58.5 -25q-38 0 -61 24.5t-23 61.5q0 33 23.5 58.5t60.5 25.5q32 0 58 -26.5t26 -57.5z" />
    <glyph glyph-name="Cdotaccent.small" horiz-adv-x="950" 
d="M569 -4q-234 0 -338 137t-104 436q0 156 29 268t85.5 178.5t133 97t178.5 30.5q88 0 146 -19t126 -61l-55 -127q-94 63 -217 63q-139 0 -208 -100.5t-69 -329.5q0 -226 65 -327t228 -101q78 0 127 17t103 57l55 -125q-55 -48 -120 -71t-165 -23zM440 1386q0 40 28.5 67.5
t68.5 27.5q39 0 66.5 -27t27.5 -68q0 -39 -27.5 -66.5t-66.5 -27.5q-40 0 -68.5 26.5t-28.5 67.5z" />
    <glyph glyph-name="Oacutesmall" horiz-adv-x="1071" 
d="M541 -6q-203 0 -310.5 143t-107.5 432q0 275 109 424.5t309 149.5q192 0 296.5 -149t104.5 -425q0 -281 -100.5 -428t-300.5 -147zM541 1008q-135 0 -206 -113.5t-71 -325.5q0 -440 277 -440q129 0 195.5 111.5t66.5 328.5q0 214 -67 326.5t-195 112.5zM428 1249l-66 64
l261 241l86 -73z" />
    <glyph glyph-name="questionsmall" horiz-adv-x="811" 
d="M393 262l-110 -16q-2 6 -7.5 25t-8 29.5t-6.5 27.5t-5.5 34.5t-1.5 36.5q0 168 184 250q77 39 117.5 82.5t40.5 104.5q0 90 -48.5 132t-156.5 42q-62 0 -126 -27t-111 -74l-64 109q118 121 299 121q178 0 258 -73t80 -222q0 -101 -50 -162.5t-145 -110.5
q-77 -38 -117 -82.5t-40 -113.5q0 -57 18 -113zM285 82q0 37 24.5 61.5t57.5 24.5q37 0 61.5 -24t24.5 -62q0 -32 -25 -57t-61 -25q-32 0 -57 25.5t-25 56.5z" />
    <glyph glyph-name="Obreve.small" horiz-adv-x="1071" 
d="M541 -6q-203 0 -310.5 143t-107.5 432q0 275 109 424.5t309 149.5q192 0 296.5 -149t104.5 -425q0 -281 -100.5 -428t-300.5 -147zM541 1008q-135 0 -206 -113.5t-71 -325.5q0 -440 277 -440q129 0 195.5 111.5t66.5 328.5q0 214 -67 326.5t-195 112.5zM342 1466h88
q0 -49 30.5 -80.5t76.5 -31.5q42 0 73 32t31 80h86q0 -99 -55.5 -154t-134.5 -55q-85 0 -140 57t-55 152z" />
    <glyph glyph-name="Ocircumflexsmall" horiz-adv-x="1071" 
d="M541 -6q-203 0 -310.5 143t-107.5 432q0 275 109 424.5t309 149.5q192 0 296.5 -149t104.5 -425q0 -281 -100.5 -428t-300.5 -147zM541 1008q-135 0 -206 -113.5t-71 -325.5q0 -440 277 -440q129 0 195.5 111.5t66.5 328.5q0 214 -67 326.5t-195 112.5zM281 1348l264 204
l248 -209l-86 -61l-170 143l-179 -141z" />
    <glyph glyph-name="rsuperior" horiz-adv-x="456" 
d="M199 1266v-66l75 53q11 7 27 7q60 0 123 -29l-31 -80q-55 23 -108 23l-86 -56v-340h-93v477z" />
    <glyph glyph-name="Odieresissmall" horiz-adv-x="1071" 
d="M541 -6q-203 0 -310.5 143t-107.5 432q0 275 109 424.5t309 149.5q192 0 296.5 -149t104.5 -425q0 -281 -100.5 -428t-300.5 -147zM541 1008q-135 0 -206 -113.5t-71 -325.5q0 -440 277 -440q129 0 195.5 111.5t66.5 328.5q0 214 -67 326.5t-195 112.5zM250 1366
q0 40 26.5 67t61.5 27q41 0 66.5 -26.5t25.5 -67.5q0 -36 -26 -63t-66 -27q-34 0 -61 27.5t-27 62.5zM643 1366q0 40 26.5 67t61.5 27q41 0 66.5 -26.5t25.5 -67.5q0 -36 -26 -63t-66 -27q-34 0 -61 27.5t-27 62.5z" />
    <glyph glyph-name="seven.denominator" horiz-adv-x="618" 
d="M66 682l-11 102h496v-102l-266 -686l-107 8l262 678h-374z" />
    <glyph glyph-name="seven.numerator" horiz-adv-x="618" 
d="M66 1296l-11 103h496v-103l-266 -686l-107 8l262 678h-374z" />
    <glyph glyph-name="Csmall" horiz-adv-x="960" 
d="M580 -4q-236 0 -339.5 137t-103.5 436q0 156 29 268t85.5 178.5t133 97t178.5 30.5q88 0 146.5 -19t126.5 -61l-56 -127q-94 63 -217 63q-139 0 -207.5 -100.5t-68.5 -329.5q0 -226 65 -327t228 -101q78 0 126.5 16.5t102.5 57.5l55 -125q-55 -48 -119.5 -71t-164.5 -23z
" />
    <glyph glyph-name="Ogravesmall" horiz-adv-x="1071" 
d="M541 -6q-203 0 -310.5 143t-107.5 432q0 275 109 424.5t309 149.5q192 0 296.5 -149t104.5 -425q0 -281 -100.5 -428t-300.5 -147zM541 1008q-135 0 -206 -113.5t-71 -325.5q0 -440 277 -440q129 0 195.5 111.5t66.5 328.5q0 214 -67 326.5t-195 112.5zM702 1311l-71 -62
l-258 248l96 66z" />
    <glyph glyph-name="six.denominator" horiz-adv-x="686" 
d="M172 436l119 51q26 11 51 11q60 0 105.5 -11t82.5 -37t56.5 -73t19.5 -115q0 -132 -68.5 -197t-197.5 -65q-128 0 -196 93.5t-68 301.5q0 193 72 297.5t210 104.5q119 0 197 -54l-20 -75q-66 39 -173 39q-177 0 -190 -271zM344 96q83 0 125.5 45t42.5 125
q0 85 -46.5 118.5t-137.5 33.5l-156 -62q4 -137 47 -198.5t125 -61.5z" />
    <glyph glyph-name="six.numerator" horiz-adv-x="686" 
d="M172 1051l119 51q23 10 51 10q60 0 105.5 -11t82.5 -36.5t56.5 -72.5t19.5 -115q0 -132 -68.5 -197.5t-197.5 -65.5q-128 0 -196 94t-68 302q0 192 72 296.5t210 104.5q120 0 197 -53l-20 -76q-66 39 -173 39q-177 0 -190 -270zM344 711q83 0 125.5 45t42.5 125
q0 85 -46.5 118t-137.5 33l-156 -61q4 -137 47 -198.5t125 -61.5z" />
    <glyph glyph-name="Gcircumflex.small" horiz-adv-x="1038" 
d="M508 500v116h387v-616l-113 -4v137l-170 -127q-23 -10 -53 -10q-221 0 -327.5 139t-106.5 434q0 306 108 440t316 134q182 0 311 -82l-55 -127q-94 65 -252 65q-142 0 -212.5 -100.5t-70.5 -327.5q0 -223 75.5 -326.5t244.5 -103.5l192 135v224h-274zM297 1348l264 204
l248 -209l-86 -61l-170 143l-178 -141z" />
    <glyph glyph-name="Ohungarumlaut.small" horiz-adv-x="1071" 
d="M541 -6q-203 0 -310.5 143t-107.5 432q0 275 109 424.5t309 149.5q192 0 296.5 -149t104.5 -425q0 -281 -100.5 -428t-300.5 -147zM541 1008q-135 0 -206 -113.5t-71 -325.5q0 -440 277 -440q129 0 195.5 111.5t66.5 328.5q0 214 -67 326.5t-195 112.5zM879 1464
l-248 -207l-62 66l236 215zM526 1464l-247 -207l-60 66l234 215z" />
    <glyph glyph-name="ssuperior" horiz-adv-x="552" 
d="M274 776q-125 0 -200 43l24 68q61 -33 174 -33q136 -3 136 61q0 11 -3 19t-10.5 14.5t-15 10.5t-23 8.5t-27 7t-33 7.5t-36.5 9q-89 19 -128.5 49t-39.5 95t50 96t130 31q107 0 177 -41l-25 -68q-56 29 -152 29q-108 0 -108 -54q0 -28 30.5 -42t106.5 -27
q101 -21 140.5 -48t39.5 -96q0 -72 -50.5 -105.5t-156.5 -33.5z" />
    <glyph glyph-name="Aogonek.small" horiz-adv-x="1026" 
d="M1001 -225v-103q-125 0 -179 45.5t-54 116.5q0 91 68 172l-86 223h-494l-78 -229h-139l399 1137h97l444 -1123l12 -14q-37 -29 -64.5 -69t-27.5 -81q0 -75 102 -75zM492 913l-193 -559h403z" />
    <glyph glyph-name="Omacron.small" horiz-adv-x="1071" 
d="M541 -6q-203 0 -310.5 143t-107.5 432q0 275 109 424.5t309 149.5q192 0 296.5 -149t104.5 -425q0 -281 -100.5 -428t-300.5 -147zM541 1008q-135 0 -206 -113.5t-71 -325.5q0 -440 277 -440q129 0 195.5 111.5t66.5 328.5q0 214 -67 326.5t-195 112.5zM856 1313h-631
v102h631v-102z" />
    <glyph glyph-name="three.denominator" horiz-adv-x="667" 
d="M242 453q12 4 51 4q45 0 82 -6l45 110q0 71 -30 96t-111 25q-88 0 -156 -35l-29 92q75 45 211 45q118 0 167.5 -44t49.5 -138q0 -41 -16 -78l-49 -94q114 -46 114 -182q0 -122 -65.5 -185t-183.5 -63q-179 0 -254 68l30 90q73 -56 207 -56q75 0 119.5 39t44.5 113
q0 76 -57 102.5t-164 26.5z" />
    <glyph glyph-name="three.numerator" horiz-adv-x="667" 
d="M242 1067q12 4 51 4q45 0 82 -6l45 111q0 71 -30 95.5t-111 24.5q-90 0 -156 -34l-29 92q75 45 211 45q118 0 167.5 -44t49.5 -138q0 -41 -16 -78l-49 -95q114 -46 114 -182q0 -122 -65.5 -185t-183.5 -63q-179 0 -254 68l30 90q71 -55 207 -55q75 0 119.5 38.5
t44.5 112.5q0 76 -57 102.5t-164 26.5z" />
    <glyph glyph-name="Gcommaaccent.small" horiz-adv-x="1038" 
d="M508 500v116h387v-616l-113 -4v137l-170 -127q-23 -10 -53 -10q-221 0 -327.5 139t-106.5 434q0 306 108 440t316 134q182 0 311 -82l-55 -127q-94 65 -252 65q-142 0 -212.5 -100.5t-70.5 -327.5q0 -223 75.5 -326.5t244.5 -103.5l192 135v224h-274zM471 -424l39 301
l119 10l-72 -327z" />
    <glyph glyph-name="tsuperior" horiz-adv-x="442" 
d="M82 1171v89h55v122l92 13v-135h146v-89h-146v-190q0 -61 28 -88t71 -27h39v-88h-64q-80 0 -123 48.5t-43 140.5v204h-55z" />
    <glyph glyph-name="two.denominator" horiz-adv-x="653" 
d="M72 0v98q199 149 294 248.5t95 181.5q0 67 -40 107.5t-114 40.5q-104 0 -190 -72l-43 84q23 19 40 30.5t49 28t73.5 25t91.5 8.5q114 0 175.5 -67t61.5 -178q0 -59 -21.5 -111.5t-74.5 -109t-92 -91t-124 -102.5q-17 -14 -26 -21l373 2l-6 -102h-522z" />
    <glyph glyph-name="two.numerator" horiz-adv-x="653" 
d="M72 614v99q199 149 294 248.5t95 181.5q0 67 -40 107t-114 40q-105 0 -190 -71l-43 84q23 19 40 30.5t49 28t73.5 25t91.5 8.5q114 0 175.5 -67.5t61.5 -178.5q0 -47 -17 -93t-42.5 -82.5t-69.5 -80t-82.5 -76t-97.5 -79.5q-19 -15 -29 -23l373 2l-6 -103h-522z" />
    <glyph glyph-name="Gdotaccent.small" horiz-adv-x="1038" 
d="M508 500v116h387v-616l-113 -4v137l-170 -127q-23 -10 -53 -10q-221 0 -327.5 139t-106.5 434q0 306 108 440t316 134q182 0 311 -82l-55 -127q-94 65 -252 65q-142 0 -212.5 -100.5t-70.5 -327.5q0 -223 75.5 -326.5t244.5 -103.5l192 135v224h-274zM457 1386
q0 40 28 67.5t68 27.5q39 0 66.5 -27t27.5 -68q0 -39 -27.5 -66.5t-66.5 -27.5q-40 0 -68 26.5t-28 67.5z" />
    <glyph glyph-name="Oslashacute.small" horiz-adv-x="1071" 
d="M426 -145l-123 30l37 154q-217 120 -217 530q0 275 109 424.5t309 149.5q42 0 94 -10l33 133l127 -29l-41 -158q188 -137 188 -510q0 -281 -100.5 -428t-300.5 -147q-41 0 -78 6zM541 1008q-135 0 -206 -113.5t-71 -325.5q0 -440 277 -440q129 0 195.5 111.5t66.5 328.5
q0 214 -67 326.5t-195 112.5zM428 1249l-66 64l261 241l86 -73z" />
    <glyph glyph-name="Dcaron.small" horiz-adv-x="1046" 
d="M154 0v1135l137 6v-144l119 115q29 25 71 25q211 0 322.5 -143t111.5 -425q0 -105 -15.5 -189.5t-41.5 -143t-66 -102t-82 -69t-96.5 -40.5t-103 -20t-107.5 -5h-249zM471 997l-180 -127v-735h96q49 0 89 4.5t81.5 16.5t73 32t60.5 53.5t47 78.5t29 108t11 141
q0 425 -307 428zM762 1466l-264 -204l-246 208l84 62l170 -143l180 141z" />
    <glyph glyph-name="Gsmall" horiz-adv-x="1058" 
d="M518 500v116h385v-616l-110 -4v137l-170 -127q-23 -10 -54 -10q-221 0 -328.5 139.5t-107.5 433.5q0 156 29 268t85.5 178.5t133 97t178.5 30.5q182 0 311 -82l-55 -127q-94 65 -252 65q-142 0 -212 -100.5t-70 -327.5q0 -223 75 -326.5t244 -103.5l193 135v224h-275z
" />
    <glyph glyph-name="Oslashsmall" horiz-adv-x="1054" 
d="M428 -145l-125 30l35 148q-229 115 -229 536q0 275 108.5 424.5t308.5 149.5q58 0 107 -15l35 138l127 -29l-43 -168q176 -140 176 -500q0 -281 -100.5 -428t-301.5 -147q-23 0 -63 4zM526 1008q-134 0 -205 -113.5t-71 -325.5q0 -440 276 -440q129 0 195.5 111.5
t66.5 328.5q0 214 -67 326.5t-195 112.5z" />
    <glyph glyph-name="Osmall" horiz-adv-x="1095" 
d="M555 -6q-203 0 -310.5 143t-107.5 432q0 275 109 424.5t309 149.5q192 0 296.5 -149t104.5 -425q0 -281 -100.5 -428t-300.5 -147zM555 1008q-134 0 -205 -113.5t-71 -325.5q0 -440 276 -440q129 0 195.5 111.5t66.5 328.5q0 214 -67 326.5t-195 112.5z" />
    <glyph glyph-name="Otildesmall" horiz-adv-x="1071" 
d="M541 -6q-203 0 -310.5 143t-107.5 432q0 275 109 424.5t309 149.5q192 0 296.5 -149t104.5 -425q0 -281 -100.5 -428t-300.5 -147zM541 1008q-135 0 -206 -113.5t-71 -325.5q0 -440 277 -440q129 0 195.5 111.5t66.5 328.5q0 214 -67 326.5t-195 112.5zM659 1278
q-41 0 -116.5 38t-120.5 38q-38 0 -78 -16.5t-68 -39.5l-45 74q36 29 86.5 51.5t98.5 22.5q42 0 121.5 -39t126.5 -39q46 0 75 11.5t58 35.5l49 -59q-78 -78 -187 -78z" />
    <glyph glyph-name="Hbar.small" horiz-adv-x="1071" 
d="M168 0v860h-135v82h135v195h135v-195h461v195h137v-195h125v-82h-125v-860h-137v520h-461v-520h-135zM303 860v-205h461v205h-461z" />
    <glyph glyph-name="zero.denominator" horiz-adv-x="710" 
d="M356 0q-268 0 -268 377q0 200 63.5 303.5t204.5 103.5t199.5 -102t58.5 -305q0 -377 -258 -377zM354 682q-84 0 -121.5 -75t-37.5 -226q0 -138 37 -207.5t120 -69.5q78 0 117 73t39 206q0 152 -36 225.5t-118 73.5z" />
    <glyph glyph-name="zero.numerator" horiz-adv-x="710" 
d="M356 614q-268 0 -268 377q0 200 63.5 304t204.5 104t199.5 -102.5t58.5 -305.5q0 -377 -258 -377zM354 1296q-84 0 -121.5 -75t-37.5 -226q0 -138 37 -207t120 -69q78 0 117 72.5t39 205.5q0 152 -36 225.5t-118 73.5z" />
    <glyph glyph-name="AEsmall" horiz-adv-x="1484" 
d="M719 0v301h-414l-102 -301h-137l399 1137h924v-136h-531v-348h436v-133h-436v-393h537v-127h-676zM545 1001l-197 -575h371v575h-174z" />
    <glyph glyph-name="Acircumflexsmall" horiz-adv-x="1026" 
d="M985 0h-147l-88 229h-494l-78 -229h-139l399 1137h97zM492 913l-193 -559h403zM233 1348l265 204l247 -209l-86 -61l-170 143l-178 -141z" />
    <glyph glyph-name="Aringsmall" horiz-adv-x="1026" 
d="M985 0h-147l-88 229h-494l-78 -229h-139l399 1137h97zM492 913l-193 -559h403zM492 1243q-69 0 -115.5 47.5t-46.5 118.5q0 68 47 116t115 48q63 0 111 -49t48 -115q0 -69 -47.5 -117.5t-111.5 -48.5zM399 1409q0 -39 27.5 -66.5t65.5 -27.5q39 0 65.5 26.5t26.5 67.5
q0 46 -26.5 69t-65.5 23q-36 0 -64.5 -26.5t-28.5 -65.5z" />
    <glyph glyph-name="Dcroat.small" horiz-adv-x="1052" 
d="M86 487v113h70v535l137 6v-144l119 115q29 25 71 25q211 0 323 -143t112 -425q0 -105 -15.5 -189.5t-41.5 -143t-66 -102t-82 -69t-96.5 -40.5t-103 -20t-107.5 -5h-250v487h-70zM557 487h-264v-352h96q49 0 89 4.5t81.5 16.5t73 32t60.5 53.5t47 78.5t29 108t11 141
q0 425 -307 428l-180 -127v-270h264v-113z" />
    <glyph glyph-name="Psmall" horiz-adv-x="962" 
d="M172 0v1137h135v-140l131 129q18 11 43 11q171 0 270 -86t99 -271q0 -191 -105.5 -297t-285.5 -106h-152v-377h-135zM463 1001l-156 -129v-358h146q127 0 195.5 74t68.5 192q0 117 -64 167.5t-190 53.5z" />
    <glyph glyph-name="Hcircumflex.small" horiz-adv-x="1071" 
d="M764 0v520h-461v-520h-135v1137h135v-482h461v482h137v-1137h-137zM276 1348l265 204l247 -209l-86 -61l-170 143l-178 -141z" />
    <glyph glyph-name="Qsmall" horiz-adv-x="1093" 
d="M549 -6q-200 0 -306 142.5t-106 432.5q0 274 108 424t304 150q191 0 294 -149t103 -425q0 -305 -112 -446l129 -207l-129 -16l-89 145q-77 -51 -196 -51zM549 1008q-134 0 -203.5 -113.5t-69.5 -325.5q0 -440 273 -440q260 0 260 440q0 214 -67 326.5t-193 112.5z" />
    <glyph glyph-name="Hsmall" horiz-adv-x="1077" 
d="M768 0v520h-461v-520h-135v1137h135v-482h461v482h137v-1137h-137z" />
    <glyph glyph-name="Racute.small" horiz-adv-x="987" 
d="M168 0v1137h135v-138l129 129q18 9 41 9q191 0 287 -84t96 -275q0 -245 -188 -327l276 -451h-151l-252 418q-23 -4 -74 -4h-164v-414h-135zM463 1001l-160 -129v-321h152q131 0 198.5 59t67.5 170q0 121 -64.5 169.5t-193.5 51.5zM387 1249l-65 64l260 241l86 -73z" />
    <glyph glyph-name="ampersandsmall" horiz-adv-x="1216" 
d="M102 291q0 53 19.5 101.5t58 92.5t75.5 76.5t91 73.5q-121 138 -121 274q0 97 64.5 157t185.5 60t179.5 -52t58.5 -159q0 -77 -50 -144.5t-141 -143.5l291 -299q78 127 78 276h117q0 -194 -113 -360l33 -33q48 -50 71 -66t52 -16h75v-129h-75q-80 0 -154 80l-74 72
q-145 -152 -338 -152q-196 0 -289.5 68.5t-93.5 222.5zM475 121q147 0 264 117l-311 313q-96 -76 -145.5 -132t-49.5 -116q0 -94 57.5 -138t184.5 -44zM346 901q0 -83 98 -194q76 60 114 105t38 95q0 59 -30.5 89t-100.5 30q-52 0 -85.5 -38.5t-33.5 -86.5z" />
    <glyph glyph-name="Gbreve.small" horiz-adv-x="1038" 
d="M508 500v116h387v-616l-113 -4v137l-170 -127q-23 -10 -53 -10q-221 0 -327.5 139t-106.5 434q0 306 108 440t316 134q182 0 311 -82l-55 -127q-94 65 -252 65q-142 0 -212.5 -100.5t-70.5 -327.5q0 -223 75.5 -326.5t244.5 -103.5l192 135v224h-274zM356 1466h88
q0 -49 30.5 -80.5t76.5 -31.5q42 0 73 32t31 80h86q0 -99 -55.5 -154t-134.5 -55q-85 0 -140 57t-55 152z" />
    <glyph glyph-name="Asmall" horiz-adv-x="1030" 
d="M987 0h-147l-88 229h-494l-78 -229h-139l399 1137h97zM494 913l-193 -559h404z" />
    <glyph glyph-name="Dsmall" horiz-adv-x="1071" 
d="M172 0v1135l135 6v-144l119 115q33 25 74 25q210 0 322 -143.5t112 -424.5q0 -105 -16 -189.5t-42 -143t-66 -102t-82.5 -69t-97 -40.5t-103 -20t-107.5 -5h-248zM487 997l-180 -127v-735h96q71 0 124 9t106 36.5t86.5 74.5t54.5 126t21 188q0 425 -308 428z" />
    <glyph glyph-name="Rcaron.small" horiz-adv-x="987" 
d="M168 0v1137h135v-138l129 129q18 9 41 9q191 0 287 -84t96 -275q0 -245 -188 -327l276 -451h-151l-252 418q-23 -4 -74 -4h-164v-414h-135zM463 1001l-160 -129v-321h152q131 0 198.5 59t67.5 170q0 121 -64.5 169.5t-193.5 51.5zM752 1466l-265 -204l-245 208l84 62
l170 -143l180 141z" />
    <glyph glyph-name="asuperior" horiz-adv-x="606" 
d="M420 778v43q-99 -43 -174 -43q-89 0 -130.5 39t-41.5 119q0 81 44.5 111t149.5 30q15 0 31 -4l121 -39v23q0 70 -33.5 101.5t-103.5 31.5q-54 0 -109 -19l-24 56q59 33 151 33q107 0 159 -53t52 -163v-266h-92zM262 850q61 0 158 37v90l-144 43q-65 0 -92.5 -17
t-27.5 -65q0 -53 28 -70.5t78 -17.5z" />
    <glyph glyph-name="IJ.small" horiz-adv-x="929" 
d="M168 0v1137h135v-1137h-135zM582 -330l-35 127q93 21 127.5 84.5t34.5 179.5v1076h135v-1076q0 -174 -60 -270.5t-202 -120.5z" />
    <glyph glyph-name="Rcommaaccent.small" horiz-adv-x="987" 
d="M168 0v1137h135v-138l129 129q18 9 41 9q191 0 287 -84t96 -275q0 -245 -188 -327l276 -451h-151l-252 418q-23 -4 -74 -4h-164v-414h-135zM463 1001l-160 -129v-321h152q131 0 198.5 59t67.5 170q0 121 -64.5 169.5t-193.5 51.5zM422 -424l39 301l119 10l-72 -327z" />
    <glyph glyph-name="at.cap" horiz-adv-x="1679" 
d="M1073 244v80q-176 -80 -295 -80q-140 0 -206 68t-66 208q0 147 73 205.5t246 58.5q35 0 54 -8l194 -90v45q0 137 -56.5 198.5t-172.5 61.5q-88 0 -154 -30l-39 88q76 49 226 49q164 0 243.5 -93t79.5 -294v-389h150q110 168 110 342q0 165 -82 305.5t-223.5 222.5
t-308.5 82q-165 0 -305 -82t-221.5 -222.5t-81.5 -305.5q0 -133 48 -244.5t130 -186.5t193 -117t237 -42q271 0 393 61l39 -86q-68 -35 -181 -59.5t-251 -24.5q-199 0 -362 86.5t-259 247.5t-96 365q0 196 95.5 361.5t260.5 261t361 95.5q148 0 282 -56.5t230 -152.5
t152.5 -229t56.5 -280q0 -122 -42.5 -232t-107.5 -188h-344zM807 350q110 0 266 78v160l-231 98q-124 0 -169.5 -33.5t-45.5 -128.5q0 -101 48 -137.5t132 -36.5z" />
    <glyph glyph-name="Rsmall" horiz-adv-x="991" 
d="M172 0v1137h135v-138l129 129q18 9 41 9q191 0 287 -84t96 -275q0 -245 -188 -327l276 -451h-151l-252 418q-23 -4 -74 -4h-164v-414h-135zM467 1001l-160 -129v-321h152q131 0 198.5 59t67.5 170q0 121 -64.5 169.5t-193.5 51.5z" />
    <glyph glyph-name="braceleft.cap" horiz-adv-x="466" 
d="M412 -47v-137q-140 0 -192 70.5t-52 226.5v434q0 54 -27.5 80t-72.5 26v97q42 0 71 27.5t29 72.5v532q0 215 246 215v-137q-59 0 -89 -35t-30 -98v-487q0 -52 -23 -95.5t-57 -44.5q35 -3 57.5 -42.5t22.5 -92.5v-491q0 -54 29.5 -86t87.5 -35z" />
    <glyph glyph-name="Iacutesmall" horiz-adv-x="475" 
d="M168 0v1137h135v-1137h-135zM129 1249l-66 64l261 241l86 -73z" />
    <glyph glyph-name="Sacute.small" horiz-adv-x="987" 
d="M481 -4q-250 0 -379 129l52 117q138 -107 325 -107q71 0 126.5 16t94.5 59t39 109q0 83 -66.5 131.5t-217.5 90.5q-162 41 -240 114t-78 209q0 279 344 279q134 0 215 -33t140 -86l-64 -113q-63 41 -128 62.5t-161 21.5q-41 0 -73.5 -5t-65 -18.5t-50.5 -43t-18 -72.5
q0 -75 53.5 -119.5t159.5 -72.5q83 -21 136.5 -39t106.5 -45t83 -60.5t48 -82t18 -111.5q0 -94 -30.5 -160t-87 -102t-125 -52t-157.5 -16zM395 1249l-65 64l260 241l86 -73z" />
    <glyph glyph-name="braceright.cap" horiz-adv-x="471" 
d="M66 1458v137q140 0 191.5 -70.5t51.5 -226.5v-434q0 -54 28 -80t73 -26v-96q-42 0 -71.5 -28t-29.5 -73v-532q0 -215 -246 -215v137q59 0 89 35t30 98v487q0 52 23 94.5t57 45.5q-34 1 -57 41t-23 94v491q0 115 -116 121z" />
    <glyph glyph-name="bracketleft.cap" horiz-adv-x="507" 
d="M90 -184v1781h348v-116h-219v-1553h219v-112h-348z" />
    <glyph glyph-name="Scaronsmall" horiz-adv-x="987" 
d="M481 -4q-250 0 -379 129l52 117q141 -107 325 -107q71 0 127 16t95.5 59t39.5 109q0 82 -67.5 131t-218.5 91q-162 41 -240 114t-78 209q0 279 344 279q227 0 355 -119l-62 -113q-62 41 -128.5 62.5t-162.5 21.5q-41 0 -73.5 -5t-65 -18.5t-50.5 -43t-18 -72.5
q0 -75 53.5 -119.5t159.5 -72.5q83 -21 136.5 -39t106.5 -45t83 -60.5t48 -82t18 -111.5q0 -94 -30.5 -160t-87 -102t-125 -52t-157.5 -16zM756 1466l-264 -204l-246 208l84 62l170 -143l180 141z" />
    <glyph glyph-name="bracketright.cap" horiz-adv-x="491" 
d="M401 1595v-1781h-348v116h219v1553h-219v112h348z" />
    <glyph glyph-name="bsuperior" horiz-adv-x="628" 
d="M106 778v707l93 12v-299l73 55q28 7 35 7q129 0 182.5 -56.5t53.5 -202.5q0 -109 -54.5 -166t-148.5 -57q-82 0 -141 49v-49h-93zM291 1171l-92 -61v-199q55 -49 118 -49q71 0 106.5 39.5t35.5 106.5q0 92 -38 127.5t-130 35.5z" />
    <glyph glyph-name="Ibreve.small" horiz-adv-x="475" 
d="M168 0v1137h135v-1137h-135zM43 1466h88q0 -49 30.5 -80.5t76.5 -31.5q42 0 73 32t31 80h86q0 -99 -55.5 -154t-134.5 -55q-85 0 -140 57t-55 152z" />
    <glyph glyph-name="Scedilla.small" horiz-adv-x="987" 
d="M496 -354q-142 0 -211 53l30 80q95 -39 164 -39q42 0 77.5 13t35.5 40q0 25 -21 38t-63 24q-48 11 -66.5 40.5t-21.5 102.5q-204 13 -318 127l52 117q138 -107 325 -107q71 0 126.5 16t94.5 59t39 109q0 83 -66.5 131.5t-217.5 90.5q-162 41 -240 114t-78 209
q0 279 344 279q134 0 215 -33t140 -86l-64 -113q-63 41 -128 62.5t-161 21.5q-41 0 -73.5 -5t-65 -18.5t-50.5 -43t-18 -72.5q0 -75 53.5 -119.5t159.5 -72.5q83 -21 136.5 -39t106.5 -45t83 -60.5t48 -82t18 -111.5q0 -310 -346 -328q3 -38 14 -56.5t37 -25.5
q53 -16 79.5 -45.5t26.5 -85.5q0 -64 -58 -101.5t-138 -37.5z" />
    <glyph glyph-name="Eacutesmall" horiz-adv-x="923" 
d="M156 0v1137h669v-136h-534v-352h438v-135h-438v-387h538v-127h-673zM383 1249l-66 64l261 241l86 -73z" />
    <glyph glyph-name="Scircumflex.small" horiz-adv-x="987" 
d="M481 -4q-250 0 -379 129l52 117q138 -107 325 -107q71 0 126.5 16t94.5 59t39 109q0 83 -66.5 131.5t-217.5 90.5q-162 41 -240 114t-78 209q0 279 344 279q134 0 215 -33t140 -86l-64 -113q-63 41 -128 62.5t-161 21.5q-41 0 -73.5 -5t-65 -18.5t-50.5 -43t-18 -72.5
q0 -75 53.5 -119.5t159.5 -72.5q83 -21 136.5 -39t106.5 -45t83 -60.5t48 -82t18 -111.5q0 -94 -30.5 -160t-87 -102t-125 -52t-157.5 -16zM242 1348l264 204l248 -209l-86 -61l-170 143l-179 -141z" />
    <glyph glyph-name="Icircumflexsmall" horiz-adv-x="475" 
d="M168 0v1137h135v-1137h-135zM-20 1348l264 204l248 -209l-86 -61l-170 143l-179 -141z" />
    <glyph glyph-name="Scommaaccent.small" horiz-adv-x="987" 
d="M481 -4q-250 0 -379 129l52 117q138 -107 325 -107q71 0 126.5 16t94.5 59t39 109q0 83 -66.5 131.5t-217.5 90.5q-162 41 -240 114t-78 209q0 279 344 279q134 0 215 -33t140 -86l-64 -113q-63 41 -128 62.5t-161 21.5q-41 0 -73.5 -5t-65 -18.5t-50.5 -43t-18 -72.5
q0 -75 53.5 -119.5t159.5 -72.5q83 -21 136.5 -39t106.5 -45t83 -60.5t48 -82t18 -111.5q0 -94 -30.5 -160t-87 -102t-125 -52t-157.5 -16zM416 -424l39 301l118 10l-71 -327z" />
    <glyph glyph-name="cent.denominator" horiz-adv-x="602" 
d="M315 -70h-49v74q-95 15 -142.5 78t-47.5 182q0 130 45.5 194.5t144.5 78.5v79h49v-686zM422 -70h-49v686h49v-81q82 -10 123 -31l-29 -86q-31 14 -98 24v-344q70 7 102 23l23 -84q-34 -20 -121 -31v-76zM156 264q0 -71 26.5 -111t89.5 -53v340q-61 -10 -88.5 -52
t-27.5 -124z" />
    <glyph glyph-name="cent.numerator" horiz-adv-x="602" 
d="M315 545h-49v73q-95 15 -142.5 78t-47.5 183q0 130 45.5 194t144.5 78v80h49v-686zM422 545h-49v686h49v-82q82 -10 123 -31l-29 -86q-34 15 -98 25v-344q72 7 102 22l23 -84q-32 -19 -121 -30v-76zM156 879q0 -71 26.5 -111t89.5 -53v340q-61 -10 -88.5 -52t-27.5 -124z
" />
    </font>
</defs>
</svg>
