<?xml version="1.0" standalone="no"?>
<!DOCTYPE svg PUBLIC "-//W3C//DTD SVG 1.1//EN" "http://www.w3.org/Graphics/SVG/1.1/DTD/svg11.dtd" >
<svg xmlns="http://www.w3.org/2000/svg" xmlns:xlink="http://www.w3.org/1999/xlink" version="1.1">
<metadata>
Created by FontForge 20200427 at Tue Dec 10 01:13:37 2013
 By www
Copyright (c) 2009 by Stereotypes.de. All rights reserved.
</metadata>
<defs>
<font id="StTransmissionW01-400Reg" horiz-adv-x="578" >
  <font-face 
    font-family="StTransmissionW01-400Reg"
    font-weight="400"
    font-stretch="normal"
    units-per-em="1000"
    panose-1="2 0 5 6 2 0 0 2 0 3"
    ascent="750"
    descent="-250"
    x-height="470"
    cap-height="700"
    bbox="-60 -234 1006 914"
    underline-thickness="50"
    underline-position="-120"
    unicode-range="U+0002-2122"
  />
<missing-glyph horiz-adv-x="187" 
 />
    <glyph glyph-name=".notdef" horiz-adv-x="187" 
 />
    <glyph glyph-name=".null" horiz-adv-x="0" 
 />
    <glyph glyph-name="uni000D" unicode="&#xd;" horiz-adv-x="187" 
 />
    <glyph glyph-name="uni0002" horiz-adv-x="0" 
 />
    <glyph glyph-name="uni0009" unicode="&#x9;" horiz-adv-x="187" 
 />
    <glyph glyph-name="uni000A" unicode="&#xa;" horiz-adv-x="0" 
 />
    <glyph glyph-name="space" unicode=" " horiz-adv-x="187" 
 />
    <glyph glyph-name="exclam" unicode="!" horiz-adv-x="217" 
d="M137 705v-550l-67 -7v551zM59 45q0 20 13.5 33t30.5 13q20 0 33 -13t13 -33q0 -17 -13 -31t-33 -14q-17 0 -30.5 14t-13.5 31z" />
    <glyph glyph-name="quotedbl" unicode="&#x22;" horiz-adv-x="247" 
d="M55 700h66l-35 -172l-56 4zM157 700h66l-35 -172l-56 4z" />
    <glyph glyph-name="numbersign" unicode="#" horiz-adv-x="567" 
d="M99 0l32 201h-107l10 67h108l26 157h-118l11 66h118l34 209h69l-34 -209h123l34 209h70l-34 -209h100l-10 -66h-100l-26 -157h109l-10 -67h-109l-32 -201h-70l32 201h-124l-32 -201h-70zM212 268h123l26 157h-123z" />
    <glyph glyph-name="dollar" unicode="$" horiz-adv-x="563" 
d="M226 -60v61q-66 6 -109.5 29.5t-70.5 52.5l28 59q26 -25 65 -43t90 -25v274q-78 25 -120 69.5t-42 119.5q0 40 12 69t33.5 49t50.5 31t63 14v56h36v-816h-36zM310 -60v816h35v-59q50 -9 80 -26t51 -36l-30 -60q-19 17 -44.5 29.5t-58.5 19.5v-239q33 -11 63 -26.5
t53 -37.5t36.5 -52.5t13.5 -71.5q0 -45 -12.5 -78t-34.5 -56t-52 -37t-65 -21v-65h-35zM450 197q0 42 -28.5 71.5t-78.5 48.5v-241q51 11 79 40t28 81zM131 535q0 -42 26.5 -70t71.5 -46v210q-19 -3 -36.5 -9t-31 -17t-22 -27.5t-8.5 -40.5z" />
    <glyph glyph-name="percent" unicode="%" horiz-adv-x="732" 
d="M233 0h-71l353 700h70zM174 300q-69 0 -100 48t-31 136q0 94 30 146.5t101 52.5q72 0 99 -52.5t27 -146.5q0 -88 -30 -136t-96 -48zM173 633q-42 0 -60 -37.5t-18 -109.5q0 -66 17.5 -100.5t59.5 -34.5q39 0 57.5 36t18.5 100q0 73 -17 109.5t-58 36.5zM570 0
q-69 0 -100 48t-31 136q0 94 30 146.5t101 52.5q72 0 99 -52.5t27 -146.5q0 -88 -30 -136t-96 -48zM569 333q-42 0 -60 -37.5t-18 -109.5q0 -66 17.5 -100.5t59.5 -34.5q39 0 57.5 36t18.5 100q0 73 -17 109.5t-58 36.5z" />
    <glyph glyph-name="ampersand" unicode="&#x26;" horiz-adv-x="707" 
d="M52 178q0 34 13 64t34 56t48 50t55 46q-14 16 -27 35.5t-24 41.5t-17.5 45t-6.5 46q0 27 8.5 51t26 42t44.5 28.5t64 10.5q72 0 105.5 -31.5t33.5 -95.5q0 -26 -9.5 -49t-25.5 -45t-37.5 -42.5t-44.5 -40.5l186 -200q23 38 36 83.5t13 93.5h61q0 -58 -18 -115.5
t-50 -107.5l23 -24q28 -30 42 -41.5t33 -11.5h45v-67h-45q-26 0 -47 12.5t-45 39.5l-43 44q-40 -44 -92 -70t-114 -26q-115 0 -170 41t-55 137zM272 63q49 0 92 21t77 57l-197 208q-25 -20 -47.5 -40t-40 -40.5t-27.5 -41.5t-10 -43q0 -63 36 -92t117 -29zM189 558
q0 -15 6 -32.5t15.5 -34t20.5 -31.5t21 -27q40 32 68 63.5t28 66.5t-18.5 56t-63.5 21q-17 0 -31.5 -7t-24.5 -19t-15.5 -26.5t-5.5 -29.5z" />
    <glyph glyph-name="quotesingle" unicode="'" horiz-adv-x="151" 
d="M55 700h66l-35 -172l-56 4z" />
    <glyph glyph-name="parenleft" unicode="(" horiz-adv-x="251" 
d="M172 -124q-29 37 -53.5 81t-42 97.5t-27 119t-9.5 145.5q0 84 10.5 152.5t29 123t43 95.5t52.5 68l39 -46q-47 -53 -76.5 -151t-29.5 -239q0 -72 8 -131t21.5 -108t32.5 -89t42 -74z" />
    <glyph glyph-name="parenright" unicode=")" horiz-adv-x="255" 
d="M78 758q29 -38 53.5 -81.5t42 -97t27 -118.5t9.5 -146q0 -84 -10.5 -152.5t-28.5 -123t-42.5 -95.5t-52.5 -68l-40 46q47 54 76.5 151.5t29.5 238.5q0 72 -8 131.5t-21.5 108.5t-33 89t-41.5 74z" />
    <glyph glyph-name="asterisk" unicode="*" horiz-adv-x="355" 
d="M206 517l6 -107h-63l5 107l-84 -56l-30 53l91 48l-90 48l30 53l83 -56l-5 103h63l-6 -103l84 56l30 -53l-90 -48l91 -48l-30 -53z" />
    <glyph glyph-name="plus" unicode="+" horiz-adv-x="459" 
d="M67 281h132v139h67v-139h131v-68h-131v-135h-67v135h-132v68z" />
    <glyph glyph-name="comma" unicode="," horiz-adv-x="179" 
d="M66 103l71 7l-47 -220l-52 9z" />
    <glyph glyph-name="hyphen" unicode="-" horiz-adv-x="398" 
d="M44 278h308v-60h-308v60z" />
    <glyph glyph-name="period" unicode="." horiz-adv-x="174" 
d="M41 44q0 20 13.5 33t30.5 13q20 0 32.5 -13t12.5 -33q0 -17 -12.5 -30.5t-32.5 -13.5q-17 0 -30.5 13.5t-13.5 30.5z" />
    <glyph glyph-name="slash" unicode="/" horiz-adv-x="296" 
d="M25 -37l183 791l65 -15l-185 -795z" />
    <glyph glyph-name="zero" unicode="0" horiz-adv-x="537" 
d="M267 0q-55 0 -95 22t-65.5 64t-37.5 102.5t-12 138.5q0 84 11.5 150.5t36.5 112.5t65 70t97 24q59 0 98.5 -24.5t63.5 -70t34 -111.5t10 -150q0 -157 -49 -242.5t-157 -85.5zM267 611q-74 0 -106 -72.5t-32 -208.5q0 -123 31.5 -189.5t105.5 -66.5q69 0 101 68.5
t32 189.5q0 138 -30 208.5t-102 70.5z" />
    <glyph glyph-name="one" unicode="1" horiz-adv-x="374" 
d="M210 0v559l-139 -132l-39 53l190 208l62 -11v-677h-74z" />
    <glyph glyph-name="two" unicode="2" horiz-adv-x="490" 
d="M43 69q73 62 132 116.5t100.5 102.5t63.5 92t22 85q0 62 -32 101.5t-98 39.5q-27 0 -51 -7t-43.5 -17t-34 -22.5t-24.5 -22.5l-32 58q12 13 28.5 27.5t40.5 27.5t55.5 21.5t73.5 8.5q48 0 83.5 -16t59 -44t35.5 -66.5t12 -84.5q0 -56 -23 -106t-62 -97.5t-91 -95
t-109 -98.5l314 1l-5 -72l-415 -1v69z" />
    <glyph glyph-name="three" unicode="3" horiz-adv-x="502" 
d="M178 392q8 2 17 2.5t24 0.5q17 0 33 -1.5t31 -3.5l44 105q0 34 -6 56.5t-20 35.5t-36 18t-55 5q-49 0 -80 -9.5t-51 -20.5l-19 65q13 8 27.5 15t34 12t45.5 8t61 3q94 0 132 -38t38 -119q0 -20 -3.5 -34t-8.5 -26l-44 -91q45 -19 71.5 -57t26.5 -103q0 -108 -54.5 -161.5
t-146.5 -53.5q-45 0 -77 5t-55.5 13t-39 18.5t-27.5 21.5l22 65q21 -17 62 -33t106 -16q61 0 99 34.5t38 109.5q0 40 -14.5 63.5t-40 35.5t-59 15.5t-72.5 3.5z" />
    <glyph glyph-name="four" unicode="4" horiz-adv-x="480" 
d="M134 681l70 6l-87 -455h179v137l69 6v-143h91v-66h-91l1 -166h-70v166h-263z" />
    <glyph glyph-name="five" unicode="5" horiz-adv-x="490" 
d="M228 0q-36 0 -64 4t-49 11t-37.5 16.5t-30.5 20.5l19 60q23 -16 64 -32.5t94 -16.5q81 0 119 37t38 121q0 47 -12 78.5t-33 51t-50 27.5t-63 8q-32 0 -72.5 -4.5t-75.5 -9.5v311h356l-7 -70h-284v-172q27 5 53 7t49 2q95 0 151 -54t56 -160q0 -71 -16 -116.5t-45.5 -72
t-70 -37t-89.5 -10.5z" />
    <glyph glyph-name="six" unicode="6" horiz-adv-x="516" 
d="M217 425q8 4 17.5 6t21.5 2q45 0 83.5 -9.5t67 -32.5t44.5 -63t16 -100q0 -116 -55.5 -172t-155.5 -56q-49 0 -87.5 19t-65.5 60.5t-41.5 107t-14.5 158.5q0 81 14 146t42.5 111t70 70.5t97.5 24.5q31 0 55 -4.5t43 -11t33 -15t26 -17.5l-16 -56q-23 17 -54 27.5
t-84 10.5q-39 0 -68 -18.5t-48.5 -51.5t-30 -80t-12.5 -104zM259 69q71 0 107 42.5t36 119.5q0 43 -11.5 70.5t-32 43.5t-49.5 22.5t-63 6.5l-132 -61q2 -65 12 -111.5t28.5 -76t44.5 -43t60 -13.5z" />
    <glyph glyph-name="seven" unicode="7" horiz-adv-x="463" 
d="M29 683h395v-74l-217 -612l-74 6l214 606h-310z" />
    <glyph glyph-name="eight" unicode="8" horiz-adv-x="499" 
d="M410 535q0 -52 -27.5 -94.5t-72.5 -66.5q27 -13 52 -28.5t44.5 -38t31.5 -53.5t12 -74q0 -46 -17 -80t-46 -56t-67 -33t-79 -11q-43 0 -79 12.5t-62 35.5t-40.5 55.5t-14.5 72.5q0 49 9 82t25.5 56t40.5 38.5t53 28.5q-39 24 -66 60t-27 99q0 39 13.5 66.5t37.5 45
t56.5 25.5t71.5 8q69 0 110 -37.5t41 -112.5zM382 181q0 37 -12.5 63.5t-33.5 45t-48 32.5t-55 28q-30 -14 -52.5 -28.5t-37.5 -33.5t-22.5 -43t-7.5 -57q0 -57 35.5 -91.5t95.5 -34.5q28 0 53 8t44 23.5t30 37.5t11 50zM148 536q0 -27 8.5 -47.5t22.5 -36.5t33.5 -28
t40.5 -23q42 25 69 55.5t27 70.5q0 50 -26 73t-65 24q-20 0 -40 -4.5t-35.5 -15t-25 -27.5t-9.5 -41z" />
    <glyph glyph-name="nine" unicode="9" horiz-adv-x="505" 
d="M234 64q47 0 75.5 21.5t44.5 56.5t21.5 79t6.5 90l-105 -48q-6 -3 -14 -4t-16 -1q-92 0 -141.5 55.5t-49.5 152.5q0 44 11.5 83t35.5 68.5t60.5 46.5t86.5 17q51 0 88 -17.5t61 -56t35.5 -100t11.5 -148.5q0 -63 -6 -126.5t-27.5 -115.5t-62 -84.5t-109.5 -32.5
q-66 0 -109 16.5t-61 30.5l23 55q17 -12 52.5 -25t87.5 -13zM123 461q0 -28 8 -54t24.5 -45.5t41 -31t58.5 -11.5l128 57q-2 125 -34.5 180.5t-95.5 55.5q-32 0 -56 -12.5t-40.5 -33.5t-25 -48.5t-8.5 -56.5z" />
    <glyph glyph-name="colon" unicode=":" horiz-adv-x="182" 
d="M48 44q0 20 13.5 33t30.5 13q20 0 32.5 -13t12.5 -33q0 -17 -12.5 -30.5t-32.5 -13.5q-17 0 -30.5 13.5t-13.5 30.5zM48 424q0 20 13.5 33t30.5 13q20 0 32.5 -13t12.5 -33q0 -17 -12.5 -30.5t-32.5 -13.5q-17 0 -30.5 13.5t-13.5 30.5z" />
    <glyph glyph-name="semicolon" unicode=";" horiz-adv-x="181" 
d="M64 99l71 7l-47 -220l-52 9zM50 424q0 20 13.5 33t30.5 13q20 0 32.5 -13t12.5 -33q0 -17 -12.5 -30.5t-32.5 -13.5q-17 0 -30.5 13.5t-13.5 30.5z" />
    <glyph glyph-name="less" unicode="&#x3c;" horiz-adv-x="358" 
d="M289 77l-264 169l264 168l28 -55l-193 -113l193 -115z" />
    <glyph glyph-name="equal" unicode="=" horiz-adv-x="470" 
d="M51 336h363v-60h-363v60zM51 211h363v-60h-363v60z" />
    <glyph glyph-name="greater" unicode="&#x3e;" horiz-adv-x="389" 
d="M80 415l264 -169l-264 -168l-28 55l193 113l-193 115z" />
    <glyph glyph-name="question" unicode="?" horiz-adv-x="459" 
d="M160 144q-6 19 -11.5 40.5t-5.5 50.5q0 33 9.5 57.5t24.5 43.5t35 32t41 24q46 24 73.5 52t27.5 71q0 61 -30.5 90t-101.5 29q-38 0 -77.5 -17.5t-68.5 -48.5l-33 56q32 35 78 56t100 21q107 0 153 -45.5t46 -135.5q0 -34 -9 -59.5t-25 -45t-37 -34.5t-45 -28
q-20 -12 -38 -24t-31.5 -27.5t-21.5 -34.5t-8 -44q0 -17 3.5 -36.5t8.5 -33.5zM161 45q0 20 13.5 33t31.5 13q20 0 32.5 -13t12.5 -33q0 -17 -12.5 -31t-32.5 -14q-18 0 -31.5 14t-13.5 31z" />
    <glyph glyph-name="at" unicode="@" horiz-adv-x="820" 
d="M524 42q-32 -14 -72 -26.5t-72 -12.5q-69 0 -101 33t-32 102q0 36 9 61t27.5 40t48 21.5t71.5 6.5q5 0 13 -1t13 -3l95 -44v22q0 69 -28 98t-84 29q-30 0 -46 -4.5t-29 -10.5l-19 43q14 9 41 16.5t69 7.5q80 0 119 -44.5t39 -144.5v-190h73q23 35 38.5 78.5t15.5 88.5
q0 61 -23.5 115.5t-64 95t-95.5 64t-117 23.5t-116 -23.5t-94 -64t-63.5 -95t-23.5 -115.5q0 -66 23.5 -119.5t63.5 -91t94 -57.5t116 -20q59 0 110.5 7.5t81.5 22.5l19 -42q-29 -15 -83.5 -28t-127.5 -13t-137 24.5t-111 69.5t-74.5 107.5t-27.5 139.5q0 73 27.5 137
t74.5 111.5t111 75t137 27.5q74 0 138 -27.5t111.5 -75t75 -111.5t27.5 -137q0 -63 -22 -116.5t-51 -88.5h-168v39zM394 55q34 0 67.5 12t62.5 26v78l-113 48q-60 0 -82.5 -16.5t-22.5 -62.5q0 -27 7 -43.5t19 -26t28 -12.5t34 -3z" />
    <glyph glyph-name="A" unicode="A" horiz-adv-x="580" 
d="M493 0l-56 150h-305l-50 -150h-71l240 700h49l268 -700h-75zM153 215h260l-136 370z" />
    <glyph glyph-name="B" unicode="B" horiz-adv-x="567" 
d="M92 700h191q93 0 138.5 -48t45.5 -139q0 -12 -3.5 -22t-5.5 -15l-67 -94q26 -7 49.5 -21t41.5 -35t28.5 -50.5t10.5 -66.5q0 -58 -15 -98t-44 -64.5t-71.5 -35.5t-97.5 -11h-201v700zM163 330v-264h131q35 0 63.5 7.5t49 24t31.5 43.5t11 67q0 36 -13 60t-33 37.5
t-45.5 19t-50.5 5.5h-144zM163 631v-241h163l74 110q0 68 -33 99.5t-98 31.5h-106z" />
    <glyph glyph-name="C" unicode="C" horiz-adv-x="550" 
d="M334 -3q-71 0 -120.5 21t-81 64.5t-46 110t-14.5 157.5q0 98 17.5 165.5t50 109.5t79 60.5t105.5 18.5q28 0 50.5 -3.5t41.5 -10t36 -16.5t35 -22l-30 -64q-28 20 -58 30.5t-75 10.5q-43 0 -76 -15t-55.5 -48t-34 -86.5t-11.5 -129.5q0 -72 9.5 -124t31.5 -86t57.5 -50.5
t88.5 -16.5q26 0 45.5 3t35.5 9t30 15.5t29 21.5l30 -64q-29 -29 -67.5 -45t-102.5 -16z" />
    <glyph glyph-name="D" unicode="D" horiz-adv-x="614" 
d="M92 698l71 4v-87l79 71q14 14 39 14q128 0 195 -87t67 -263q0 -77 -12.5 -133t-34 -95t-51 -62.5t-64 -37t-71.5 -18t-75 -4.5h-143v698zM163 534v-464h64q49 0 93 9.5t78 39.5t54 85t20 146q0 275 -197 278z" />
    <glyph glyph-name="E" unicode="E" horiz-adv-x="537" 
d="M92 700h395v-70h-324v-237h268v-69h-268v-258h328v-66h-399v700z" />
    <glyph glyph-name="F" unicode="F" horiz-adv-x="514" 
d="M92 700h376v-71h-305v-256h238v-71h-238v-302h-71v700z" />
    <glyph glyph-name="G" unicode="G" horiz-adv-x="607" 
d="M294 374h231v-374l-61 -2v88l-103 -82q-5 -4 -13 -5t-16 -1q-134 0 -198 84.5t-64 267.5q0 98 17.5 165.5t50 109.5t79 60.5t105.5 18.5q57 0 101.5 -13.5t80.5 -38.5l-29 -65q-28 20 -65 31t-85 11q-44 0 -77.5 -15t-56.5 -48t-35 -86t-12 -129q0 -144 48 -211.5
t156 -67.5l116 92v150h-170v60z" />
    <glyph glyph-name="H" unicode="H" horiz-adv-x="616" 
d="M453 327h-290v-327h-71v700h71v-303h290v303h71v-700h-71v327z" />
    <glyph glyph-name="I" unicode="I" horiz-adv-x="255" 
d="M92 700h71v-700h-71v700z" />
    <glyph glyph-name="J" unicode="J" horiz-adv-x="267" 
d="M8 -134q30 7 48.5 21.5t29.5 36t15 50.5t4 65v661h70v-661q0 -101 -32.5 -162.5t-116.5 -75.5z" />
    <glyph glyph-name="K" unicode="K" horiz-adv-x="610" 
d="M261 340l-98 -122v-218h-71v700h71v-373l300 379l83 -12l-236 -294l288 -400h-88z" />
    <glyph glyph-name="L" unicode="L" horiz-adv-x="481" 
d="M92 700h71v-630h306v-70h-377v700z" />
    <glyph glyph-name="M" unicode="M" horiz-adv-x="789" 
d="M416 124h-48l-190 426l-35 -550h-71l56 700h56l208 -480l211 480h57l56 -700h-70l-37 553z" />
    <glyph glyph-name="N" unicode="N" horiz-adv-x="652" 
d="M153 0h-69v700h69l345 -563v563h70v-700h-70l-345 565v-565z" />
    <glyph glyph-name="O" unicode="O" horiz-adv-x="628" 
d="M318 -4q-119 0 -182.5 86.5t-63.5 267.5q0 171 64 262.5t182 91.5q115 0 176.5 -91t61.5 -263q0 -173 -58.5 -263.5t-179.5 -90.5zM318 633q-86 0 -130 -73t-44 -210q0 -140 43 -211.5t131 -71.5q83 0 124.5 71.5t41.5 211.5q0 139 -42.5 211t-123.5 72z" />
    <glyph glyph-name="P" unicode="P" horiz-adv-x="547" 
d="M92 700h71v-87l83 81q6 6 23 6q49 0 90 -12t70.5 -37.5t46 -67t16.5 -99.5t-16.5 -103.5t-47 -77.5t-73.5 -49t-97 -17h-95v-237h-71v700zM163 534v-225h92q43 0 74.5 14t52.5 37.5t31 55t10 67.5q0 40 -10 67t-29.5 44t-48.5 25t-67 10z" />
    <glyph glyph-name="Q" unicode="Q" horiz-adv-x="628" 
d="M315 -4q-116 0 -179.5 86.5t-63.5 267.5q0 171 63 262.5t180 91.5q114 0 174.5 -91t60.5 -263q0 -188 -69 -278l78 -127l-67 -9l-56 94q-49 -34 -121 -34zM315 633q-85 0 -129 -73t-44 -210q0 -140 42.5 -211.5t130.5 -71.5q165 0 165 283q0 139 -42 211t-123 72z" />
    <glyph glyph-name="R" unicode="R" horiz-adv-x="563" 
d="M92 700h71v-85l83 79q6 6 21 6q55 0 97.5 -11.5t72 -37.5t45 -67.5t15.5 -100.5q0 -78 -31 -128t-85 -73l169 -282h-78l-156 265q-13 -2 -26 -3t-27 -1h-100v-261h-71v700zM163 535v-203h95q85 0 127.5 39.5t42.5 111.5q0 83 -42.5 115.5t-119.5 32.5z" />
    <glyph glyph-name="S" unicode="S" horiz-adv-x="568" 
d="M278 -2q-87 0 -139 22.5t-86 59.5l27 59q36 -30 82 -49.5t115 -19.5q31 0 61 6t53.5 20.5t37.5 38.5t14 60q0 29 -11.5 50.5t-34 38t-56 30t-78.5 27.5q-44 12 -78.5 28t-58.5 39t-37 54.5t-13 74.5q0 49 16 81t43 51t64 26.5t79 7.5q45 0 78.5 -7t58.5 -17.5t42 -23.5
t30 -25l-33 -58q-15 12 -32 22t-38 17.5t-47 11.5t-59 4q-23 0 -46 -3t-42 -13t-31 -28.5t-12 -49.5q0 -26 9.5 -46t27 -35t42 -26.5t55.5 -20.5q54 -15 97.5 -31t73.5 -38.5t46.5 -56t16.5 -82.5q0 -58 -18.5 -96.5t-51 -61t-75.5 -32t-92 -9.5z" />
    <glyph glyph-name="T" unicode="T" horiz-adv-x="489" 
d="M11 700h467v-70h-202v-630h-70v630h-195v70z" />
    <glyph glyph-name="U" unicode="U" horiz-adv-x="623" 
d="M319 0q-115 0 -171 61.5t-56 193.5v445h71v-447q0 -40 8 -73.5t26 -58t48 -38t74 -13.5q78 0 116.5 43.5t38.5 140.5v446h70v-444q0 -132 -56.5 -194t-168.5 -62z" />
    <glyph glyph-name="V" unicode="V" horiz-adv-x="588" 
d="M269 0l-258 694l70 12l212 -580l212 580l71 -12l-259 -694h-48z" />
    <glyph glyph-name="W" unicode="W" horiz-adv-x="774" 
d="M562 0l-176 422l-173 -422h-72l-104 694l70 12l87 -588l159 397h68l158 -392l87 583l71 -12l-104 -694h-71z" />
    <glyph glyph-name="X" unicode="X" horiz-adv-x="573" 
d="M289 428l174 278l77 -12l-207 -334l229 -360l-85 -2l-191 300l-192 -300l-83 2l231 368l-207 326l78 12z" />
    <glyph glyph-name="Y" unicode="Y" horiz-adv-x="539" 
d="M527 694l-222 -411v-283h-70v285l-224 409l73 13l185 -340l181 340z" />
    <glyph glyph-name="Z" unicode="Z" horiz-adv-x="555" 
d="M60 700h438v-75l-373 -553h394v-72h-475l-9 72l374 553h-342z" />
    <glyph glyph-name="bracketleft" unicode="[" horiz-adv-x="248" 
d="M44 750h170v-57h-107v-758h107v-55h-170v870z" />
    <glyph glyph-name="backslash" unicode="\" horiz-adv-x="305" 
d="M212 -56l-185 795l65 15l183 -791z" />
    <glyph glyph-name="bracketright" unicode="]" horiz-adv-x="240" 
d="M195 -120h-169v57h107v758h-107v55h169v-870z" />
    <glyph glyph-name="asciicircum" unicode="^" horiz-adv-x="492" 
d="M294 677l120 -102l-41 -30l-83 70l-88 -69l-37 31z" />
    <glyph glyph-name="underscore" unicode="_" horiz-adv-x="540" 
d="M0 -81h541v-52h-541v52z" />
    <glyph glyph-name="grave" unicode="`" horiz-adv-x="457" 
d="M273 526l-126 121l47 32l114 -123z" />
    <glyph glyph-name="a" unicode="a" horiz-adv-x="481" 
d="M348 45q-34 -17 -77.5 -31t-78.5 -14q-75 0 -109 37.5t-34 114.5q0 41 9.5 68t29.5 43.5t52 23.5t76 7q6 0 16 -1.5t15 -3.5l101 -37v14q0 79 -30 113.5t-93 34.5q-28 0 -51 -6t-38 -12l-19 46q15 9 47.5 18.5t72.5 9.5q92 0 135 -51t43 -162v-257h-67v45zM205 57
q35 0 73 14t70 31v94l-115 44q-34 0 -57 -3.5t-37 -13t-20 -26.5t-6 -43q0 -31 7.5 -50t20.5 -29.5t29.5 -14t34.5 -3.5z" />
    <glyph glyph-name="b" unicode="b" horiz-adv-x="499" 
d="M77 697l66 11v-307l68 62q5 2 12 4.5t14 2.5q55 0 93.5 -12.5t63.5 -42t36.5 -77.5t11.5 -120q0 -108 -47 -163t-127 -55q-38 0 -70.5 14.5t-54.5 35.5v-50h-66v697zM143 329v-204q25 -26 52 -42.5t58 -16.5q33 0 56.5 11.5t38.5 32t21.5 49.5t6.5 64q0 51 -8 84.5
t-25.5 54t-46 29.5t-69.5 9z" />
    <glyph glyph-name="c" unicode="c" horiz-adv-x="429" 
d="M232 -1q-47 0 -80 18t-54 49.5t-31 72.5t-10 88q0 128 45 186.5t136 58.5q31 0 54 -3t39.5 -7.5t28.5 -11t22 -13.5l-18 -60q-17 8 -44 16.5t-69 8.5q-29 0 -52.5 -9t-40 -29.5t-25 -53.5t-8.5 -82q0 -32 6 -61t20.5 -50.5t37 -34t55.5 -12.5q38 0 70.5 7.5t51.5 18.5
l14 -64q-21 -14 -57.5 -23.5t-90.5 -9.5z" />
    <glyph glyph-name="d" unicode="d" horiz-adv-x="499" 
d="M357 412v285l66 11v-708l-66 -1v54q-23 -26 -55.5 -39.5t-85.5 -13.5q-44 0 -74.5 20t-49 52.5t-27 72.5t-8.5 81q0 119 46.5 181.5t143.5 62.5q8 0 21.5 -3t16.5 -5zM231 69q27 0 45.5 5t32.5 14t25 20.5t23 24.5v203l-98 65q-66 0 -99 -40.5t-33 -130.5
q0 -28 5.5 -56.5t18 -52t32.5 -38t48 -14.5z" />
    <glyph glyph-name="e" unicode="e" horiz-adv-x="471" 
d="M121 203q3 -40 13 -67.5t26.5 -45t39.5 -25t50 -7.5q54 0 90 13.5t62 29.5l21 -47q-15 -10 -32 -19.5t-38 -17t-48 -12.5t-63 -5q-39 0 -73 12.5t-59 40t-39 72.5t-14 111q0 65 16 110t42 72.5t59.5 39.5t68.5 12q85 0 127.5 -53t42.5 -167q0 -25 -10 -36t-26 -11h-256z
M244 409q-23 0 -44.5 -8.5t-38 -27t-27 -47.5t-13.5 -71l233 3q0 81 -27 116t-83 35z" />
    <glyph glyph-name="f" unicode="f" horiz-adv-x="315" 
d="M42 470h62v32q0 36 5.5 72t21 64.5t43 47.5t72.5 22l50 3v-65l-39 -6q-28 -3 -45 -16t-26 -32t-12 -43t-3 -51v-28h111v-67h-111v-403h-67v403h-62v67z" />
    <glyph glyph-name="g" unicode="g" horiz-adv-x="480" 
d="M420 29q0 -114 -44 -172t-129 -58q-57 0 -91.5 9t-48.5 18l9 55q14 -8 47.5 -14t71.5 -6q62 0 89.5 42t28.5 127v3l-94 -29q-5 -2 -11 -3t-16 -1q-87 0 -131 57t-44 167q0 45 10 89.5t31.5 79t57 56t86.5 21.5q28 0 58 -12t53 -29v38l68 9zM123 230q0 -45 9 -76.5
t25 -50.5t38.5 -27.5t49.5 -8.5l108 30v263q-22 17 -47 29t-49 12q-36 0 -61 -13.5t-41.5 -37t-24 -54.5t-7.5 -66z" />
    <glyph glyph-name="h" unicode="h" horiz-adv-x="495" 
d="M77 697l66 11v-306l68 57q5 4 19 7.5t22 3.5q48 0 83 -8t57 -29t32.5 -59t10.5 -98v-276h-67v272q0 39 -5 64.5t-19 40.5t-39 21t-65 6l-97 -78v-326h-66v697z" />
    <glyph glyph-name="i" unicode="i" horiz-adv-x="248" 
d="M91 0v467l67 8v-475h-67zM83 586q0 20 13 32.5t30 12.5q21 0 33.5 -12.5t12.5 -32.5q0 -18 -12.5 -31.5t-33.5 -13.5q-17 0 -30 13.5t-13 31.5z" />
    <glyph glyph-name="j" unicode="j" horiz-adv-x="255" 
d="M19 -133q14 2 28 11t25 24t18 36t7 47v482l68 8v-490q0 -83 -37 -129.5t-96 -54.5zM89 586q0 20 13.5 32.5t30.5 12.5q20 0 32 -12.5t12 -32.5q0 -18 -12 -31.5t-32 -13.5q-17 0 -30.5 13.5t-13.5 31.5z" />
    <glyph glyph-name="k" unicode="k" horiz-adv-x="475" 
d="M79 697l67 11v-461l179 226l77 -7l-142 -169l204 -297h-76l-174 242l-68 -81v-161h-67v697z" />
    <glyph glyph-name="l" unicode="l" horiz-adv-x="228" 
d="M83 0v697l67 11v-708h-67z" />
    <glyph glyph-name="m" unicode="m" horiz-adv-x="747" 
d="M144 332v-332h-67v467l67 8v-73l69 57q6 5 17 8t23 3q45 0 81 -15t57 -54l80 60q4 3 12 6t16 3q45 0 79 -7.5t56.5 -28.5t34 -57.5t11.5 -94.5v-282h-68v280q0 36 -6 60t-20 37.5t-36 19.5t-53 6l-87 -61q2 -14 3.5 -29.5t1.5 -33.5v-279h-68v277q0 40 -9.5 65t-25 38.5
t-35.5 18.5t-42 5z" />
    <glyph glyph-name="n" unicode="n" horiz-adv-x="496" 
d="M143 393l69 58q14 11 28 15t31 4q45 0 75 -10t48.5 -31.5t26.5 -55t8 -79.5v-294h-70v276q0 36 -5.5 60.5t-18.5 39t-35 21t-54 6.5l-103 -83v-320h-67v466l67 9v-82z" />
    <glyph glyph-name="o" unicode="o" horiz-adv-x="481" 
d="M248 -3q-53 0 -89.5 15t-59 44t-32.5 73t-10 103q0 118 45 179.5t146 61.5q93 0 134.5 -60.5t41.5 -181.5q0 -113 -43 -173.5t-133 -60.5zM246 409q-34 0 -57 -13t-37.5 -36t-21 -56t-6.5 -72q0 -41 6 -73t20 -54t37.5 -33.5t58.5 -11.5q60 0 85.5 45.5t25.5 125.5
q0 83 -25 130.5t-86 47.5z" />
    <glyph glyph-name="p" unicode="p" horiz-adv-x="520" 
d="M83 466l68 9v-93l76 73q7 6 16 10.5t26 4.5q48 0 84 -10.5t60 -35.5t35.5 -66.5t11.5 -102.5q0 -125 -41.5 -190t-128.5 -65q-37 0 -72.5 12.5t-66.5 42.5v-260l-68 -6v677zM151 302v-171q31 -32 64.5 -49t61.5 -17q34 0 57 15.5t36 41t18.5 59t5.5 69.5q0 48 -9.5 78.5
t-27 47t-43 22.5t-56.5 6z" />
    <glyph glyph-name="q" unicode="q" horiz-adv-x="516" 
d="M370 50q-24 -20 -60.5 -35t-90.5 -15q-43 0 -73.5 21t-49.5 53.5t-27.5 72.5t-8.5 78q0 119 44 182t140 63q9 0 22.5 -2t18.5 -6l85 -61v65l68 9v-679l-68 -7v261zM235 68q49 0 80 16t55 39v203l-114 76q-66 0 -96.5 -41t-30.5 -128q0 -29 5.5 -58.5t18 -53t33 -38.5
t49.5 -15z" />
    <glyph glyph-name="r" unicode="r" horiz-adv-x="349" 
d="M143 414l66 50q8 6 24 6q32 0 56.5 -7.5t49.5 -20.5l-23 -62q-27 14 -49 18t-44 4l-80 -63v-339h-67v466l67 9v-61z" />
    <glyph glyph-name="s" unicode="s" horiz-adv-x="437" 
d="M218 -1q-68 0 -108 13.5t-63 27.5l19 54q21 -14 61.5 -23.5t88.5 -9.5q55 0 84.5 16.5t29.5 51.5q0 21 -8 35t-23.5 24t-38.5 17.5t-53 16.5q-70 20 -107 48t-37 83q0 33 12 55.5t32.5 37t48 20.5t58.5 6q56 0 90.5 -12.5t58.5 -28.5l-20 -53q-19 12 -53.5 21t-75.5 9
q-16 0 -32.5 -2t-30 -8.5t-22.5 -18t-9 -29.5q0 -32 28.5 -47.5t88.5 -31.5q39 -11 68 -22t47.5 -26.5t28 -38t9.5 -56.5q0 -67 -42 -98t-130 -31z" />
    <glyph glyph-name="t" unicode="t" horiz-adv-x="337" 
d="M57 470h45v126l67 11v-137h128v-67h-128v-214q0 -35 7.5 -58.5t19.5 -37.5t27.5 -20t31.5 -6h34v-67h-50q-66 0 -101.5 45.5t-35.5 132.5v225h-45v67z" />
    <glyph glyph-name="u" unicode="u" horiz-adv-x="491" 
d="M355 58l-72 -46q-6 -4 -17 -8t-27 -4q-92 0 -131.5 43.5t-39.5 137.5v289h70v-271q0 -39 7 -64t21.5 -39.5t36 -19.5t50.5 -5l102 60v339h68v-470h-68v58z" />
    <glyph glyph-name="v" unicode="v" horiz-adv-x="439" 
d="M197 0l-186 465l67 8l142 -372l142 372l66 -8l-183 -465h-48z" />
    <glyph glyph-name="w" unicode="w" horiz-adv-x="656" 
d="M429 0l-103 317l-104 -317h-68l-126 465l70 8l97 -376l100 306h64l101 -308l97 378l71 -8l-126 -465h-73z" />
    <glyph glyph-name="x" unicode="x" horiz-adv-x="461" 
d="M424 464l-155 -224l173 -240h-78l-135 193l-134 -193h-77l171 250l-155 214l72 12l123 -179l122 179z" />
    <glyph glyph-name="y" unicode="y" horiz-adv-x="466" 
d="M87 473l143 -384l147 384l71 -8l-235 -576q-14 -30 -29 -50t-33.5 -31.5t-43 -16t-55.5 -5.5v68q25 0 42.5 5.5t30.5 16t23 27t20 38.5l32 75l-182 449z" />
    <glyph glyph-name="z" unicode="z" horiz-adv-x="446" 
d="M56 470h343v-63l-280 -343h294v-64h-373l-7 64l280 343h-251z" />
    <glyph glyph-name="braceleft" unicode="{" horiz-adv-x="228" 
d="M201 -120q-36 0 -59 9t-36.5 27.5t-18.5 45.5t-5 63v212q0 28 -14.5 40t-34.5 12v47q20 0 34.5 13t14.5 36v260q0 105 120 105v-67q-29 0 -43.5 -17.5t-14.5 -47.5v-238q0 -24 -11 -45.5t-28 -22.5q17 -2 28 -21t11 -45v-240q0 -26 14 -41.5t43 -17.5v-67z" />
    <glyph glyph-name="bar" unicode="|" horiz-adv-x="214" 
d="M74 -108v868h66v-868h-66z" />
    <glyph glyph-name="braceright" unicode="}" horiz-adv-x="230" 
d="M32 751q35 0 58 -9.5t36.5 -27.5t18.5 -45t5 -63v-213q0 -27 14.5 -39t34.5 -12v-47q-20 0 -34.5 -13.5t-14.5 -36.5v-260q0 -105 -119 -105v67q29 0 43.5 17.5t14.5 48.5v238q0 12 2.5 23.5t7.5 21t12 15.5t16 7q-17 1 -27.5 21t-10.5 46v239q0 26 -14 42t-43 17v68z
" />
    <glyph glyph-name="asciitilde" unicode="~" horiz-adv-x="504" 
d="M312 540q-15 0 -29 6t-28 12.5t-28.5 12.5t-30.5 6q-20 0 -39.5 -8.5t-31.5 -18.5l-22 36q15 12 39.5 24t50.5 12q16 0 30.5 -6t29 -13t29.5 -13t32 -6q24 0 38 6t27 17l24 -29q-14 -14 -36 -26t-55 -12z" />
    <glyph glyph-name="uni00A0" unicode="&#xa0;" horiz-adv-x="187" 
 />
    <glyph glyph-name="exclamdown" unicode="&#xa1;" horiz-adv-x="216" 
d="M75 -234v550l67 7v-550zM152 426q0 -20 -13 -32.5t-30 -12.5q-20 0 -33 12.5t-13 32.5q0 18 13 31.5t33 13.5q17 0 30 -13.5t13 -31.5z" />
    <glyph glyph-name="cent" unicode="&#xa2;" horiz-adv-x="448" 
d="M199 -60v65q-75 13 -114 65t-39 159q0 114 37.5 169.5t115.5 67.5v70h36v-596h-36zM283 -60v596h35v-69q32 -5 60 -13t41 -16l-20 -61q-11 6 -35 12t-49 11v-328q26 2 50 7.5t37 12.5l16 -60q-13 -8 -41 -14.5t-59 -11.5v-66h-35zM103 229q0 -65 22.5 -103.5t76.5 -52.5
v327q-54 -11 -76.5 -52.5t-22.5 -118.5z" />
    <glyph glyph-name="sterling" unicode="&#xa3;" horiz-adv-x="530" 
d="M58 314h340v-41h-216v-207h314v-66h-477v66h94v207h-55v41zM58 412h55v288h336v-65h-267v-223h216v-41h-340v41z" />
    <glyph glyph-name="currency" unicode="&#xa4;" horiz-adv-x="453" 
d="M29 92l68 69q-25 39 -25 87q0 23 6 43.5t17 38.5l-66 68l48 49l66 -68q37 25 83 25q45 0 83 -25l66 68l48 -48l-66 -69q11 -18 17 -38.5t6 -43.5q0 -49 -25 -88l67 -69l-46 -48l-68 69q-37 -23 -82 -23q-44 0 -81 23l-67 -69zM123 247q0 -46 29.5 -77t73.5 -31
q21 0 40 8.5t33 23t22.5 34t8.5 42.5q0 22 -8.5 41.5t-22.5 33.5t-33 22.5t-40 8.5q-22 0 -40.5 -8.5t-32.5 -22.5t-22 -33.5t-8 -41.5z" />
    <glyph glyph-name="yen" unicode="&#xa5;" horiz-adv-x="532" 
d="M82 707l185 -323l180 323l77 -13l-195 -345h113v-41h-346v41h110l-197 345zM97 251h345v-41h-140v-210h-70v210h-135v41z" />
    <glyph glyph-name="brokenbar" unicode="&#xa6;" horiz-adv-x="214" 
d="M74 -109v391h66v-391h-66zM74 371v391h66v-391h-66z" />
    <glyph glyph-name="section" unicode="&#xa7;" horiz-adv-x="632" 
d="M77 383q0 22 7 42.5t18 38.5t25 34t29 30q-30 30 -30 82q0 63 45.5 97.5t126.5 34.5q53 0 109.5 -13t96.5 -41l-25 -51q-35 21 -86 33.5t-99 12.5q-49 0 -78.5 -19t-29.5 -58q0 -35 53 -57.5t158 -54.5q34 -9 64 -21t52.5 -30t35 -43t12.5 -59q0 -42 -18.5 -81.5
t-50.5 -73.5q30 -28 30 -70q0 -35 -14 -61t-39 -43t-59.5 -25.5t-74.5 -8.5q-26 0 -54.5 4t-57 12.5t-55.5 20t-49 26.5l25 51q42 -28 94 -42t98 -14q22 0 44.5 4t40.5 13.5t29 24.5t11 37q0 21 -16.5 35t-41.5 23.5t-54.5 16t-54.5 13.5q-41 11 -80 24.5t-69.5 33.5
t-49 49.5t-18.5 72.5zM499 331q0 45 -30.5 67t-90.5 38q-61 18 -105.5 32t-74.5 30q-23 -21 -40 -49t-17 -60q0 -44 30.5 -68.5t76.5 -39.5q63 -19 113.5 -34t85.5 -32q22 24 37 55t15 61z" />
    <glyph glyph-name="dieresis" unicode="&#xa8;" horiz-adv-x="512" 
d="M109 583q0 20 13 33t30 13q20 0 32.5 -13t12.5 -33q0 -17 -12.5 -30.5t-32.5 -13.5q-17 0 -30 13.5t-13 30.5zM301 583q0 20 13 33t30 13q20 0 32.5 -13t12.5 -33q0 -17 -12.5 -30.5t-32.5 -13.5q-17 0 -30 13.5t-13 30.5z" />
    <glyph glyph-name="copyright" unicode="&#xa9;" horiz-adv-x="555" 
d="M270 319q-60 0 -87 36t-27 114q0 44 10 73t25.5 46t36 23.5t41.5 6.5q60 0 98 -26l-10 -30q-17 10 -40 13.5t-44 3.5q-15 0 -28.5 -6t-24 -19t-17 -34t-6.5 -51q0 -20 3.5 -39.5t12 -35t23 -25t37.5 -9.5q54 0 82 22l15 -32q-17 -16 -41 -23.5t-59 -7.5zM30 471
q0 51 19 96t51.5 78.5t77 53t95.5 19.5t95.5 -19.5t77 -53t51.5 -78.5t19 -96q0 -52 -19 -97t-51.5 -78.5t-77 -52.5t-95.5 -19t-95.5 19t-77 52.5t-51.5 78.5t-19 97zM70 471q0 -43 16 -80.5t43.5 -65.5t64.5 -44.5t79 -16.5t79.5 16.5t65 44.5t43.5 65.5t16 80.5t-16 80.5
t-43.5 65.5t-65 44.5t-79.5 16.5t-79 -16.5t-64.5 -44.5t-43.5 -65.5t-16 -80.5z" />
    <glyph glyph-name="guillemotleft" unicode="&#xab;" horiz-adv-x="429" 
d="M182 78l-156 169l153 164l47 -43l-113 -122l113 -122zM365 78l-156 169l153 164l47 -43l-113 -122l113 -122z" />
    <glyph glyph-name="logicalnot" unicode="&#xac;" horiz-adv-x="600" 
d="M49 380h494v-284h-90v201h-404v83z" />
    <glyph glyph-name="uni00AD" unicode="&#xad;" horiz-adv-x="398" 
d="M44 278h308v-60h-308v60z" />
    <glyph glyph-name="registered" unicode="&#xae;" horiz-adv-x="559" 
d="M30 471q0 51 19 96t52 78.5t78 53t97 19.5q51 0 95.5 -19.5t78 -53t52.5 -78.5t19 -96q0 -52 -19 -97t-52.5 -78.5t-78 -52.5t-95.5 -19q-52 0 -97 19t-78 52.5t-52 78.5t-19 97zM70 471q0 -43 16.5 -80.5t44.5 -65.5t65.5 -44.5t79.5 -16.5t79.5 16.5t65.5 44.5
t44.5 65.5t16.5 80.5t-16.5 80.5t-44.5 65.5t-65.5 44.5t-79.5 16.5t-79.5 -16.5t-65.5 -44.5t-44.5 -65.5t-16.5 -80.5zM222 579l30 31q8 5 23 5q57 0 78.5 -21.5t21.5 -68.5q0 -32 -13.5 -54t-36.5 -33l68 -112l-31 -9l-68 111q-7 -2 -13.5 -2h-14.5h-44v-106h-34v296h34
v-37zM222 536v-76h43q41 0 58.5 16.5t17.5 48.5q0 29 -17.5 41.5t-53.5 13.5z" />
    <glyph glyph-name="macron" unicode="&#xaf;" horiz-adv-x="512" 
d="M102 557v50h308v-50h-308z" />
    <glyph glyph-name="degree" unicode="&#xb0;" horiz-adv-x="233" 
d="M119 474q-40 0 -67 27t-27 69q0 41 26 68.5t68 27.5q21 0 38 -8t29.5 -21t19.5 -30.5t7 -36.5q0 -42 -26.5 -69t-67.5 -27zM172 571q0 23 -15 39t-38 16t-38 -16.5t-15 -39.5q0 -24 15 -38.5t38 -14.5t38 15t15 39z" />
    <glyph glyph-name="plusminus" unicode="&#xb1;" horiz-adv-x="431" 
d="M50 319h140v134h54v-134h139v-50h-139v-133h-54v133h-140v50zM50 84h333v-50h-333v50z" />
    <glyph glyph-name="uni00B2" unicode="&#xb2;" horiz-adv-x="305" 
d="M34 424q84 59 132 103.5t48 82.5q0 27 -17.5 45t-53.5 18q-30 0 -52.5 -10t-35.5 -21l-20 38q15 13 41.5 26.5t75.5 13.5q55 0 83 -30t28 -77q0 -28 -12.5 -52t-34 -46.5t-50 -44t-59.5 -44.5h172l-3 -46h-242v44z" />
    <glyph glyph-name="uni00B3" unicode="&#xb3;" horiz-adv-x="311" 
d="M112 577q9 3 25 3q10 0 19.5 -0.5t18.5 -1.5l20 46q0 31 -14 41t-51 10q-26 0 -44 -4.5t-29 -9.5l-13 41q16 9 37 14.5t62 5.5q56 0 78.5 -20t22.5 -59q0 -12 -2 -20t-6 -15l-22 -40q24 -9 38.5 -28t14.5 -51q0 -55 -32 -82t-86 -27q-51 0 -77 8.5t-40 20.5l14 42
q13 -9 37 -17t59 -8q34 0 55 16.5t21 48.5q0 35 -30 45.5t-73 10.5z" />
    <glyph glyph-name="acute" unicode="&#xb4;" horiz-adv-x="445" 
d="M141 557l127 118l42 -36l-137 -113z" />
    <glyph glyph-name="mu" unicode="&#xb5;" horiz-adv-x="502" 
d="M373 74l-80 -65q-8 -5 -14 -6.5t-14 -1.5q-48 0 -79 9t-50 26v-245l-68 -6v685h68v-298q4 -35 12.5 -55.5t24 -31.5t38.5 -14.5t56 -3.5l106 78v325h66v-470h-66v74z" />
    <glyph glyph-name="paragraph" unicode="&#xb6;" horiz-adv-x="569" 
d="M237 314q-42 0 -77.5 15t-61.5 41t-40.5 61t-14.5 76q0 40 14.5 75.5t40.5 61.5t61.5 41t77.5 15h306v-68h-104v-722l-57 -6v728h-89v-627l-56 -7v316z" />
    <glyph glyph-name="periodcentered" unicode="&#xb7;" horiz-adv-x="179" 
d="M43 246q0 20 13.5 33t30.5 13q20 0 32.5 -13t12.5 -33q0 -17 -12.5 -30.5t-32.5 -13.5q-17 0 -30.5 13.5t-13.5 30.5z" />
    <glyph glyph-name="cedilla" unicode="&#xb8;" horiz-adv-x="539" 
d="M279 -171q-34 0 -60.5 7t-42.5 19l15 39q14 -6 37 -12.5t43 -6.5q9 0 18.5 1.5t17.5 4.5t13.5 8t5.5 12q0 14 -12 19.5t-29 10.5q-14 3 -22 8.5t-13 16.5t-6.5 28.5t-1.5 43.5h55q0 -33 4.5 -47.5t21.5 -19.5q24 -8 38 -21.5t14 -42.5q0 -17 -8 -29.5t-21.5 -21t-31 -13
t-35.5 -4.5z" />
    <glyph glyph-name="uni00B9" unicode="&#xb9;" horiz-adv-x="240" 
d="M130 380v266l-76 -62l-26 34l111 106l42 -6v-338h-51z" />
    <glyph glyph-name="ordmasculine" unicode="&#xba;" horiz-adv-x="454" 
d="M59 541q0 32 12 61t33 50.5t49.5 34.5t61.5 13q31 0 59.5 -13t50 -34.5t34 -50.5t12.5 -61q0 -34 -12.5 -63t-34 -50.5t-50 -34t-59.5 -12.5q-33 0 -61.5 12.5t-49.5 34t-33 50.5t-12 63zM119 541q0 -21 7.5 -39.5t21 -32t30.5 -21t37 -7.5q19 0 36.5 8t30 21.5t20 31.5
t7.5 38q0 42 -27 70.5t-67 28.5q-42 0 -69 -28t-27 -70z" />
    <glyph glyph-name="guillemotright" unicode="&#xbb;" horiz-adv-x="439" 
d="M66 414l156 -169l-153 -164l-47 43l113 122l-113 122zM260 414l156 -169l-153 -164l-47 43l113 122l-113 122z" />
    <glyph glyph-name="onequarter" unicode="&#xbc;" horiz-adv-x="746" 
d="M211 0h-71l353 700h70zM508 381l50 5l-50 -251h101v75l48 4v-79h53v-45h-53l1 -90h-49v90h-160zM142 300v300l-81 -70l-28 37l118 119l43 -7v-379h-52z" />
    <glyph glyph-name="onehalf" unicode="&#xbd;" horiz-adv-x="776" 
d="M204 0h-71l353 700h70zM134 300v300l-81 -70l-28 37l118 119l43 -7v-379h-52zM461 48q88 66 139 116.5t51 93.5q0 32 -18.5 52t-56.5 20q-32 0 -55.5 -12t-37.5 -23l-21 41q8 7 19 14.5t25.5 14.5t34 11.5t45.5 4.5q57 0 86.5 -33.5t29.5 -86.5q0 -32 -13.5 -59t-36 -52
t-52.5 -49.5t-63 -51.5l182 1l-3 -50h-255v48z" />
    <glyph glyph-name="threequarters" unicode="&#xbe;" horiz-adv-x="817" 
d="M286 0h-71l353 700h70zM116 521q5 2 10.5 2h14.5q22 0 40 -3l22 54q0 35 -15 47t-54 12q-28 0 -46.5 -5.5t-29.5 -11.5l-14 45q17 10 39 16t64 6q60 0 83 -22t23 -67q0 -13 -2 -21.5t-6 -16.5l-24 -46q26 -11 41 -32t15 -57q0 -61 -32.5 -91t-89.5 -30q-55 0 -82 9.5
t-42 23.5l15 44q13 -10 38.5 -18.5t62.5 -8.5q35 0 57.5 18t22.5 56q0 20 -8.5 32.5t-23 19t-34.5 9t-42 2.5zM583 381l50 5l-50 -251h101v75l48 4v-79h53v-45h-53l1 -90h-49v90h-160z" />
    <glyph glyph-name="questiondown" unicode="&#xbf;" horiz-adv-x="459" 
d="M307 325q6 -19 11.5 -40.5t5.5 -50.5q0 -33 -9.5 -57.5t-24.5 -43.5t-35 -32.5t-41 -23.5q-45 -24 -73 -52t-28 -71q0 -61 30.5 -90t101.5 -29q39 0 78 17.5t68 48.5l33 -56q-32 -35 -77.5 -56t-99.5 -21q-108 0 -154 45.5t-46 135.5q0 34 9 59.5t25 45t37.5 34.5
t45.5 28q20 12 37.5 24t31 27.5t21.5 34.5t8 44q0 17 -3.5 36.5t-7.5 33.5zM307 424q0 -20 -14 -33t-31 -13q-20 0 -33 13t-13 33q0 17 13 31t33 14q17 0 31 -14t14 -31z" />
    <glyph glyph-name="Agrave" unicode="&#xc0;" 
d="M492 0l-56 150h-305l-50 -150h-71l240 700h49l268 -700h-75zM152 215h260l-136 370zM325 756l-126 121l47 32l114 -123z" />
    <glyph glyph-name="Aacute" unicode="&#xc1;" 
d="M492 0l-56 150h-305l-50 -150h-71l240 700h49l268 -700h-75zM152 215h260l-136 370zM190 787l127 118l42 -36l-137 -113z" />
    <glyph glyph-name="Acircumflex" unicode="&#xc2;" 
d="M492 0l-56 150h-305l-50 -150h-71l240 700h49l268 -700h-75zM152 215h260l-136 370zM280 905l121 -102l-42 -30l-83 70l-87 -69l-38 31z" />
    <glyph glyph-name="Atilde" unicode="&#xc3;" 
d="M492 0l-56 150h-305l-50 -150h-71l240 700h49l268 -700h-75zM152 215h260l-136 370zM335 769q-15 0 -29 6t-28 12.5t-28.5 12.5t-30.5 6q-20 0 -39.5 -8.5t-31.5 -18.5l-22 36q15 12 39.5 24t50.5 12q16 0 30.5 -6t29 -13t29.5 -13t32 -6q24 0 38 6t27 17l24 -29
q-14 -14 -36 -26t-55 -12z" />
    <glyph glyph-name="Adieresis" unicode="&#xc4;" 
d="M492 0l-56 150h-305l-50 -150h-71l240 700h49l268 -700h-75zM152 215h260l-136 370zM136 813q0 20 13 33t30 13q20 0 32.5 -13t12.5 -33q0 -17 -12.5 -30.5t-32.5 -13.5q-17 0 -30 13.5t-13 30.5zM328 813q0 20 13 33t30 13q20 0 32.5 -13t12.5 -33q0 -17 -12.5 -30.5
t-32.5 -13.5q-17 0 -30 13.5t-13 30.5z" />
    <glyph glyph-name="Aring" unicode="&#xc5;" 
d="M492 0l-56 150h-305l-50 -150h-71l240 700h49l268 -700h-75zM152 215h260l-136 370zM276 753q-34 0 -56.5 23t-22.5 58q0 33 22.5 56.5t56.5 23.5q15 0 29.5 -6.5t25 -17.5t17 -25.5t6.5 -30.5q0 -35 -23.5 -58t-54.5 -23zM231 834q0 -20 13 -33t32 -13t32 13t13 33
q0 24 -14 34.5t-31 10.5t-31 -12.5t-14 -32.5z" />
    <glyph glyph-name="AE" unicode="&#xc6;" horiz-adv-x="856" 
d="M417 192h-255l-64 -192h-70l239 700h544v-70h-324v-234h268v-70h-268v-260h328v-66h-398v192zM184 257h233v373h-109z" />
    <glyph glyph-name="Ccedilla" unicode="&#xc7;" horiz-adv-x="543" 
d="M326 -179q-34 0 -60.5 7t-42.5 19l15 39q14 -6 37 -12.5t43 -6.5q9 0 18.5 1.5t17.5 4.5t13.5 8t5.5 12q0 14 -12 19.5t-29 10.5q-24 5 -33 20.5t-10 55.5q-119 11 -170.5 96.5t-51.5 254.5q0 98 17.5 165.5t50 109.5t79 60.5t105.5 18.5q28 0 50.5 -3.5t41.5 -10
t36 -16.5t35 -22l-30 -64q-28 20 -58 30.5t-75 10.5q-43 0 -76 -15t-55.5 -48t-34 -86.5t-11.5 -129.5q0 -72 9.5 -124t31.5 -86t57.5 -50.5t88.5 -16.5q26 0 45.5 3t35.5 9t30 15.5t29 21.5l30 -64q-28 -27 -63 -43t-92 -18q2 -20 7 -30t19 -14q24 -8 38 -21.5t14 -42.5
q0 -17 -8 -29.5t-21.5 -21t-31 -13t-35.5 -4.5z" />
    <glyph glyph-name="Egrave" unicode="&#xc8;" horiz-adv-x="524" 
d="M83 700h395v-70h-324v-237h268v-69h-268v-258h328v-66h-399v700zM329 756l-126 121l47 32l114 -123z" />
    <glyph glyph-name="Eacute" unicode="&#xc9;" horiz-adv-x="524" 
d="M83 700h395v-70h-324v-237h268v-69h-268v-258h328v-66h-399v700zM195 787l127 118l42 -36l-137 -113z" />
    <glyph glyph-name="Ecircumflex" unicode="&#xca;" horiz-adv-x="524" 
d="M83 700h395v-70h-324v-237h268v-69h-268v-258h328v-66h-399v700zM289 904l121 -102l-42 -30l-83 70l-87 -69l-38 31z" />
    <glyph glyph-name="Edieresis" unicode="&#xcb;" horiz-adv-x="524" 
d="M83 700h395v-70h-324v-237h268v-69h-268v-258h328v-66h-399v700zM140 813q0 20 13 33t30 13q20 0 32.5 -13t12.5 -33q0 -17 -12.5 -30.5t-32.5 -13.5q-17 0 -30 13.5t-13 30.5zM332 813q0 20 13 33t30 13q20 0 32.5 -13t12.5 -33q0 -17 -12.5 -30.5t-32.5 -13.5
q-17 0 -30 13.5t-13 30.5z" />
    <glyph glyph-name="Igrave" unicode="&#xcc;" horiz-adv-x="251" 
d="M90 700h71v-700h-71v700zM171 756l-126 121l47 32l114 -123z" />
    <glyph glyph-name="Iacute" unicode="&#xcd;" horiz-adv-x="251" 
d="M90 700h71v-700h-71v700zM41 787l127 118l42 -36l-137 -113z" />
    <glyph glyph-name="Icircumflex" unicode="&#xce;" horiz-adv-x="251" 
d="M90 700h71v-700h-71v700zM130 904l121 -102l-42 -30l-83 70l-87 -69l-38 31z" />
    <glyph glyph-name="Idieresis" unicode="&#xcf;" horiz-adv-x="251" 
d="M90 700h71v-700h-71v700zM-15 813q0 20 13 33t30 13q20 0 32.5 -13t12.5 -33q0 -17 -12.5 -30.5t-32.5 -13.5q-17 0 -30 13.5t-13 30.5zM177 813q0 20 13 33t30 13q20 0 32.5 -13t12.5 -33q0 -17 -12.5 -30.5t-32.5 -13.5q-17 0 -30 13.5t-13 30.5z" />
    <glyph glyph-name="Eth" unicode="&#xd0;" horiz-adv-x="599" 
d="M37 364h47v334l71 4v-86l73 66q6 6 19.5 12t25.5 6q128 0 195 -87t67 -263q0 -77 -12.5 -133t-34 -95t-51 -62.5t-63.5 -37t-71.5 -18t-74.5 -4.5h-144v304h-47v60zM155 304v-234h65q48 0 92.5 9.5t78 39.5t53.5 85t20 146q0 275 -196 278l-113 -94v-170h160v-60h-160z
" />
    <glyph glyph-name="Ntilde" unicode="&#xd1;" horiz-adv-x="648" 
d="M151 0h-69v700h69l345 -563v563h70v-700h-70l-345 565v-565zM383 770q-15 0 -29 6t-28 12.5t-28.5 12.5t-30.5 6q-20 0 -39.5 -8.5t-31.5 -18.5l-22 36q15 12 39.5 24t50.5 12q16 0 30.5 -6t29 -13t29.5 -13t32 -6q24 0 38 6t27 17l24 -29q-14 -14 -36 -26t-55 -12z" />
    <glyph glyph-name="Ograve" unicode="&#xd2;" horiz-adv-x="613" 
d="M311 -4q-119 0 -182.5 86.5t-63.5 267.5q0 171 64 262.5t182 91.5q115 0 176.5 -91t61.5 -263q0 -173 -58.5 -263.5t-179.5 -90.5zM311 633q-86 0 -130 -73t-44 -210q0 -140 43 -211.5t131 -71.5q83 0 124.5 71.5t41.5 211.5q0 139 -42.5 211t-123.5 72zM353 756
l-126 121l47 32l114 -123z" />
    <glyph glyph-name="Oacute" unicode="&#xd3;" horiz-adv-x="613" 
d="M311 -4q-119 0 -182.5 86.5t-63.5 267.5q0 171 64 262.5t182 91.5q115 0 176.5 -91t61.5 -263q0 -173 -58.5 -263.5t-179.5 -90.5zM311 633q-86 0 -130 -73t-44 -210q0 -140 43 -211.5t131 -71.5q83 0 124.5 71.5t41.5 211.5q0 139 -42.5 211t-123.5 72zM222 787l127 118
l42 -36l-137 -113z" />
    <glyph glyph-name="Ocircumflex" unicode="&#xd4;" horiz-adv-x="613" 
d="M311 -4q-119 0 -182.5 86.5t-63.5 267.5q0 171 64 262.5t182 91.5q115 0 176.5 -91t61.5 -263q0 -173 -58.5 -263.5t-179.5 -90.5zM311 633q-86 0 -130 -73t-44 -210q0 -140 43 -211.5t131 -71.5q83 0 124.5 71.5t41.5 211.5q0 139 -42.5 211t-123.5 72zM313 904
l121 -102l-42 -30l-83 70l-87 -69l-38 31z" />
    <glyph glyph-name="Otilde" unicode="&#xd5;" horiz-adv-x="613" 
d="M311 -4q-119 0 -182.5 86.5t-63.5 267.5q0 171 64 262.5t182 91.5q115 0 176.5 -91t61.5 -263q0 -173 -58.5 -263.5t-179.5 -90.5zM311 633q-86 0 -130 -73t-44 -210q0 -140 43 -211.5t131 -71.5q83 0 124.5 71.5t41.5 211.5q0 139 -42.5 211t-123.5 72zM370 770
q-15 0 -29 6t-28 12.5t-28.5 12.5t-30.5 6q-20 0 -39.5 -8.5t-31.5 -18.5l-22 36q15 12 39.5 24t50.5 12q16 0 30.5 -6t29 -13t29.5 -13t32 -6q24 0 38 6t27 17l24 -29q-14 -14 -36 -26t-55 -12z" />
    <glyph glyph-name="Odieresis" unicode="&#xd6;" horiz-adv-x="613" 
d="M311 -4q-119 0 -182.5 86.5t-63.5 267.5q0 171 64 262.5t182 91.5q115 0 176.5 -91t61.5 -263q0 -173 -58.5 -263.5t-179.5 -90.5zM311 633q-86 0 -130 -73t-44 -210q0 -140 43 -211.5t131 -71.5q83 0 124.5 71.5t41.5 211.5q0 139 -42.5 211t-123.5 72zM167 813
q0 20 13 33t30 13q20 0 32.5 -13t12.5 -33q0 -17 -12.5 -30.5t-32.5 -13.5q-17 0 -30 13.5t-13 30.5zM359 813q0 20 13 33t30 13q20 0 32.5 -13t12.5 -33q0 -17 -12.5 -30.5t-32.5 -13.5q-17 0 -30 13.5t-13 30.5z" />
    <glyph glyph-name="multiply" unicode="&#xd7;" horiz-adv-x="466" 
d="M278 243l113 -116l-45 -45l-112 115l-111 -115l-45 45l112 116l-112 116l45 44l111 -115l112 115l45 -44z" />
    <glyph glyph-name="Oslash" unicode="&#xd8;" horiz-adv-x="602" 
d="M171 -74l22 94q-66 33 -101 114.5t-35 215.5q0 171 64 262.5t182 91.5q33 0 63 -9l21 84l65 -15l-25 -97q56 -40 85 -119.5t29 -197.5q0 -173 -58.5 -263.5t-179.5 -90.5q-26 0 -46 4l-22 -90zM303 633q-86 0 -130 -73t-44 -210q0 -140 43 -211.5t131 -71.5
q83 0 124.5 71.5t41.5 211.5q0 139 -42.5 211t-123.5 72z" />
    <glyph glyph-name="Ugrave" unicode="&#xd9;" horiz-adv-x="609" 
d="M310 0q-115 0 -171 61.5t-56 193.5v445h71v-447q0 -40 8 -73.5t26 -58t48 -38t74 -13.5q78 0 116.5 43.5t38.5 140.5v446h70v-444q0 -132 -56.5 -194t-168.5 -62zM352 756l-126 121l47 32l114 -123z" />
    <glyph glyph-name="Uacute" unicode="&#xda;" horiz-adv-x="609" 
d="M310 0q-115 0 -171 61.5t-56 193.5v445h71v-447q0 -40 8 -73.5t26 -58t48 -38t74 -13.5q78 0 116.5 43.5t38.5 140.5v446h70v-444q0 -132 -56.5 -194t-168.5 -62zM220 787l127 118l42 -36l-137 -113z" />
    <glyph glyph-name="Ucircumflex" unicode="&#xdb;" horiz-adv-x="609" 
d="M310 0q-115 0 -171 61.5t-56 193.5v445h71v-447q0 -40 8 -73.5t26 -58t48 -38t74 -13.5q78 0 116.5 43.5t38.5 140.5v446h70v-444q0 -132 -56.5 -194t-168.5 -62zM312 904l121 -102l-42 -30l-83 70l-87 -69l-38 31z" />
    <glyph glyph-name="Udieresis" unicode="&#xdc;" horiz-adv-x="609" 
d="M310 0q-115 0 -171 61.5t-56 193.5v445h71v-447q0 -40 8 -73.5t26 -58t48 -38t74 -13.5q78 0 116.5 43.5t38.5 140.5v446h70v-444q0 -132 -56.5 -194t-168.5 -62zM166 813q0 20 13 33t30 13q20 0 32.5 -13t12.5 -33q0 -17 -12.5 -30.5t-32.5 -13.5q-17 0 -30 13.5
t-13 30.5zM358 813q0 20 13 33t30 13q20 0 32.5 -13t12.5 -33q0 -17 -12.5 -30.5t-32.5 -13.5q-17 0 -30 13.5t-13 30.5z" />
    <glyph glyph-name="Yacute" unicode="&#xdd;" horiz-adv-x="545" 
d="M530 694l-222 -411v-283h-70v285l-224 409l73 13l185 -340l181 340zM188 787l127 118l42 -36l-137 -113z" />
    <glyph glyph-name="Thorn" unicode="&#xde;" horiz-adv-x="547" 
d="M90 700h71v-181l77 77q4 4 10.5 4.5t16.5 0.5q48 0 89.5 -12.5t71.5 -38.5t47 -67t17 -98t-16.5 -103t-47.5 -78t-74.5 -49t-98.5 -17h-92v-138h-71v700zM161 437v-227h89q44 0 76 14t53 38t31.5 55.5t10.5 66.5q0 40 -11.5 67.5t-32.5 44.5t-51 25t-68 10z" />
    <glyph glyph-name="germandbls" unicode="&#xdf;" horiz-adv-x="552" 
d="M356 0q-32 0 -55 2t-41.5 6.5t-33 11.5t-27.5 18l18 58q26 -23 58 -29t78 -6q37 0 63.5 24.5t26.5 61.5q0 18 -8.5 32t-23 25t-34.5 20t-44 17q-23 9 -44 19t-37 25.5t-25 37t-9 52.5q0 26 10.5 44.5t26.5 32.5t34.5 25t34.5 22.5t26.5 26t10.5 34.5q0 13 -5.5 26.5
t-18.5 24t-34.5 17.5t-53.5 7q-51 0 -78 -27t-27 -75v-533h-62v558q0 36 12.5 63t35 45t52.5 27t65 9q48 0 81.5 -10t55 -27.5t31 -42t9.5 -53.5q0 -32 -10.5 -53.5t-26.5 -37t-34 -26t-34 -21.5t-26.5 -23.5t-10.5 -31.5q0 -22 7 -35.5t19.5 -22.5t30 -15.5t39.5 -14.5
q31 -12 55 -24.5t40.5 -28.5t24.5 -37.5t8 -52.5q0 -64 -40.5 -104.5t-109.5 -40.5z" />
    <glyph glyph-name="agrave" unicode="&#xe0;" horiz-adv-x="483" 
d="M350 45q-34 -17 -77.5 -31t-78.5 -14q-75 0 -109 37.5t-34 114.5q0 41 9.5 68t29.5 43.5t52 23.5t76 7q6 0 16 -1.5t15 -3.5l101 -37v14q0 79 -30 113.5t-93 34.5q-28 0 -51 -6t-38 -12l-19 46q15 9 47.5 18.5t72.5 9.5q92 0 135 -51t43 -162v-257h-67v45zM207 57
q35 0 73 14t70 31v94l-115 44q-34 0 -57 -3.5t-37 -13t-20 -26.5t-6 -43q0 -31 7.5 -50t20.5 -29.5t29.5 -14t34.5 -3.5zM289 526l-126 121l47 32l114 -123z" />
    <glyph glyph-name="aacute" unicode="&#xe1;" horiz-adv-x="483" 
d="M350 45q-34 -17 -77.5 -31t-78.5 -14q-75 0 -109 37.5t-34 114.5q0 41 9.5 68t29.5 43.5t52 23.5t76 7q6 0 16 -1.5t15 -3.5l101 -37v14q0 79 -30 113.5t-93 34.5q-28 0 -51 -6t-38 -12l-19 46q15 9 47.5 18.5t72.5 9.5q92 0 135 -51t43 -162v-257h-67v45zM207 57
q35 0 73 14t70 31v94l-115 44q-34 0 -57 -3.5t-37 -13t-20 -26.5t-6 -43q0 -31 7.5 -50t20.5 -29.5t29.5 -14t34.5 -3.5zM160 557l127 118l42 -36l-137 -113z" />
    <glyph glyph-name="acircumflex" unicode="&#xe2;" horiz-adv-x="483" 
d="M350 45q-34 -17 -77.5 -31t-78.5 -14q-75 0 -109 37.5t-34 114.5q0 41 9.5 68t29.5 43.5t52 23.5t76 7q6 0 16 -1.5t15 -3.5l101 -37v14q0 79 -30 113.5t-93 34.5q-28 0 -51 -6t-38 -12l-19 46q15 9 47.5 18.5t72.5 9.5q92 0 135 -51t43 -162v-257h-67v45zM207 57
q35 0 73 14t70 31v94l-115 44q-34 0 -57 -3.5t-37 -13t-20 -26.5t-6 -43q0 -31 7.5 -50t20.5 -29.5t29.5 -14t34.5 -3.5zM247 674l121 -102l-42 -30l-83 70l-87 -69l-38 31z" />
    <glyph glyph-name="atilde" unicode="&#xe3;" horiz-adv-x="483" 
d="M350 45q-34 -17 -77.5 -31t-78.5 -14q-75 0 -109 37.5t-34 114.5q0 41 9.5 68t29.5 43.5t52 23.5t76 7q6 0 16 -1.5t15 -3.5l101 -37v14q0 79 -30 113.5t-93 34.5q-28 0 -51 -6t-38 -12l-19 46q15 9 47.5 18.5t72.5 9.5q92 0 135 -51t43 -162v-257h-67v45zM207 57
q35 0 73 14t70 31v94l-115 44q-34 0 -57 -3.5t-37 -13t-20 -26.5t-6 -43q0 -31 7.5 -50t20.5 -29.5t29.5 -14t34.5 -3.5zM302 540q-15 0 -29 6t-28 12.5t-28.5 12.5t-30.5 6q-20 0 -39.5 -8.5t-31.5 -18.5l-22 36q15 12 39.5 24t50.5 12q16 0 30.5 -6t29 -13t29.5 -13t32 -6
q24 0 38 6t27 17l24 -29q-14 -14 -36 -26t-55 -12z" />
    <glyph glyph-name="adieresis" unicode="&#xe4;" horiz-adv-x="483" 
d="M350 45q-34 -17 -77.5 -31t-78.5 -14q-75 0 -109 37.5t-34 114.5q0 41 9.5 68t29.5 43.5t52 23.5t76 7q6 0 16 -1.5t15 -3.5l101 -37v14q0 79 -30 113.5t-93 34.5q-28 0 -51 -6t-38 -12l-19 46q15 9 47.5 18.5t72.5 9.5q92 0 135 -51t43 -162v-257h-67v45zM207 57
q35 0 73 14t70 31v94l-115 44q-34 0 -57 -3.5t-37 -13t-20 -26.5t-6 -43q0 -31 7.5 -50t20.5 -29.5t29.5 -14t34.5 -3.5zM103 583q0 20 13 33t30 13q20 0 32.5 -13t12.5 -33q0 -17 -12.5 -30.5t-32.5 -13.5q-17 0 -30 13.5t-13 30.5zM295 583q0 20 13 33t30 13
q20 0 32.5 -13t12.5 -33q0 -17 -12.5 -30.5t-32.5 -13.5q-17 0 -30 13.5t-13 30.5z" />
    <glyph glyph-name="aring" unicode="&#xe5;" horiz-adv-x="483" 
d="M350 45q-34 -17 -77.5 -31t-78.5 -14q-75 0 -109 37.5t-34 114.5q0 41 9.5 68t29.5 43.5t52 23.5t76 7q6 0 16 -1.5t15 -3.5l101 -37v14q0 79 -30 113.5t-93 34.5q-28 0 -51 -6t-38 -12l-19 46q15 9 47.5 18.5t72.5 9.5q92 0 135 -51t43 -162v-257h-67v45zM207 57
q35 0 73 14t70 31v94l-115 44q-34 0 -57 -3.5t-37 -13t-20 -26.5t-6 -43q0 -31 7.5 -50t20.5 -29.5t29.5 -14t34.5 -3.5zM244 523q-34 0 -56.5 23t-22.5 58q0 33 22.5 56.5t56.5 23.5q15 0 29.5 -6.5t25 -17.5t17 -25.5t6.5 -30.5q0 -35 -23.5 -58t-54.5 -23zM199 604
q0 -20 13 -33t32 -13t32 13t13 33q0 24 -14 34.5t-31 10.5t-31 -12.5t-14 -32.5z" />
    <glyph glyph-name="ae" unicode="&#xe6;" horiz-adv-x="765" 
d="M239 470q112 0 152 -79q26 42 66 60.5t83 18.5q85 0 127 -53t42 -167q0 -20 -10 -30.5t-26 -10.5h-256q5 -83 39.5 -117t89.5 -34q54 0 90 13.5t62 29.5l21 -47q-15 -10 -32 -19.5t-38 -17t-47.5 -12.5t-62.5 -5q-48 0 -87 17.5t-64 59.5q-17 -10 -40.5 -23.5t-50 -25.5
t-53.5 -20t-50 -8q-75 0 -109 37.5t-34 114.5q0 41 9.5 68t29.5 43.5t51.5 23.5t75.5 7q15 0 24 -3l112 -50v13.5t1 12.5q-1 78 -33 112.5t-95 34.5q-28 0 -51 -6t-37 -12l-20 46q16 9 48.5 18.5t72.5 9.5zM206 57q18 0 39.5 5t43 13t43 18t39.5 20q-13 33 -16 82l-121 49
q-68 0 -94 -19t-26 -71q0 -31 8 -50t20.5 -29.5t29 -14t34.5 -3.5zM540 409q-23 0 -44 -8.5t-37.5 -27.5t-27.5 -48.5t-13 -72.5l232 3q0 81 -27 117.5t-83 36.5z" />
    <glyph glyph-name="ccedilla" unicode="&#xe7;" horiz-adv-x="429" 
d="M243 -172q-34 0 -60.5 7t-42.5 19l15 39q14 -6 37 -12.5t43 -6.5q9 0 18.5 1.5t17.5 4.5t13.5 8t5.5 12q0 14 -12 19.5t-29 10.5q-23 5 -32 19.5t-11 50.5q-40 5 -68.5 24.5t-46.5 50t-26.5 69.5t-8.5 83q0 128 45 186.5t136 58.5q31 0 54 -3t39.5 -7.5t28.5 -11
t22 -13.5l-18 -60q-17 8 -44 16.5t-69 8.5q-29 0 -52.5 -9t-40 -29.5t-25 -53.5t-8.5 -82q0 -32 6 -61t20.5 -50.5t37 -34t55.5 -12.5q38 0 70.5 7.5t51.5 18.5l14 -64q-18 -11 -47 -20.5t-70 -11.5q2 -18 7 -27t18 -13q24 -8 38 -21.5t14 -42.5q0 -17 -8 -29.5t-21.5 -21
t-31 -13t-35.5 -4.5z" />
    <glyph glyph-name="egrave" unicode="&#xe8;" horiz-adv-x="465" 
d="M117 203q3 -40 13 -67.5t26.5 -45t39.5 -25t50 -7.5q54 0 90 13.5t62 29.5l21 -47q-15 -10 -32 -19.5t-38 -17t-48 -12.5t-63 -5q-39 0 -73 12.5t-59 40t-39 72.5t-14 111q0 65 16 110t42 72.5t59.5 39.5t68.5 12q85 0 127.5 -53t42.5 -167q0 -25 -10 -36t-26 -11h-256z
M240 409q-23 0 -44.5 -8.5t-38 -27t-27 -47.5t-13.5 -71l233 3q0 81 -27 116t-83 35zM291 526l-126 121l47 32l114 -123z" />
    <glyph glyph-name="eacute" unicode="&#xe9;" horiz-adv-x="465" 
d="M117 203q3 -40 13 -67.5t26.5 -45t39.5 -25t50 -7.5q54 0 90 13.5t62 29.5l21 -47q-15 -10 -32 -19.5t-38 -17t-48 -12.5t-63 -5q-39 0 -73 12.5t-59 40t-39 72.5t-14 111q0 65 16 110t42 72.5t59.5 39.5t68.5 12q85 0 127.5 -53t42.5 -167q0 -25 -10 -36t-26 -11h-256z
M240 409q-23 0 -44.5 -8.5t-38 -27t-27 -47.5t-13.5 -71l233 3q0 81 -27 116t-83 35zM153 557l127 118l42 -36l-137 -113z" />
    <glyph glyph-name="ecircumflex" unicode="&#xea;" horiz-adv-x="465" 
d="M117 203q3 -40 13 -67.5t26.5 -45t39.5 -25t50 -7.5q54 0 90 13.5t62 29.5l21 -47q-15 -10 -32 -19.5t-38 -17t-48 -12.5t-63 -5q-39 0 -73 12.5t-59 40t-39 72.5t-14 111q0 65 16 110t42 72.5t59.5 39.5t68.5 12q85 0 127.5 -53t42.5 -167q0 -25 -10 -36t-26 -11h-256z
M240 409q-23 0 -44.5 -8.5t-38 -27t-27 -47.5t-13.5 -71l233 3q0 81 -27 116t-83 35zM248 674l121 -102l-42 -30l-83 70l-87 -69l-38 31z" />
    <glyph glyph-name="edieresis" unicode="&#xeb;" horiz-adv-x="465" 
d="M117 203q3 -40 13 -67.5t26.5 -45t39.5 -25t50 -7.5q54 0 90 13.5t62 29.5l21 -47q-15 -10 -32 -19.5t-38 -17t-48 -12.5t-63 -5q-39 0 -73 12.5t-59 40t-39 72.5t-14 111q0 65 16 110t42 72.5t59.5 39.5t68.5 12q85 0 127.5 -53t42.5 -167q0 -25 -10 -36t-26 -11h-256z
M240 409q-23 0 -44.5 -8.5t-38 -27t-27 -47.5t-13.5 -71l233 3q0 81 -27 116t-83 35zM102 583q0 20 13 33t30 13q20 0 32.5 -13t12.5 -33q0 -17 -12.5 -30.5t-32.5 -13.5q-17 0 -30 13.5t-13 30.5zM294 583q0 20 13 33t30 13q20 0 32.5 -13t12.5 -33q0 -17 -12.5 -30.5
t-32.5 -13.5q-17 0 -30 13.5t-13 30.5z" />
    <glyph glyph-name="igrave" unicode="&#xec;" horiz-adv-x="228" 
d="M80 0v470h68v-470h-68zM160 526l-126 121l47 32l114 -123z" />
    <glyph glyph-name="iacute" unicode="&#xed;" horiz-adv-x="228" 
d="M80 0v470h68v-470h-68zM30 557l127 118l42 -36l-137 -113z" />
    <glyph glyph-name="icircumflex" unicode="&#xee;" horiz-adv-x="228" 
d="M80 0v470h68v-470h-68zM118 674l121 -102l-42 -30l-83 70l-87 -69l-38 31z" />
    <glyph glyph-name="idieresis" unicode="&#xef;" horiz-adv-x="228" 
d="M80 0v470h68v-470h-68zM-26 583q0 20 13 33t30 13q20 0 32.5 -13t12.5 -33q0 -17 -12.5 -30.5t-32.5 -13.5q-17 0 -30 13.5t-13 30.5zM166 583q0 20 13 33t30 13q20 0 32.5 -13t12.5 -33q0 -17 -12.5 -30.5t-32.5 -13.5q-17 0 -30 13.5t-13 30.5z" />
    <glyph glyph-name="eth" unicode="&#xf0;" horiz-adv-x="489" 
d="M190 711l114 -60l63 37l27 -46l-53 -27q42 -78 61.5 -162.5t21.5 -186.5q0 -141 -43.5 -205t-132.5 -64q-53 0 -89.5 15t-59 44t-32.5 73t-10 103q0 117 41 177.5t140 60.5q8 0 16 -1t14 -4l77 -35q-8 43 -21.5 83.5t-32.5 76.5l-80 -41l-19 37l63 37l-99 57zM363 263
q0 47 -6 97l-110 47q-35 0 -58.5 -12.5t-37.5 -35t-20 -54.5t-6 -71q0 -42 5.5 -74t20 -53.5t38 -33t59.5 -11.5q59 0 87 47.5t28 153.5z" />
    <glyph glyph-name="ntilde" unicode="&#xf1;" horiz-adv-x="496" 
d="M144 393l69 58q14 11 28 15t31 4q45 0 75 -10t48.5 -31.5t26.5 -55t8 -79.5v-294h-70v276q0 36 -5.5 60.5t-18.5 39t-35 21t-54 6.5l-103 -83v-320h-67v466l67 9v-82zM307 540q-15 0 -29 6t-28 12.5t-28.5 12.5t-30.5 6q-20 0 -39.5 -8.5t-31.5 -18.5l-22 36
q15 12 39.5 24t50.5 12q16 0 30.5 -6t29 -13t29.5 -13t32 -6q24 0 38 6t27 17l24 -29q-14 -14 -36 -26t-55 -12z" />
    <glyph glyph-name="ograve" unicode="&#xf2;" horiz-adv-x="478" 
d="M247 -3q-53 0 -89.5 15t-59 44t-32.5 73t-10 103q0 118 45 179.5t146 61.5q93 0 134.5 -60.5t41.5 -181.5q0 -113 -43 -173.5t-133 -60.5zM245 409q-34 0 -57 -13t-37.5 -36t-21 -56t-6.5 -72q0 -41 6 -73t20 -54t37.5 -33.5t58.5 -11.5q60 0 85.5 45.5t25.5 125.5
q0 83 -25 130.5t-86 47.5zM286 526l-126 121l47 32l114 -123z" />
    <glyph glyph-name="oacute" unicode="&#xf3;" horiz-adv-x="478" 
d="M247 -3q-53 0 -89.5 15t-59 44t-32.5 73t-10 103q0 118 45 179.5t146 61.5q93 0 134.5 -60.5t41.5 -181.5q0 -113 -43 -173.5t-133 -60.5zM245 409q-34 0 -57 -13t-37.5 -36t-21 -56t-6.5 -72q0 -41 6 -73t20 -54t37.5 -33.5t58.5 -11.5q60 0 85.5 45.5t25.5 125.5
q0 83 -25 130.5t-86 47.5zM155 557l127 118l42 -36l-137 -113z" />
    <glyph glyph-name="ocircumflex" unicode="&#xf4;" horiz-adv-x="478" 
d="M247 -3q-53 0 -89.5 15t-59 44t-32.5 73t-10 103q0 118 45 179.5t146 61.5q93 0 134.5 -60.5t41.5 -181.5q0 -113 -43 -173.5t-133 -60.5zM245 409q-34 0 -57 -13t-37.5 -36t-21 -56t-6.5 -72q0 -41 6 -73t20 -54t37.5 -33.5t58.5 -11.5q60 0 85.5 45.5t25.5 125.5
q0 83 -25 130.5t-86 47.5zM245 674l121 -102l-42 -30l-83 70l-87 -69l-38 31z" />
    <glyph glyph-name="otilde" unicode="&#xf5;" horiz-adv-x="478" 
d="M247 -3q-53 0 -89.5 15t-59 44t-32.5 73t-10 103q0 118 45 179.5t146 61.5q93 0 134.5 -60.5t41.5 -181.5q0 -113 -43 -173.5t-133 -60.5zM245 409q-34 0 -57 -13t-37.5 -36t-21 -56t-6.5 -72q0 -41 6 -73t20 -54t37.5 -33.5t58.5 -11.5q60 0 85.5 45.5t25.5 125.5
q0 83 -25 130.5t-86 47.5zM300 540q-15 0 -29 6t-28 12.5t-28.5 12.5t-30.5 6q-20 0 -39.5 -8.5t-31.5 -18.5l-22 36q15 12 39.5 24t50.5 12q16 0 30.5 -6t29 -13t29.5 -13t32 -6q24 0 38 6t27 17l24 -29q-14 -14 -36 -26t-55 -12z" />
    <glyph glyph-name="odieresis" unicode="&#xf6;" horiz-adv-x="478" 
d="M247 -3q-53 0 -89.5 15t-59 44t-32.5 73t-10 103q0 118 45 179.5t146 61.5q93 0 134.5 -60.5t41.5 -181.5q0 -113 -43 -173.5t-133 -60.5zM245 409q-34 0 -57 -13t-37.5 -36t-21 -56t-6.5 -72q0 -41 6 -73t20 -54t37.5 -33.5t58.5 -11.5q60 0 85.5 45.5t25.5 125.5
q0 83 -25 130.5t-86 47.5zM99 583q0 20 13 33t30 13q20 0 32.5 -13t12.5 -33q0 -17 -12.5 -30.5t-32.5 -13.5q-17 0 -30 13.5t-13 30.5zM291 583q0 20 13 33t30 13q20 0 32.5 -13t12.5 -33q0 -17 -12.5 -30.5t-32.5 -13.5q-17 0 -30 13.5t-13 30.5z" />
    <glyph glyph-name="divide" unicode="&#xf7;" horiz-adv-x="466" 
d="M197 380q0 18 12 29.5t28 11.5q17 0 28.5 -11.5t11.5 -29.5q0 -16 -11.5 -28t-28.5 -12q-16 0 -28 12t-12 28zM197 101q0 18 12 29.5t28 11.5q17 0 28.5 -11.5t11.5 -29.5q0 -16 -11.5 -28t-28.5 -12q-16 0 -28 12t-12 28zM50 268h364v-53h-364v53z" />
    <glyph glyph-name="oslash" unicode="&#xf8;" horiz-adv-x="478" 
d="M142 -85l22 94q-60 21 -84 76.5t-24 146.5q0 118 45 179.5t146 61.5q8 0 16 -0.5t16 -1.5l21 86l66 -15l-24 -93q42 -26 61.5 -80t19.5 -138q0 -113 -43 -173.5t-133 -60.5h-9t-8 1l-24 -99zM245 409q-34 0 -57 -13t-37.5 -36t-21 -56t-6.5 -72q0 -41 6 -73t20 -54
t37.5 -33.5t58.5 -11.5q60 0 85.5 45.5t25.5 125.5q0 83 -25 130.5t-86 47.5z" />
    <glyph glyph-name="ugrave" unicode="&#xf9;" horiz-adv-x="488" 
d="M353 58l-72 -46q-6 -4 -17 -8t-27 -4q-92 0 -131.5 43.5t-39.5 137.5v289h70v-271q0 -39 7 -64t21.5 -39.5t36 -19.5t50.5 -5l102 60v339h68v-470h-68v58zM292 526l-126 121l47 32l114 -123z" />
    <glyph glyph-name="uacute" unicode="&#xfa;" horiz-adv-x="488" 
d="M353 58l-72 -46q-6 -4 -17 -8t-27 -4q-92 0 -131.5 43.5t-39.5 137.5v289h70v-271q0 -39 7 -64t21.5 -39.5t36 -19.5t50.5 -5l102 60v339h68v-470h-68v58zM159 557l127 118l42 -36l-137 -113z" />
    <glyph glyph-name="ucircumflex" unicode="&#xfb;" horiz-adv-x="488" 
d="M353 58l-72 -46q-6 -4 -17 -8t-27 -4q-92 0 -131.5 43.5t-39.5 137.5v289h70v-271q0 -39 7 -64t21.5 -39.5t36 -19.5t50.5 -5l102 60v339h68v-470h-68v58zM250 674l121 -102l-42 -30l-83 70l-87 -69l-38 31z" />
    <glyph glyph-name="udieresis" unicode="&#xfc;" horiz-adv-x="488" 
d="M353 58l-72 -46q-6 -4 -17 -8t-27 -4q-92 0 -131.5 43.5t-39.5 137.5v289h70v-271q0 -39 7 -64t21.5 -39.5t36 -19.5t50.5 -5l102 60v339h68v-470h-68v58zM296 583q0 20 13 33t30 13q20 0 32.5 -13t12.5 -33q0 -17 -12.5 -30.5t-32.5 -13.5q-17 0 -30 13.5t-13 30.5z
M104 583q0 20 13 33t30 13q20 0 32.5 -13t12.5 -33q0 -17 -12.5 -30.5t-32.5 -13.5q-17 0 -30 13.5t-13 30.5z" />
    <glyph glyph-name="yacute" unicode="&#xfd;" horiz-adv-x="471" 
d="M89 473l143 -384l147 384l71 -8l-235 -576q-14 -30 -29 -50t-33.5 -31.5t-43 -16t-55.5 -5.5v68q25 0 42.5 5.5t30.5 16t23 27t20 38.5l32 75l-182 449zM152 557l127 118l42 -36l-137 -113z" />
    <glyph glyph-name="thorn" unicode="&#xfe;" horiz-adv-x="517" 
d="M85 704l67 9v-330l75 72q7 6 16 10.5t26 4.5q48 0 84 -10.5t60 -35.5t35.5 -66.5t11.5 -102.5q0 -125 -41.5 -190t-128.5 -65q-36 0 -71.5 12.5t-66.5 41.5v-259l-67 -6v915zM152 303v-173q31 -31 64 -48t61 -17q34 0 57 15.5t36 41t18.5 59t5.5 69.5q0 48 -9.5 78.5
t-27 47t-43 22.5t-56.5 6z" />
    <glyph glyph-name="ydieresis" unicode="&#xff;" horiz-adv-x="471" 
d="M89 473l143 -384l147 384l71 -8l-235 -576q-14 -30 -29 -50t-33.5 -31.5t-43 -16t-55.5 -5.5v68q25 0 42.5 5.5t30.5 16t23 27t20 38.5l32 75l-182 449zM288 583q0 20 13 33t30 13q20 0 32.5 -13t12.5 -33q0 -17 -12.5 -30.5t-32.5 -13.5q-17 0 -30 13.5t-13 30.5z
M96 583q0 20 13 33t30 13q20 0 32.5 -13t12.5 -33q0 -17 -12.5 -30.5t-32.5 -13.5q-17 0 -30 13.5t-13 30.5z" />
    <glyph glyph-name="OE" unicode="&#x152;" horiz-adv-x="882" 
d="M311 -4q-119 0 -182.5 86.5t-63.5 267.5q0 171 64 262.5t182 91.5q11 0 22 -1t22 -3h468v-70h-349q32 -39 50.5 -97.5t22.5 -136.5h220v-70h-218q-5 -178 -75 -260h353v-66h-469q-11 -2 -22.5 -3t-24.5 -1zM311 633q-86 0 -130 -73t-44 -210q0 -140 43 -211.5t131 -71.5
q83 0 124.5 71.5t41.5 211.5q0 139 -42.5 211t-123.5 72z" />
    <glyph glyph-name="oe" unicode="&#x153;" horiz-adv-x="771" 
d="M247 -3q-53 0 -89.5 15t-59 44t-32.5 73t-10 103q0 118 45 179.5t146 61.5q106 0 148 -84q26 44 66 62.5t84 18.5q85 0 127.5 -53t42.5 -167q0 -25 -10 -36t-26 -11h-256q3 -40 13 -67.5t26.5 -45t39.5 -25t50 -7.5q54 0 90 13.5t62 29.5l21 -47q-15 -10 -32 -19.5
t-38 -17t-48 -12.5t-63 -5q-48 0 -87 18t-64 61q-43 -82 -146 -82zM245 409q-34 0 -57 -13t-37.5 -36t-21 -56t-6.5 -72q0 -41 6 -73t20 -54t37.5 -33.5t58.5 -11.5q60 0 85.5 45.5t25.5 125.5q0 83 -25 130.5t-86 47.5zM546 409q-23 0 -44.5 -8.5t-38 -27t-27 -47.5
t-13.5 -71l233 3q0 81 -27 116t-83 35z" />
    <glyph glyph-name="Scaron" unicode="&#x160;" horiz-adv-x="562" 
d="M275 -2q-87 0 -139 22.5t-86 59.5l27 59q36 -30 82 -49.5t115 -19.5q31 0 61 6t53.5 20.5t37.5 38.5t14 60q0 29 -11.5 50.5t-34 38t-56 30t-78.5 27.5q-44 12 -78.5 28t-58.5 39t-37 54.5t-13 74.5q0 49 16 81t43 51t64 26.5t79 7.5q45 0 78.5 -7t58.5 -17.5t42 -23.5
t30 -25l-33 -58q-15 12 -32 22t-38 17.5t-47 11.5t-59 4q-23 0 -46 -3t-42 -13t-31 -28.5t-12 -49.5q0 -26 9.5 -46t27 -35t42 -26.5t55.5 -20.5q54 -15 97.5 -31t73.5 -38.5t46.5 -56t16.5 -82.5q0 -58 -18.5 -96.5t-51 -61t-75.5 -32t-92 -9.5zM280 762l-120 102l41 30
l83 -70l88 69l37 -31z" />
    <glyph glyph-name="scaron" unicode="&#x161;" horiz-adv-x="433" 
d="M217 -1q-68 0 -108 13.5t-63 27.5l19 54q21 -14 61.5 -23.5t88.5 -9.5q55 0 84.5 16.5t29.5 51.5q0 21 -8 35t-23.5 24t-38.5 17.5t-53 16.5q-70 20 -107 48t-37 83q0 33 12 55.5t32.5 37t48 20.5t58.5 6q56 0 90.5 -12.5t58.5 -28.5l-20 -53q-19 12 -53.5 21t-75.5 9
q-16 0 -32.5 -2t-30 -8.5t-22.5 -18t-9 -29.5q0 -32 28.5 -47.5t88.5 -31.5q39 -11 68 -22t47.5 -26.5t28 -38t9.5 -56.5q0 -67 -42 -98t-130 -31zM212 532l-120 102l41 30l83 -70l88 69l37 -31z" />
    <glyph glyph-name="Ydieresis" unicode="&#x178;" horiz-adv-x="545" 
d="M530 694l-222 -411v-283h-70v285l-224 409l73 13l185 -340l181 340zM324 813q0 20 13 33t30 13q20 0 32.5 -13t12.5 -33q0 -17 -12.5 -30.5t-32.5 -13.5q-17 0 -30 13.5t-13 30.5zM132 813q0 20 13 33t30 13q20 0 32.5 -13t12.5 -33q0 -17 -12.5 -30.5t-32.5 -13.5
q-17 0 -30 13.5t-13 30.5z" />
    <glyph glyph-name="Zcaron" unicode="&#x17d;" horiz-adv-x="568" 
d="M67 700h438v-75l-373 -553h394v-72h-475l-9 72l374 553h-342zM282 762l-120 102l41 30l83 -70l88 69l37 -31z" />
    <glyph glyph-name="zcaron" unicode="&#x17e;" horiz-adv-x="457" 
d="M62 470h343v-63l-280 -343h294v-64h-373l-7 64l280 343h-251zM228 532l-120 102l41 30l83 -70l88 69l37 -31z" />
    <glyph glyph-name="florin" unicode="&#x192;" horiz-adv-x="345" 
d="M54 352h250l-5 -41h-117l-26 -255q-4 -36 -13 -72t-27.5 -65t-48.5 -47.5t-75 -21.5l-52 -3l7 64l44 7q27 3 45 16t29 32t16 43t8 51l26 251h-65zM66 450h63l6 52q3 36 12 72t27.5 65t48.5 47.5t75 21.5l52 3l-7 -65l-43 -7q-28 -3 -46 -15.5t-29 -31.5t-16 -43t-8 -51
l-5 -48h119l-4 -41h-249z" />
    <glyph glyph-name="circumflex" unicode="&#x2c6;" horiz-adv-x="492" 
d="M248 674l121 -102l-42 -30l-83 70l-87 -69l-38 31z" />
    <glyph glyph-name="tilde" unicode="&#x2dc;" horiz-adv-x="505" 
d="M312 540q-15 0 -29 6t-28 12.5t-28.5 12.5t-30.5 6q-20 0 -39.5 -8.5t-31.5 -18.5l-22 36q15 12 39.5 24t50.5 12q16 0 30.5 -6t29 -13t29.5 -13t32 -6q24 0 38 6t27 17l24 -29q-14 -14 -36 -26t-55 -12z" />
    <glyph glyph-name="endash" unicode="&#x2013;" horiz-adv-x="486" 
d="M43 278h401v-60h-401v60z" />
    <glyph glyph-name="emdash" unicode="&#x2014;" horiz-adv-x="652" 
d="M43 278h555v-60h-555v60z" />
    <glyph glyph-name="quoteleft" unicode="&#x2018;" horiz-adv-x="156" 
d="M133 568q0 -23 -15 -37t-35 -14q-23 0 -37 16.5t-14 37.5q0 42 16 77.5t38 64.5l37 -20q-11 -20 -18 -43t-8 -38q16 -2 26 -16t10 -28z" />
    <glyph glyph-name="quoteright" unicode="&#x2019;" horiz-adv-x="157" 
d="M29 654q0 23 15 37t35 14q23 0 37 -16.5t14 -37.5q0 -42 -16 -77.5t-38 -64.5l-37 20q11 20 18 43t8 38q-16 2 -26 16t-10 28z" />
    <glyph glyph-name="quotesinglbase" unicode="&#x201a;" horiz-adv-x="157" 
d="M29 52q0 23 15 37t35 14q23 0 37 -16.5t14 -37.5q0 -42 -16 -77.5t-38 -64.5l-37 20q11 20 18 43t8 38q-16 2 -26 16t-10 28z" />
    <glyph glyph-name="quotedblleft" unicode="&#x201c;" horiz-adv-x="276" 
d="M132 568q0 -23 -15 -37t-35 -14q-23 0 -37 16.5t-14 37.5q0 42 16 77.5t38 64.5l37 -20q-11 -20 -18 -43t-8 -38q16 -2 26 -16t10 -28zM252 568q0 -23 -15 -37t-35 -14q-23 0 -37 16.5t-14 37.5q0 42 16 77.5t38 64.5l37 -20q-11 -20 -18 -43t-8 -38q16 -2 26 -16t10 -28
z" />
    <glyph glyph-name="quotedblright" unicode="&#x201d;" horiz-adv-x="273" 
d="M29 654q0 23 15 37t35 14q23 0 37 -16.5t14 -37.5q0 -42 -16 -77.5t-38 -64.5l-37 20q11 20 18 43t8 38q-16 2 -26 16t-10 28zM150 654q0 23 15 37t35 14q23 0 37 -16.5t14 -37.5q0 -42 -16 -77.5t-38 -64.5l-37 20q11 20 18 43t8 38q-16 2 -26 16t-10 28z" />
    <glyph glyph-name="quotedblbase" unicode="&#x201e;" horiz-adv-x="275" 
d="M26 52q0 23 15 37t35 14q23 0 37 -16.5t14 -37.5q0 -42 -16 -77.5t-38 -64.5l-37 20q11 20 18 43t8 38q-16 2 -26 16t-10 28zM152 52q0 23 15 37t35 14q23 0 37 -16.5t14 -37.5q0 -42 -16 -77.5t-38 -64.5l-37 20q11 20 18 43t8 38q-16 2 -26 16t-10 28z" />
    <glyph glyph-name="dagger" unicode="&#x2020;" horiz-adv-x="448" 
d="M39 581h152v179h66v-179h151v-60h-151v-629h-66v629h-152v60z" />
    <glyph glyph-name="daggerdbl" unicode="&#x2021;" horiz-adv-x="452" 
d="M39 581h152v179h66v-179h151v-60h-151v-374h151v-60h-151v-195h-66v195h-152v60h152v374h-152v60z" />
    <glyph glyph-name="bullet" unicode="&#x2022;" horiz-adv-x="287" 
d="M62 250q0 37 24.5 60.5t56.5 23.5q37 0 59.5 -23.5t22.5 -60.5q0 -32 -22.5 -56.5t-59.5 -24.5q-16 0 -30.5 6.5t-26 18t-18 26t-6.5 30.5z" />
    <glyph glyph-name="ellipsis" unicode="&#x2026;" horiz-adv-x="521" 
d="M41 44q0 20 13.5 33t30.5 13q20 0 32 -13t12 -33q0 -17 -12 -30.5t-32 -13.5q-17 0 -30.5 13.5t-13.5 30.5zM215 44q0 20 13 33t30 13q20 0 32.5 -13t12.5 -33q0 -17 -12.5 -30.5t-32.5 -13.5q-17 0 -30 13.5t-13 30.5zM388 44q0 20 13.5 33t30.5 13q20 0 32.5 -13
t12.5 -33q0 -17 -12.5 -30.5t-32.5 -13.5q-17 0 -30.5 13.5t-13.5 30.5z" />
    <glyph glyph-name="perthousand" unicode="&#x2030;" horiz-adv-x="1048" 
d="M880 0q-69 0 -100 48t-31 136q0 94 30 146.5t101 52.5q72 0 99 -52.5t27 -146.5q0 -88 -30 -136t-96 -48zM879 333q-42 0 -60 -37.5t-18 -109.5q0 -66 17.5 -100.5t59.5 -34.5q39 0 57.5 36t18.5 100q0 73 -17 109.5t-58 36.5zM233 0h-71l353 700h70zM174 300
q-69 0 -100 48t-31 136q0 94 30 146.5t101 52.5q72 0 99 -52.5t27 -146.5q0 -88 -30 -136t-96 -48zM173 633q-42 0 -60 -37.5t-18 -109.5q0 -66 17.5 -100.5t59.5 -34.5q39 0 57.5 36t18.5 100q0 73 -17 109.5t-58 36.5zM570 0q-69 0 -100 48t-31 136q0 94 30 146.5
t101 52.5q72 0 99 -52.5t27 -146.5q0 -88 -30 -136t-96 -48zM569 333q-42 0 -60 -37.5t-18 -109.5q0 -66 17.5 -100.5t59.5 -34.5q39 0 57.5 36t18.5 100q0 73 -17 109.5t-58 36.5z" />
    <glyph glyph-name="guilsinglleft" unicode="&#x2039;" horiz-adv-x="272" 
d="M184 78l-156 169l153 164l47 -43l-113 -122l113 -122z" />
    <glyph glyph-name="guilsinglright" unicode="&#x203a;" horiz-adv-x="265" 
d="M79 414l156 -169l-153 -164l-47 43l113 122l-113 122z" />
    <glyph glyph-name="Euro" unicode="&#x20ac;" horiz-adv-x="539" 
d="M18 314h371v-41h-241q4 -44 16 -80.5t34 -63t55.5 -41.5t79.5 -15q25 0 45 2.5t36 8.5t30 15.5t28 22.5l31 -64q-30 -29 -68 -45t-102 -16q-132 0 -193.5 72t-68.5 204h-53v41zM18 412h53q4 78 23 133.5t51 90.5t77 51.5t100 16.5q29 0 51.5 -3.5t41.5 -10t35.5 -16.5
t34.5 -22l-30 -64q-28 20 -58 30.5t-75 10.5q-79 0 -123.5 -50.5t-51.5 -166.5h242v-41h-371v41z" />
    <glyph glyph-name="trademark" unicode="&#x2122;" horiz-adv-x="714" 
d="M296 627h-107v-317h-47v317h-105v50h259v-50zM609 309l-31 276l-76 -195h-38l-78 196l-28 -277l-48 1l36 367h50l86 -223l89 223h46l41 -367z" />
    </font>
</defs>
</svg>
